<?xml version="1.0" encoding="UTF-8"?>
<!DOCTYPE svg PUBLIC "-//W3C//DTD SVG 1.1//EN" "http://www.w3.org/Graphics/SVG/1.1/DTD/svg11.dtd">
<svg xmlns="http://www.w3.org/2000/svg" version="1.1" width="600px" height="347px" style="shape-rendering:geometricPrecision; text-rendering:geometricPrecision; image-rendering:optimizeQuality; fill-rule:evenodd; clip-rule:evenodd" xmlns:xlink="http://www.w3.org/1999/xlink">
<g><path style="opacity:0.322" fill="#efb689" d="M 47.5,35.5 C 50.4282,35.5651 53.0948,36.2318 55.5,37.5C 53.4086,37.6816 51.4086,37.3482 49.5,36.5C 48.7025,36.9569 48.3691,37.6236 48.5,38.5C 47.6618,38.1583 47.3284,37.4916 47.5,36.5C 47.5,36.1667 47.5,35.8333 47.5,35.5 Z"/></g>
<g><path style="opacity:0.255" fill="#f2b891" d="M 57.5,37.5 C 59.403,37.7959 61.0697,38.4625 62.5,39.5C 62.6716,40.4916 62.3382,41.1583 61.5,41.5C 60.3748,40.0001 59.0414,38.6668 57.5,37.5 Z"/></g>
<g><path style="opacity:0.959" fill="#ef8c48" d="M 55.5,37.5 C 56.1667,37.5 56.8333,37.5 57.5,37.5C 59.0414,38.6668 60.3748,40.0001 61.5,41.5C 57.0394,40.9678 52.7061,39.9678 48.5,38.5C 48.3691,37.6236 48.7025,36.9569 49.5,36.5C 51.4086,37.3482 53.4086,37.6816 55.5,37.5 Z"/></g>
<g><path style="opacity:1" fill="#656266" d="M 47.5,36.5 C 47.3284,37.4916 47.6618,38.1583 48.5,38.5C 52.7061,39.9678 57.0394,40.9678 61.5,41.5C 62.3382,41.1583 62.6716,40.4916 62.5,39.5C 66.1595,39.1588 69.4928,39.8255 72.5,41.5C 72.6716,42.4916 72.3382,43.1583 71.5,43.5C 60.5,43.5 49.5,43.5 38.5,43.5C 39.3864,38.627 42.3864,36.2937 47.5,36.5 Z"/></g>
<g><path style="opacity:1" fill="#9d999b" d="M 47.5,35.5 C 47.5,35.8333 47.5,36.1667 47.5,36.5C 42.3864,36.2937 39.3864,38.627 38.5,43.5C 49.5,43.5 60.5,43.5 71.5,43.5C 66.0101,44.1661 60.3435,44.4995 54.5,44.5C 48.4585,44.4955 42.7918,43.8288 37.5,42.5C 37.6208,36.0041 40.9541,33.6708 47.5,35.5 Z"/></g>
<g><path style="opacity:0.263" fill="#948f91" d="M 418.5,52.5 C 417.833,52.8333 417.167,53.1667 416.5,53.5C 417.324,50.2356 417.658,46.9023 417.5,43.5C 415.077,43.5764 413.244,42.5764 412,40.5C 409.708,41.9305 407.208,42.7639 404.5,43C 403.382,44.0736 402.382,45.2402 401.5,46.5C 399.696,46.0143 398.029,45.681 396.5,45.5C 398.733,44.6154 400.733,43.2821 402.5,41.5C 407.243,40.9028 411.576,39.5695 415.5,37.5C 415.373,40.245 416.54,42.245 419,43.5C 419.736,46.592 419.569,49.592 418.5,52.5 Z"/></g>
<g><path style="opacity:1" fill="#bcb8b6" d="M 241.5,48.5 C 250.167,48.5 258.833,48.5 267.5,48.5C 236.851,50.4925 205.851,51.1591 174.5,50.5C 128.832,50.3333 83.1655,50.5 37.5,51C 36.8906,52.9483 36.224,54.7816 35.5,56.5C 35.298,54.0504 35.6314,51.717 36.5,49.5C 38.1042,48.713 38.7709,47.3797 38.5,45.5C 73.5016,45.3333 108.502,45.5 143.5,46C 176.155,47.3378 208.822,48.1711 241.5,48.5 Z"/></g>
<g><path style="opacity:0.316" fill="#d7d4d3" d="M 72.5,41.5 C 128.923,44.0426 185.256,46.376 241.5,48.5C 208.822,48.1711 176.155,47.3378 143.5,46C 108.502,45.5 73.5016,45.3333 38.5,45.5C 38.7709,47.3797 38.1042,48.713 36.5,49.5C 36.1984,46.9407 36.5318,44.6074 37.5,42.5C 42.7918,43.8288 48.4585,44.4955 54.5,44.5C 60.3435,44.4995 66.0101,44.1661 71.5,43.5C 72.3382,43.1583 72.6716,42.4916 72.5,41.5 Z"/></g>
<g><path style="opacity:1" fill="#a3a1a2" d="M 360.5,47.5 C 374.975,48.1172 389.308,48.7839 403.5,49.5C 390.5,49.5 377.5,49.5 364.5,49.5C 364.719,50.675 364.386,51.675 363.5,52.5C 362.68,50.6812 361.68,49.0145 360.5,47.5 Z"/></g>
<g><path style="opacity:0.999" fill="#c9c9c8" d="M 360.5,47.5 C 361.68,49.0145 362.68,50.6812 363.5,52.5C 364.386,51.675 364.719,50.675 364.5,49.5C 377.5,49.5 390.5,49.5 403.5,49.5C 404.234,50.8775 404.901,52.3775 405.5,54C 409.255,54.7554 412.922,54.5887 416.5,53.5C 417.167,53.1667 417.833,52.8333 418.5,52.5C 420.056,56.8917 422.889,60.225 427,62.5C 429.799,68.4867 434.132,72.8201 440,75.5C 445.875,72.0687 452.208,69.7353 459,68.5C 463.399,69.0375 467.733,69.7042 472,70.5C 472.743,72.4406 472.576,74.2739 471.5,76C 461.522,75.9381 452.522,78.7714 444.5,84.5C 443.883,84.3893 443.383,84.056 443,83.5C 439.135,87.2845 437.301,91.9512 437.5,97.5C 428.581,87.648 423.414,75.9813 422,62.5C 421.659,70.8008 422.993,78.8008 426,86.5C 429.381,90.375 432.547,94.375 435.5,98.5C 435.441,100.186 435.108,102.186 434.5,104.5C 437.013,108.181 438.68,112.347 439.5,117C 439.257,117.902 438.923,118.735 438.5,119.5C 436.451,119.294 436.117,118.461 437.5,117C 435.17,115.477 432.836,114.977 430.5,115.5C 429.833,114.833 429.167,114.167 428.5,113.5C 427.108,114.605 425.941,115.939 425,117.5C 424.667,117.167 424.333,116.833 424,116.5C 423.544,117.744 424.044,118.577 425.5,119C 424.716,121.582 423.049,123.249 420.5,124C 421.5,125 422.5,126 423.5,127C 422.551,127.617 421.718,127.451 421,126.5C 420.833,127 420.667,127.5 420.5,128C 422.064,129.605 422.564,131.438 422,133.5C 419.863,134.479 418.029,135.812 416.5,137.5C 417.85,139.02 419.183,139.687 420.5,139.5C 418.313,144.272 415.646,144.605 412.5,140.5C 413.274,139.289 414.107,139.289 415,140.5C 413.953,137.74 414.786,135.573 417.5,134C 413.845,132.525 414.178,131.191 418.5,130C 416.924,129.56 415.59,128.727 414.5,127.5C 413.692,127.808 413.025,128.308 412.5,129C 408.833,129.333 405.167,129.667 401.5,130C 400.411,134.2 399.244,138.7 398,143.5C 397.501,138.511 397.334,133.511 397.5,128.5C 398.822,128.67 399.989,128.337 401,127.5C 401.655,125.372 402.489,123.372 403.5,121.5C 403.693,116.776 405.693,113.109 409.5,110.5C 415.13,109.742 420.796,109.576 426.5,110C 429.296,108.581 431.296,106.415 432.5,103.5C 430.604,102.534 428.604,102.201 426.5,102.5C 425.005,102.415 424.005,103.081 423.5,104.5C 419.217,105.492 414.884,105.826 410.5,105.5C 410.272,101.61 410.606,97.7762 411.5,94C 408.952,90.2882 406.619,86.4549 404.5,82.5C 403.453,83.9223 403.453,85.4223 404.5,87C 402.915,89.2562 402.248,91.7562 402.5,94.5C 402.5,98.1667 402.5,101.833 402.5,105.5C 402.354,109.519 402.021,113.519 401.5,117.5C 400.539,115.735 400.205,113.735 400.5,111.5C 400.666,104.492 400.5,97.4921 400,90.5C 399.4,88.0904 398.234,86.0904 396.5,84.5C 395.864,79.8345 395.031,75.1678 394,70.5C 393.536,71.0944 393.369,71.7611 393.5,72.5C 391.896,71.713 391.229,70.3797 391.5,68.5C 380.833,68.5 370.167,68.5 359.5,68.5C 359.918,67.7784 360.584,67.2784 361.5,67C 371.849,66.8323 382.183,66.3323 392.5,65.5C 393.853,64.4763 394.52,63.143 394.5,61.5C 365.853,59.5081 336.853,58.8414 307.5,59.5C 316.325,59.0694 324.992,57.4027 333.5,54.5C 331.833,54.1667 330.167,53.8333 328.5,53.5C 311.845,54.259 295.178,54.759 278.5,55C 277.833,56 277.167,57 276.5,58C 279.371,58.1177 282.038,58.7844 284.5,60C 291.074,60.3865 297.408,60.5531 303.5,60.5C 302.662,60.8417 302.328,61.5084 302.5,62.5C 301.539,64.2646 301.205,66.2646 301.5,68.5C 290.5,68.5 279.5,68.5 268.5,68.5C 268.5,67.1667 268.5,65.8333 268.5,64.5C 268.665,61.1501 268.498,57.8168 268,54.5C 267.443,56.6147 266.609,58.6147 265.5,60.5C 237.506,61.6665 209.506,61.8332 181.5,61C 182.381,60.2917 183.047,59.4584 183.5,58.5C 193.5,58.5 203.5,58.5 213.5,58.5C 213.5,56.1667 213.5,53.8333 213.5,51.5C 200.323,51.8288 187.323,51.4955 174.5,50.5C 205.851,51.1591 236.851,50.4925 267.5,48.5C 298.427,47.5081 329.427,47.1747 360.5,47.5 Z"/></g>
<g><path style="opacity:1" fill="#5f5c61" d="M 416.5,53.5 C 412.922,54.5887 409.255,54.7554 405.5,54C 404.901,52.3775 404.234,50.8775 403.5,49.5C 389.308,48.7839 374.975,48.1172 360.5,47.5C 371.046,46.5811 381.713,45.5811 392.5,44.5C 393.736,45.2458 395.07,45.5792 396.5,45.5C 398.029,45.681 399.696,46.0143 401.5,46.5C 402.382,45.2402 403.382,44.0736 404.5,43C 407.208,42.7639 409.708,41.9305 412,40.5C 413.244,42.5764 415.077,43.5764 417.5,43.5C 417.658,46.9023 417.324,50.2356 416.5,53.5 Z"/></g>
<g><path style="opacity:0.953" fill="#8f8a87" d="M 223.5,52.5 C 233.348,52.1729 243.014,52.5062 252.5,53.5C 249.833,53.5 247.167,53.5 244.5,53.5C 244.5,54.5 244.5,55.5 244.5,56.5C 247.167,56.5 249.833,56.5 252.5,56.5C 243.019,56.8186 233.352,56.8186 223.5,56.5C 223.5,55.1667 223.5,53.8333 223.5,52.5 Z"/></g>
<g><path style="opacity:1" fill="#cfcecd" d="M 174.5,50.5 C 187.323,51.4955 200.323,51.8288 213.5,51.5C 213.5,53.8333 213.5,56.1667 213.5,58.5C 203.5,58.5 193.5,58.5 183.5,58.5C 171.167,58.5 158.833,58.5 146.5,58.5C 144.585,58.7845 142.919,58.4511 141.5,57.5C 143.483,57.8432 144.817,57.1765 145.5,55.5C 152.255,55.2066 158.922,55.5399 165.5,56.5C 168.287,57.4767 171.287,57.81 174.5,57.5C 174.5,55.8333 174.5,54.1667 174.5,52.5C 171.5,52.5 168.5,52.5 165.5,52.5C 158.833,52.5 152.167,52.5 145.5,52.5C 142.167,52.5 138.833,52.5 135.5,52.5C 134.539,54.2646 134.205,56.2646 134.5,58.5C 121.492,58.4163 108.492,58.083 95.5,57.5C 95.7845,55.5853 95.4511,53.9187 94.5,52.5C 81.3438,51.5044 68.0105,51.1711 54.5,51.5C 54.5,53.5 54.5,55.5 54.5,57.5C 49.1212,57.7713 43.7879,58.438 38.5,59.5C 38.1667,61.5 37.8333,63.5 37.5,65.5C 50.1492,66.4991 62.8158,66.8324 75.5,66.5C 62.8333,67.1667 50.1667,67.8333 37.5,68.5C 36.8333,68.5 36.1667,68.5 35.5,68.5C 35.6621,66.4727 35.4955,64.4727 35,62.5C 33.1753,67.4419 33.0086,72.4419 34.5,77.5C 34.0651,79.7398 33.3985,81.9065 32.5,84C 33.1854,86.5402 34.0187,89.0402 35,91.5C 36.0113,92.3366 37.1779,92.67 38.5,92.5C 38.5,94.5 37.5,95.5 35.5,95.5C 34.2502,95.4226 33.4169,94.756 33,93.5C 31.0657,82.8436 31.0657,72.1769 33,61.5C 34.883,60.3474 35.7163,58.6807 35.5,56.5C 36.224,54.7816 36.8906,52.9483 37.5,51C 83.1655,50.5 128.832,50.3333 174.5,50.5 Z"/></g>
<g><path style="opacity:1" fill="#918b88" d="M 145.5,52.5 C 152.167,52.5 158.833,52.5 165.5,52.5C 165.5,53.8333 165.5,55.1667 165.5,56.5C 158.922,55.5399 152.255,55.2066 145.5,55.5C 145.5,54.5 145.5,53.5 145.5,52.5 Z"/></g>
<g><path style="opacity:1" fill="#5b514f" d="M 135.5,52.5 C 138.833,52.5 142.167,52.5 145.5,52.5C 145.5,53.5 145.5,54.5 145.5,55.5C 144.817,57.1765 143.483,57.8432 141.5,57.5C 139.5,57.5 137.5,57.5 135.5,57.5C 135.5,55.8333 135.5,54.1667 135.5,52.5 Z"/></g>
<g><path style="opacity:1" fill="#2a2120" d="M 136.5,53.5 C 138.833,53.5 141.167,53.5 143.5,53.5C 143.5,54.5 143.5,55.5 143.5,56.5C 141.167,56.5 138.833,56.5 136.5,56.5C 136.5,55.5 136.5,54.5 136.5,53.5 Z"/></g>
<g><path style="opacity:0.996" fill="#423a38" d="M 223.5,52.5 C 223.5,53.8333 223.5,55.1667 223.5,56.5C 220.713,57.4767 217.713,57.81 214.5,57.5C 214.5,55.8333 214.5,54.1667 214.5,52.5C 217.5,52.5 220.5,52.5 223.5,52.5 Z"/></g>
<g><path style="opacity:1" fill="#999a9c" d="M 307.5,59.5 C 307.5,59.8333 307.5,60.1667 307.5,60.5C 306.167,60.5 304.833,60.5 303.5,60.5C 297.408,60.5531 291.074,60.3865 284.5,60C 282.038,58.7844 279.371,58.1177 276.5,58C 277.167,57 277.833,56 278.5,55C 295.178,54.759 311.845,54.259 328.5,53.5C 330.167,53.8333 331.833,54.1667 333.5,54.5C 324.992,57.4027 316.325,59.0694 307.5,59.5 Z"/></g>
<g><path style="opacity:1" fill="#4e4442" d="M 165.5,52.5 C 168.5,52.5 171.5,52.5 174.5,52.5C 174.5,54.1667 174.5,55.8333 174.5,57.5C 171.287,57.81 168.287,57.4767 165.5,56.5C 165.5,55.1667 165.5,53.8333 165.5,52.5 Z"/></g>
<g><path style="opacity:1" fill="#3c3532" d="M 252.5,53.5 C 252.5,54.5 252.5,55.5 252.5,56.5C 249.833,56.5 247.167,56.5 244.5,56.5C 244.5,55.5 244.5,54.5 244.5,53.5C 247.167,53.5 249.833,53.5 252.5,53.5 Z"/></g>
<g><path style="opacity:1" fill="#afada9" d="M 268.5,64.5 C 267.833,64.5 267.167,64.5 266.5,64.5C 263.949,63.1553 261.116,62.4886 258,62.5C 243.184,63.4246 228.351,63.7579 213.5,63.5C 174.337,62.5014 135.004,62.1681 95.5,62.5C 95.5,61.8333 95.5,61.1667 95.5,60.5C 112.698,60.858 129.698,60.1913 146.5,58.5C 158.833,58.5 171.167,58.5 183.5,58.5C 183.047,59.4584 182.381,60.2917 181.5,61C 209.506,61.8332 237.506,61.6665 265.5,60.5C 266.609,58.6147 267.443,56.6147 268,54.5C 268.498,57.8168 268.665,61.1501 268.5,64.5 Z"/></g>
<g><path style="opacity:1" fill="#8d8a88" d="M 95.5,60.5 C 95.5,61.1667 95.5,61.8333 95.5,62.5C 42.1667,61.8333 42.1667,61.1667 95.5,60.5 Z"/></g>
<g><path style="opacity:1" fill="#817e7c" d="M 303.5,60.5 C 304.833,60.5 306.167,60.5 307.5,60.5C 313.653,61.3279 319.987,61.8279 326.5,62C 320.5,62.3333 314.5,62.6667 308.5,63C 306.956,64.1871 305.289,64.5205 303.5,64C 305.271,63.4646 305.604,62.6313 304.5,61.5C 303.817,61.8627 303.15,62.1961 302.5,62.5C 302.328,61.5084 302.662,60.8417 303.5,60.5 Z"/></g>
<g><path style="opacity:1" fill="#c4c2c0" d="M 94.5,52.5 C 95.4511,53.9187 95.7845,55.5853 95.5,57.5C 108.492,58.083 121.492,58.4163 134.5,58.5C 134.205,56.2646 134.539,54.2646 135.5,52.5C 135.5,54.1667 135.5,55.8333 135.5,57.5C 137.5,57.5 139.5,57.5 141.5,57.5C 142.919,58.4511 144.585,58.7845 146.5,58.5C 129.698,60.1913 112.698,60.858 95.5,60.5C 42.1667,61.1667 42.1667,61.8333 95.5,62.5C 135.004,62.1681 174.337,62.5014 213.5,63.5C 175.165,63.3333 136.832,63.5 98.5,64C 91.0103,65.5664 83.3436,66.3997 75.5,66.5C 62.8158,66.8324 50.1492,66.4991 37.5,65.5C 37.8333,63.5 38.1667,61.5 38.5,59.5C 43.7879,58.438 49.1212,57.7713 54.5,57.5C 54.5,55.5 54.5,53.5 54.5,51.5C 68.0105,51.1711 81.3438,51.5044 94.5,52.5 Z"/></g>
<g><path style="opacity:1" fill="#443b3b" d="M 65.5,52.5 C 65.5,53.8333 65.5,55.1667 65.5,56.5C 62.1667,56.5 58.8333,56.5 55.5,56.5C 55.5,55.1667 55.5,53.8333 55.5,52.5C 58.8333,52.5 62.1667,52.5 65.5,52.5 Z"/></g>
<g><path style="opacity:1" fill="#433835" d="M 86.5,52.5 C 89.1667,52.5 91.8333,52.5 94.5,52.5C 94.5,53.8333 94.5,55.1667 94.5,56.5C 91.8333,56.5 89.1667,56.5 86.5,56.5C 86.5,55.1667 86.5,53.8333 86.5,52.5 Z"/></g>
<g><path style="opacity:1" fill="#8b8381" d="M 65.5,52.5 C 72.5,52.5 79.5,52.5 86.5,52.5C 86.5,53.8333 86.5,55.1667 86.5,56.5C 79.5,55.1667 72.5,55.1667 65.5,56.5C 65.5,55.1667 65.5,53.8333 65.5,52.5 Z"/></g>
<g><path style="opacity:1" fill="#8b8785" d="M 307.5,60.5 C 307.5,60.1667 307.5,59.8333 307.5,59.5C 336.853,58.8414 365.853,59.5081 394.5,61.5C 391.257,60.42 387.924,60.2534 384.5,61C 386.5,61.3333 388.5,61.6667 390.5,62C 389.263,62.2321 388.263,62.7321 387.5,63.5C 381.833,63.5 376.167,63.5 370.5,63.5C 357.673,62.669 344.673,62.169 331.5,62C 346.167,61.6667 360.833,61.3333 375.5,61C 352.836,60.5 330.169,60.3334 307.5,60.5 Z"/></g>
<g><path style="opacity:1" fill="#585452" d="M 307.5,60.5 C 330.169,60.3334 352.836,60.5 375.5,61C 360.833,61.3333 346.167,61.6667 331.5,62C 344.673,62.169 357.673,62.669 370.5,63.5C 364.974,63.1786 359.64,63.5119 354.5,64.5C 338.83,64.3334 323.163,64.5001 307.5,65C 306.663,66.0113 306.33,67.1779 306.5,68.5C 305.415,76.734 304.748,77.0673 304.5,69.5C 303.5,69.5 302.5,69.5 301.5,69.5C 301.5,69.1667 301.5,68.8333 301.5,68.5C 301.205,66.2646 301.539,64.2646 302.5,62.5C 303.15,62.1961 303.817,61.8627 304.5,61.5C 305.604,62.6313 305.271,63.4646 303.5,64C 305.289,64.5205 306.956,64.1871 308.5,63C 314.5,62.6667 320.5,62.3333 326.5,62C 319.987,61.8279 313.653,61.3279 307.5,60.5 Z"/></g>
<g><path style="opacity:1" fill="#cfcfcb" d="M 266.5,64.5 C 266.5,65.8333 266.5,67.1667 266.5,68.5C 228.5,68.5 190.5,68.5 152.5,68.5C 146.833,68.5 141.167,68.5 135.5,68.5C 102.833,68.5 70.1667,68.5 37.5,68.5C 50.1667,67.8333 62.8333,67.1667 75.5,66.5C 83.3436,66.3997 91.0103,65.5664 98.5,64C 136.832,63.5 175.165,63.3333 213.5,63.5C 228.351,63.7579 243.184,63.4246 258,62.5C 261.116,62.4886 263.949,63.1553 266.5,64.5 Z"/></g>
<g><path style="opacity:1" fill="#2e2b2c" d="M 354.5,64.5 C 359.64,63.5119 364.974,63.1786 370.5,63.5C 376.167,63.5 381.833,63.5 387.5,63.5C 388.978,63.238 390.311,63.5713 391.5,64.5C 381.188,65.4986 370.855,65.8319 360.5,65.5C 358.621,64.6586 356.621,64.3253 354.5,64.5 Z"/></g>
<g><path style="opacity:1" fill="#c3c0bc" d="M 354.5,64.5 C 356.621,64.3253 358.621,64.6586 360.5,65.5C 356.946,66.2487 353.28,67.082 349.5,68C 335.171,68.4999 320.837,68.6666 306.5,68.5C 306.33,67.1779 306.663,66.0113 307.5,65C 323.163,64.5001 338.83,64.3334 354.5,64.5 Z"/></g>
<g><path style="opacity:1" fill="#bebdba" d="M 35.5,68.5 C 36.1667,68.5 36.8333,68.5 37.5,68.5C 70.1667,68.5 102.833,68.5 135.5,68.5C 132.343,69.827 131.176,72.1604 132,75.5C 132.915,74.6721 133.581,73.6721 134,72.5C 137.48,76.2901 139.314,75.2901 139.5,69.5C 140.675,69.281 141.675,69.6143 142.5,70.5C 140.861,71.916 140.027,73.5826 140,75.5C 141.458,74.2532 142.958,74.2532 144.5,75.5C 145.796,68.9586 146.462,68.9586 146.5,75.5C 148.199,75.6602 149.866,75.4935 151.5,75C 147.677,74.1824 147.51,73.0157 151,71.5C 153.02,72.0319 153.853,73.3652 153.5,75.5C 156.212,75.2625 158.712,75.2625 161,75.5C 162.583,73.0072 164.083,73.1738 165.5,76C 162.635,76.1829 159.969,76.6829 157.5,77.5C 147.534,76.8377 137.867,76.8377 128.5,77.5C 110.652,77.704 92.9853,77.704 75.5,77.5C 91.5014,76.9871 107.501,76.3204 123.5,75.5C 123.709,74.914 124.043,74.414 124.5,74C 94.7914,73.8177 65.1247,73.3177 35.5,72.5C 35.5,71.1667 35.5,69.8333 35.5,68.5 Z"/></g>
<g><path style="opacity:1" fill="#797776" d="M 394.5,61.5 C 394.52,63.143 393.853,64.4763 392.5,65.5C 382.183,66.3323 371.849,66.8323 361.5,67C 360.584,67.2784 359.918,67.7784 359.5,68.5C 342.231,70.2987 324.897,70.9653 307.5,70.5C 307.276,74.1788 306.942,77.8455 306.5,81.5C 306.5,83.8333 306.5,86.1667 306.5,88.5C 307.305,90.9607 306.972,93.294 305.5,95.5C 305.666,90.4889 305.499,85.4889 305,80.5C 304.505,82.4727 304.338,84.4727 304.5,86.5C 303.5,86.5 302.5,86.5 301.5,86.5C 301.5,87.5 301.5,88.5 301.5,89.5C 300.213,85.9351 300.213,82.2684 301.5,78.5C 301.5,75.5 301.5,72.5 301.5,69.5C 302.5,69.5 303.5,69.5 304.5,69.5C 304.748,77.0673 305.415,76.734 306.5,68.5C 320.837,68.6666 335.171,68.4999 349.5,68C 353.28,67.082 356.946,66.2487 360.5,65.5C 370.855,65.8319 381.188,65.4986 391.5,64.5C 390.311,63.5713 388.978,63.238 387.5,63.5C 388.263,62.7321 389.263,62.2321 390.5,62C 388.5,61.6667 386.5,61.3333 384.5,61C 387.924,60.2534 391.257,60.42 394.5,61.5 Z"/></g>
<g><path style="opacity:1" fill="#c3c3c0" d="M 266.5,64.5 C 267.167,64.5 267.833,64.5 268.5,64.5C 268.5,65.8333 268.5,67.1667 268.5,68.5C 279.5,68.5 290.5,68.5 301.5,68.5C 301.5,68.8333 301.5,69.1667 301.5,69.5C 301.5,72.5 301.5,75.5 301.5,78.5C 300.833,78.5 300.167,78.5 299.5,78.5C 299.5,78.1667 299.5,77.8333 299.5,77.5C 289.641,76.2303 279.641,76.2303 269.5,77.5C 269.762,78.9778 269.429,80.3112 268.5,81.5C 267.548,79.9547 267.215,78.288 267.5,76.5C 238.833,76.5 210.167,76.5 181.5,76.5C 181.5,74.1667 181.5,71.8333 181.5,69.5C 176.733,69.1908 172.066,69.6908 167.5,71C 166.5,74.3333 165.5,74.3333 164.5,71C 163.451,70.5078 162.451,70.6744 161.5,71.5C 159.167,68.8333 156.833,68.8333 154.5,71.5C 153.575,70.6431 152.908,69.6431 152.5,68.5C 190.5,68.5 228.5,68.5 266.5,68.5C 266.5,67.1667 266.5,65.8333 266.5,64.5 Z"/></g>
<g><path style="opacity:1" fill="#cecdcb" d="M 359.5,68.5 C 370.167,68.5 380.833,68.5 391.5,68.5C 391.229,70.3797 391.896,71.713 393.5,72.5C 393.5,76.5 393.5,80.5 393.5,84.5C 388.5,84.5 383.5,84.5 378.5,84.5C 378.345,75.9447 377.345,75.6113 375.5,83.5C 352.338,84.1219 329.338,83.4553 306.5,81.5C 306.942,77.8455 307.276,74.1788 307.5,70.5C 324.897,70.9653 342.231,70.2987 359.5,68.5 Z"/></g>
<g><path style="opacity:1" fill="#d1d1d1" d="M 35.5,72.5 C 65.1247,73.3177 94.7914,73.8177 124.5,74C 124.043,74.414 123.709,74.914 123.5,75.5C 107.501,76.3204 91.5014,76.9871 75.5,77.5C 63.1642,77.3677 50.8309,77.3677 38.5,77.5C 37.569,78.9183 36.569,80.2517 35.5,81.5C 35.5,78.5 35.5,75.5 35.5,72.5 Z"/></g>
<g><path style="opacity:1" fill="#b0b0af" d="M 135.5,68.5 C 141.167,68.5 146.833,68.5 152.5,68.5C 152.908,69.6431 153.575,70.6431 154.5,71.5C 156.833,68.8333 159.167,68.8333 161.5,71.5C 162.451,70.6744 163.451,70.5078 164.5,71C 165.5,74.3333 166.5,74.3333 167.5,71C 172.066,69.6908 176.733,69.1908 181.5,69.5C 181.5,71.8333 181.5,74.1667 181.5,76.5C 210.167,76.5 238.833,76.5 267.5,76.5C 267.215,78.288 267.548,79.9547 268.5,81.5C 269.429,80.3112 269.762,78.9778 269.5,77.5C 279.641,76.2303 289.641,76.2303 299.5,77.5C 290.808,77.1686 282.141,77.502 273.5,78.5C 282.325,79.8214 290.991,79.8214 299.5,78.5C 300.167,78.5 300.833,78.5 301.5,78.5C 300.213,82.2684 300.213,85.9351 301.5,89.5C 301.5,90.1667 301.5,90.8333 301.5,91.5C 301.5,94.1667 301.5,96.8333 301.5,99.5C 300.566,98.4324 300.232,97.099 300.5,95.5C 289.833,95.5 279.167,95.5 268.5,95.5C 268.6,91.2682 268.266,86.9348 267.5,82.5C 266.725,84.8432 266.058,87.1766 265.5,89.5C 239.498,89.6666 213.498,89.5 187.5,89C 184.563,88.8999 181.896,88.0666 179.5,86.5C 178.304,86.8457 178.304,87.3457 179.5,88C 167.638,88.2948 155.805,87.7948 144,86.5C 140.274,86.3875 136.44,86.7208 132.5,87.5C 128.19,85.9582 123.69,84.9582 119,84.5C 103.637,84.637 88.1366,84.9703 72.5,85.5C 62.5658,84.2712 52.7324,83.6045 43,83.5C 40.9658,83.3536 39.2991,84.0203 38,85.5C 37.3378,84.0161 36.5045,82.6828 35.5,81.5C 36.569,80.2517 37.569,78.9183 38.5,77.5C 50.8309,77.3677 63.1642,77.3677 75.5,77.5C 92.9853,77.704 110.652,77.704 128.5,77.5C 151.157,78.8331 174.157,79.4997 197.5,79.5C 220.5,79.1667 243.5,78.8333 266.5,78.5C 230.173,77.5001 193.839,77.1668 157.5,77.5C 159.969,76.6829 162.635,76.1829 165.5,76C 164.083,73.1738 162.583,73.0072 161,75.5C 158.712,75.2625 156.212,75.2625 153.5,75.5C 153.853,73.3652 153.02,72.0319 151,71.5C 147.51,73.0157 147.677,74.1824 151.5,75C 149.866,75.4935 148.199,75.6602 146.5,75.5C 146.462,68.9586 145.796,68.9586 144.5,75.5C 142.958,74.2532 141.458,74.2532 140,75.5C 140.027,73.5826 140.861,71.916 142.5,70.5C 141.675,69.6143 140.675,69.281 139.5,69.5C 139.314,75.2901 137.48,76.2901 134,72.5C 133.581,73.6721 132.915,74.6721 132,75.5C 131.176,72.1604 132.343,69.827 135.5,68.5 Z"/></g>
<g><path style="opacity:1" fill="#91908e" d="M 157.5,77.5 C 193.839,77.1668 230.173,77.5001 266.5,78.5C 243.5,78.8333 220.5,79.1667 197.5,79.5C 174.157,79.4997 151.157,78.8331 128.5,77.5C 137.867,76.8377 147.534,76.8377 157.5,77.5 Z"/></g>
<g><path style="opacity:1" fill="#6d6d6d" d="M 299.5,77.5 C 299.5,77.8333 299.5,78.1667 299.5,78.5C 290.991,79.8214 282.325,79.8214 273.5,78.5C 282.141,77.502 290.808,77.1686 299.5,77.5 Z"/></g>
<g><path style="opacity:1" fill="#a7a7a5" d="M 35.5,68.5 C 35.5,69.8333 35.5,71.1667 35.5,72.5C 35.5,75.5 35.5,78.5 35.5,81.5C 36.5045,82.6828 37.3378,84.0161 38,85.5C 39.2991,84.0203 40.9658,83.3536 43,83.5C 52.7324,83.6045 62.5658,84.2712 72.5,85.5C 88.1366,84.9703 103.637,84.637 119,84.5C 123.69,84.9582 128.19,85.9582 132.5,87.5C 136.44,86.7208 140.274,86.3875 144,86.5C 155.805,87.7948 167.638,88.2948 179.5,88C 178.304,87.3457 178.304,86.8457 179.5,86.5C 181.896,88.0666 184.563,88.8999 187.5,89C 213.498,89.5 239.498,89.6666 265.5,89.5C 252.34,90.331 239.006,90.831 225.5,91C 238.167,91.3333 250.833,91.6667 263.5,92C 264.91,92.3678 265.91,93.2011 266.5,94.5C 252.516,95.4992 238.516,95.8326 224.5,95.5C 216.245,94.3656 207.912,94.199 199.5,95C 198.473,95.5133 197.473,96.0133 196.5,96.5C 186.874,94.727 176.874,93.727 166.5,93.5C 154.465,94.228 142.465,94.5613 130.5,94.5C 99.9893,92.5181 69.3227,91.8514 38.5,92.5C 37.1779,92.67 36.0113,92.3366 35,91.5C 34.0187,89.0402 33.1854,86.5402 32.5,84C 33.3985,81.9065 34.0651,79.7398 34.5,77.5C 33.0086,72.4419 33.1753,67.4419 35,62.5C 35.4955,64.4727 35.6621,66.4727 35.5,68.5 Z"/></g>
<g><path style="opacity:1" fill="#929290" d="M 37.5,89.5 C 90.5057,89.3829 143.506,89.8829 196.5,91C 170,91.1667 143.5,91.3333 117,91.5C 90.1582,91.4998 63.6582,90.8331 37.5,89.5 Z"/></g>
<g><path style="opacity:1" fill="#bfbebc" d="M 393.5,84.5 C 393.5,86.1667 393.5,87.8333 393.5,89.5C 392.849,88.9094 392.182,88.2427 391.5,87.5C 390.692,89.4233 390.192,91.4233 390,93.5C 382.847,92.6363 375.847,92.6363 369,93.5C 364.229,92.4396 359.396,91.9396 354.5,92C 355.337,93.0113 355.67,94.1779 355.5,95.5C 352.98,96.2317 350.646,97.3983 348.5,99C 352.917,99.2275 357.25,99.7275 361.5,100.5C 361.167,101.167 360.833,101.833 360.5,102.5C 359.167,102.833 357.833,103.167 356.5,103.5C 349.97,104.985 343.303,105.652 336.5,105.5C 327.499,105.119 318.499,104.786 309.5,104.5C 309.768,106.099 309.434,107.432 308.5,108.5C 308.267,106.938 307.6,105.605 306.5,104.5C 306.5,102.5 306.5,100.5 306.5,98.5C 317.838,98.6665 329.172,98.4999 340.5,98C 343.827,97.1773 346.827,95.6773 349.5,93.5C 347.922,92.7022 346.256,92.2022 344.5,92C 332.505,91.5001 320.505,91.3335 308.5,91.5C 308.663,89.1432 308.497,86.8098 308,84.5C 307.79,86.0581 307.29,87.3915 306.5,88.5C 306.5,86.1667 306.5,83.8333 306.5,81.5C 329.338,83.4553 352.338,84.1219 375.5,83.5C 377.345,75.6113 378.345,75.9447 378.5,84.5C 383.5,84.5 388.5,84.5 393.5,84.5 Z"/></g>
<g><path style="opacity:1" fill="#7e7d7d" d="M 437.5,97.5 C 439.806,99.1394 441.806,101.139 443.5,103.5C 440.851,101.86 438.184,100.193 435.5,98.5C 432.547,94.375 429.381,90.375 426,86.5C 422.993,78.8008 421.659,70.8008 422,62.5C 423.414,75.9813 428.581,87.648 437.5,97.5 Z"/></g>
<g><path style="opacity:0.6" fill="#262624" d="M 305.5,95.5 C 304.5,95.5 303.5,95.5 302.5,95.5C 302.768,93.901 302.434,92.5676 301.5,91.5C 301.5,90.8333 301.5,90.1667 301.5,89.5C 301.5,88.5 301.5,87.5 301.5,86.5C 302.5,86.5 303.5,86.5 304.5,86.5C 304.338,84.4727 304.505,82.4727 305,80.5C 305.499,85.4889 305.666,90.4889 305.5,95.5 Z"/></g>
<g><path style="opacity:1" fill="#a7a7a6" d="M 306.5,104.5 C 305.5,104.5 304.5,104.5 303.5,104.5C 303.737,103.209 303.404,102.209 302.5,101.5C 302.5,99.5 302.5,97.5 302.5,95.5C 303.5,95.5 304.5,95.5 305.5,95.5C 306.972,93.294 307.305,90.9607 306.5,88.5C 307.29,87.3915 307.79,86.0581 308,84.5C 308.497,86.8098 308.663,89.1432 308.5,91.5C 320.505,91.3335 332.505,91.5001 344.5,92C 346.256,92.2022 347.922,92.7022 349.5,93.5C 346.827,95.6773 343.827,97.1773 340.5,98C 329.172,98.4999 317.838,98.6665 306.5,98.5C 306.5,100.5 306.5,102.5 306.5,104.5 Z"/></g>
<g><path style="opacity:1" fill="#4c4b49" d="M 396.5,84.5 C 395.395,89.6965 394.395,95.0298 393.5,100.5C 392.833,100.5 392.5,100.167 392.5,99.5C 392.342,96.0977 392.676,92.7644 393.5,89.5C 393.5,87.8333 393.5,86.1667 393.5,84.5C 393.5,80.5 393.5,76.5 393.5,72.5C 393.369,71.7611 393.536,71.0944 394,70.5C 395.031,75.1678 395.864,79.8345 396.5,84.5 Z"/></g>
<g><path style="opacity:1" fill="#cdcdcc" d="M 393.5,89.5 C 392.676,92.7644 392.342,96.0977 392.5,99.5C 390.167,99.5 387.833,99.5 385.5,99.5C 386.401,102.872 386.401,106.205 385.5,109.5C 384.067,105.649 383.067,101.649 382.5,97.5C 378.347,99.4688 377.347,102.469 379.5,106.5C 378.325,106.719 377.325,106.386 376.5,105.5C 377.348,103.591 377.682,101.591 377.5,99.5C 372.073,99.2175 366.74,99.5509 361.5,100.5C 357.25,99.7275 352.917,99.2275 348.5,99C 350.646,97.3983 352.98,96.2317 355.5,95.5C 355.67,94.1779 355.337,93.0113 354.5,92C 359.396,91.9396 364.229,92.4396 369,93.5C 375.847,92.6363 382.847,92.6363 390,93.5C 390.192,91.4233 390.692,89.4233 391.5,87.5C 392.182,88.2427 392.849,88.9094 393.5,89.5 Z"/></g>
<g><path style="opacity:1" fill="#bfbebb" d="M 38.5,92.5 C 69.3227,91.8514 99.9893,92.5181 130.5,94.5C 142.465,94.5613 154.465,94.228 166.5,93.5C 176.874,93.727 186.874,94.727 196.5,96.5C 196.5,98.1667 196.5,99.8333 196.5,101.5C 196.167,101.5 195.833,101.5 195.5,101.5C 169.342,100.167 142.842,99.5002 116,99.5C 88.6873,99.517 61.5206,100.184 34.5,101.5C 34.8333,99.5 35.1667,97.5 35.5,95.5C 37.5,95.5 38.5,94.5 38.5,92.5 Z"/></g>
<g><path style="opacity:1" fill="#3f3e3c" d="M 225.5,96.5 C 239.677,96.1709 253.677,96.5042 267.5,97.5C 258.17,97.833 248.836,98.1663 239.5,98.5C 234.449,98.4933 229.783,97.8266 225.5,96.5 Z"/></g>
<g><path style="opacity:1" fill="#cececc" d="M 195.5,101.5 C 140.041,101.851 87.3744,101.851 37.5,101.5C 37.6495,102.552 37.4828,103.552 37,104.5C 36.2917,103.619 35.4584,102.953 34.5,102.5C 34.5,102.167 34.5,101.833 34.5,101.5C 61.5206,100.184 88.6873,99.517 116,99.5C 142.842,99.5002 169.342,100.167 195.5,101.5 Z"/></g>
<g><path style="opacity:1" fill="#21211f" d="M 224.5,95.5 C 224.5,96.1667 224.833,96.5 225.5,96.5C 229.783,97.8266 234.449,98.4933 239.5,98.5C 248.836,98.1663 258.17,97.833 267.5,97.5C 267.5,98.5 267.5,99.5 267.5,100.5C 252.5,100.5 237.5,100.5 222.5,100.5C 222.5,99.5 222.5,98.5 222.5,97.5C 220.088,97.3305 217.921,97.9972 216,99.5C 213.769,96.949 211.603,96.949 209.5,99.5C 207.132,97.777 204.466,97.1103 201.5,97.5C 201.5,100.167 201.5,102.833 201.5,105.5C 201.158,106.338 200.492,106.672 199.5,106.5C 197.273,105.599 196.273,103.933 196.5,101.5C 196.5,99.8333 196.5,98.1667 196.5,96.5C 197.473,96.0133 198.473,95.5133 199.5,95C 207.912,94.199 216.245,94.3656 224.5,95.5 Z"/></g>
<g><path style="opacity:1" fill="#969694" d="M 268.5,95.5 C 268.5,97.5 268.5,99.5 268.5,101.5C 252.833,101.5 237.167,101.5 221.5,101.5C 221.5,100.5 221.5,99.5 221.5,98.5C 220.5,98.5 219.5,98.5 218.5,98.5C 218.721,100.664 219.721,102.33 221.5,103.5C 221.5,104.5 221.5,105.5 221.5,106.5C 219.4,106.523 217.567,105.856 216,104.5C 214,107.167 212,107.167 210,104.5C 207.353,106.597 204.52,106.931 201.5,105.5C 201.5,102.833 201.5,100.167 201.5,97.5C 204.466,97.1103 207.132,97.777 209.5,99.5C 211.603,96.949 213.769,96.949 216,99.5C 217.921,97.9972 220.088,97.3305 222.5,97.5C 222.5,98.5 222.5,99.5 222.5,100.5C 237.5,100.5 252.5,100.5 267.5,100.5C 267.5,99.5 267.5,98.5 267.5,97.5C 253.677,96.5042 239.677,96.1709 225.5,96.5C 224.833,96.5 224.5,96.1667 224.5,95.5C 238.516,95.8326 252.516,95.4992 266.5,94.5C 265.91,93.2011 264.91,92.3678 263.5,92C 250.833,91.6667 238.167,91.3333 225.5,91C 239.006,90.831 252.34,90.331 265.5,89.5C 266.058,87.1766 266.725,84.8432 267.5,82.5C 268.266,86.9348 268.6,91.2682 268.5,95.5 Z"/></g>
<g><path style="opacity:1" fill="#747475" d="M 360.5,102.5 C 365.544,102.173 370.544,102.506 375.5,103.5C 369.012,104.817 362.678,104.817 356.5,103.5C 357.833,103.167 359.167,102.833 360.5,102.5 Z"/></g>
<g><path style="opacity:1" fill="#bcbcba" d="M 268.5,95.5 C 279.167,95.5 289.833,95.5 300.5,95.5C 300.232,97.099 300.566,98.4324 301.5,99.5C 301.5,100.5 301.5,101.5 301.5,102.5C 290.836,101.047 280.17,101.214 269.5,103C 279.828,103.5 290.161,103.666 300.5,103.5C 300.5,106.5 300.5,109.5 300.5,112.5C 290.167,112.5 279.833,112.5 269.5,112.5C 265.177,113.708 260.677,114.374 256,114.5C 188.171,113.707 120.338,113.207 52.5,113C 48.1667,112.667 43.8333,112.333 39.5,112C 38.944,111.617 38.6107,111.117 38.5,110.5C 115.071,110.168 191.571,110.502 268,111.5C 268.801,108.633 268.634,105.966 267.5,103.5C 252.167,103.5 236.833,103.5 221.5,103.5C 219.721,102.33 218.721,100.664 218.5,98.5C 219.5,98.5 220.5,98.5 221.5,98.5C 221.5,99.5 221.5,100.5 221.5,101.5C 237.167,101.5 252.833,101.5 268.5,101.5C 268.5,99.5 268.5,97.5 268.5,95.5 Z"/></g>
<g><path style="opacity:1" fill="#969694" d="M 402.5,94.5 C 404.589,94.8567 406.589,95.5233 408.5,96.5C 407.322,100.567 408.322,104.067 411.5,107C 415.039,107.282 418.539,107.782 422,108.5C 425.609,108.06 427.109,106.06 426.5,102.5C 428.604,102.201 430.604,102.534 432.5,103.5C 431.296,106.415 429.296,108.581 426.5,110C 420.796,109.576 415.13,109.742 409.5,110.5C 409.804,109.85 410.137,109.183 410.5,108.5C 407.974,107.103 405.308,106.103 402.5,105.5C 402.5,101.833 402.5,98.1667 402.5,94.5 Z"/></g>
<g><path style="opacity:1" fill="#ababa9" d="M 195.5,101.5 C 195.833,101.5 196.167,101.5 196.5,101.5C 196.273,103.933 197.273,105.599 199.5,106.5C 207.5,107.833 215.5,107.833 223.5,106.5C 223.833,106.5 224.167,106.5 224.5,106.5C 238.833,106.5 253.167,106.5 267.5,106.5C 267.5,105.5 267.5,104.5 267.5,103.5C 268.634,105.966 268.801,108.633 268,111.5C 191.571,110.502 115.071,110.168 38.5,110.5C 37.5,109.833 36.5,109.167 35.5,108.5C 34.8505,106.565 34.5172,104.565 34.5,102.5C 35.4584,102.953 36.2917,103.619 37,104.5C 37.4828,103.552 37.6495,102.552 37.5,101.5C 87.3744,101.851 140.041,101.851 195.5,101.5 Z"/></g>
<g><path style="opacity:1" fill="#b0b0af" d="M 392.5,99.5 C 392.5,100.167 392.833,100.5 393.5,100.5C 393.5,101.167 393.833,101.5 394.5,101.5C 393.325,103.384 392.658,105.551 392.5,108C 393.316,116.481 393.649,124.981 393.5,133.5C 391.184,132.342 388.85,131.175 386.5,130C 383.833,129.667 381.167,129.333 378.5,129C 377.273,127.413 377.606,126.079 379.5,125C 377.975,123.991 376.308,123.491 374.5,123.5C 374.665,120.482 374.498,117.482 374,114.5C 371.577,112.006 369.244,112.006 367,114.5C 362.123,112.893 357.123,113.226 352,115.5C 350.333,114.167 348.667,112.833 347,111.5C 345.715,111.95 344.548,112.617 343.5,113.5C 340.243,111.894 338.076,112.894 337,116.5C 335.16,115.167 334.66,115.334 335.5,117C 335,117.5 334.5,118 334,118.5C 327.842,119.602 321.342,119.602 314.5,118.5C 314.719,117.325 314.386,116.325 313.5,115.5C 313.089,116.262 312.923,117.262 313,118.5C 311.989,119.337 310.822,119.67 309.5,119.5C 309.665,122.518 309.498,125.518 309,128.5C 308.768,127.263 308.268,126.263 307.5,125.5C 306.791,124.596 305.791,124.263 304.5,124.5C 304.5,121.167 304.5,117.833 304.5,114.5C 305.542,113.209 306.708,113.209 308,114.5C 308.495,112.527 308.662,110.527 308.5,108.5C 309.434,107.432 309.768,106.099 309.5,104.5C 318.499,104.786 327.499,105.119 336.5,105.5C 343.303,105.652 349.97,104.985 356.5,103.5C 362.678,104.817 369.012,104.817 375.5,103.5C 370.544,102.506 365.544,102.173 360.5,102.5C 360.833,101.833 361.167,101.167 361.5,100.5C 366.74,99.5509 372.073,99.2175 377.5,99.5C 377.682,101.591 377.348,103.591 376.5,105.5C 377.325,106.386 378.325,106.719 379.5,106.5C 377.347,102.469 378.347,99.4688 382.5,97.5C 383.067,101.649 384.067,105.649 385.5,109.5C 386.401,106.205 386.401,102.872 385.5,99.5C 387.833,99.5 390.167,99.5 392.5,99.5 Z"/></g>
<g><path style="opacity:1" fill="#41413f" d="M 221.5,103.5 C 236.833,103.5 252.167,103.5 267.5,103.5C 267.5,104.5 267.5,105.5 267.5,106.5C 253.167,106.5 238.833,106.5 224.5,106.5C 238.327,105.669 252.327,105.169 266.5,105C 251.822,104.167 237.155,104.334 222.5,105.5C 222.624,106.107 222.957,106.44 223.5,106.5C 215.5,107.833 207.5,107.833 199.5,106.5C 200.492,106.672 201.158,106.338 201.5,105.5C 204.52,106.931 207.353,106.597 210,104.5C 212,107.167 214,107.167 216,104.5C 217.567,105.856 219.4,106.523 221.5,106.5C 221.5,105.5 221.5,104.5 221.5,103.5 Z"/></g>
<g><path style="opacity:1" fill="#090908" d="M 224.5,106.5 C 224.167,106.5 223.833,106.5 223.5,106.5C 222.957,106.44 222.624,106.107 222.5,105.5C 237.155,104.334 251.822,104.167 266.5,105C 252.327,105.169 238.327,105.669 224.5,106.5 Z"/></g>
<g><path style="opacity:1" fill="#adadab" d="M 426.5,102.5 C 427.109,106.06 425.609,108.06 422,108.5C 418.539,107.782 415.039,107.282 411.5,107C 408.322,104.067 407.322,100.567 408.5,96.5C 406.589,95.5233 404.589,94.8567 402.5,94.5C 402.248,91.7562 402.915,89.2562 404.5,87C 403.453,85.4223 403.453,83.9223 404.5,82.5C 406.619,86.4549 408.952,90.2882 411.5,94C 410.606,97.7762 410.272,101.61 410.5,105.5C 414.884,105.826 419.217,105.492 423.5,104.5C 424.005,103.081 425.005,102.415 426.5,102.5 Z"/></g>
<g><path style="opacity:1" fill="#444442" d="M 301.5,91.5 C 302.434,92.5676 302.768,93.901 302.5,95.5C 302.5,97.5 302.5,99.5 302.5,101.5C 302.5,103.833 302.5,106.167 302.5,108.5C 303.5,108.5 304.5,108.5 305.5,108.5C 305.5,109.833 305.5,111.167 305.5,112.5C 304.167,112.5 302.833,112.5 301.5,112.5C 301.5,109.167 301.5,105.833 301.5,102.5C 301.5,101.5 301.5,100.5 301.5,99.5C 301.5,96.8333 301.5,94.1667 301.5,91.5 Z"/></g>
<g><path style="opacity:1" fill="#242422" d="M 396.5,84.5 C 398.234,86.0904 399.4,88.0904 400,90.5C 400.5,97.4921 400.666,104.492 400.5,111.5C 399.833,111.5 399.5,111.833 399.5,112.5C 398.77,115.578 397.603,118.578 396,121.5C 395.163,116.992 394.329,112.492 393.5,108C 393.691,105.95 394.358,104.117 395.5,102.5C 395.376,101.893 395.043,101.56 394.5,101.5C 393.833,101.5 393.5,101.167 393.5,100.5C 394.395,95.0298 395.395,89.6965 396.5,84.5 Z"/></g>
<g><path style="opacity:0.887" fill="#caccce" d="M 444.5,84.5 C 440.743,87.7838 439.743,91.7838 441.5,96.5C 450.694,97.9312 458.694,101.765 465.5,108C 474.37,110.05 483.037,112.717 491.5,116C 497.286,120.406 500.286,126.239 500.5,133.5C 499.078,128.517 496.078,124.683 491.5,122C 481.14,120.495 470.807,118.995 460.5,117.5C 460.953,123.525 461.62,129.525 462.5,135.5C 462.689,140.444 461.689,145.11 459.5,149.5C 455.494,154.003 450.494,156.67 444.5,157.5C 445.263,156.732 446.263,156.232 447.5,156C 446.5,155.667 445.5,155.333 444.5,155C 446.923,149.407 450.256,144.407 454.5,140C 452.879,136.85 450.546,136.016 447.5,137.5C 444.249,137.132 443.249,135.632 444.5,133C 444.116,127.645 442.116,123.145 438.5,119.5C 438.923,118.735 439.257,117.902 439.5,117C 438.68,112.347 437.013,108.181 434.5,104.5C 435.108,102.186 435.441,100.186 435.5,98.5C 438.184,100.193 440.851,101.86 443.5,103.5C 441.806,101.139 439.806,99.1394 437.5,97.5C 437.301,91.9512 439.135,87.2845 443,83.5C 443.383,84.056 443.883,84.3893 444.5,84.5 Z"/></g>
<g><path style="opacity:1" fill="#a7a6a7" d="M 443.5,103.5 C 445.842,103.225 445.842,102.392 443.5,101C 446.299,101.732 448.966,103.066 451.5,105C 455.288,106.15 458.954,107.483 462.5,109C 455.029,111.121 448.696,109.288 443.5,103.5 Z"/></g>
<g><path style="opacity:1" fill="#8a8a89" d="M 301.5,102.5 C 301.5,105.833 301.5,109.167 301.5,112.5C 302.833,112.5 304.167,112.5 305.5,112.5C 305.5,111.167 305.5,109.833 305.5,108.5C 304.5,108.5 303.5,108.5 302.5,108.5C 302.5,106.167 302.5,103.833 302.5,101.5C 303.404,102.209 303.737,103.209 303.5,104.5C 304.5,104.5 305.5,104.5 306.5,104.5C 307.6,105.605 308.267,106.938 308.5,108.5C 308.662,110.527 308.495,112.527 308,114.5C 306.708,113.209 305.542,113.209 304.5,114.5C 302.612,116.988 301.945,119.988 302.5,123.5C 301.834,120.311 301.167,116.977 300.5,113.5C 299.893,113.624 299.56,113.957 299.5,114.5C 289.111,115.141 279.111,114.474 269.5,112.5C 279.833,112.5 290.167,112.5 300.5,112.5C 300.5,109.5 300.5,106.5 300.5,103.5C 290.161,103.666 279.828,103.5 269.5,103C 280.17,101.214 290.836,101.047 301.5,102.5 Z"/></g>
<g><path style="opacity:1" fill="#aaa9a9" d="M 374.5,123.5 C 372.953,125.762 373.286,127.762 375.5,129.5C 369.202,130.496 362.868,130.83 356.5,130.5C 340.188,129.594 323.854,129.26 307.5,129.5C 307.5,128.167 307.5,126.833 307.5,125.5C 308.268,126.263 308.768,127.263 309,128.5C 309.498,125.518 309.665,122.518 309.5,119.5C 310.822,119.67 311.989,119.337 313,118.5C 312.923,117.262 313.089,116.262 313.5,115.5C 314.386,116.325 314.719,117.325 314.5,118.5C 321.342,119.602 327.842,119.602 334,118.5C 334.5,118 335,117.5 335.5,117C 334.66,115.334 335.16,115.167 337,116.5C 338.076,112.894 340.243,111.894 343.5,113.5C 344.548,112.617 345.715,111.95 347,111.5C 348.667,112.833 350.333,114.167 352,115.5C 357.123,113.226 362.123,112.893 367,114.5C 369.244,112.006 371.577,112.006 374,114.5C 374.498,117.482 374.665,120.482 374.5,123.5 Z"/></g>
<g><path style="opacity:1" fill="#6c6c6a" d="M 402.5,105.5 C 405.308,106.103 407.974,107.103 410.5,108.5C 410.137,109.183 409.804,109.85 409.5,110.5C 405.693,113.109 403.693,116.776 403.5,121.5C 402.883,121.611 402.383,121.944 402,122.5C 401.506,120.866 401.34,119.199 401.5,117.5C 402.021,113.519 402.354,109.519 402.5,105.5 Z"/></g>
<g><path style="opacity:1" fill="#d4d4d3" d="M 35.5,108.5 C 36.5,109.167 37.5,109.833 38.5,110.5C 38.6107,111.117 38.944,111.617 39.5,112C 43.8333,112.333 48.1667,112.667 52.5,113C 120.338,113.207 188.171,113.707 256,114.5C 260.677,114.374 265.177,113.708 269.5,112.5C 279.111,114.474 289.111,115.141 299.5,114.5C 300.645,118.311 300.812,122.311 300,126.5C 292.587,125.519 285.087,125.186 277.5,125.5C 276.185,126.476 274.852,127.476 273.5,128.5C 272.747,125.727 271.747,123.06 270.5,120.5C 269.313,119.347 268.313,119.347 267.5,120.5C 266.549,119.081 266.216,117.415 266.5,115.5C 193.166,115.667 119.833,115.5 46.5,115C 43.1667,114.667 39.8333,114.333 36.5,114C 35.5939,112.301 35.2606,110.467 35.5,108.5 Z"/></g>
<g><path style="opacity:1" fill="#d0d0d0" d="M 438.5,119.5 C 442.116,123.145 444.116,127.645 444.5,133C 443.249,135.632 444.249,137.132 447.5,137.5C 450.546,136.016 452.879,136.85 454.5,140C 450.256,144.407 446.923,149.407 444.5,155C 445.5,155.333 446.5,155.667 447.5,156C 446.263,156.232 445.263,156.732 444.5,157.5C 437.845,158.661 432.178,161.661 427.5,166.5C 423.57,167.721 419.57,168.221 415.5,168C 404.177,159.381 391.677,157.214 378,161.5C 373.703,161.517 369.537,160.851 365.5,159.5C 367.961,158.469 370.627,157.802 373.5,157.5C 374.167,153.5 374.833,153.5 375.5,157.5C 379.56,157.515 383.56,157.015 387.5,156C 386.376,155.751 385.376,155.251 384.5,154.5C 386.083,154.382 387.749,153.549 389.5,152C 387.888,151.28 386.388,151.446 385,152.5C 384.682,150.939 383.849,149.772 382.5,149C 386.692,149.225 391.025,149.391 395.5,149.5C 399.641,146.901 399.474,146.235 395,147.5C 394.805,146.181 394.972,144.847 395.5,143.5C 395.5,138.5 395.5,133.5 395.5,128.5C 396.167,128.5 396.833,128.5 397.5,128.5C 397.334,133.511 397.501,138.511 398,143.5C 399.244,138.7 400.411,134.2 401.5,130C 405.167,129.667 408.833,129.333 412.5,129C 413.025,128.308 413.692,127.808 414.5,127.5C 415.59,128.727 416.924,129.56 418.5,130C 414.178,131.191 413.845,132.525 417.5,134C 414.786,135.573 413.953,137.74 415,140.5C 414.107,139.289 413.274,139.289 412.5,140.5C 415.646,144.605 418.313,144.272 420.5,139.5C 419.183,139.687 417.85,139.02 416.5,137.5C 418.029,135.812 419.863,134.479 422,133.5C 422.564,131.438 422.064,129.605 420.5,128C 420.667,127.5 420.833,127 421,126.5C 421.718,127.451 422.551,127.617 423.5,127C 422.5,126 421.5,125 420.5,124C 423.049,123.249 424.716,121.582 425.5,119C 424.044,118.577 423.544,117.744 424,116.5C 424.333,116.833 424.667,117.167 425,117.5C 425.941,115.939 427.108,114.605 428.5,113.5C 429.167,114.167 429.833,114.833 430.5,115.5C 432.836,114.977 435.17,115.477 437.5,117C 436.117,118.461 436.451,119.294 438.5,119.5 Z"/></g>
<g><path style="opacity:1" fill="#969694" d="M 400.5,111.5 C 400.205,113.735 400.539,115.735 401.5,117.5C 401.34,119.199 401.506,120.866 402,122.5C 402.383,121.944 402.883,121.611 403.5,121.5C 402.489,123.372 401.655,125.372 401,127.5C 399.989,128.337 398.822,128.67 397.5,128.5C 396.833,128.5 396.167,128.5 395.5,128.5C 397.852,123.439 399.185,118.106 399.5,112.5C 399.5,111.833 399.833,111.5 400.5,111.5 Z"/></g>
<g><path style="opacity:1" fill="#3e3d42" d="M 500.5,133.5 C 500.5,136.167 500.5,138.833 500.5,141.5C 498.528,138.916 497.528,135.916 497.5,132.5C 496.5,132.5 495.5,132.5 494.5,132.5C 494.499,128.748 492.833,127.748 489.5,129.5C 491.033,133.129 491.366,136.795 490.5,140.5C 491.727,141.59 492.56,142.924 493,144.5C 493.585,149.202 494.751,153.702 496.5,158C 496.167,158.333 495.833,158.667 495.5,159C 496.623,160.044 497.956,160.71 499.5,161C 498.5,161.333 497.5,161.667 496.5,162C 497.833,162.667 498.833,163.667 499.5,165C 502.032,164.569 504.366,165.402 506.5,167.5C 507.706,169.484 507.706,171.484 506.5,173.5C 506.977,174.478 507.643,175.311 508.5,176C 507.167,176.333 505.833,176.667 504.5,177C 505.167,177.333 505.833,177.667 506.5,178C 505.553,180.728 504.22,183.228 502.5,185.5C 501.778,185.918 501.278,186.584 501,187.5C 500.333,184.833 499.667,184.833 499,187.5C 498.25,186.874 497.416,186.374 496.5,186C 498.158,185.275 498.658,184.108 498,182.5C 497.333,183.167 496.667,183.833 496,184.5C 494.887,183.289 493.72,183.289 492.5,184.5C 491.201,183.91 490.368,182.91 490,181.5C 488.383,182.536 488.216,183.703 489.5,185C 488.051,186.117 486.384,186.784 484.5,187C 485.673,190.11 485.173,190.277 483,187.5C 481.535,189.915 479.368,190.915 476.5,190.5C 476.714,194.257 475.714,194.924 473.5,192.5C 471.668,193.248 470.001,194.248 468.5,195.5C 467.915,193.135 466.748,191.135 465,189.5C 463.62,192.058 462.12,192.058 460.5,189.5C 459.5,190.833 458.5,190.833 457.5,189.5C 457.264,190.247 456.93,191.08 456.5,192C 454.527,192.495 452.527,192.662 450.5,192.5C 450.146,194.541 450.146,196.374 450.5,198C 447.648,199.591 444.648,200.924 441.5,202C 442.598,202.77 442.598,203.603 441.5,204.5C 447.319,205.328 453.319,205.828 459.5,206C 462.417,207.299 464.917,209.133 467,211.5C 469.26,221.226 468.426,230.559 464.5,239.5C 466.23,233.637 466.73,227.637 466,221.5C 466.304,217.439 464.804,214.273 461.5,212C 458.167,210.333 454.833,208.667 451.5,207C 442.176,206.999 432.843,207.165 423.5,207.5C 423.289,203.156 422.955,199.156 422.5,195.5C 422.412,191.694 423.079,188.027 424.5,184.5C 425.4,187.839 426.4,190.505 427.5,192.5C 431.766,193.117 435.599,194.784 439,197.5C 440.632,195.293 440.632,192.96 439,190.5C 435.076,185.529 431.243,180.529 427.5,175.5C 429.55,175.039 431.55,174.372 433.5,173.5C 434.724,175.828 434.724,178.161 433.5,180.5C 435.506,183.006 437.84,185.173 440.5,187C 442.379,187.96 444.379,188.46 446.5,188.5C 445.674,189.451 445.508,190.451 446,191.5C 448.471,189.236 450.971,187.736 453.5,187C 452.692,186.692 452.025,186.192 451.5,185.5C 453.557,183.731 455.39,181.731 457,179.5C 458,181.833 459,184.167 460,186.5C 460.915,185.672 461.581,184.672 462,183.5C 464.913,186.133 466.746,185.467 467.5,181.5C 471,181.505 472.5,179.838 472,176.5C 471.586,176.957 471.086,177.291 470.5,177.5C 469.439,174.378 468.106,171.378 466.5,168.5C 465.232,167.572 463.899,167.405 462.5,168C 463.711,168.893 463.711,169.726 462.5,170.5C 461.28,169.289 460.113,169.289 459,170.5C 458.667,169.5 458.333,168.5 458,167.5C 457.632,168.91 456.799,169.91 455.5,170.5C 454.289,169.726 454.289,168.893 455.5,168C 454.207,167.51 452.873,167.343 451.5,167.5C 451.351,166.448 451.517,165.448 452,164.5C 452.718,165.451 453.551,165.617 454.5,165C 453.426,164.261 452.759,163.261 452.5,162C 455.121,157.945 457.454,153.779 459.5,149.5C 461.689,145.11 462.689,140.444 462.5,135.5C 461.62,129.525 460.953,123.525 460.5,117.5C 470.807,118.995 481.14,120.495 491.5,122C 496.078,124.683 499.078,128.517 500.5,133.5 Z"/></g>
<g><path style="opacity:1" fill="#6d6a69" d="M 304.5,124.5 C 305.791,124.263 306.791,124.596 307.5,125.5C 307.5,126.833 307.5,128.167 307.5,129.5C 323.854,129.26 340.188,129.594 356.5,130.5C 356.918,131.222 357.584,131.722 358.5,132C 356.19,132.497 353.857,132.663 351.5,132.5C 335.833,132.5 320.167,132.5 304.5,132.5C 304.5,129.833 304.5,127.167 304.5,124.5 Z"/></g>
<g><path style="opacity:1" fill="#858583" d="M 374.5,123.5 C 376.308,123.491 377.975,123.991 379.5,125C 377.606,126.079 377.273,127.413 378.5,129C 381.167,129.333 383.833,129.667 386.5,130C 388.85,131.175 391.184,132.342 393.5,133.5C 392.05,135.383 390.05,136.383 387.5,136.5C 378.87,136.079 370.203,136.079 361.5,136.5C 361.5,135.5 361.5,134.5 361.5,133.5C 357.958,133.813 354.625,133.479 351.5,132.5C 353.857,132.663 356.19,132.497 358.5,132C 357.584,131.722 356.918,131.222 356.5,130.5C 362.868,130.83 369.202,130.496 375.5,129.5C 373.286,127.762 372.953,125.762 374.5,123.5 Z"/></g>
<g><path style="opacity:1" fill="#a5a4a4" d="M 304.5,132.5 C 320.167,132.5 335.833,132.5 351.5,132.5C 354.625,133.479 357.958,133.813 361.5,133.5C 361.5,134.5 361.5,135.5 361.5,136.5C 355.979,136.782 350.646,137.449 345.5,138.5C 332.816,138.832 320.149,138.499 307.5,137.5C 306.643,136.575 305.643,135.908 304.5,135.5C 304.5,134.5 304.5,133.5 304.5,132.5 Z"/></g>
<g><path style="opacity:0.145" fill="#535251" d="M 394.5,101.5 C 395.043,101.56 395.376,101.893 395.5,102.5C 394.358,104.117 393.691,105.95 393.5,108C 394.329,112.492 395.163,116.992 396,121.5C 397.603,118.578 398.77,115.578 399.5,112.5C 399.185,118.106 397.852,123.439 395.5,128.5C 395.5,133.5 395.5,138.5 395.5,143.5C 395.167,143.5 394.833,143.5 394.5,143.5C 364.833,143.5 335.167,143.5 305.5,143.5C 305.5,143.167 305.5,142.833 305.5,142.5C 331.599,143.129 357.599,142.462 383.5,140.5C 385.972,141.992 388.639,142.658 391.5,142.5C 391.5,141.167 391.5,139.833 391.5,138.5C 376.533,138.164 361.533,138.164 346.5,138.5C 346.167,138.5 345.833,138.5 345.5,138.5C 350.646,137.449 355.979,136.782 361.5,136.5C 370.203,136.079 378.87,136.079 387.5,136.5C 390.05,136.383 392.05,135.383 393.5,133.5C 393.649,124.981 393.316,116.481 392.5,108C 392.658,105.551 393.325,103.384 394.5,101.5 Z"/></g>
<g><path style="opacity:1" fill="#3f3d3d" d="M 304.5,135.5 C 305.643,135.908 306.643,136.575 307.5,137.5C 320.149,138.499 332.816,138.832 345.5,138.5C 345.833,138.5 346.167,138.5 346.5,138.5C 346.5,138.833 346.5,139.167 346.5,139.5C 333.323,139.171 320.323,139.505 307.5,140.5C 306.833,141.167 306.167,141.833 305.5,142.5C 304.167,142.5 302.833,142.5 301.5,142.5C 301.5,141.5 301.5,140.5 301.5,139.5C 301.5,138.833 301.833,138.5 302.5,138.5C 303.117,138.611 303.617,138.944 304,139.5C 304.49,138.207 304.657,136.873 304.5,135.5 Z"/></g>
<g><path style="opacity:1" fill="#b3b3b1" d="M 299.5,114.5 C 299.56,113.957 299.893,113.624 300.5,113.5C 301.167,116.977 301.834,120.311 302.5,123.5C 302.5,128.5 302.5,133.5 302.5,138.5C 301.833,138.5 301.5,138.833 301.5,139.5C 293.225,140.801 284.892,140.801 276.5,139.5C 275.282,138.197 275.615,137.197 277.5,136.5C 277.291,135.914 276.957,135.414 276.5,135C 284.493,134.5 292.493,134.334 300.5,134.5C 300.5,132.5 300.5,130.5 300.5,128.5C 292.442,128.351 284.775,127.351 277.5,125.5C 285.087,125.186 292.587,125.519 300,126.5C 300.812,122.311 300.645,118.311 299.5,114.5 Z"/></g>
<g><path style="opacity:1" fill="#0b0908" d="M 307.5,140.5 C 320.323,139.505 333.323,139.171 346.5,139.5C 356.333,139.028 366,139.528 375.5,141C 352.761,141.822 330.094,141.655 307.5,140.5 Z"/></g>
<g><path style="opacity:1" fill="#1c1b1a" d="M 305.5,142.5 C 306.167,141.833 306.833,141.167 307.5,140.5C 330.094,141.655 352.761,141.822 375.5,141C 366,139.528 356.333,139.028 346.5,139.5C 346.5,139.167 346.5,138.833 346.5,138.5C 361.533,138.164 376.533,138.164 391.5,138.5C 391.5,139.833 391.5,141.167 391.5,142.5C 388.639,142.658 385.972,141.992 383.5,140.5C 357.599,142.462 331.599,143.129 305.5,142.5 Z"/></g>
<g><path style="opacity:0.016" fill="#e4e4e5" d="M 502.5,139.5 C 506.493,142.496 509.826,146.163 512.5,150.5C 510.983,150.489 509.816,149.823 509,148.5C 506.615,145.621 504.448,142.621 502.5,139.5 Z"/></g>
<g><path style="opacity:1" fill="#7d7b7a" d="M 305.5,143.5 C 335.167,143.5 364.833,143.5 394.5,143.5C 393.282,144.161 391.949,144.828 390.5,145.5C 362.336,146.167 334.336,146.833 306.5,147.5C 306.167,147.5 305.833,147.5 305.5,147.5C 305.5,146.167 305.5,144.833 305.5,143.5 Z"/></g>
<g><path style="opacity:1" fill="#cccccb" d="M 394.5,143.5 C 394.833,143.5 395.167,143.5 395.5,143.5C 394.972,144.847 394.805,146.181 395,147.5C 399.474,146.235 399.641,146.901 395.5,149.5C 391.025,149.391 386.692,149.225 382.5,149C 383.849,149.772 384.682,150.939 385,152.5C 386.388,151.446 387.888,151.28 389.5,152C 387.749,153.549 386.083,154.382 384.5,154.5C 385.376,155.251 386.376,155.751 387.5,156C 383.56,157.015 379.56,157.515 375.5,157.5C 374.833,153.5 374.167,153.5 373.5,157.5C 370.627,157.802 367.961,158.469 365.5,159.5C 358.391,157.737 351.557,158.404 345,161.5C 345.443,158.574 345.276,155.574 344.5,152.5C 342.712,152.215 341.045,152.548 339.5,153.5C 340.167,154.167 340.833,154.833 341.5,155.5C 339.874,156.99 338.208,158.49 336.5,160C 338.026,161.887 340.026,162.887 342.5,163C 339.591,164.406 337.591,166.572 336.5,169.5C 336.5,169.833 336.5,170.167 336.5,170.5C 335.599,171.29 334.932,172.29 334.5,173.5C 333.527,172.209 332.527,172.209 331.5,173.5C 330.5,172.167 329.5,170.833 328.5,169.5C 329.025,168.808 329.692,168.308 330.5,168C 323.919,160.75 315.919,158.25 306.5,160.5C 306.5,156.167 306.5,151.833 306.5,147.5C 334.336,146.833 362.336,146.167 390.5,145.5C 391.949,144.828 393.282,144.161 394.5,143.5 Z"/></g>
<g><path style="opacity:1" fill="#69676b" d="M 500.5,133.5 C 501.738,135.214 502.405,137.214 502.5,139.5C 504.448,142.621 506.615,145.621 509,148.5C 509.816,149.823 510.983,150.489 512.5,150.5C 517.759,158.024 522.759,165.691 527.5,173.5C 524.013,170.581 520.513,167.581 517,164.5C 516.742,161.314 515.075,159.314 512,158.5C 508.735,154.594 506.401,150.261 505,145.5C 503.887,144.695 502.721,144.028 501.5,143.5C 501.672,142.508 501.338,141.842 500.5,141.5C 500.5,138.833 500.5,136.167 500.5,133.5 Z"/></g>
<g><path style="opacity:1" fill="#a1a0a0" d="M 305.5,147.5 C 305.833,147.5 306.167,147.5 306.5,147.5C 306.5,151.833 306.5,156.167 306.5,160.5C 297.559,161.803 288.559,161.803 279.5,160.5C 280.5,159.667 281.5,158.833 282.5,158C 281.062,157.781 279.729,157.281 278.5,156.5C 279.348,154.591 279.682,152.591 279.5,150.5C 286.833,150.5 294.167,150.5 301.5,150.5C 301.784,153.254 302.451,155.92 303.5,158.5C 306.227,155.842 305.893,153.509 302.5,151.5C 303.325,150.614 304.325,150.281 305.5,150.5C 305.5,149.5 305.5,148.5 305.5,147.5 Z"/></g>
<g><path style="opacity:1" fill="#7d7b7b" d="M 406.5,172.5 C 404.983,172.489 403.816,171.823 403,170.5C 401.961,171.71 400.794,172.71 399.5,173.5C 399.062,173.565 398.728,173.399 398.5,173C 399.833,171.667 401.167,170.333 402.5,169C 401.672,168.085 400.672,167.419 399.5,167C 393.472,166.359 387.472,166.526 381.5,167.5C 373.167,166.011 364.834,164.345 356.5,162.5C 348.673,162.664 342.173,165.664 337,171.5C 336.601,171.272 336.435,170.938 336.5,170.5C 336.5,170.167 336.5,169.833 336.5,169.5C 343.963,161.946 352.963,159.446 363.5,162C 373.366,165.131 383.199,165.298 393,162.5C 397.406,162.236 401.573,163.069 405.5,165C 403.5,165 401.5,165 399.5,165C 401.468,166.544 403.635,167.711 406,168.5C 407.298,169.946 407.465,171.279 406.5,172.5 Z"/></g>
<g><path style="opacity:1" fill="#b8b8b8" d="M 399.5,173.5 C 397.324,175.515 394.824,177.182 392,178.5C 391.506,180.134 391.34,181.801 391.5,183.5C 387.518,181.174 383.518,178.841 379.5,176.5C 378.42,174.004 377.086,171.67 375.5,169.5C 377.631,168.831 379.631,168.165 381.5,167.5C 387.472,166.526 393.472,166.359 399.5,167C 400.672,167.419 401.672,168.085 402.5,169C 401.167,170.333 399.833,171.667 398.5,173C 398.728,173.399 399.062,173.565 399.5,173.5 Z"/></g>
<g><path style="opacity:1" fill="#424146" d="M 459.5,149.5 C 457.454,153.779 455.121,157.945 452.5,162C 452.759,163.261 453.426,164.261 454.5,165C 453.551,165.617 452.718,165.451 452,164.5C 451.517,165.448 451.351,166.448 451.5,167.5C 452.873,167.343 454.207,167.51 455.5,168C 454.289,168.893 454.289,169.726 455.5,170.5C 456.799,169.91 457.632,168.91 458,167.5C 458.333,168.5 458.667,169.5 459,170.5C 460.113,169.289 461.28,169.289 462.5,170.5C 463.711,169.726 463.711,168.893 462.5,168C 463.899,167.405 465.232,167.572 466.5,168.5C 468.106,171.378 469.439,174.378 470.5,177.5C 471.086,177.291 471.586,176.957 472,176.5C 472.5,179.838 471,181.505 467.5,181.5C 466.746,185.467 464.913,186.133 462,183.5C 461.581,184.672 460.915,185.672 460,186.5C 459,184.167 458,181.833 457,179.5C 455.39,181.731 453.557,183.731 451.5,185.5C 452.025,186.192 452.692,186.692 453.5,187C 450.971,187.736 448.471,189.236 446,191.5C 445.508,190.451 445.674,189.451 446.5,188.5C 444.379,188.46 442.379,187.96 440.5,187C 437.84,185.173 435.506,183.006 433.5,180.5C 434.724,178.161 434.724,175.828 433.5,173.5C 431.55,174.372 429.55,175.039 427.5,175.5C 426.5,174.167 425.5,174.167 424.5,175.5C 424.664,172.183 425.664,169.183 427.5,166.5C 432.178,161.661 437.845,158.661 444.5,157.5C 450.494,156.67 455.494,154.003 459.5,149.5 Z"/></g>
<g><path style="opacity:1" fill="#c1c1c2" d="M 277.5,125.5 C 284.775,127.351 292.442,128.351 300.5,128.5C 300.5,130.5 300.5,132.5 300.5,134.5C 292.493,134.334 284.493,134.5 276.5,135C 276.957,135.414 277.291,135.914 277.5,136.5C 275.615,137.197 275.282,138.197 276.5,139.5C 284.892,140.801 293.225,140.801 301.5,139.5C 301.5,140.5 301.5,141.5 301.5,142.5C 302.833,142.5 304.167,142.5 305.5,142.5C 305.5,142.833 305.5,143.167 305.5,143.5C 305.5,144.833 305.5,146.167 305.5,147.5C 305.5,148.5 305.5,149.5 305.5,150.5C 304.325,150.281 303.325,150.614 302.5,151.5C 305.893,153.509 306.227,155.842 303.5,158.5C 302.451,155.92 301.784,153.254 301.5,150.5C 294.167,150.5 286.833,150.5 279.5,150.5C 279.682,152.591 279.348,154.591 278.5,156.5C 279.729,157.281 281.062,157.781 282.5,158C 281.5,158.833 280.5,159.667 279.5,160.5C 288.559,161.803 297.559,161.803 306.5,160.5C 315.919,158.25 323.919,160.75 330.5,168C 329.692,168.308 329.025,168.808 328.5,169.5C 329.5,170.833 330.5,172.167 331.5,173.5C 332.527,172.209 333.527,172.209 334.5,173.5C 333.769,177.797 333.102,182.13 332.5,186.5C 331.732,185.737 331.232,184.737 331,183.5C 330.667,186.5 330.333,189.5 330,192.5C 329.292,191.619 328.458,190.953 327.5,190.5C 328.196,182.616 325.529,176.116 319.5,171C 304.993,169.876 290.493,169.042 276,168.5C 273.862,152.369 271.029,136.369 267.5,120.5C 268.313,119.347 269.313,119.347 270.5,120.5C 271.747,123.06 272.747,125.727 273.5,128.5C 274.852,127.476 276.185,126.476 277.5,125.5 Z"/></g>
<g><path style="opacity:1" fill="#36353c" d="M 500.5,141.5 C 501.338,141.842 501.672,142.508 501.5,143.5C 501.5,144.5 501.5,145.5 501.5,146.5C 502.5,146.5 503.5,146.5 504.5,146.5C 504.471,150.14 505.471,153.473 507.5,156.5C 512.897,162.947 518.064,169.614 523,176.5C 525.879,177.909 527.545,180.243 528,183.5C 533.243,188.703 536.577,195.036 538,202.5C 543.931,210.115 547.431,218.781 548.5,228.5C 546.461,227.089 545.461,225.089 545.5,222.5C 544.105,220.996 541.772,219.996 538.5,219.5C 538.643,217.738 538.309,216.071 537.5,214.5C 536.397,214.002 535.397,213.669 534.5,213.5C 535.074,211.941 535.74,210.441 536.5,209C 534.833,207 533.167,207 531.5,209C 532.5,209.333 533.5,209.667 534.5,210C 533.816,211.693 532.816,213.193 531.5,214.5C 531.977,215.478 532.643,216.311 533.5,217C 532.13,219.833 532.464,222.5 534.5,225C 533.251,226.824 532.085,226.657 531,224.5C 530.626,225.416 530.126,226.25 529.5,227C 529.665,228.117 529.998,229.284 530.5,230.5C 529.478,231.354 528.645,232.354 528,233.5C 526.605,232.185 525.605,232.519 525,234.5C 524.29,233.027 523.124,232.36 521.5,232.5C 521.377,235.588 522.377,238.255 524.5,240.5C 522.803,241.364 521.637,242.697 521,244.5C 520,243.5 519,242.5 518,241.5C 516.286,245.277 515.619,245.277 516,241.5C 519.201,239.442 518.701,238.442 514.5,238.5C 514.657,239.873 514.49,241.207 514,242.5C 513.586,242.043 513.086,241.709 512.5,241.5C 512.002,242.603 511.669,243.603 511.5,244.5C 510.018,242.517 508.351,240.684 506.5,239C 507.793,238.51 509.127,238.343 510.5,238.5C 510.671,235.203 510.005,234.869 508.5,237.5C 504.353,238.312 500.353,238.312 496.5,237.5C 495.304,237.846 495.304,238.346 496.5,239C 494.03,240.518 491.697,241.351 489.5,241.5C 486.675,241.162 484.508,242.162 483,244.5C 482,243.167 481,241.833 480,240.5C 479.667,241.5 479.333,242.5 479,243.5C 476.692,243.793 474.526,242.959 472.5,241C 474.973,239.439 476.973,237.439 478.5,235C 479.744,234.544 480.577,235.044 481,236.5C 481.826,233.207 482.326,229.874 482.5,226.5C 481.178,226.33 480.011,226.663 479,227.5C 478.383,226.551 478.549,225.718 479.5,225C 476.887,223.929 476.887,223.095 479.5,222.5C 481.146,222.542 482.812,222.542 484.5,222.5C 485.833,223.5 487.167,224.5 488.5,225.5C 487.609,226.59 486.609,226.59 485.5,225.5C 484.5,225.833 483.833,226.5 483.5,227.5C 485.843,228.144 486.843,230.144 486.5,233.5C 482.828,234.045 483.162,234.378 487.5,234.5C 487.284,236.681 488.117,238.347 490,239.5C 491.242,237.459 493.075,236.293 495.5,236C 492.125,234.971 490.958,232.804 492,229.5C 492.741,230.641 493.575,230.641 494.5,229.5C 495.48,230.981 496.647,232.315 498,233.5C 498.667,229.5 499.333,229.5 500,233.5C 500.489,231.396 501.655,231.062 503.5,232.5C 505.029,232.471 506.196,231.804 507,230.5C 507.374,231.416 507.874,232.25 508.5,233C 506.744,233.202 505.078,233.702 503.5,234.5C 503.667,234.833 503.833,235.167 504,235.5C 505.699,234.594 507.533,234.261 509.5,234.5C 509.773,231.863 510.106,229.53 510.5,227.5C 512.434,227.901 513.934,228.901 515,230.5C 515.684,229.216 515.517,228.049 514.5,227C 515.667,226.5 516.5,225.667 517,224.5C 518.323,227.059 520.157,227.725 522.5,226.5C 521.125,224.837 521.458,223.503 523.5,222.5C 523.154,221.304 522.654,221.304 522,222.5C 521.517,221.552 521.351,220.552 521.5,219.5C 522.5,219.5 523.5,219.5 524.5,219.5C 524.402,216.896 523.235,214.896 521,213.5C 519.739,213.759 518.739,214.426 518,215.5C 518.311,214.065 518.145,212.732 517.5,211.5C 517.808,210.692 518.308,210.025 519,209.5C 521.441,212.144 523.608,211.81 525.5,208.5C 524.726,207.289 523.893,207.289 523,208.5C 522.134,206.104 522.634,205.437 524.5,206.5C 524.296,205.471 524.796,204.471 526,203.5C 526.718,204.451 527.551,204.617 528.5,204C 527.299,203.097 526.465,201.931 526,200.5C 524.757,201.336 523.59,201.003 522.5,199.5C 523.186,197.936 523.019,196.269 522,194.5C 521.667,195.167 521.333,195.833 521,196.5C 520.417,194.998 519.584,193.665 518.5,192.5C 518.167,192.833 517.833,193.167 517.5,193.5C 519.66,195.093 519.827,196.76 518,198.5C 517.265,196.129 516.432,193.795 515.5,191.5C 515.846,190.304 516.346,190.304 517,191.5C 517.82,189.272 517.487,187.272 516,185.5C 514.605,186.815 513.605,186.481 513,184.5C 511.887,186.329 510.387,187.163 508.5,187C 510.194,184.639 512.194,182.639 514.5,181C 513.5,180.333 512.5,180.333 511.5,181C 509.066,183.551 506.066,185.051 502.5,185.5C 504.22,183.228 505.553,180.728 506.5,178C 505.833,177.667 505.167,177.333 504.5,177C 505.833,176.667 507.167,176.333 508.5,176C 507.643,175.311 506.977,174.478 506.5,173.5C 507.706,171.484 507.706,169.484 506.5,167.5C 504.366,165.402 502.032,164.569 499.5,165C 498.833,163.667 497.833,162.667 496.5,162C 497.5,161.667 498.5,161.333 499.5,161C 497.956,160.71 496.623,160.044 495.5,159C 495.833,158.667 496.167,158.333 496.5,158C 494.751,153.702 493.585,149.202 493,144.5C 492.56,142.924 491.727,141.59 490.5,140.5C 491.366,136.795 491.033,133.129 489.5,129.5C 492.833,127.748 494.499,128.748 494.5,132.5C 495.5,132.5 496.5,132.5 497.5,132.5C 497.528,135.916 498.528,138.916 500.5,141.5 Z"/></g>
<g><path style="opacity:1" fill="#a8a7a9" d="M 365.5,159.5 C 369.537,160.851 373.703,161.517 378,161.5C 391.677,157.214 404.177,159.381 415.5,168C 419.57,168.221 423.57,167.721 427.5,166.5C 425.664,169.183 424.664,172.183 424.5,175.5C 423.878,176.627 423.045,177.627 422,178.5C 421.827,184.348 421.327,190.015 420.5,195.5C 420.663,193.143 420.497,190.81 420,188.5C 419.511,204.196 411.844,214.196 397,218.5C 396.235,218.43 395.735,218.097 395.5,217.5C 411.278,211.941 417.778,200.941 415,184.5C 412.39,180.258 409.557,176.258 406.5,172.5C 407.465,171.279 407.298,169.946 406,168.5C 403.635,167.711 401.468,166.544 399.5,165C 401.5,165 403.5,165 405.5,165C 401.573,163.069 397.406,162.236 393,162.5C 383.199,165.298 373.366,165.131 363.5,162C 352.963,159.446 343.963,161.946 336.5,169.5C 337.591,166.572 339.591,164.406 342.5,163C 340.026,162.887 338.026,161.887 336.5,160C 338.208,158.49 339.874,156.99 341.5,155.5C 340.833,154.833 340.167,154.167 339.5,153.5C 341.045,152.548 342.712,152.215 344.5,152.5C 345.276,155.574 345.443,158.574 345,161.5C 351.557,158.404 358.391,157.737 365.5,159.5 Z"/></g>
<g><path style="opacity:0.847" fill="#848083" d="M 527.5,173.5 C 533.115,180.391 537.448,188.058 540.5,196.5C 536.69,190.899 532.856,185.232 529,179.5C 527.872,177.655 527.372,175.655 527.5,173.5 Z"/></g>
<g><path style="opacity:1" fill="#cacaca" d="M 391.5,184.5 C 387.843,200.657 378.009,210.657 362,214.5C 358.729,215.101 356.562,213.934 355.5,211C 355.684,209.624 356.351,208.791 357.5,208.5C 356.588,209.738 356.421,211.072 357,212.5C 374.289,212.216 384.622,203.55 388,186.5C 383.244,196.587 376.077,204.421 366.5,210C 365.5,210.667 364.5,210.667 363.5,210C 375.756,203.679 382.089,193.512 382.5,179.5C 385.279,181.624 388.279,183.291 391.5,184.5 Z"/></g>
<g><path style="opacity:1" fill="#2c2a2d" d="M 427.5,175.5 C 431.243,180.529 435.076,185.529 439,190.5C 440.632,192.96 440.632,195.293 439,197.5C 435.599,194.784 431.766,193.117 427.5,192.5C 426.4,190.505 425.4,187.839 424.5,184.5C 423.079,188.027 422.412,191.694 422.5,195.5C 422.007,197.806 421.674,200.139 421.5,202.5C 421.672,203.492 421.338,204.158 420.5,204.5C 419.624,204.631 418.957,204.298 418.5,203.5C 419.785,200.979 420.452,198.313 420.5,195.5C 421.327,190.015 421.827,184.348 422,178.5C 423.045,177.627 423.878,176.627 424.5,175.5C 425.5,174.167 426.5,174.167 427.5,175.5 Z"/></g>
<g><path style="opacity:1" fill="#3a3940" d="M 479.5,222.5 C 478.938,220.504 479.438,218.504 481,216.5C 481.309,217.766 481.809,218.933 482.5,220C 483.332,220.688 483.998,220.521 484.5,219.5C 483.004,217.167 481.17,215.167 479,213.5C 478.667,214.167 478.333,214.833 478,215.5C 477.338,214.016 476.504,212.683 475.5,211.5C 476.231,211.058 477.231,210.891 478.5,211C 477.643,210.311 476.977,209.478 476.5,208.5C 477.145,207.268 477.311,205.935 477,204.5C 477.903,207.873 479.57,211.206 482,214.5C 482.526,211.728 483.359,209.062 484.5,206.5C 485.451,205.674 486.451,205.508 487.5,206C 486.079,208.861 485.079,211.861 484.5,215C 485.167,215.667 485.833,215.667 486.5,215C 487.617,212.575 489.117,210.409 491,208.5C 492.212,209.776 493.045,211.276 493.5,213C 492.437,214.787 491.937,216.621 492,218.5C 494.481,219.022 496.814,219.022 499,218.5C 500.091,220.718 501.257,222.884 502.5,225C 499.953,228.303 500.953,229.637 505.5,229C 502.833,228 502.833,227 505.5,226C 503.408,225.047 503.075,223.714 504.5,222C 503.5,219.667 501.833,218 499.5,217C 500.451,216.282 500.617,215.449 500,214.5C 498.89,216.037 497.39,216.703 495.5,216.5C 495.302,214.425 495.135,212.425 495,210.5C 496.117,211.949 496.784,213.616 497,215.5C 498.117,214.051 498.784,212.384 499,210.5C 499.853,212.125 500.853,212.458 502,211.5C 502.483,212.448 502.649,213.448 502.5,214.5C 505.5,214.833 506.833,213.5 506.5,210.5C 504.088,210.756 502.421,209.756 501.5,207.5C 501.089,208.262 500.923,209.262 501,210.5C 500.147,208.875 499.147,208.542 498,209.5C 497.689,208.258 498.189,207.258 499.5,206.5C 499.154,205.304 498.654,205.304 498,206.5C 497.333,202.5 496.667,202.5 496,206.5C 496.236,202.989 497.402,199.656 499.5,196.5C 499.833,197.833 500.167,199.167 500.5,200.5C 500.154,201.696 499.654,201.696 499,200.5C 498.333,201.167 498.333,201.833 499,202.5C 499.941,204.061 501.108,205.395 502.5,206.5C 504.488,205.711 504.821,204.545 503.5,203C 505.79,202.21 506.123,200.876 504.5,199C 504.759,197.739 505.426,196.739 506.5,196C 505.289,194.887 505.289,193.72 506.5,192.5C 504.053,190.847 502.72,188.513 502.5,185.5C 506.066,185.051 509.066,183.551 511.5,181C 512.5,180.333 513.5,180.333 514.5,181C 512.194,182.639 510.194,184.639 508.5,187C 510.387,187.163 511.887,186.329 513,184.5C 513.605,186.481 514.605,186.815 516,185.5C 517.487,187.272 517.82,189.272 517,191.5C 516.346,190.304 515.846,190.304 515.5,191.5C 516.432,193.795 517.265,196.129 518,198.5C 519.827,196.76 519.66,195.093 517.5,193.5C 517.833,193.167 518.167,192.833 518.5,192.5C 519.584,193.665 520.417,194.998 521,196.5C 521.333,195.833 521.667,195.167 522,194.5C 523.019,196.269 523.186,197.936 522.5,199.5C 523.59,201.003 524.757,201.336 526,200.5C 526.465,201.931 527.299,203.097 528.5,204C 527.551,204.617 526.718,204.451 526,203.5C 524.796,204.471 524.296,205.471 524.5,206.5C 522.634,205.437 522.134,206.104 523,208.5C 523.893,207.289 524.726,207.289 525.5,208.5C 523.608,211.81 521.441,212.144 519,209.5C 518.308,210.025 517.808,210.692 517.5,211.5C 518.145,212.732 518.311,214.065 518,215.5C 518.739,214.426 519.739,213.759 521,213.5C 523.235,214.896 524.402,216.896 524.5,219.5C 523.5,219.5 522.5,219.5 521.5,219.5C 521.351,220.552 521.517,221.552 522,222.5C 522.654,221.304 523.154,221.304 523.5,222.5C 521.458,223.503 521.125,224.837 522.5,226.5C 520.157,227.725 518.323,227.059 517,224.5C 516.5,225.667 515.667,226.5 514.5,227C 515.517,228.049 515.684,229.216 515,230.5C 513.934,228.901 512.434,227.901 510.5,227.5C 510.106,229.53 509.773,231.863 509.5,234.5C 507.533,234.261 505.699,234.594 504,235.5C 503.833,235.167 503.667,234.833 503.5,234.5C 505.078,233.702 506.744,233.202 508.5,233C 507.874,232.25 507.374,231.416 507,230.5C 506.196,231.804 505.029,232.471 503.5,232.5C 501.655,231.062 500.489,231.396 500,233.5C 499.333,229.5 498.667,229.5 498,233.5C 496.647,232.315 495.48,230.981 494.5,229.5C 493.575,230.641 492.741,230.641 492,229.5C 490.958,232.804 492.125,234.971 495.5,236C 493.075,236.293 491.242,237.459 490,239.5C 488.117,238.347 487.284,236.681 487.5,234.5C 483.162,234.378 482.828,234.045 486.5,233.5C 486.843,230.144 485.843,228.144 483.5,227.5C 483.833,226.5 484.5,225.833 485.5,225.5C 486.609,226.59 487.609,226.59 488.5,225.5C 487.167,224.5 485.833,223.5 484.5,222.5C 482.812,222.542 481.146,222.542 479.5,222.5 Z"/></g>
<g><path style="opacity:0.047" fill="#868385" d="M 422.5,195.5 C 422.955,199.156 423.289,203.156 423.5,207.5C 422.833,205.833 422.167,204.167 421.5,202.5C 421.674,200.139 422.007,197.806 422.5,195.5 Z"/></g>
<g><path style="opacity:1" fill="#4c4b51" d="M 501.5,143.5 C 502.721,144.028 503.887,144.695 505,145.5C 506.401,150.261 508.735,154.594 512,158.5C 515.075,159.314 516.742,161.314 517,164.5C 520.513,167.581 524.013,170.581 527.5,173.5C 527.372,175.655 527.872,177.655 529,179.5C 532.856,185.232 536.69,190.899 540.5,196.5C 540.511,198.547 540.844,200.547 541.5,202.5C 544.276,207.718 546.776,213.051 549,218.5C 549.708,219.381 550.542,220.047 551.5,220.5C 551.421,223.271 551.921,225.937 553,228.5C 553.417,229.756 554.25,230.423 555.5,230.5C 555.5,230.833 555.5,231.167 555.5,231.5C 555.616,234.86 555.949,238.193 556.5,241.5C 554.555,236.76 551.889,232.426 548.5,228.5C 547.431,218.781 543.931,210.115 538,202.5C 536.577,195.036 533.243,188.703 528,183.5C 527.545,180.243 525.879,177.909 523,176.5C 518.064,169.614 512.897,162.947 507.5,156.5C 505.471,153.473 504.471,150.14 504.5,146.5C 503.5,146.5 502.5,146.5 501.5,146.5C 501.5,145.5 501.5,144.5 501.5,143.5 Z"/></g>
<g><path style="opacity:1" fill="#36343b" d="M 502.5,185.5 C 502.72,188.513 504.053,190.847 506.5,192.5C 505.289,193.72 505.289,194.887 506.5,196C 505.426,196.739 504.759,197.739 504.5,199C 506.123,200.876 505.79,202.21 503.5,203C 504.821,204.545 504.488,205.711 502.5,206.5C 501.108,205.395 499.941,204.061 499,202.5C 498.333,201.833 498.333,201.167 499,200.5C 499.654,201.696 500.154,201.696 500.5,200.5C 500.167,199.167 499.833,197.833 499.5,196.5C 497.402,199.656 496.236,202.989 496,206.5C 496.667,202.5 497.333,202.5 498,206.5C 498.654,205.304 499.154,205.304 499.5,206.5C 498.189,207.258 497.689,208.258 498,209.5C 499.147,208.542 500.147,208.875 501,210.5C 500.923,209.262 501.089,208.262 501.5,207.5C 502.421,209.756 504.088,210.756 506.5,210.5C 506.833,213.5 505.5,214.833 502.5,214.5C 502.649,213.448 502.483,212.448 502,211.5C 500.853,212.458 499.853,212.125 499,210.5C 498.784,212.384 498.117,214.051 497,215.5C 496.784,213.616 496.117,211.949 495,210.5C 495.135,212.425 495.302,214.425 495.5,216.5C 497.39,216.703 498.89,216.037 500,214.5C 500.617,215.449 500.451,216.282 499.5,217C 501.833,218 503.5,219.667 504.5,222C 503.075,223.714 503.408,225.047 505.5,226C 502.833,227 502.833,228 505.5,229C 500.953,229.637 499.953,228.303 502.5,225C 501.257,222.884 500.091,220.718 499,218.5C 496.814,219.022 494.481,219.022 492,218.5C 491.937,216.621 492.437,214.787 493.5,213C 493.045,211.276 492.212,209.776 491,208.5C 489.117,210.409 487.617,212.575 486.5,215C 485.833,215.667 485.167,215.667 484.5,215C 485.079,211.861 486.079,208.861 487.5,206C 486.451,205.508 485.451,205.674 484.5,206.5C 483.359,209.062 482.526,211.728 482,214.5C 479.57,211.206 477.903,207.873 477,204.5C 477.311,205.935 477.145,207.268 476.5,208.5C 476.977,209.478 477.643,210.311 478.5,211C 477.231,210.891 476.231,211.058 475.5,211.5C 472.982,210.306 472.982,209.14 475.5,208C 471.641,205.516 468.641,202.849 466.5,200C 464.432,199.313 462.432,199.48 460.5,200.5C 459.059,199.696 457.559,199.029 456,198.5C 450.88,200.034 446.047,202.034 441.5,204.5C 442.598,203.603 442.598,202.77 441.5,202C 444.648,200.924 447.648,199.591 450.5,198C 450.146,196.374 450.146,194.541 450.5,192.5C 452.527,192.662 454.527,192.495 456.5,192C 456.93,191.08 457.264,190.247 457.5,189.5C 458.5,190.833 459.5,190.833 460.5,189.5C 462.12,192.058 463.62,192.058 465,189.5C 466.748,191.135 467.915,193.135 468.5,195.5C 470.001,194.248 471.668,193.248 473.5,192.5C 475.714,194.924 476.714,194.257 476.5,190.5C 479.368,190.915 481.535,189.915 483,187.5C 485.173,190.277 485.673,190.11 484.5,187C 486.384,186.784 488.051,186.117 489.5,185C 488.216,183.703 488.383,182.536 490,181.5C 490.368,182.91 491.201,183.91 492.5,184.5C 493.72,183.289 494.887,183.289 496,184.5C 496.667,183.833 497.333,183.167 498,182.5C 498.658,184.108 498.158,185.275 496.5,186C 497.416,186.374 498.25,186.874 499,187.5C 499.667,184.833 500.333,184.833 501,187.5C 501.278,186.584 501.778,185.918 502.5,185.5 Z"/></g>
<g><path style="opacity:0.992" fill="#a2a1a3" d="M 381.5,167.5 C 379.631,168.165 377.631,168.831 375.5,169.5C 377.086,171.67 378.42,174.004 379.5,176.5C 383.518,178.841 387.518,181.174 391.5,183.5C 391.5,183.833 391.5,184.167 391.5,184.5C 388.279,183.291 385.279,181.624 382.5,179.5C 382.089,193.512 375.756,203.679 363.5,210C 364.5,210.667 365.5,210.667 366.5,210C 376.077,204.421 383.244,196.587 388,186.5C 384.622,203.55 374.289,212.216 357,212.5C 356.421,211.072 356.588,209.738 357.5,208.5C 376.491,202.189 382.158,189.855 374.5,171.5C 365.999,168.917 357.333,168.083 348.5,169C 338.328,174.518 334.495,183.018 337,194.5C 337.895,198.763 339.395,202.763 341.5,206.5C 341.591,208.698 340.925,209.031 339.5,207.5C 335.772,200.983 333.439,193.983 332.5,186.5C 333.102,182.13 333.769,177.797 334.5,173.5C 334.932,172.29 335.599,171.29 336.5,170.5C 336.435,170.938 336.601,171.272 337,171.5C 342.173,165.664 348.673,162.664 356.5,162.5C 364.834,164.345 373.167,166.011 381.5,167.5 Z"/></g>
<g><path style="opacity:0.996" fill="#7e7c80" d="M 540.5,196.5 C 545.225,203.953 548.891,211.953 551.5,220.5C 550.542,220.047 549.708,219.381 549,218.5C 546.776,213.051 544.276,207.718 541.5,202.5C 540.844,200.547 540.511,198.547 540.5,196.5 Z"/></g>
<g><path style="opacity:0.957" fill="#c9cbce" d="M 332.5,186.5 C 333.439,193.983 335.772,200.983 339.5,207.5C 339.389,208.117 339.056,208.617 338.5,209C 345.855,217.678 355.189,222.678 366.5,224C 377.202,224.776 387.869,224.443 398.5,223C 402.883,221.138 407.216,219.305 411.5,217.5C 408.744,220.389 405.411,222.556 401.5,224C 383.349,230.316 365.349,229.983 347.5,223C 335.847,215.187 329.181,204.354 327.5,190.5C 328.458,190.953 329.292,191.619 330,192.5C 330.333,189.5 330.667,186.5 331,183.5C 331.232,184.737 331.732,185.737 332.5,186.5 Z"/></g>
<g><path style="opacity:0.844" fill="#6a696d" d="M 464.5,239.5 C 462.654,241.03 461.654,243.03 461.5,245.5C 463.272,247.606 465.438,249.273 468,250.5C 472.217,256.832 473.551,263.832 472,271.5C 470.885,274.225 469.218,276.558 467,278.5C 466.333,280.167 466.333,281.833 467,283.5C 472.001,288.263 476.001,293.596 479,299.5C 479.333,302.167 479.667,304.833 480,307.5C 481.145,308.636 482.312,309.636 483.5,310.5C 482.167,310.5 480.833,310.5 479.5,310.5C 478.161,305.14 476.328,299.806 474,294.5C 470.194,290.694 466.36,286.86 462.5,283C 464.633,278.853 466.799,274.686 469,270.5C 469.937,265.597 469.27,260.93 467,256.5C 464.333,253.833 461.667,251.167 459,248.5C 458.333,246.5 458.333,244.5 459,242.5C 466.784,232.025 466.284,222.025 457.5,212.5C 455.615,211.391 453.615,210.557 451.5,210C 444.176,210.204 436.843,210.204 429.5,210C 427.389,209.155 425.389,208.322 423.5,207.5C 432.843,207.165 442.176,206.999 451.5,207C 454.833,208.667 458.167,210.333 461.5,212C 464.804,214.273 466.304,217.439 466,221.5C 466.73,227.637 466.23,233.637 464.5,239.5 Z"/></g>
<g><path style="opacity:1" fill="#302e35" d="M 548.5,228.5 C 551.889,232.426 554.555,236.76 556.5,241.5C 559.481,253.031 561.814,264.698 563.5,276.5C 564.5,276.5 565.5,276.5 566.5,276.5C 568.029,287.456 569.363,298.456 570.5,309.5C 570.167,309.5 569.833,309.5 569.5,309.5C 567.537,300.298 566.204,290.965 565.5,281.5C 564.5,281.5 563.5,281.5 562.5,281.5C 561.801,274.397 560.468,267.397 558.5,260.5C 554.82,253.049 551.653,245.383 549,237.5C 546.482,235.318 545.315,232.818 545.5,230C 543.208,227.976 542.541,228.31 543.5,231C 542.365,231.749 541.365,231.583 540.5,230.5C 540.709,229.914 541.043,229.414 541.5,229C 538.886,226.662 536.886,226.995 535.5,230C 537.317,232.606 537.817,235.44 537,238.5C 536.577,237.044 535.744,236.544 534.5,237C 535.167,238.333 536.167,239.333 537.5,240C 537.167,240.333 536.833,240.667 536.5,241C 538.211,242.133 538.711,243.633 538,245.5C 537.396,243.314 536.23,243.148 534.5,245C 536.891,246.309 536.891,247.309 534.5,248C 536.578,250.134 538.412,249.968 540,247.5C 540.5,248.5 541,249.5 541.5,250.5C 540.572,251.768 540.405,253.101 541,254.5C 543.269,253.536 545.102,254.202 546.5,256.5C 544.838,257.327 543.505,258.493 542.5,260C 543.448,260.483 544.448,260.649 545.5,260.5C 545.413,263.598 545.913,263.932 547,261.5C 547.374,262.416 547.874,263.25 548.5,264C 546.639,265.028 545.305,266.528 544.5,268.5C 545.002,269.521 545.668,269.688 546.5,269C 546.93,268.08 547.264,267.247 547.5,266.5C 548.624,267.914 549.624,269.414 550.5,271C 549.833,271.333 549.167,271.667 548.5,272C 550.112,272.72 551.612,272.554 553,271.5C 553.654,274.008 554.821,276.174 556.5,278C 555.833,278.667 555.167,279.333 554.5,280C 555.167,282.333 555.833,284.667 556.5,287C 555.366,288.016 555.699,288.683 557.5,289C 556.402,289.77 556.402,290.603 557.5,291.5C 556.542,291.953 555.708,292.619 555,293.5C 553.723,299.989 552.223,299.989 550.5,293.5C 551.552,293.649 552.552,293.483 553.5,293C 551.343,292.922 549.343,292.755 547.5,292.5C 546.186,293.313 545.019,294.313 544,295.5C 543.5,295 543,294.5 542.5,294C 544.806,292.364 547.14,290.031 549.5,287C 545.353,285.202 545.02,283.368 548.5,281.5C 545.934,278.048 543.601,274.382 541.5,270.5C 542.441,270.511 543.108,270.011 543.5,269C 543.333,268.5 543.167,268 543,267.5C 540.609,268.602 540.109,267.936 541.5,265.5C 541,264.5 540.5,263.5 540,262.5C 539.535,263.931 538.701,265.097 537.5,266C 540.521,268.395 541.021,271.229 539,274.5C 538.851,271.721 538.017,271.221 536.5,273C 537.749,275.21 537.582,277.376 536,279.5C 535.28,277.888 535.446,276.388 536.5,275C 534.104,269.023 532.104,269.189 530.5,275.5C 528.5,275.833 526.5,276.167 524.5,276.5C 525.04,277.748 525.707,278.915 526.5,280C 526.167,280.167 525.833,280.333 525.5,280.5C 523.667,278.833 521.833,277.167 520,275.5C 519.667,275.833 519.333,276.167 519,276.5C 518.5,275.333 517.667,274.5 516.5,274C 518.455,271.832 519.121,269.498 518.5,267C 519.793,266.51 521.127,266.343 522.5,266.5C 522.328,268.492 522.995,270.158 524.5,271.5C 523.167,272.62 522.667,273.953 523,275.5C 526.502,274.17 529.336,272.003 531.5,269C 538.038,269.265 538.038,268.432 531.5,266.5C 529.016,269.501 526.683,269.667 524.5,267C 524.835,265.497 524.835,264.164 524.5,263C 523.5,262.333 522.5,262.333 521.5,263C 522.451,263.718 522.617,264.551 522,265.5C 521,264.167 520,264.167 519,265.5C 517.36,261.66 515.86,261.66 514.5,265.5C 512.955,263.605 511.455,261.605 510,259.5C 509.433,262.8 507.933,262.966 505.5,260C 507.566,257.223 506.733,255.056 503,253.5C 502.5,253.833 502,254.167 501.5,254.5C 504.261,256.987 503.927,258.987 500.5,260.5C 499.185,258.865 499.185,257.199 500.5,255.5C 498.505,254.705 496.505,254.039 494.5,253.5C 492.133,251.802 490.466,249.469 489.5,246.5C 490.716,245.904 492.049,245.737 493.5,246C 491.365,245.124 490.031,243.624 489.5,241.5C 491.697,241.351 494.03,240.518 496.5,239C 495.304,238.346 495.304,237.846 496.5,237.5C 500.353,238.312 504.353,238.312 508.5,237.5C 510.005,234.869 510.671,235.203 510.5,238.5C 509.127,238.343 507.793,238.51 506.5,239C 508.351,240.684 510.018,242.517 511.5,244.5C 511.669,243.603 512.002,242.603 512.5,241.5C 513.086,241.709 513.586,242.043 514,242.5C 514.49,241.207 514.657,239.873 514.5,238.5C 518.701,238.442 519.201,239.442 516,241.5C 515.619,245.277 516.286,245.277 518,241.5C 519,242.5 520,243.5 521,244.5C 521.637,242.697 522.803,241.364 524.5,240.5C 522.377,238.255 521.377,235.588 521.5,232.5C 523.124,232.36 524.29,233.027 525,234.5C 525.605,232.519 526.605,232.185 528,233.5C 528.645,232.354 529.478,231.354 530.5,230.5C 529.998,229.284 529.665,228.117 529.5,227C 530.126,226.25 530.626,225.416 531,224.5C 532.085,226.657 533.251,226.824 534.5,225C 532.464,222.5 532.13,219.833 533.5,217C 532.643,216.311 531.977,215.478 531.5,214.5C 532.816,213.193 533.816,211.693 534.5,210C 533.5,209.667 532.5,209.333 531.5,209C 533.167,207 534.833,207 536.5,209C 535.74,210.441 535.074,211.941 534.5,213.5C 535.397,213.669 536.397,214.002 537.5,214.5C 538.309,216.071 538.643,217.738 538.5,219.5C 541.772,219.996 544.105,220.996 545.5,222.5C 545.461,225.089 546.461,227.089 548.5,228.5 Z"/></g>
<g><path style="opacity:0.99" fill="#bababc" d="M 420.5,195.5 C 420.452,198.313 419.785,200.979 418.5,203.5C 418.957,204.298 419.624,204.631 420.5,204.5C 420.628,206.655 420.128,208.655 419,210.5C 417.285,213.717 414.785,216.05 411.5,217.5C 407.216,219.305 402.883,221.138 398.5,223C 387.869,224.443 377.202,224.776 366.5,224C 355.189,222.678 345.855,217.678 338.5,209C 339.056,208.617 339.389,208.117 339.5,207.5C 340.925,209.031 341.591,208.698 341.5,206.5C 349.431,215.464 359.431,220.131 371.5,220.5C 379.553,219.829 387.553,218.829 395.5,217.5C 395.735,218.097 396.235,218.43 397,218.5C 411.844,214.196 419.511,204.196 420,188.5C 420.497,190.81 420.663,193.143 420.5,195.5 Z"/></g>
<g><path style="opacity:0.216" fill="#8d8c90" d="M 551.5,220.5 C 553.346,223.54 554.679,226.873 555.5,230.5C 554.25,230.423 553.417,229.756 553,228.5C 551.921,225.937 551.421,223.271 551.5,220.5 Z"/></g>
<g><path style="opacity:0.145" fill="#8a878b" d="M 555.5,231.5 C 558.236,237.436 559.902,243.77 560.5,250.5C 559.167,247.5 557.833,244.5 556.5,241.5C 555.949,238.193 555.616,234.86 555.5,231.5 Z"/></g>
<g><path style="opacity:1" fill="#2f2d32" d="M 475.5,211.5 C 476.504,212.683 477.338,214.016 478,215.5C 478.333,214.833 478.667,214.167 479,213.5C 481.17,215.167 483.004,217.167 484.5,219.5C 483.998,220.521 483.332,220.688 482.5,220C 481.809,218.933 481.309,217.766 481,216.5C 479.438,218.504 478.938,220.504 479.5,222.5C 476.887,223.095 476.887,223.929 479.5,225C 478.549,225.718 478.383,226.551 479,227.5C 480.011,226.663 481.178,226.33 482.5,226.5C 482.326,229.874 481.826,233.207 481,236.5C 480.577,235.044 479.744,234.544 478.5,235C 476.973,237.439 474.973,239.439 472.5,241C 474.526,242.959 476.692,243.793 479,243.5C 479.333,242.5 479.667,241.5 480,240.5C 481,241.833 482,243.167 483,244.5C 484.508,242.162 486.675,241.162 489.5,241.5C 490.031,243.624 491.365,245.124 493.5,246C 492.049,245.737 490.716,245.904 489.5,246.5C 490.466,249.469 492.133,251.802 494.5,253.5C 493.603,254.598 492.77,254.598 492,253.5C 491.309,255.891 490.309,255.891 489,253.5C 488.493,254.996 488.993,256.163 490.5,257C 488.863,257.601 487.197,258.101 485.5,258.5C 484.353,258.182 483.519,257.516 483,256.5C 481.173,261.647 480.007,261.314 479.5,255.5C 476.561,255.082 474.228,253.582 472.5,251C 469.027,248.682 465.361,246.849 461.5,245.5C 461.654,243.03 462.654,241.03 464.5,239.5C 468.426,230.559 469.26,221.226 467,211.5C 464.917,209.133 462.417,207.299 459.5,206C 453.319,205.828 447.319,205.328 441.5,204.5C 446.047,202.034 450.88,200.034 456,198.5C 457.559,199.029 459.059,199.696 460.5,200.5C 462.432,199.48 464.432,199.313 466.5,200C 468.641,202.849 471.641,205.516 475.5,208C 472.982,209.14 472.982,210.306 475.5,211.5 Z"/></g>
<g><path style="opacity:1" fill="#2a2930" d="M 569.5,309.5 C 569.167,310.167 568.833,310.833 568.5,311.5C 565.159,313.5 561.493,314.5 557.5,314.5C 555.571,314.769 553.905,314.269 552.5,313C 554.976,311.691 556.976,309.858 558.5,307.5C 557.653,305.939 557.986,304.439 559.5,303C 558.763,299.978 559.096,296.978 560.5,294C 559.922,292.583 558.922,291.75 557.5,291.5C 556.402,290.603 556.402,289.77 557.5,289C 555.699,288.683 555.366,288.016 556.5,287C 555.833,284.667 555.167,282.333 554.5,280C 555.167,279.333 555.833,278.667 556.5,278C 554.821,276.174 553.654,274.008 553,271.5C 551.612,272.554 550.112,272.72 548.5,272C 549.167,271.667 549.833,271.333 550.5,271C 549.624,269.414 548.624,267.914 547.5,266.5C 547.264,267.247 546.93,268.08 546.5,269C 545.668,269.688 545.002,269.521 544.5,268.5C 545.305,266.528 546.639,265.028 548.5,264C 547.874,263.25 547.374,262.416 547,261.5C 545.913,263.932 545.413,263.598 545.5,260.5C 544.448,260.649 543.448,260.483 542.5,260C 543.505,258.493 544.838,257.327 546.5,256.5C 545.102,254.202 543.269,253.536 541,254.5C 540.405,253.101 540.572,251.768 541.5,250.5C 541,249.5 540.5,248.5 540,247.5C 538.412,249.968 536.578,250.134 534.5,248C 536.891,247.309 536.891,246.309 534.5,245C 536.23,243.148 537.396,243.314 538,245.5C 538.711,243.633 538.211,242.133 536.5,241C 536.833,240.667 537.167,240.333 537.5,240C 536.167,239.333 535.167,238.333 534.5,237C 535.744,236.544 536.577,237.044 537,238.5C 537.817,235.44 537.317,232.606 535.5,230C 536.886,226.995 538.886,226.662 541.5,229C 541.043,229.414 540.709,229.914 540.5,230.5C 541.365,231.583 542.365,231.749 543.5,231C 542.541,228.31 543.208,227.976 545.5,230C 545.315,232.818 546.482,235.318 549,237.5C 551.653,245.383 554.82,253.049 558.5,260.5C 560.468,267.397 561.801,274.397 562.5,281.5C 563.5,281.5 564.5,281.5 565.5,281.5C 566.204,290.965 567.537,300.298 569.5,309.5 Z"/></g>
<g><path style="opacity:1" fill="#333138" d="M 557.5,291.5 C 558.922,291.75 559.922,292.583 560.5,294C 559.096,296.978 558.763,299.978 559.5,303C 557.986,304.439 557.653,305.939 558.5,307.5C 556.976,309.858 554.976,311.691 552.5,313C 553.905,314.269 555.571,314.769 557.5,314.5C 547.106,318.087 536.272,319.754 525,319.5C 518.465,319.433 511.965,318.933 505.5,318C 503.148,317.76 501.148,316.927 499.5,315.5C 500.514,314.235 502.014,313.569 504,313.5C 512.458,314.59 520.792,314.59 529,313.5C 530.261,313.241 531.261,312.574 532,311.5C 533.401,313.192 535.234,313.859 537.5,313.5C 537.651,310.282 538.484,309.949 540,312.5C 541.688,311.675 541.855,310.675 540.5,309.5C 542.837,308.483 544.504,306.816 545.5,304.5C 540.736,304.564 538.236,301.898 538,296.5C 537.751,297.624 537.251,298.624 536.5,299.5C 535.61,296.606 534.276,293.939 532.5,291.5C 530.879,293.423 529.046,295.089 527,296.5C 526,295.833 525,295.167 524,294.5C 523.534,289.686 521.034,287.519 516.5,288C 519.941,289.712 520.108,291.545 517,293.5C 515.732,291.283 514.232,289.283 512.5,287.5C 510.884,288.115 509.551,289.115 508.5,290.5C 507.28,289.289 506.113,289.289 505,290.5C 504.719,293.097 504.552,295.43 504.5,297.5C 503.914,297.291 503.414,296.957 503,296.5C 502.667,294.5 502.333,292.5 502,290.5C 501.309,292.891 500.309,292.891 499,290.5C 498.508,291.549 498.674,292.549 499.5,293.5C 498.672,294.415 497.672,295.081 496.5,295.5C 494.5,293.833 492.5,292.167 490.5,290.5C 487.781,291.255 485.281,290.589 483,288.5C 482.544,289.744 483.044,290.577 484.5,291C 479.839,290.489 476.172,288.155 473.5,284C 472.207,283.51 470.873,283.343 469.5,283.5C 472.981,278.077 475.314,272.077 476.5,265.5C 477.325,264.614 478.325,264.281 479.5,264.5C 482.167,271.396 480.5,276.896 474.5,281C 475.108,281.87 475.941,282.37 477,282.5C 480.015,281.876 482.849,280.876 485.5,279.5C 486.741,280.037 487.908,280.704 489,281.5C 491.329,280.174 493.662,278.84 496,277.5C 496.333,278.167 496.667,278.833 497,279.5C 497.606,276.614 499.106,274.448 501.5,273C 500.483,271.951 500.316,270.784 501,269.5C 501.419,270.672 502.085,271.672 503,272.5C 503.495,270.527 503.662,268.527 503.5,266.5C 507.795,266.721 508.462,265.388 505.5,262.5C 503.794,265.19 501.461,267.19 498.5,268.5C 497.914,268.291 497.414,267.957 497,267.5C 497.148,266.175 496.982,265.008 496.5,264C 498.224,263.552 498.891,262.718 498.5,261.5C 500.005,264.131 500.671,263.797 500.5,260.5C 503.927,258.987 504.261,256.987 501.5,254.5C 502,254.167 502.5,253.833 503,253.5C 506.733,255.056 507.566,257.223 505.5,260C 507.933,262.966 509.433,262.8 510,259.5C 511.455,261.605 512.955,263.605 514.5,265.5C 515.86,261.66 517.36,261.66 519,265.5C 520,264.167 521,264.167 522,265.5C 522.617,264.551 522.451,263.718 521.5,263C 522.5,262.333 523.5,262.333 524.5,263C 524.835,264.164 524.835,265.497 524.5,267C 526.683,269.667 529.016,269.501 531.5,266.5C 538.038,268.432 538.038,269.265 531.5,269C 529.336,272.003 526.502,274.17 523,275.5C 522.667,273.953 523.167,272.62 524.5,271.5C 522.995,270.158 522.328,268.492 522.5,266.5C 521.127,266.343 519.793,266.51 518.5,267C 519.121,269.498 518.455,271.832 516.5,274C 517.667,274.5 518.5,275.333 519,276.5C 519.333,276.167 519.667,275.833 520,275.5C 521.833,277.167 523.667,278.833 525.5,280.5C 525.833,280.333 526.167,280.167 526.5,280C 525.707,278.915 525.04,277.748 524.5,276.5C 526.5,276.167 528.5,275.833 530.5,275.5C 532.104,269.189 534.104,269.023 536.5,275C 535.446,276.388 535.28,277.888 536,279.5C 537.582,277.376 537.749,275.21 536.5,273C 538.017,271.221 538.851,271.721 539,274.5C 541.021,271.229 540.521,268.395 537.5,266C 538.701,265.097 539.535,263.931 540,262.5C 540.5,263.5 541,264.5 541.5,265.5C 540.109,267.936 540.609,268.602 543,267.5C 543.167,268 543.333,268.5 543.5,269C 543.108,270.011 542.441,270.511 541.5,270.5C 543.601,274.382 545.934,278.048 548.5,281.5C 545.02,283.368 545.353,285.202 549.5,287C 547.14,290.031 544.806,292.364 542.5,294C 543,294.5 543.5,295 544,295.5C 545.019,294.313 546.186,293.313 547.5,292.5C 549.343,292.755 551.343,292.922 553.5,293C 552.552,293.483 551.552,293.649 550.5,293.5C 552.223,299.989 553.723,299.989 555,293.5C 555.708,292.619 556.542,291.953 557.5,291.5 Z"/></g>
<g><path style="opacity:0.975" fill="#5d5c62" d="M 556.5,241.5 C 557.833,244.5 559.167,247.5 560.5,250.5C 562.878,259.055 564.878,267.722 566.5,276.5C 565.5,276.5 564.5,276.5 563.5,276.5C 561.814,264.698 559.481,253.031 556.5,241.5 Z"/></g>
<g><path style="opacity:0.31" fill="#e9e9ea" d="M 569.5,285.5 C 570.5,285.5 571.5,285.5 572.5,285.5C 572.372,289.881 572.705,294.215 573.5,298.5C 569.866,295.059 568.533,290.726 569.5,285.5 Z"/></g>
<g><path style="opacity:1" fill="#36353b" d="M 461.5,245.5 C 465.361,246.849 469.027,248.682 472.5,251C 474.228,253.582 476.561,255.082 479.5,255.5C 480.007,261.314 481.173,261.647 483,256.5C 483.519,257.516 484.353,258.182 485.5,258.5C 487.197,258.101 488.863,257.601 490.5,257C 488.993,256.163 488.493,254.996 489,253.5C 490.309,255.891 491.309,255.891 492,253.5C 492.77,254.598 493.603,254.598 494.5,253.5C 496.505,254.039 498.505,254.705 500.5,255.5C 499.185,257.199 499.185,258.865 500.5,260.5C 500.671,263.797 500.005,264.131 498.5,261.5C 498.891,262.718 498.224,263.552 496.5,264C 496.982,265.008 497.148,266.175 497,267.5C 497.414,267.957 497.914,268.291 498.5,268.5C 501.461,267.19 503.794,265.19 505.5,262.5C 508.462,265.388 507.795,266.721 503.5,266.5C 503.662,268.527 503.495,270.527 503,272.5C 502.085,271.672 501.419,270.672 501,269.5C 500.316,270.784 500.483,271.951 501.5,273C 499.106,274.448 497.606,276.614 497,279.5C 496.667,278.833 496.333,278.167 496,277.5C 493.662,278.84 491.329,280.174 489,281.5C 487.908,280.704 486.741,280.037 485.5,279.5C 482.849,280.876 480.015,281.876 477,282.5C 475.941,282.37 475.108,281.87 474.5,281C 480.5,276.896 482.167,271.396 479.5,264.5C 478.325,264.281 477.325,264.614 476.5,265.5C 475.314,272.077 472.981,278.077 469.5,283.5C 470.873,283.343 472.207,283.51 473.5,284C 476.172,288.155 479.839,290.489 484.5,291C 483.044,290.577 482.544,289.744 483,288.5C 485.281,290.589 487.781,291.255 490.5,290.5C 492.5,292.167 494.5,293.833 496.5,295.5C 497.672,295.081 498.672,294.415 499.5,293.5C 498.674,292.549 498.508,291.549 499,290.5C 500.309,292.891 501.309,292.891 502,290.5C 502.333,292.5 502.667,294.5 503,296.5C 503.414,296.957 503.914,297.291 504.5,297.5C 504.552,295.43 504.719,293.097 505,290.5C 506.113,289.289 507.28,289.289 508.5,290.5C 509.551,289.115 510.884,288.115 512.5,287.5C 514.232,289.283 515.732,291.283 517,293.5C 520.108,291.545 519.941,289.712 516.5,288C 521.034,287.519 523.534,289.686 524,294.5C 525,295.167 526,295.833 527,296.5C 529.046,295.089 530.879,293.423 532.5,291.5C 534.276,293.939 535.61,296.606 536.5,299.5C 537.251,298.624 537.751,297.624 538,296.5C 538.236,301.898 540.736,304.564 545.5,304.5C 544.504,306.816 542.837,308.483 540.5,309.5C 541.855,310.675 541.688,311.675 540,312.5C 538.484,309.949 537.651,310.282 537.5,313.5C 535.234,313.859 533.401,313.192 532,311.5C 531.261,312.574 530.261,313.241 529,313.5C 520.792,314.59 512.458,314.59 504,313.5C 502.014,313.569 500.514,314.235 499.5,315.5C 497.435,315.483 495.435,315.15 493.5,314.5C 490.167,313.167 486.833,311.833 483.5,310.5C 482.312,309.636 481.145,308.636 480,307.5C 479.667,304.833 479.333,302.167 479,299.5C 476.001,293.596 472.001,288.263 467,283.5C 466.333,281.833 466.333,280.167 467,278.5C 469.218,276.558 470.885,274.225 472,271.5C 473.551,263.832 472.217,256.832 468,250.5C 465.438,249.273 463.272,247.606 461.5,245.5 Z"/></g>
<g><path style="opacity:1" fill="#69676d" d="M 566.5,276.5 C 567.368,279.449 568.368,282.449 569.5,285.5C 568.533,290.726 569.866,295.059 573.5,298.5C 573.5,299.167 573.5,299.833 573.5,300.5C 573.862,304.081 572.862,307.081 570.5,309.5C 569.363,298.456 568.029,287.456 566.5,276.5 Z"/></g>
<g><path style="opacity:0.58" fill="#8f8d8f" d="M 479.5,310.5 C 480.833,310.5 482.167,310.5 483.5,310.5C 486.833,311.833 490.167,313.167 493.5,314.5C 495.767,316.778 498.433,318.611 501.5,320C 504.036,320.186 506.369,320.686 508.5,321.5C 506.833,321.5 505.167,321.5 503.5,321.5C 494.995,318.914 486.995,315.247 479.5,310.5 Z"/></g>
<g><path style="opacity:1" fill="#625f65" d="M 568.5,311.5 C 568.423,312.75 567.756,313.583 566.5,314C 550.766,321.703 534.1,324.536 516.5,322.5C 513.763,322.599 511.096,322.265 508.5,321.5C 506.369,320.686 504.036,320.186 501.5,320C 498.433,318.611 495.767,316.778 493.5,314.5C 495.435,315.15 497.435,315.483 499.5,315.5C 501.148,316.927 503.148,317.76 505.5,318C 511.965,318.933 518.465,319.433 525,319.5C 536.272,319.754 547.106,318.087 557.5,314.5C 561.493,314.5 565.159,313.5 568.5,311.5 Z"/></g>
<g><path style="opacity:0.388" fill="#949193" d="M 573.5,300.5 C 575.583,305.863 574.249,310.363 569.5,314C 560.917,319.472 551.584,322.638 541.5,323.5C 534.745,323.207 528.078,323.54 521.5,324.5C 519.833,324.5 518.167,324.5 516.5,324.5C 516.5,323.833 516.5,323.167 516.5,322.5C 534.1,324.536 550.766,321.703 566.5,314C 567.756,313.583 568.423,312.75 568.5,311.5C 568.833,310.833 569.167,310.167 569.5,309.5C 569.833,309.5 570.167,309.5 570.5,309.5C 572.862,307.081 573.862,304.081 573.5,300.5 Z"/></g>
<g><path style="opacity:0.153" fill="#dcdcdd" d="M 503.5,321.5 C 505.167,321.5 506.833,321.5 508.5,321.5C 511.096,322.265 513.763,322.599 516.5,322.5C 516.5,323.167 516.5,323.833 516.5,324.5C 511.778,324.626 507.445,323.626 503.5,321.5 Z"/></g>
<g><path style="opacity:0.025" fill="#e1e0e1" d="M 541.5,323.5 C 537.777,324.997 533.777,325.663 529.5,325.5C 526.645,325.497 523.978,325.164 521.5,324.5C 528.078,323.54 534.745,323.207 541.5,323.5 Z"/></g>
</svg>
