<?xml version="1.0" encoding="UTF-8"?>
<!DOCTYPE svg PUBLIC "-//W3C//DTD SVG 1.1//EN" "http://www.w3.org/Graphics/SVG/1.1/DTD/svg11.dtd">
<svg xmlns="http://www.w3.org/2000/svg" version="1.1" width="510px" height="265px" style="shape-rendering:geometricPrecision; text-rendering:geometricPrecision; image-rendering:optimizeQuality; fill-rule:evenodd; clip-rule:evenodd" xmlns:xlink="http://www.w3.org/1999/xlink">
<g><path style="opacity:0.502" fill="#f2885a" d="M 38.5,34.5 C 42.0477,35.1301 45.3811,36.1301 48.5,37.5C 45.3188,38.5905 41.9855,38.5905 38.5,37.5C 38.5,36.5 38.5,35.5 38.5,34.5 Z"/></g>
<g><path style="opacity:0.792" fill="#817e7f" d="M 363.5,44.5 C 364.005,40.8368 362.505,38.5035 359,37.5C 357.057,38.807 355.223,38.807 353.5,37.5C 356.01,36.2166 358.677,35.2166 361.5,34.5C 361.461,36.3588 362.294,37.6921 364,38.5C 364.789,40.7116 364.622,42.7116 363.5,44.5 Z"/></g>
<g><path style="opacity:1" fill="#645e60" d="M 38.5,34.5 C 38.5,35.5 38.5,36.5 38.5,37.5C 41.9855,38.5905 45.3188,38.5905 48.5,37.5C 50.5273,37.3379 52.5273,37.5045 54.5,38C 55.056,38.3826 55.3893,38.8826 55.5,39.5C 47.1667,40.8333 38.8333,40.8333 30.5,39.5C 31.1587,35.0061 33.8254,33.3395 38.5,34.5 Z"/></g>
<g><path style="opacity:1" fill="#c2c1c0" d="M 30.5,39.5 C 38.8333,40.8333 47.1667,40.8333 55.5,39.5C 68.8387,39.6597 82.172,39.993 95.5,40.5C 107.33,41.4556 119.33,42.1223 131.5,42.5C 98.6745,42.2645 65.6745,42.5978 32.5,43.5C 66.8285,44.3332 101.162,44.8332 135.5,45C 125.991,45.1701 116.658,45.6701 107.5,46.5C 107.5,47.5 107.5,48.5 107.5,49.5C 107.5,49.8333 107.5,50.1667 107.5,50.5C 97.985,50.8269 88.6517,50.4936 79.5,49.5C 79.7373,48.209 79.404,47.209 78.5,46.5C 76.8333,46.5 75.1667,46.5 73.5,46.5C 68.5,46.5 63.5,46.5 58.5,46.5C 55.8333,46.5 53.1667,46.5 50.5,46.5C 50.5,47.5 50.5,48.5 50.5,49.5C 43.3524,50.4916 36.0191,50.825 28.5,50.5C 28.1164,46.5115 28.783,42.8448 30.5,39.5 Z"/></g>
<g><path style="opacity:1" fill="#292626" d="M 350.5,42.5 C 351.601,41.4017 352.934,41.235 354.5,42C 355.517,43.0495 355.684,44.2161 355,45.5C 354.722,44.5842 354.222,43.9175 353.5,43.5C 352.791,42.596 351.791,42.2627 350.5,42.5 Z"/></g>
<g><path style="opacity:1" fill="#5c595b" d="M 353.5,37.5 C 355.223,38.807 357.057,38.807 359,37.5C 362.505,38.5035 364.005,40.8368 363.5,44.5C 363.5,44.8333 363.5,45.1667 363.5,45.5C 360.272,46.4137 356.939,46.7471 353.5,46.5C 353.5,45.5 353.5,44.5 353.5,43.5C 354.222,43.9175 354.722,44.5842 355,45.5C 355.684,44.2161 355.517,43.0495 354.5,42C 352.934,41.235 351.601,41.4017 350.5,42.5C 344.974,42.8214 339.64,42.4881 334.5,41.5C 339.481,40.9108 344.481,40.4108 349.5,40C 350.308,38.2942 351.641,37.4609 353.5,37.5 Z"/></g>
<g><path style="opacity:0.795" fill="#c7c5c3" d="M 95.5,40.5 C 149.497,41.3239 203.497,41.9906 257.5,42.5C 257.5,44.8333 257.5,47.1667 257.5,49.5C 254.167,49.5 250.833,49.5 247.5,49.5C 247.737,48.209 247.404,47.209 246.5,46.5C 237.682,45.5067 228.682,45.1734 219.5,45.5C 197.206,43.794 174.873,42.794 152.5,42.5C 145.5,42.5 138.5,42.5 131.5,42.5C 119.33,42.1223 107.33,41.4556 95.5,40.5 Z"/></g>
<g><path style="opacity:0.927" fill="#c9c6c1" d="M 306.5,41.5 C 306.53,42.4972 306.03,43.1639 305,43.5C 303.189,44.0779 301.355,44.5779 299.5,45C 287.326,45.1693 275.326,45.6693 263.5,46.5C 262.206,47.2899 261.039,48.2899 260,49.5C 259.802,47.6183 259.302,45.9516 258.5,44.5C 258.5,43.8333 258.5,43.1667 258.5,42.5C 274.325,41.5036 290.325,41.1703 306.5,41.5 Z"/></g>
<g><path style="opacity:1" fill="#b4b2af" d="M 131.5,42.5 C 138.5,42.5 145.5,42.5 152.5,42.5C 156.647,43.3247 160.981,43.8247 165.5,44C 165.167,44.3333 164.833,44.6667 164.5,45C 173.676,45.1703 182.676,45.6703 191.5,46.5C 189.5,46.5 187.5,46.5 185.5,46.5C 180.5,46.5 175.5,46.5 170.5,46.5C 168.5,46.5 166.5,46.5 164.5,46.5C 164.167,46.5 163.833,46.5 163.5,46.5C 154.682,45.5067 145.682,45.1734 136.5,45.5C 136.5,46.8333 136.5,48.1667 136.5,49.5C 145.5,49.5 154.5,49.5 163.5,49.5C 145.348,50.8032 127.014,51.4698 108.5,51.5C 108.5,50.8333 108.167,50.5 107.5,50.5C 107.5,50.1667 107.5,49.8333 107.5,49.5C 114.817,48.8822 122.151,48.5488 129.5,48.5C 131.265,49.4614 133.265,49.7947 135.5,49.5C 135.5,48.5 135.5,47.5 135.5,46.5C 133.5,46.5 131.5,46.5 129.5,46.5C 124.5,46.5 119.5,46.5 114.5,46.5C 112.5,46.5 110.5,46.5 108.5,46.5C 108.167,46.5 107.833,46.5 107.5,46.5C 116.658,45.6701 125.991,45.1701 135.5,45C 101.162,44.8332 66.8285,44.3332 32.5,43.5C 65.6745,42.5978 98.6745,42.2645 131.5,42.5 Z"/></g>
<g><path style="opacity:1" fill="#c4c4c2" d="M 325.5,50.5 C 311.323,50.1709 297.323,50.5042 283.5,51.5C 283.167,51.5 282.833,51.5 282.5,51.5C 274.5,51.5 266.5,51.5 258.5,51.5C 258.5,49.1667 258.5,46.8333 258.5,44.5C 259.302,45.9516 259.802,47.6183 260,49.5C 261.039,48.2899 262.206,47.2899 263.5,46.5C 263.435,46.9382 263.601,47.2716 264,47.5C 276.425,46.6769 288.925,46.1769 301.5,46C 308.674,43.4265 316.007,42.9265 323.5,44.5C 322.128,46.6198 322.795,47.6198 325.5,47.5C 325.5,48.5 325.5,49.5 325.5,50.5 Z"/></g>
<g><path style="opacity:1" fill="#c5c5c3" d="M 163.5,46.5 C 163.5,47.5 163.5,48.5 163.5,49.5C 154.5,49.5 145.5,49.5 136.5,49.5C 136.5,48.1667 136.5,46.8333 136.5,45.5C 145.682,45.1734 154.682,45.5067 163.5,46.5 Z"/></g>
<g><path style="opacity:1" fill="#c5c5c2" d="M 152.5,42.5 C 174.873,42.794 197.206,43.794 219.5,45.5C 219.5,45.8333 219.5,46.1667 219.5,46.5C 218.596,47.209 218.263,48.209 218.5,49.5C 209.833,49.5 201.167,49.5 192.5,49.5C 192.737,48.209 192.404,47.209 191.5,46.5C 182.676,45.6703 173.676,45.1703 164.5,45C 164.833,44.6667 165.167,44.3333 165.5,44C 160.981,43.8247 156.647,43.3247 152.5,42.5 Z"/></g>
<g><path style="opacity:1" fill="#382f2a" d="M 58.5,46.5 C 58.5,47.1667 58.5,47.8333 58.5,48.5C 56.0521,49.4731 53.3854,49.8064 50.5,49.5C 50.5,48.5 50.5,47.5 50.5,46.5C 53.1667,46.5 55.8333,46.5 58.5,46.5 Z"/></g>
<g><path style="opacity:1" fill="#5f554f" d="M 58.5,46.5 C 63.5,46.5 68.5,46.5 73.5,46.5C 73.5,47.1667 73.5,47.8333 73.5,48.5C 68.5,48.5 63.5,48.5 58.5,48.5C 58.5,47.8333 58.5,47.1667 58.5,46.5 Z"/></g>
<g><path style="opacity:1" fill="#372e29" d="M 129.5,46.5 C 131.5,46.5 133.5,46.5 135.5,46.5C 135.5,47.5 135.5,48.5 135.5,49.5C 133.265,49.7947 131.265,49.4614 129.5,48.5C 129.5,47.8333 129.5,47.1667 129.5,46.5 Z"/></g>
<g><path style="opacity:0.882" fill="#6e6763" d="M 219.5,46.5 C 219.5,46.1667 219.5,45.8333 219.5,45.5C 228.682,45.1734 237.682,45.5067 246.5,46.5C 243.918,46.0254 241.918,46.6921 240.5,48.5C 233.31,48.8605 226.31,48.8605 219.5,48.5C 227.5,47.8333 227.5,47.1667 219.5,46.5 Z"/></g>
<g><path style="opacity:1" fill="#271d19" d="M 73.5,46.5 C 75.1667,46.5 76.8333,46.5 78.5,46.5C 77.4479,48.256 75.7812,48.9227 73.5,48.5C 73.5,47.8333 73.5,47.1667 73.5,46.5 Z"/></g>
<g><path style="opacity:1" fill="#261c17" d="M 164.5,46.5 C 166.5,46.5 168.5,46.5 170.5,46.5C 170.5,47.1667 170.5,47.8333 170.5,48.5C 167.918,48.9746 165.918,48.3079 164.5,46.5 Z"/></g>
<g><path style="opacity:0.848" fill="#6b625c" d="M 170.5,46.5 C 175.5,46.5 180.5,46.5 185.5,46.5C 185.5,47.1667 185.5,47.8333 185.5,48.5C 180.5,48.5 175.5,48.5 170.5,48.5C 170.5,47.8333 170.5,47.1667 170.5,46.5 Z"/></g>
<g><path style="opacity:1" fill="#352c27" d="M 185.5,46.5 C 187.5,46.5 189.5,46.5 191.5,46.5C 191.5,47.5 191.5,48.5 191.5,49.5C 189.265,49.7947 187.265,49.4614 185.5,48.5C 185.5,47.8333 185.5,47.1667 185.5,46.5 Z"/></g>
<g><path style="opacity:1" fill="#281f19" d="M 219.5,46.5 C 227.5,47.1667 227.5,47.8333 219.5,48.5C 219.5,47.8333 219.5,47.1667 219.5,46.5 Z"/></g>
<g><path style="opacity:0.991" fill="#281e18" d="M 246.5,46.5 C 245.082,48.3079 243.082,48.9746 240.5,48.5C 241.918,46.6921 243.918,46.0254 246.5,46.5 Z"/></g>
<g><path style="opacity:1" fill="#544d49" d="M 78.5,46.5 C 79.404,47.209 79.7373,48.209 79.5,49.5C 77.2646,49.7947 75.2646,49.4614 73.5,48.5C 75.7812,48.9227 77.4479,48.256 78.5,46.5 Z"/></g>
<g><path style="opacity:1" fill="#605853" d="M 107.5,46.5 C 107.833,46.5 108.167,46.5 108.5,46.5C 108.97,47.6935 109.97,48.3601 111.5,48.5C 113.03,48.3601 114.03,47.6935 114.5,46.5C 119.5,46.5 124.5,46.5 129.5,46.5C 129.5,47.1667 129.5,47.8333 129.5,48.5C 122.151,48.5488 114.817,48.8822 107.5,49.5C 107.5,48.5 107.5,47.5 107.5,46.5 Z"/></g>
<g><path style="opacity:0.998" fill="#261c17" d="M 108.5,46.5 C 110.5,46.5 112.5,46.5 114.5,46.5C 114.03,47.6935 113.03,48.3601 111.5,48.5C 109.97,48.3601 108.97,47.6935 108.5,46.5 Z"/></g>
<g><path style="opacity:0.992" fill="#5f5954" d="M 163.5,46.5 C 163.833,46.5 164.167,46.5 164.5,46.5C 165.918,48.3079 167.918,48.9746 170.5,48.5C 170.5,48.8333 170.5,49.1667 170.5,49.5C 168.167,49.5 165.833,49.5 163.5,49.5C 163.5,48.5 163.5,47.5 163.5,46.5 Z"/></g>
<g><path style="opacity:1" fill="#bfbebc" d="M 306.5,41.5 C 315.833,41.5 325.167,41.5 334.5,41.5C 339.64,42.4881 344.974,42.8214 350.5,42.5C 351.791,42.2627 352.791,42.596 353.5,43.5C 353.5,44.5 353.5,45.5 353.5,46.5C 356.939,46.7471 360.272,46.4137 363.5,45.5C 365.012,47.596 366.678,49.596 368.5,51.5C 366.856,51.7135 365.356,51.3802 364,50.5C 363.587,54.8352 364.42,58.8352 366.5,62.5C 366.649,63.552 366.483,64.552 366,65.5C 365.667,65.1667 365.333,64.8333 365,64.5C 363.5,59.5573 361.666,55.224 359.5,51.5C 357.998,52.0831 356.665,52.9164 355.5,54C 355.833,54.3333 356.167,54.6667 356.5,55C 354.963,56.1096 354.297,57.6096 354.5,59.5C 351.921,59.6061 349.588,58.9395 347.5,57.5C 347.795,55.2646 347.461,53.2646 346.5,51.5C 339.687,50.5088 332.687,50.1755 325.5,50.5C 325.5,49.5 325.5,48.5 325.5,47.5C 322.795,47.6198 322.128,46.6198 323.5,44.5C 316.007,42.9265 308.674,43.4265 301.5,46C 288.925,46.1769 276.425,46.6769 264,47.5C 263.601,47.2716 263.435,46.9382 263.5,46.5C 275.326,45.6693 287.326,45.1693 299.5,45C 301.355,44.5779 303.189,44.0779 305,43.5C 306.03,43.1639 306.53,42.4972 306.5,41.5 Z"/></g>
<g><path style="opacity:1" fill="#aca7a2" d="M 163.5,49.5 C 165.833,49.5 168.167,49.5 170.5,49.5C 175.822,50.4074 181.322,51.0741 187,51.5C 188.986,51.5687 190.486,52.2353 191.5,53.5C 185.833,53.5 180.167,53.5 174.5,53.5C 161.5,53.5 148.5,53.5 135.5,53.5C 124.5,53.5 113.5,53.5 102.5,53.5C 94.8333,53.5 87.1667,53.5 79.5,53.5C 88.7755,51.5267 98.4422,50.86 108.5,51.5C 127.014,51.4698 145.348,50.8032 163.5,49.5 Z"/></g>
<g><path style="opacity:1" fill="#b5b2ad" d="M 191.5,46.5 C 192.404,47.209 192.737,48.209 192.5,49.5C 201.167,49.5 209.833,49.5 218.5,49.5C 218.263,48.209 218.596,47.209 219.5,46.5C 219.5,47.1667 219.5,47.8333 219.5,48.5C 226.31,48.8605 233.31,48.8605 240.5,48.5C 233.534,50.3298 226.534,51.9965 219.5,53.5C 210.167,53.5 200.833,53.5 191.5,53.5C 190.486,52.2353 188.986,51.5687 187,51.5C 181.322,51.0741 175.822,50.4074 170.5,49.5C 170.5,49.1667 170.5,48.8333 170.5,48.5C 175.5,48.5 180.5,48.5 185.5,48.5C 187.265,49.4614 189.265,49.7947 191.5,49.5C 191.5,48.5 191.5,47.5 191.5,46.5 Z"/></g>
<g><path style="opacity:1" fill="#aba6a1" d="M 257.5,42.5 C 257.833,42.5 258.167,42.5 258.5,42.5C 258.5,43.1667 258.5,43.8333 258.5,44.5C 258.5,46.8333 258.5,49.1667 258.5,51.5C 266.5,51.5 274.5,51.5 282.5,51.5C 282.5,51.8333 282.5,52.1667 282.5,52.5C 282.167,52.5 281.833,52.5 281.5,52.5C 273.833,52.5 266.167,52.5 258.5,52.5C 258.5,54.1667 258.5,55.8333 258.5,57.5C 266.167,57.5 273.833,57.5 281.5,57.5C 273.684,58.4924 265.684,58.8257 257.5,58.5C 257.5,56.8333 257.5,55.1667 257.5,53.5C 244.833,53.5 232.167,53.5 219.5,53.5C 226.534,51.9965 233.534,50.3298 240.5,48.5C 243.082,48.9746 245.082,48.3079 246.5,46.5C 247.404,47.209 247.737,48.209 247.5,49.5C 250.833,49.5 254.167,49.5 257.5,49.5C 257.5,47.1667 257.5,44.8333 257.5,42.5 Z"/></g>
<g><path style="opacity:1" fill="#47423f" d="M 283.5,51.5 C 297.323,50.5042 311.323,50.1709 325.5,50.5C 332.687,50.1755 339.687,50.5088 346.5,51.5C 346.737,52.791 346.404,53.791 345.5,54.5C 342.5,54.5 339.5,54.5 336.5,54.5C 335.391,53.71 334.058,53.21 332.5,53C 332.833,52.6667 333.167,52.3333 333.5,52C 316.837,51.5001 300.17,51.3334 283.5,51.5 Z"/></g>
<g><path style="opacity:1" fill="#a39f9b" d="M 58.5,48.5 C 63.5,48.5 68.5,48.5 73.5,48.5C 75.2646,49.4614 77.2646,49.7947 79.5,49.5C 88.6517,50.4936 97.985,50.8269 107.5,50.5C 108.167,50.5 108.5,50.8333 108.5,51.5C 98.4422,50.86 88.7755,51.5267 79.5,53.5C 62.3306,54.1052 45.3306,53.4385 28.5,51.5C 28.5,51.1667 28.5,50.8333 28.5,50.5C 36.0191,50.825 43.3524,50.4916 50.5,49.5C 53.3854,49.8064 56.0521,49.4731 58.5,48.5 Z"/></g>
<g><path style="opacity:1" fill="#36302e" d="M 283.5,51.5 C 300.17,51.3334 316.837,51.5001 333.5,52C 333.167,52.3333 332.833,52.6667 332.5,53C 334.058,53.21 335.391,53.71 336.5,54.5C 331.438,54.7257 326.438,54.3924 321.5,53.5C 309.833,53.5 298.167,53.5 286.5,53.5C 284.973,53.573 283.973,52.9063 283.5,51.5 Z"/></g>
<g><path style="opacity:1" fill="#b7b6b6" d="M 366.5,62.5 C 366.833,62.5 367.167,62.5 367.5,62.5C 368.878,66.1338 370.545,69.6338 372.5,73C 371.902,74.3012 370.902,75.1345 369.5,75.5C 367.417,70.2546 365.75,70.2546 364.5,75.5C 363.127,75.3433 361.793,75.51 360.5,76C 363.117,76.8215 365.784,77.3215 368.5,77.5C 368.322,78.6948 367.989,79.8615 367.5,81C 367.836,82.0299 368.503,82.5299 369.5,82.5C 366.038,83.4816 362.371,83.815 358.5,83.5C 358.5,83.1667 358.5,82.8333 358.5,82.5C 359.221,79.1825 359.388,75.8492 359,72.5C 358.333,73.1667 357.667,73.8333 357,74.5C 356.743,70.6233 355.743,66.9567 354,63.5C 353.814,66.0356 353.314,68.369 352.5,70.5C 352.025,68.2163 351.025,66.2163 349.5,64.5C 348.681,62.2278 348.015,59.8945 347.5,57.5C 349.588,58.9395 351.921,59.6061 354.5,59.5C 354.297,57.6096 354.963,56.1096 356.5,55C 356.167,54.6667 355.833,54.3333 355.5,54C 356.665,52.9164 357.998,52.0831 359.5,51.5C 361.666,55.224 363.5,59.5573 365,64.5C 365.333,64.8333 365.667,65.1667 366,65.5C 366.483,64.552 366.649,63.552 366.5,62.5 Z"/></g>
<g><path style="opacity:1" fill="#c0bdb9" d="M 79.5,53.5 C 87.1667,53.5 94.8333,53.5 102.5,53.5C 102.082,54.2216 101.416,54.7216 100.5,55C 100.833,55.3333 101.167,55.6667 101.5,56C 96.5821,56.1948 91.7488,56.6948 87,57.5C 85.2435,56.015 84.0768,56.3484 83.5,58.5C 70.1625,58.6666 56.8292,58.4999 43.5,58C 53.393,57.8663 63.393,57.1996 73.5,56C 70.8333,55.6667 68.1667,55.3333 65.5,55C 70.3514,54.8255 75.0181,54.3255 79.5,53.5 Z"/></g>
<g><path style="opacity:1" fill="#c3c1be" d="M 135.5,53.5 C 148.5,53.5 161.5,53.5 174.5,53.5C 175.718,54.1614 177.051,54.8281 178.5,55.5C 173.757,55.8766 169.424,56.8766 165.5,58.5C 158.833,58.5 152.167,58.5 145.5,58.5C 144.048,57.6981 142.382,57.1981 140.5,57C 142.167,56.6667 143.833,56.3333 145.5,56C 142.776,55.7305 140.109,55.2305 137.5,54.5C 135.114,55.9884 134.448,55.6551 135.5,53.5 Z"/></g>
<g><path style="opacity:1" fill="#c6c5c0" d="M 281.5,52.5 C 281.5,54.1667 281.5,55.8333 281.5,57.5C 273.833,57.5 266.167,57.5 258.5,57.5C 258.5,55.8333 258.5,54.1667 258.5,52.5C 266.167,52.5 273.833,52.5 281.5,52.5 Z"/></g>
<g><path style="opacity:1" fill="#b4b1ae" d="M 28.5,51.5 C 45.3306,53.4385 62.3306,54.1052 79.5,53.5C 75.0181,54.3255 70.3514,54.8255 65.5,55C 68.1667,55.3333 70.8333,55.6667 73.5,56C 63.393,57.1996 53.393,57.8663 43.5,58C 56.8292,58.4999 70.1625,58.6666 83.5,58.5C 97.8333,58.5 112.167,58.5 126.5,58.5C 94.3376,59.4982 62.0043,59.8316 29.5,59.5C 29.5,58.5 29.5,57.5 29.5,56.5C 29.5912,54.3023 28.9245,53.9689 27.5,55.5C 27.5,54.8333 27.5,54.1667 27.5,53.5C 27.3284,52.5084 27.6618,51.8417 28.5,51.5 Z"/></g>
<g><path style="opacity:1" fill="#cac8c3" d="M 286.5,53.5 C 298.167,53.5 309.833,53.5 321.5,53.5C 321.389,54.1174 321.056,54.6174 320.5,55C 318.527,55.4955 316.527,55.6621 314.5,55.5C 304.652,55.8271 294.986,55.4938 285.5,54.5C 286.167,54.5 286.5,54.1667 286.5,53.5 Z"/></g>
<g><path style="opacity:1" fill="#aaa9a9" d="M 368.5,51.5 C 370.636,53.8123 372.636,56.3123 374.5,59C 376.345,60.128 378.345,60.628 380.5,60.5C 381.404,61.209 381.737,62.209 381.5,63.5C 379.011,63.7022 376.677,63.2022 374.5,62C 372.451,59.4066 370.285,56.9066 368,54.5C 367.51,56.5454 367.677,58.5454 368.5,60.5C 367.662,60.8417 367.328,61.5084 367.5,62.5C 367.167,62.5 366.833,62.5 366.5,62.5C 364.42,58.8352 363.587,54.8352 364,50.5C 365.356,51.3802 366.856,51.7135 368.5,51.5 Z"/></g>
<g><path style="opacity:1" fill="#86827f" d="M 321.5,53.5 C 326.438,54.3924 331.438,54.7257 336.5,54.5C 339.5,54.5 342.5,54.5 345.5,54.5C 345.5,54.8333 345.5,55.1667 345.5,55.5C 336.792,55.2555 328.126,55.5888 319.5,56.5C 317.585,56.7845 315.919,56.4511 314.5,55.5C 316.527,55.6621 318.527,55.4955 320.5,55C 321.056,54.6174 321.389,54.1174 321.5,53.5 Z"/></g>
<g><path style="opacity:1" fill="#c3c0bc" d="M 102.5,53.5 C 113.5,53.5 124.5,53.5 135.5,53.5C 134.448,55.6551 135.114,55.9884 137.5,54.5C 140.109,55.2305 142.776,55.7305 145.5,56C 143.833,56.3333 142.167,56.6667 140.5,57C 142.382,57.1981 144.048,57.6981 145.5,58.5C 143.167,58.5 140.833,58.5 138.5,58.5C 134.5,58.5 130.5,58.5 126.5,58.5C 112.167,58.5 97.8333,58.5 83.5,58.5C 84.0768,56.3484 85.2435,56.015 87,57.5C 91.7488,56.6948 96.5821,56.1948 101.5,56C 101.167,55.6667 100.833,55.3333 100.5,55C 101.416,54.7216 102.082,54.2216 102.5,53.5 Z"/></g>
<g><path style="opacity:1" fill="#c8c7c2" d="M 174.5,53.5 C 180.167,53.5 185.833,53.5 191.5,53.5C 200.833,53.5 210.167,53.5 219.5,53.5C 232.167,53.5 244.833,53.5 257.5,53.5C 257.5,55.1667 257.5,56.8333 257.5,58.5C 226.833,58.5 196.167,58.5 165.5,58.5C 169.424,56.8766 173.757,55.8766 178.5,55.5C 177.051,54.8281 175.718,54.1614 174.5,53.5 Z"/></g>
<g><path style="opacity:1" fill="#cfcfcd" d="M 345.5,55.5 C 345.5,55.8333 345.5,56.1667 345.5,56.5C 341.796,58.2459 338.463,59.9125 335.5,61.5C 326.833,60.1667 318.167,60.1667 309.5,61.5C 304.302,60.8565 299.135,60.1898 294,59.5C 291.674,59.88 289.841,60.88 288.5,62.5C 287.833,62.8333 287.167,63.1667 286.5,63.5C 286.5,61.5 286.5,59.5 286.5,57.5C 297.679,57.8279 308.679,57.4946 319.5,56.5C 328.126,55.5888 336.792,55.2555 345.5,55.5 Z"/></g>
<g><path style="opacity:1" fill="#c0c0c2" d="M 381.5,63.5 C 379.36,66.7971 378.027,70.4638 377.5,74.5C 373.008,70.8619 370.008,66.1952 368.5,60.5C 367.677,58.5454 367.51,56.5454 368,54.5C 370.285,56.9066 372.451,59.4066 374.5,62C 376.677,63.2022 379.011,63.7022 381.5,63.5 Z"/></g>
<g><path style="opacity:1" fill="#898b8d" d="M 281.5,52.5 C 281.833,52.5 282.167,52.5 282.5,52.5C 282.5,56.1667 282.5,59.8333 282.5,63.5C 282.5,63.8333 282.5,64.1667 282.5,64.5C 282.167,64.5 281.833,64.5 281.5,64.5C 262.5,64.5 243.5,64.5 224.5,64.5C 243.689,64.1627 262.689,63.1627 281.5,61.5C 249.004,60.5017 216.338,60.1684 183.5,60.5C 208.167,59.8333 232.833,59.1667 257.5,58.5C 265.684,58.8257 273.684,58.4924 281.5,57.5C 281.5,55.8333 281.5,54.1667 281.5,52.5 Z"/></g>
<g><path style="opacity:1" fill="#7b7d80" d="M 29.5,56.5 C 29.5,57.5 29.5,58.5 29.5,59.5C 62.0043,59.8316 94.3376,59.4982 126.5,58.5C 130.5,58.5 134.5,58.5 138.5,58.5C 144.653,59.3279 150.987,59.8279 157.5,60C 149.323,60.1708 141.323,60.6708 133.5,61.5C 133.167,61.5 132.833,61.5 132.5,61.5C 98.004,60.5016 63.3373,60.1683 28.5,60.5C 28.2322,58.901 28.5655,57.5676 29.5,56.5 Z"/></g>
<g><path style="opacity:1" fill="#919192" d="M 138.5,58.5 C 140.833,58.5 143.167,58.5 145.5,58.5C 152.167,58.5 158.833,58.5 165.5,58.5C 196.167,58.5 226.833,58.5 257.5,58.5C 232.833,59.1667 208.167,59.8333 183.5,60.5C 177.31,60.1771 171.31,60.5104 165.5,61.5C 163.5,61.5 161.5,61.5 159.5,61.5C 150.833,61.5 142.167,61.5 133.5,61.5C 141.323,60.6708 149.323,60.1708 157.5,60C 150.987,59.8279 144.653,59.3279 138.5,58.5 Z"/></g>
<g><path style="opacity:1" fill="#d0d0cc" d="M 345.5,56.5 C 346.485,60.6344 346.818,64.9677 346.5,69.5C 344.308,67.4104 341.641,66.4104 338.5,66.5C 337.167,66.5 335.833,66.5 334.5,66.5C 334.611,65.8826 334.944,65.3826 335.5,65C 330.933,63.5325 326.6,63.6992 322.5,65.5C 317.223,65.2401 312.056,65.2401 307,65.5C 303.303,63.8316 299.303,63.4983 295,64.5C 292.39,64.4668 290.223,63.8001 288.5,62.5C 289.841,60.88 291.674,59.88 294,59.5C 299.135,60.1898 304.302,60.8565 309.5,61.5C 318.167,60.1667 326.833,60.1667 335.5,61.5C 338.463,59.9125 341.796,58.2459 345.5,56.5 Z"/></g>
<g><path style="opacity:0.707" fill="#d1d0d1" d="M 399.5,57.5 C 401.561,58.7514 401.894,60.4181 400.5,62.5C 392.181,62.2779 385.348,65.2779 380,71.5C 379.421,72.9285 379.588,74.2618 380.5,75.5C 379.5,75.5 378.5,75.5 377.5,75.5C 377.5,75.1667 377.5,74.8333 377.5,74.5C 378.027,70.4638 379.36,66.7971 381.5,63.5C 381.737,62.209 381.404,61.209 380.5,60.5C 386.403,56.5933 392.736,55.5933 399.5,57.5 Z"/></g>
<g><path style="opacity:0.551" fill="#9a999a" d="M 399.5,57.5 C 399.5,58.5 399.5,59.5 399.5,60.5C 397.335,60.8841 395.668,60.2174 394.5,58.5C 396.045,57.5481 397.712,57.2148 399.5,57.5 Z"/></g>
<g><path style="opacity:1" fill="#a3a3a5" d="M 29.5,56.5 C 28.5655,57.5676 28.2322,58.901 28.5,60.5C 63.3373,60.1683 98.004,60.5016 132.5,61.5C 97.9959,61.1683 63.6626,61.5017 29.5,62.5C 28.2647,63.0493 27.2647,62.3827 26.5,60.5C 27.3094,58.9291 27.6427,57.2624 27.5,55.5C 28.9245,53.9689 29.5912,54.3023 29.5,56.5 Z"/></g>
<g><path style="opacity:1" fill="#bbbcbb" d="M 165.5,61.5 C 171.31,60.5104 177.31,60.1771 183.5,60.5C 216.338,60.1684 249.004,60.5017 281.5,61.5C 242.975,61.677 204.309,61.677 165.5,61.5 Z"/></g>
<g><path style="opacity:1" fill="#c5c5c4" d="M 29.5,62.5 C 63.6626,61.5017 97.9959,61.1683 132.5,61.5C 132.833,61.5 133.167,61.5 133.5,61.5C 142.167,61.5 150.833,61.5 159.5,61.5C 157.156,61.9397 155.156,62.9397 153.5,64.5C 148.833,64.5 144.167,64.5 139.5,64.5C 135.5,64.1667 131.5,63.8333 127.5,63.5C 95.0043,62.5017 62.3376,62.1684 29.5,62.5 Z"/></g>
<g><path style="opacity:1" fill="#cecdcc" d="M 27.5,53.5 C 27.5,54.1667 27.5,54.8333 27.5,55.5C 27.6427,57.2624 27.3094,58.9291 26.5,60.5C 27.2647,62.3827 28.2647,63.0493 29.5,62.5C 62.3376,62.1684 95.0043,62.5017 127.5,63.5C 117.833,64.1667 108.167,64.8333 98.5,65.5C 85.5,65.5 72.5,65.5 59.5,65.5C 48.7947,65.237 38.128,65.5704 27.5,66.5C 27.5524,70.1981 27.8857,73.8648 28.5,77.5C 27.7784,77.0825 27.2784,76.4158 27,75.5C 24.8541,67.9616 25.0208,60.6282 27.5,53.5 Z"/></g>
<g><path style="opacity:1" fill="#cdcdcb" d="M 159.5,61.5 C 161.5,61.5 163.5,61.5 165.5,61.5C 204.309,61.677 242.975,61.677 281.5,61.5C 262.689,63.1627 243.689,64.1627 224.5,64.5C 200.714,64.4566 177.048,64.4566 153.5,64.5C 155.156,62.9397 157.156,61.9397 159.5,61.5 Z"/></g>
<g><path style="opacity:1" fill="#acaaaa" d="M 127.5,63.5 C 131.5,63.8333 135.5,64.1667 139.5,64.5C 126.01,65.4957 112.344,65.829 98.5,65.5C 108.167,64.8333 117.833,64.1667 127.5,63.5 Z"/></g>
<g><path style="opacity:1" fill="#7e7f84" d="M 224.5,64.5 C 243.5,64.5 262.5,64.5 281.5,64.5C 281.5,65.1667 281.5,65.8333 281.5,66.5C 279.167,66.5 276.833,66.5 274.5,66.5C 265.167,66.5 255.833,66.5 246.5,66.5C 217.5,66.5 188.5,66.5 159.5,66.5C 144.5,66.5 129.5,66.5 114.5,66.5C 95.9924,66.8302 77.6591,66.4968 59.5,65.5C 72.5,65.5 85.5,65.5 98.5,65.5C 112.344,65.829 126.01,65.4957 139.5,64.5C 144.167,64.5 148.833,64.5 153.5,64.5C 177.048,64.4566 200.714,64.4566 224.5,64.5 Z"/></g>
<g><path style="opacity:1" fill="#a5a2a2" d="M 59.5,65.5 C 77.6591,66.4968 95.9924,66.8302 114.5,66.5C 100.01,67.496 85.3428,67.8293 70.5,67.5C 60.8276,67.3335 51.1609,67.5002 41.5,68C 45.6821,68.7802 49.8487,69.6135 54,70.5C 55.9214,69.8095 57.7547,69.4762 59.5,69.5C 64.7793,70.4285 70.1126,71.0951 75.5,71.5C 99.412,71.4255 123.412,71.4255 147.5,71.5C 159.833,71.5 172.167,71.5 184.5,71.5C 200.167,71.5 215.833,71.5 231.5,71.5C 239.167,71.5 246.833,71.5 254.5,71.5C 240.343,72.4959 226.01,72.8293 211.5,72.5C 178.167,72.5 144.833,72.5 111.5,72.5C 84.4979,72.3334 57.4979,72.5 30.5,73C 29.6634,74.0113 29.33,75.1779 29.5,76.5C 48.5,76.5 67.5,76.5 86.5,76.5C 95.8333,76.5 105.167,76.5 114.5,76.5C 145.5,76.5 176.5,76.5 207.5,76.5C 207.5,76.8333 207.5,77.1667 207.5,77.5C 147.99,77.0596 88.6565,77.7263 29.5,79.5C 29.1667,79.5 28.8333,79.5 28.5,79.5C 28.5,78.8333 28.5,78.1667 28.5,77.5C 27.8857,73.8648 27.5524,70.1981 27.5,66.5C 38.128,65.5704 48.7947,65.237 59.5,65.5 Z"/></g>
<g><path style="opacity:1" fill="#d3d3ce" d="M 288.5,62.5 C 290.223,63.8001 292.39,64.4668 295,64.5C 299.303,63.4983 303.303,63.8316 307,65.5C 312.056,65.2401 317.223,65.2401 322.5,65.5C 326.6,63.6992 330.933,63.5325 335.5,65C 334.944,65.3826 334.611,65.8826 334.5,66.5C 319.074,68.4604 303.407,69.1271 287.5,68.5C 287.371,66.7839 287.038,65.1172 286.5,63.5C 287.167,63.1667 287.833,62.8333 288.5,62.5 Z"/></g>
<g><path style="opacity:1" fill="#aaaaad" d="M 159.5,66.5 C 188.5,66.5 217.5,66.5 246.5,66.5C 243.177,67.3618 239.677,68.0285 236,68.5C 234.058,68.9586 232.558,69.9586 231.5,71.5C 215.833,71.5 200.167,71.5 184.5,71.5C 184.631,70.7611 184.464,70.0944 184,69.5C 167.917,70.2294 152.084,70.2294 136.5,69.5C 135.263,69.4435 134.263,68.9435 133.5,68C 142.343,67.8296 151.01,67.3296 159.5,66.5 Z"/></g>
<g><path style="opacity:1" fill="#a9a9aa" d="M 246.5,66.5 C 255.833,66.5 265.167,66.5 274.5,66.5C 271.733,69.8527 268.066,71.3527 263.5,71C 262.182,71.6942 261.349,72.5275 261,73.5C 259.989,72.9444 259.156,72.2778 258.5,71.5C 258.167,66.1667 257.833,66.1667 257.5,71.5C 256.5,71.5 255.5,71.5 254.5,71.5C 246.833,71.5 239.167,71.5 231.5,71.5C 232.558,69.9586 234.058,68.9586 236,68.5C 239.677,68.0285 243.177,67.3618 246.5,66.5 Z"/></g>
<g><path style="opacity:1" fill="#a3a1a0" d="M 274.5,66.5 C 276.833,66.5 279.167,66.5 281.5,66.5C 281.5,69.8333 281.5,73.1667 281.5,76.5C 273.833,76.5 266.167,76.5 258.5,76.5C 258.5,74.8333 258.5,73.1667 258.5,71.5C 259.156,72.2778 259.989,72.9444 261,73.5C 261.349,72.5275 262.182,71.6942 263.5,71C 268.066,71.3527 271.733,69.8527 274.5,66.5 Z"/></g>
<g><path style="opacity:1" fill="#a7a6aa" d="M 114.5,66.5 C 129.5,66.5 144.5,66.5 159.5,66.5C 151.01,67.3296 142.343,67.8296 133.5,68C 134.263,68.9435 135.263,69.4435 136.5,69.5C 152.084,70.2294 167.917,70.2294 184,69.5C 184.464,70.0944 184.631,70.7611 184.5,71.5C 172.167,71.5 159.833,71.5 147.5,71.5C 121.857,70.1034 96.1907,68.7701 70.5,67.5C 85.3428,67.8293 100.01,67.496 114.5,66.5 Z"/></g>
<g><path style="opacity:1" fill="#a4a3a6" d="M 70.5,67.5 C 96.1907,68.7701 121.857,70.1034 147.5,71.5C 123.412,71.4255 99.412,71.4255 75.5,71.5C 70.1126,71.0951 64.7793,70.4285 59.5,69.5C 57.7547,69.4762 55.9214,69.8095 54,70.5C 49.8487,69.6135 45.6821,68.7802 41.5,68C 51.1609,67.5002 60.8276,67.3335 70.5,67.5 Z"/></g>
<g><path style="opacity:1" fill="#afadad" d="M 334.5,66.5 C 335.833,66.5 337.167,66.5 338.5,66.5C 338.577,67.7498 339.244,68.5831 340.5,69C 338.521,69.6836 336.854,69.1836 335.5,67.5C 328.704,69.2481 321.704,70.0814 314.5,70C 315.244,71.0386 316.244,71.5386 317.5,71.5C 319.167,71.5 320.833,71.5 322.5,71.5C 322.5,71.8333 322.5,72.1667 322.5,72.5C 320.179,73.4767 317.846,74.4767 315.5,75.5C 306.225,73.5267 296.558,72.86 286.5,73.5C 286.629,71.7839 286.962,70.1172 287.5,68.5C 303.407,69.1271 319.074,68.4604 334.5,66.5 Z"/></g>
<g><path style="opacity:1" fill="#9a9997" d="M 338.5,66.5 C 341.641,66.4104 344.308,67.4104 346.5,69.5C 336.833,70.1667 327.167,70.8333 317.5,71.5C 316.244,71.5386 315.244,71.0386 314.5,70C 321.704,70.0814 328.704,69.2481 335.5,67.5C 336.854,69.1836 338.521,69.6836 340.5,69C 339.244,68.5831 338.577,67.7498 338.5,66.5 Z"/></g>
<g><path style="opacity:1" fill="#181312" d="M 282.5,63.5 C 283.794,65.0478 284.461,67.0478 284.5,69.5C 284.167,71.5 283.833,73.5 283.5,75.5C 282.511,71.8927 282.177,68.226 282.5,64.5C 282.5,64.1667 282.5,63.8333 282.5,63.5 Z"/></g>
<g><path style="opacity:1" fill="#707072" d="M 346.5,51.5 C 347.461,53.2646 347.795,55.2646 347.5,57.5C 348.015,59.8945 348.681,62.2278 349.5,64.5C 347.612,66.9878 346.945,69.9878 347.5,73.5C 347.167,73.5 346.833,73.5 346.5,73.5C 338.903,71.5332 330.903,70.8665 322.5,71.5C 320.833,71.5 319.167,71.5 317.5,71.5C 327.167,70.8333 336.833,70.1667 346.5,69.5C 346.818,64.9677 346.485,60.6344 345.5,56.5C 345.5,56.1667 345.5,55.8333 345.5,55.5C 345.5,55.1667 345.5,54.8333 345.5,54.5C 346.404,53.791 346.737,52.791 346.5,51.5 Z"/></g>
<g><path style="opacity:1" fill="#838689" d="M 322.5,72.5 C 322.5,72.1667 322.5,71.8333 322.5,71.5C 330.903,70.8665 338.903,71.5332 346.5,73.5C 338.445,73.7701 330.445,73.4368 322.5,72.5 Z"/></g>
<g><path style="opacity:1" fill="#7f7c7e" d="M 111.5,72.5 C 111.804,73.1499 112.137,73.8165 112.5,74.5C 103.676,75.1667 95.0093,75.8334 86.5,76.5C 67.5,76.5 48.5,76.5 29.5,76.5C 29.33,75.1779 29.6634,74.0113 30.5,73C 57.4979,72.5 84.4979,72.3334 111.5,72.5 Z"/></g>
<g><path style="opacity:1" fill="#9c9795" d="M 258.5,71.5 C 258.5,73.1667 258.5,74.8333 258.5,76.5C 241.423,76.0649 224.423,76.0649 207.5,76.5C 176.5,76.5 145.5,76.5 114.5,76.5C 136.323,75.0838 158.323,74.0838 180.5,73.5C 188.921,73.2978 197.254,73.9645 205.5,75.5C 207.563,74.4882 209.563,73.4882 211.5,72.5C 226.01,72.8293 240.343,72.4959 254.5,71.5C 255.5,71.5 256.5,71.5 257.5,71.5C 257.833,66.1667 258.167,66.1667 258.5,71.5 Z"/></g>
<g><path style="opacity:1" fill="#938d8b" d="M 111.5,72.5 C 144.833,72.5 178.167,72.5 211.5,72.5C 209.563,73.4882 207.563,74.4882 205.5,75.5C 197.254,73.9645 188.921,73.2978 180.5,73.5C 158.323,74.0838 136.323,75.0838 114.5,76.5C 105.167,76.5 95.8333,76.5 86.5,76.5C 95.0093,75.8334 103.676,75.1667 112.5,74.5C 112.137,73.8165 111.804,73.1499 111.5,72.5 Z"/></g>
<g><path style="opacity:1" fill="#969494" d="M 285.5,54.5 C 294.986,55.4938 304.652,55.8271 314.5,55.5C 315.919,56.4511 317.585,56.7845 319.5,56.5C 308.679,57.4946 297.679,57.8279 286.5,57.5C 286.5,59.5 286.5,61.5 286.5,63.5C 287.038,65.1172 287.371,66.7839 287.5,68.5C 286.962,70.1172 286.629,71.7839 286.5,73.5C 296.558,72.86 306.225,73.5267 315.5,75.5C 305.81,75.1682 296.144,75.5016 286.5,76.5C 329.146,77.8324 329.146,78.499 286.5,78.5C 286.263,79.791 286.596,80.791 287.5,81.5C 287.975,84.0821 287.308,86.0821 285.5,87.5C 285.441,76.2524 285.441,65.2524 285.5,54.5 Z"/></g>
<g><path style="opacity:1" fill="#7c7979" d="M 358.5,82.5 C 357.167,82.5 355.833,82.5 354.5,82.5C 354.216,84.4147 354.549,86.0813 355.5,87.5C 355.631,88.2389 355.464,88.9056 355,89.5C 354.329,88.7476 353.496,88.4142 352.5,88.5C 352.5,82.5 352.5,76.5 352.5,70.5C 353.314,68.369 353.814,66.0356 354,63.5C 355.743,66.9567 356.743,70.6233 357,74.5C 357.667,73.8333 358.333,73.1667 359,72.5C 359.388,75.8492 359.221,79.1825 358.5,82.5 Z"/></g>
<g><path style="opacity:1" fill="#221c1a" d="M 258.5,76.5 C 258.5,77.1667 258.5,77.8333 258.5,78.5C 258.5,78.8333 258.5,79.1667 258.5,79.5C 248.167,79.5 237.833,79.5 227.5,79.5C 226.518,78.8592 225.518,78.1925 224.5,77.5C 223.833,78.1667 223.167,78.8333 222.5,79.5C 220.167,76.8333 217.833,76.8333 215.5,79.5C 214.833,78.8333 214.167,78.1667 213.5,77.5C 212.06,78.9524 210.394,79.9524 208.5,80.5C 208.167,80.5 207.833,80.5 207.5,80.5C 207.5,80.1667 207.5,79.8333 207.5,79.5C 207.5,78.8333 207.5,78.1667 207.5,77.5C 207.5,77.1667 207.5,76.8333 207.5,76.5C 224.423,76.0649 241.423,76.0649 258.5,76.5 Z"/></g>
<g><path style="opacity:1" fill="#797b7f" d="M 258.5,76.5 C 266.167,76.5 273.833,76.5 281.5,76.5C 281.5,77.1667 281.5,77.8333 281.5,78.5C 273.833,78.5 266.167,78.5 258.5,78.5C 258.5,77.8333 258.5,77.1667 258.5,76.5 Z"/></g>
<g><path style="opacity:1" fill="#969697" d="M 207.5,77.5 C 207.5,78.1667 207.5,78.8333 207.5,79.5C 148.167,79.5 88.8333,79.5 29.5,79.5C 88.6565,77.7263 147.99,77.0596 207.5,77.5 Z"/></g>
<g><path style="opacity:1" fill="#cac8c8" d="M 369.5,82.5 C 368.503,82.5299 367.836,82.0299 367.5,81C 367.989,79.8615 368.322,78.6948 368.5,77.5C 369.472,76.2486 370.139,76.582 370.5,78.5C 370.154,79.8492 369.821,81.1825 369.5,82.5 Z"/></g>
<g><path style="opacity:1" fill="#cbcccb" d="M 28.5,79.5 C 28.8333,79.5 29.1667,79.5 29.5,79.5C 88.8333,79.5 148.167,79.5 207.5,79.5C 207.5,79.8333 207.5,80.1667 207.5,80.5C 189.162,80.646 170.829,80.9793 152.5,81.5C 134.5,81.5 116.5,81.5 98.5,81.5C 75.0055,80.8774 51.6721,81.5441 28.5,83.5C 28.5,82.1667 28.5,80.8333 28.5,79.5 Z"/></g>
<g><path style="opacity:1" fill="#686361" d="M 227.5,79.5 C 227.5,80.1667 227.5,80.8333 227.5,81.5C 221.399,82.1284 215.399,82.7951 209.5,83.5C 208.833,83.5 208.5,83.1667 208.5,82.5C 208.5,81.8333 208.5,81.1667 208.5,80.5C 210.394,79.9524 212.06,78.9524 213.5,77.5C 214.167,78.1667 214.833,78.8333 215.5,79.5C 217.833,76.8333 220.167,76.8333 222.5,79.5C 223.167,78.8333 223.833,78.1667 224.5,77.5C 225.518,78.1925 226.518,78.8592 227.5,79.5 Z"/></g>
<g><path style="opacity:1" fill="#c1c2c0" d="M 258.5,78.5 C 266.167,78.5 273.833,78.5 281.5,78.5C 281.5,78.8333 281.5,79.1667 281.5,79.5C 273.833,80.8333 266.167,80.8333 258.5,79.5C 258.5,79.1667 258.5,78.8333 258.5,78.5 Z"/></g>
<g><path style="opacity:1" fill="#c3c1bd" d="M 322.5,72.5 C 330.445,73.4368 338.445,73.7701 346.5,73.5C 346.833,73.5 347.167,73.5 347.5,73.5C 347.5,76.1667 347.5,78.8333 347.5,81.5C 345.585,81.2155 343.919,81.5489 342.5,82.5C 341.508,82.6716 340.842,82.3382 340.5,81.5C 342.379,80.6586 344.379,80.3253 346.5,80.5C 346.5,78.5 346.5,76.5 346.5,74.5C 337.085,74.0828 327.752,74.5828 318.5,76C 320.9,76.1858 323.234,76.6858 325.5,77.5C 325.291,78.086 324.957,78.586 324.5,79C 327.361,78.9698 329.695,79.8031 331.5,81.5C 325.833,81.5 320.167,81.5 314.5,81.5C 305.5,81.5 296.5,81.5 287.5,81.5C 286.596,80.791 286.263,79.791 286.5,78.5C 329.146,78.499 329.146,77.8324 286.5,76.5C 296.144,75.5016 305.81,75.1682 315.5,75.5C 317.846,74.4767 320.179,73.4767 322.5,72.5 Z"/></g>
<g><path style="opacity:1" fill="#dedfdf" d="M 340.5,81.5 C 340.649,80.448 340.483,79.448 340,78.5C 339.578,80.4257 338.411,81.4257 336.5,81.5C 334.833,81.5 333.167,81.5 331.5,81.5C 329.695,79.8031 327.361,78.9698 324.5,79C 324.957,78.586 325.291,78.086 325.5,77.5C 323.234,76.6858 320.9,76.1858 318.5,76C 327.752,74.5828 337.085,74.0828 346.5,74.5C 346.5,76.5 346.5,78.5 346.5,80.5C 344.379,80.3253 342.379,80.6586 340.5,81.5 Z"/></g>
<g><path style="opacity:1" fill="#848387" d="M 207.5,80.5 C 207.833,80.5 208.167,80.5 208.5,80.5C 208.5,81.1667 208.5,81.8333 208.5,82.5C 198.167,82.5 187.833,82.5 177.5,82.5C 168.983,82.8261 160.65,82.4927 152.5,81.5C 170.829,80.9793 189.162,80.646 207.5,80.5 Z"/></g>
<g><path style="opacity:1" fill="#3d3938" d="M 227.5,81.5 C 237.5,81.5 247.5,81.5 257.5,81.5C 247.5,82.1667 237.5,82.8333 227.5,83.5C 221.401,84.8057 215.401,84.8057 209.5,83.5C 215.399,82.7951 221.399,82.1284 227.5,81.5 Z"/></g>
<g><path style="opacity:1" fill="#9c9b9f" d="M 98.5,81.5 C 116.5,81.5 134.5,81.5 152.5,81.5C 160.65,82.4927 168.983,82.8261 177.5,82.5C 173.702,83.4834 169.702,83.8168 165.5,83.5C 132.833,83.5 100.167,83.5 67.5,83.5C 60.9779,83.8235 54.6446,83.4902 48.5,82.5C 65.3417,82.8298 82.0084,82.4965 98.5,81.5 Z"/></g>
<g><path style="opacity:1" fill="#4e4a49" d="M 257.5,81.5 C 258.833,82.1667 258.833,82.8333 257.5,83.5C 247.5,83.5 237.5,83.5 227.5,83.5C 237.5,82.8333 247.5,82.1667 257.5,81.5 Z"/></g>
<g><path style="opacity:1" fill="#a7a5a6" d="M 281.5,82.5 C 281.5,83.5 281.5,84.5 281.5,85.5C 274.167,85.5 266.833,85.5 259.5,85.5C 259.5,84.5 259.5,83.5 259.5,82.5C 266.833,82.5 274.167,82.5 281.5,82.5 Z"/></g>
<g><path style="opacity:1" fill="#5b5d67" d="M 314.5,81.5 C 320.167,81.5 325.833,81.5 331.5,81.5C 333.167,81.5 334.833,81.5 336.5,81.5C 336.737,82.791 336.404,83.791 335.5,84.5C 319.819,84.8327 304.152,84.4994 288.5,83.5C 297.324,82.8333 305.991,82.1666 314.5,81.5 Z"/></g>
<g><path style="opacity:1" fill="#a4a3a6" d="M 48.5,82.5 C 54.6446,83.4902 60.9779,83.8235 67.5,83.5C 67.7828,84.2891 68.2828,84.9558 69,85.5C 81.6034,85.0205 94.6034,84.6872 108,84.5C 109.622,85.0989 111.122,85.7656 112.5,86.5C 108.5,86.5 104.5,86.5 100.5,86.5C 77.5,86.5 54.5,86.5 31.5,86.5C 31.5,85.5 31.5,84.5 31.5,83.5C 35.7675,83.203 39.9341,83.5363 44,84.5C 45.4705,83.7334 46.9705,83.0668 48.5,82.5 Z"/></g>
<g><path style="opacity:1" fill="#a8a8ab" d="M 67.5,83.5 C 100.167,83.5 132.833,83.5 165.5,83.5C 169.982,84.3255 174.649,84.8255 179.5,85C 178.584,85.2784 177.918,85.7784 177.5,86.5C 155.833,86.5 134.167,86.5 112.5,86.5C 111.122,85.7656 109.622,85.0989 108,84.5C 94.6034,84.6872 81.6034,85.0205 69,85.5C 68.2828,84.9558 67.7828,84.2891 67.5,83.5 Z"/></g>
<g><path style="opacity:1" fill="#7e7b7f" d="M 347.5,81.5 C 347.5,85.5 347.5,89.5 347.5,93.5C 347.167,93.5 346.833,93.5 346.5,93.5C 346.5,90.5 346.5,87.5 346.5,84.5C 344.517,84.8432 343.183,84.1765 342.5,82.5C 343.919,81.5489 345.585,81.2155 347.5,81.5 Z"/></g>
<g><path style="opacity:1" fill="#555454" d="M 358.5,82.5 C 358.5,82.8333 358.5,83.1667 358.5,83.5C 358.167,84.1667 357.833,84.8333 357.5,85.5C 356.5,85.8333 355.833,86.5 355.5,87.5C 354.549,86.0813 354.216,84.4147 354.5,82.5C 355.833,82.5 357.167,82.5 358.5,82.5 Z"/></g>
<g><path style="opacity:1" fill="#7c7a7b" d="M 368.5,60.5 C 370.008,66.1952 373.008,70.8619 377.5,74.5C 377.5,74.8333 377.5,75.1667 377.5,75.5C 378.5,76.8333 379.5,78.1667 380.5,79.5C 378.264,78.6109 376.264,77.2776 374.5,75.5C 373.319,77.1353 373.319,78.802 374.5,80.5C 373.018,82.4829 371.351,84.3163 369.5,86C 366.781,86.5281 364.281,86.0281 362,84.5C 360.467,84.7728 358.967,85.1062 357.5,85.5C 357.833,84.8333 358.167,84.1667 358.5,83.5C 362.371,83.815 366.038,83.4816 369.5,82.5C 369.821,81.1825 370.154,79.8492 370.5,78.5C 370.139,76.582 369.472,76.2486 368.5,77.5C 365.784,77.3215 363.117,76.8215 360.5,76C 361.793,75.51 363.127,75.3433 364.5,75.5C 365.75,70.2546 367.417,70.2546 369.5,75.5C 370.902,75.1345 371.902,74.3012 372.5,73C 370.545,69.6338 368.878,66.1338 367.5,62.5C 367.328,61.5084 367.662,60.8417 368.5,60.5 Z"/></g>
<g><path style="opacity:1" fill="#a9a8aa" d="M 177.5,82.5 C 187.833,82.5 198.167,82.5 208.5,82.5C 208.5,83.1667 208.833,83.5 209.5,83.5C 215.401,84.8057 221.401,84.8057 227.5,83.5C 237.5,83.5 247.5,83.5 257.5,83.5C 257.5,84.5 257.5,85.5 257.5,86.5C 230.833,86.5 204.167,86.5 177.5,86.5C 177.918,85.7784 178.584,85.2784 179.5,85C 174.649,84.8255 169.982,84.3255 165.5,83.5C 169.702,83.8168 173.702,83.4834 177.5,82.5 Z"/></g>
<g><path style="opacity:1" fill="#433d3b" d="M 282.5,51.5 C 282.833,51.5 283.167,51.5 283.5,51.5C 283.973,52.9063 284.973,53.573 286.5,53.5C 286.5,54.1667 286.167,54.5 285.5,54.5C 285.441,65.2524 285.441,76.2524 285.5,87.5C 285.5,87.8333 285.5,88.1667 285.5,88.5C 284.833,91.5 284.167,94.5 283.5,97.5C 283.81,94.2869 283.477,91.2869 282.5,88.5C 282.5,87.8333 282.167,87.5 281.5,87.5C 281.5,86.8333 281.5,86.1667 281.5,85.5C 281.5,84.5 281.5,83.5 281.5,82.5C 282.398,81.8423 283.398,81.1757 284.5,80.5C 283.675,79.6143 282.675,79.281 281.5,79.5C 281.5,79.1667 281.5,78.8333 281.5,78.5C 281.5,77.8333 281.5,77.1667 281.5,76.5C 281.5,73.1667 281.5,69.8333 281.5,66.5C 281.5,65.8333 281.5,65.1667 281.5,64.5C 281.833,64.5 282.167,64.5 282.5,64.5C 282.177,68.226 282.511,71.8927 283.5,75.5C 283.833,73.5 284.167,71.5 284.5,69.5C 284.461,67.0478 283.794,65.0478 282.5,63.5C 282.5,59.8333 282.5,56.1667 282.5,52.5C 282.5,52.1667 282.5,51.8333 282.5,51.5 Z"/></g>
<g><path style="opacity:0.975" fill="#b4b4b5" d="M 377.5,75.5 C 378.5,75.5 379.5,75.5 380.5,75.5C 386.857,76.9002 392.524,79.7335 397.5,84C 400.657,84.3955 403.657,85.2289 406.5,86.5C 407.622,88.5556 409.289,89.8889 411.5,90.5C 407.143,90.4135 402.81,90.0802 398.5,89.5C 396.139,89.3259 393.806,88.9926 391.5,88.5C 392.263,87.7321 393.263,87.2321 394.5,87C 389.038,85.7722 384.371,83.2722 380.5,79.5C 379.5,78.1667 378.5,76.8333 377.5,75.5 Z"/></g>
<g><path style="opacity:1" fill="#aeadae" d="M 98.5,81.5 C 82.0084,82.4965 65.3417,82.8298 48.5,82.5C 46.9705,83.0668 45.4705,83.7334 44,84.5C 39.9341,83.5363 35.7675,83.203 31.5,83.5C 31.5,84.5 31.5,85.5 31.5,86.5C 54.5,86.5 77.5,86.5 100.5,86.5C 100.5,86.8333 100.5,87.1667 100.5,87.5C 77.5,87.5 54.5,87.5 31.5,87.5C 30.5,86.8333 29.5,86.1667 28.5,85.5C 28.5,84.8333 28.5,84.1667 28.5,83.5C 51.6721,81.5441 75.0055,80.8774 98.5,81.5 Z"/></g>
<g><path style="opacity:1" fill="#b7b6b6" d="M 100.5,87.5 C 100.5,87.1667 100.5,86.8333 100.5,86.5C 104.5,86.5 108.5,86.5 112.5,86.5C 134.167,86.5 155.833,86.5 177.5,86.5C 204.167,86.5 230.833,86.5 257.5,86.5C 257.263,87.791 257.596,88.791 258.5,89.5C 258.737,90.791 258.404,91.791 257.5,92.5C 251.926,90.5467 245.926,89.88 239.5,90.5C 239.414,89.5041 239.748,88.6708 240.5,88C 214.835,87.5 189.169,87.3334 163.5,87.5C 142.5,87.5 121.5,87.5 100.5,87.5 Z"/></g>
<g><path style="opacity:1" fill="#818183" d="M 227.5,79.5 C 237.833,79.5 248.167,79.5 258.5,79.5C 266.167,80.8333 273.833,80.8333 281.5,79.5C 282.675,79.281 283.675,79.6143 284.5,80.5C 283.398,81.1757 282.398,81.8423 281.5,82.5C 274.167,82.5 266.833,82.5 259.5,82.5C 259.5,83.5 259.5,84.5 259.5,85.5C 266.833,85.5 274.167,85.5 281.5,85.5C 281.5,86.1667 281.5,86.8333 281.5,87.5C 273.427,86.8682 265.76,87.5349 258.5,89.5C 257.596,88.791 257.263,87.791 257.5,86.5C 257.5,85.5 257.5,84.5 257.5,83.5C 258.833,82.8333 258.833,82.1667 257.5,81.5C 247.5,81.5 237.5,81.5 227.5,81.5C 227.5,80.8333 227.5,80.1667 227.5,79.5 Z"/></g>
<g><path style="opacity:1" fill="#b2b2b4" d="M 340.5,81.5 C 340.842,82.3382 341.508,82.6716 342.5,82.5C 343.183,84.1765 344.517,84.8432 346.5,84.5C 346.5,87.5 346.5,90.5 346.5,93.5C 346.5,94.8333 346.5,96.1667 346.5,97.5C 345.5,97.5 344.5,97.5 343.5,97.5C 343.5,96.5 343.5,95.5 343.5,94.5C 342.5,94.5 341.5,94.5 340.5,94.5C 335.684,93.3503 330.684,93.1837 325.5,94C 323.746,96.8274 321.912,96.9941 320,94.5C 315.935,96.0668 311.768,95.7335 307.5,93.5C 304.237,94.2017 300.904,94.2017 297.5,93.5C 293.531,93.0713 290.364,94.4047 288,97.5C 286.936,96.0559 286.436,94.3893 286.5,92.5C 287.021,90.0759 287.688,87.7426 288.5,85.5C 304.342,85.8296 320.009,85.4963 335.5,84.5C 336.404,83.791 336.737,82.791 336.5,81.5C 338.411,81.4257 339.578,80.4257 340,78.5C 340.483,79.448 340.649,80.448 340.5,81.5 Z"/></g>
<g><path style="opacity:1" fill="#c6c6c6" d="M 380.5,79.5 C 384.371,83.2722 389.038,85.7722 394.5,87C 393.263,87.2321 392.263,87.7321 391.5,88.5C 390.632,91.3273 390.632,94.3273 391.5,97.5C 389.871,99.0603 388.704,98.727 388,96.5C 387.586,96.9574 387.086,97.2907 386.5,97.5C 384.393,96.3632 382.227,95.3632 380,94.5C 377.457,97.0427 374.623,98.2094 371.5,98C 373.912,100.035 373.245,101.035 369.5,101C 370.696,101.654 370.696,102.154 369.5,102.5C 368.264,101.754 366.93,101.421 365.5,101.5C 365.719,102.675 365.386,103.675 364.5,104.5C 364.167,104.167 363.833,103.833 363.5,103.5C 364.833,102.5 364.833,101.5 363.5,100.5C 363.977,99.5224 364.643,98.6891 365.5,98C 365.868,96.527 365.368,95.027 364,93.5C 362.855,95.9258 361.522,98.2591 360,100.5C 358.846,98.0426 357.512,98.0426 356,100.5C 354.228,96.5702 353.062,96.9035 352.5,101.5C 352.728,103.397 353.728,104.73 355.5,105.5C 354.992,107.904 353.825,108.571 352,107.5C 351.667,109.167 351.333,110.833 351,112.5C 350.329,111.748 349.496,111.414 348.5,111.5C 348.5,110.833 348.5,110.167 348.5,109.5C 348.5,105.833 348.5,102.167 348.5,98.5C 349.822,98.67 350.989,98.3366 352,97.5C 352.497,94.854 352.664,92.1873 352.5,89.5C 352.5,89.1667 352.5,88.8333 352.5,88.5C 353.496,88.4142 354.329,88.7476 355,89.5C 355.464,88.9056 355.631,88.2389 355.5,87.5C 355.833,86.5 356.5,85.8333 357.5,85.5C 358.967,85.1062 360.467,84.7728 362,84.5C 364.281,86.0281 366.781,86.5281 369.5,86C 371.351,84.3163 373.018,82.4829 374.5,80.5C 373.319,78.802 373.319,77.1353 374.5,75.5C 376.264,77.2776 378.264,78.6109 380.5,79.5 Z"/></g>
<g><path style="opacity:0.796" fill="#cdcdce" d="M 28.5,85.5 C 29.5,86.1667 30.5,86.8333 31.5,87.5C 45.1504,88.8326 59.1504,89.4993 73.5,89.5C 103.675,89.4132 133.675,88.7466 163.5,87.5C 189.169,87.3334 214.835,87.5 240.5,88C 239.748,88.6708 239.414,89.5041 239.5,90.5C 169.499,90.6667 99.4992,90.5 29.5,90C 28.6198,88.6439 28.2865,87.1439 28.5,85.5 Z"/></g>
<g><path style="opacity:0.916" fill="#c4c3c3" d="M 31.5,87.5 C 54.5,87.5 77.5,87.5 100.5,87.5C 121.5,87.5 142.5,87.5 163.5,87.5C 133.675,88.7466 103.675,89.4132 73.5,89.5C 59.1504,89.4993 45.1504,88.8326 31.5,87.5 Z"/></g>
<g><path style="opacity:1" fill="#c4c3c0" d="M 281.5,87.5 C 282.167,87.5 282.5,87.8333 282.5,88.5C 282.5,92.5 282.5,96.5 282.5,100.5C 275.825,100.334 269.158,100.5 262.5,101C 269.575,100.867 276.242,101.7 282.5,103.5C 257.568,103.661 257.568,105.661 282.5,109.5C 283.167,109.5 283.833,109.5 284.5,109.5C 278.735,111.147 272.735,112.147 266.5,112.5C 265.292,111.766 263.959,111.433 262.5,111.5C 262.829,108.772 262.163,106.438 260.5,104.5C 259.188,100.584 258.188,96.5837 257.5,92.5C 258.404,91.791 258.737,90.791 258.5,89.5C 265.76,87.5349 273.427,86.8682 281.5,87.5 Z"/></g>
<g><path style="opacity:1" fill="#1e1a1a" d="M 349.5,64.5 C 351.025,66.2163 352.025,68.2163 352.5,70.5C 352.5,76.5 352.5,82.5 352.5,88.5C 352.5,88.8333 352.5,89.1667 352.5,89.5C 350.93,92.3135 349.597,95.3135 348.5,98.5C 347.549,97.0813 347.216,95.4147 347.5,93.5C 347.5,89.5 347.5,85.5 347.5,81.5C 347.5,78.8333 347.5,76.1667 347.5,73.5C 346.945,69.9878 347.612,66.9878 349.5,64.5 Z"/></g>
<g><path style="opacity:1" fill="#a5a4a6" d="M 287.5,81.5 C 296.5,81.5 305.5,81.5 314.5,81.5C 305.991,82.1666 297.324,82.8333 288.5,83.5C 304.152,84.4994 319.819,84.8327 335.5,84.5C 320.009,85.4963 304.342,85.8296 288.5,85.5C 287.688,87.7426 287.021,90.0759 286.5,92.5C 286.436,94.3893 286.936,96.0559 288,97.5C 290.364,94.4047 293.531,93.0713 297.5,93.5C 300.904,94.2017 304.237,94.2017 307.5,93.5C 311.768,95.7335 315.935,96.0668 320,94.5C 321.912,96.9941 323.746,96.8274 325.5,94C 330.684,93.1837 335.684,93.3503 340.5,94.5C 338.167,94.5 335.833,94.5 333.5,94.5C 333.5,95.5 333.5,96.5 333.5,97.5C 336.942,96.9411 340.275,96.9411 343.5,97.5C 344.5,97.5 345.5,97.5 346.5,97.5C 346.5,98.5 346.5,99.5 346.5,100.5C 339.167,100.5 331.833,100.5 324.5,100.5C 322.821,100.108 321.154,99.6077 319.5,99C 308.172,98.5001 296.838,98.3335 285.5,98.5C 285.5,95.1667 285.5,91.8333 285.5,88.5C 285.5,88.1667 285.5,87.8333 285.5,87.5C 287.308,86.0821 287.975,84.0821 287.5,81.5 Z"/></g>
<g><path style="opacity:1" fill="#84807f" d="M 340.5,94.5 C 341.5,94.5 342.5,94.5 343.5,94.5C 343.5,95.5 343.5,96.5 343.5,97.5C 340.275,96.9411 336.942,96.9411 333.5,97.5C 333.5,96.5 333.5,95.5 333.5,94.5C 335.833,94.5 338.167,94.5 340.5,94.5 Z"/></g>
<g><path style="opacity:1" fill="#cfcfd1" d="M 391.5,97.5 C 391.833,97.5 392.167,97.5 392.5,97.5C 393.839,104.819 391.839,110.819 386.5,115.5C 384.565,116.15 382.565,116.483 380.5,116.5C 383.133,113.84 385.8,111.173 388.5,108.5C 389.747,106.677 390.414,104.677 390.5,102.5C 388.409,102.682 386.409,102.348 384.5,101.5C 382.08,103.866 379.58,106.199 377,108.5C 375.718,104.329 373.551,103.662 370.5,106.5C 369.808,105.975 369.308,105.308 369,104.5C 364.642,106.474 363.142,109.641 364.5,114C 361.61,115.892 361.944,116.725 365.5,116.5C 365.313,119.026 363.98,120.693 361.5,121.5C 359.675,120.349 357.675,119.682 355.5,119.5C 355.5,120.5 355.5,121.5 355.5,122.5C 347.213,121.764 338.879,121.764 330.5,122.5C 330.158,121.662 329.492,121.328 328.5,121.5C 332.353,120.834 336.353,120.167 340.5,119.5C 342.005,118.158 342.672,116.492 342.5,114.5C 340.801,114.66 339.134,114.494 337.5,114C 341.025,113.821 344.359,113.321 347.5,112.5C 347.5,111.833 347.833,111.5 348.5,111.5C 349.496,111.414 350.329,111.748 351,112.5C 351.333,110.833 351.667,109.167 352,107.5C 353.825,108.571 354.992,107.904 355.5,105.5C 353.728,104.73 352.728,103.397 352.5,101.5C 353.062,96.9035 354.228,96.5702 356,100.5C 357.512,98.0426 358.846,98.0426 360,100.5C 361.522,98.2591 362.855,95.9258 364,93.5C 365.368,95.027 365.868,96.527 365.5,98C 364.643,98.6891 363.977,99.5224 363.5,100.5C 364.833,101.5 364.833,102.5 363.5,103.5C 363.833,103.833 364.167,104.167 364.5,104.5C 365.386,103.675 365.719,102.675 365.5,101.5C 366.93,101.421 368.264,101.754 369.5,102.5C 370.696,102.154 370.696,101.654 369.5,101C 373.245,101.035 373.912,100.035 371.5,98C 374.623,98.2094 377.457,97.0427 380,94.5C 382.227,95.3632 384.393,96.3632 386.5,97.5C 387.086,97.2907 387.586,96.9574 388,96.5C 388.704,98.727 389.871,99.0603 391.5,97.5 Z"/></g>
<g><path style="opacity:0.624" fill="#d3d6da" d="M 406.5,86.5 C 416.91,87.9121 422.577,93.9121 423.5,104.5C 421.57,104.229 420.236,103.229 419.5,101.5C 419.5,101.167 419.5,100.833 419.5,100.5C 418.604,95.6173 415.937,92.2839 411.5,90.5C 409.289,89.8889 407.622,88.5556 406.5,86.5 Z"/></g>
<g><path style="opacity:1" fill="#837f80" d="M 352.5,89.5 C 352.664,92.1873 352.497,94.854 352,97.5C 350.989,98.3366 349.822,98.67 348.5,98.5C 349.597,95.3135 350.93,92.3135 352.5,89.5 Z"/></g>
<g><path style="opacity:1" fill="#5b5a5c" d="M 398.5,89.5 C 402.81,90.0802 407.143,90.4135 411.5,90.5C 415.937,92.2839 418.604,95.6173 419.5,100.5C 416.777,98.7773 414.777,96.4439 413.5,93.5C 408.5,92.1667 403.5,90.8333 398.5,89.5 Z"/></g>
<g><path style="opacity:1" fill="#666260" d="M 285.5,88.5 C 285.5,91.8333 285.5,95.1667 285.5,98.5C 296.838,98.3335 308.172,98.5001 319.5,99C 321.154,99.6077 322.821,100.108 324.5,100.5C 324.5,100.833 324.5,101.167 324.5,101.5C 311.515,100.73 298.515,100.397 285.5,100.5C 285.433,101.959 285.766,103.292 286.5,104.5C 286.125,105.793 285.792,107.126 285.5,108.5C 285.5,108.833 285.5,109.167 285.5,109.5C 285.167,109.5 284.833,109.5 284.5,109.5C 283.833,109.5 283.167,109.5 282.5,109.5C 282.297,107.61 282.963,106.11 284.5,105C 283.584,104.722 282.918,104.222 282.5,103.5C 283.461,101.735 283.795,99.7354 283.5,97.5C 284.167,94.5 284.833,91.5 285.5,88.5 Z"/></g>
<g><path style="opacity:1" fill="#908d8b" d="M 282.5,88.5 C 283.477,91.2869 283.81,94.2869 283.5,97.5C 283.795,99.7354 283.461,101.735 282.5,103.5C 276.242,101.7 269.575,100.867 262.5,101C 269.158,100.5 275.825,100.334 282.5,100.5C 282.5,96.5 282.5,92.5 282.5,88.5 Z"/></g>
<g><path style="opacity:1" fill="#a2a1a2" d="M 324.5,101.5 C 324.5,102.167 324.5,102.833 324.5,103.5C 321.72,104.078 319.053,104.745 316.5,105.5C 306.319,105.827 296.319,105.494 286.5,104.5C 285.766,103.292 285.433,101.959 285.5,100.5C 298.515,100.397 311.515,100.73 324.5,101.5 Z"/></g>
<g><path style="opacity:1" fill="#7d7a7b" d="M 324.5,100.5 C 331.833,100.5 339.167,100.5 346.5,100.5C 346.5,101.5 346.5,102.5 346.5,103.5C 339.167,103.5 331.833,103.5 324.5,103.5C 324.5,102.833 324.5,102.167 324.5,101.5C 324.5,101.167 324.5,100.833 324.5,100.5 Z"/></g>
<g><path style="opacity:1" fill="#413f43" d="M 391.5,88.5 C 393.806,88.9926 396.139,89.3259 398.5,89.5C 403.5,90.8333 408.5,92.1667 413.5,93.5C 406.169,93.2208 405.002,95.5541 410,100.5C 410.505,102.518 411.005,104.518 411.5,106.5C 410.504,106.414 409.671,106.748 409,107.5C 407.47,109.413 406.136,112.08 405,115.5C 404.333,114.833 403.667,114.167 403,113.5C 400.91,114.791 399.576,114.124 399,111.5C 398.768,112.737 398.268,113.737 397.5,114.5C 396.957,114.44 396.624,114.107 396.5,113.5C 398.856,108.508 399.356,103.508 398,98.5C 397.612,96.2853 396.612,94.952 395,94.5C 394.333,98.5 393.667,98.5 393,94.5C 392.517,95.448 392.351,96.448 392.5,97.5C 392.167,97.5 391.833,97.5 391.5,97.5C 390.632,94.3273 390.632,91.3273 391.5,88.5 Z"/></g>
<g><path style="opacity:1" fill="#d4d5d6" d="M 380.5,116.5 C 372.455,118.873 368.121,124.207 367.5,132.5C 364.852,130.434 362.518,127.934 360.5,125C 358.807,124.153 357.14,123.32 355.5,122.5C 355.5,121.5 355.5,120.5 355.5,119.5C 357.675,119.682 359.675,120.349 361.5,121.5C 363.98,120.693 365.313,119.026 365.5,116.5C 361.944,116.725 361.61,115.892 364.5,114C 363.142,109.641 364.642,106.474 369,104.5C 369.308,105.308 369.808,105.975 370.5,106.5C 373.551,103.662 375.718,104.329 377,108.5C 379.58,106.199 382.08,103.866 384.5,101.5C 386.409,102.348 388.409,102.682 390.5,102.5C 390.414,104.677 389.747,106.677 388.5,108.5C 385.8,111.173 383.133,113.84 380.5,116.5 Z"/></g>
<g><path style="opacity:1" fill="#a3a09c" d="M 282.5,103.5 C 282.918,104.222 283.584,104.722 284.5,105C 282.963,106.11 282.297,107.61 282.5,109.5C 257.568,105.661 257.568,103.661 282.5,103.5 Z"/></g>
<g><path style="opacity:1" fill="#3d3b40" d="M 413.5,93.5 C 414.777,96.4439 416.777,98.7773 419.5,100.5C 419.5,100.833 419.5,101.167 419.5,101.5C 419.378,107.375 422.045,111.375 427.5,113.5C 428.753,116.59 430.92,118.923 434,120.5C 434.655,122.628 435.489,124.628 436.5,126.5C 431.022,121.981 426.022,116.814 421.5,111C 420.551,110.383 419.718,110.549 419,111.5C 417.929,108.887 417.095,108.887 416.5,111.5C 416.167,111.5 415.833,111.5 415.5,111.5C 413.224,111.756 412.057,113.09 412,115.5C 409.371,113.186 409.538,110.686 412.5,108C 411.944,107.617 411.611,107.117 411.5,106.5C 411.005,104.518 410.505,102.518 410,100.5C 405.002,95.5541 406.169,93.2208 413.5,93.5 Z"/></g>
<g><path style="opacity:1" fill="#3f3d42" d="M 411.5,106.5 C 411.611,107.117 411.944,107.617 412.5,108C 409.538,110.686 409.371,113.186 412,115.5C 412.057,113.09 413.224,111.756 415.5,111.5C 415.219,113.963 414.219,116.13 412.5,118C 414.025,119.009 415.692,119.509 417.5,119.5C 417.328,121.492 417.995,123.158 419.5,124.5C 419.376,125.107 419.043,125.44 418.5,125.5C 416.708,124.691 414.708,124.191 412.5,124C 410.012,122.315 410.345,120.981 413.5,120C 412.151,119.228 411.318,118.061 411,116.5C 409.991,118.025 409.491,119.692 409.5,121.5C 404.713,121.266 403.047,123.266 404.5,127.5C 401.212,127.016 398.545,128.016 396.5,130.5C 395.45,130.095 395.45,129.429 396.5,128.5C 395.998,127.479 395.332,127.312 394.5,128C 393.359,128.741 393.359,129.575 394.5,130.5C 392.183,131.82 390.183,133.486 388.5,135.5C 387.539,132.57 386.206,129.903 384.5,127.5C 384.621,126.106 384.954,124.772 385.5,123.5C 382.953,121.546 382.953,119.879 385.5,118.5C 385.953,119.458 386.619,120.292 387.5,121C 386.663,122.011 386.33,123.178 386.5,124.5C 389.455,123.841 392.455,123.508 395.5,123.5C 394.555,121.435 393.888,119.601 393.5,118C 394.793,117.51 396.127,117.343 397.5,117.5C 397.5,116.5 397.5,115.5 397.5,114.5C 398.268,113.737 398.768,112.737 399,111.5C 399.576,114.124 400.91,114.791 403,113.5C 403.667,114.167 404.333,114.833 405,115.5C 406.136,112.08 407.47,109.413 409,107.5C 409.671,106.748 410.504,106.414 411.5,106.5 Z"/></g>
<g><path style="opacity:1" fill="#211e1e" d="M 286.5,104.5 C 296.319,105.494 306.319,105.827 316.5,105.5C 326.216,105.144 335.883,105.144 345.5,105.5C 345.5,106.5 345.5,107.5 345.5,108.5C 325.5,108.5 305.5,108.5 285.5,108.5C 285.792,107.126 286.125,105.793 286.5,104.5 Z"/></g>
<g><path style="opacity:1" fill="#605d5c" d="M 346.5,93.5 C 346.833,93.5 347.167,93.5 347.5,93.5C 347.216,95.4147 347.549,97.0813 348.5,98.5C 348.5,102.167 348.5,105.833 348.5,109.5C 339.533,110.383 330.533,110.716 321.5,110.5C 309.322,110.828 297.322,110.495 285.5,109.5C 285.5,109.167 285.5,108.833 285.5,108.5C 305.5,108.5 325.5,108.5 345.5,108.5C 345.5,107.5 345.5,106.5 345.5,105.5C 335.883,105.144 326.216,105.144 316.5,105.5C 319.053,104.745 321.72,104.078 324.5,103.5C 331.833,103.5 339.167,103.5 346.5,103.5C 346.5,102.5 346.5,101.5 346.5,100.5C 346.5,99.5 346.5,98.5 346.5,97.5C 346.5,96.1667 346.5,94.8333 346.5,93.5 Z"/></g>
<g><path style="opacity:1" fill="#3c3a3d" d="M 397.5,114.5 C 397.5,115.5 397.5,116.5 397.5,117.5C 396.127,117.343 394.793,117.51 393.5,118C 393.888,119.601 394.555,121.435 395.5,123.5C 392.455,123.508 389.455,123.841 386.5,124.5C 386.33,123.178 386.663,122.011 387.5,121C 386.619,120.292 385.953,119.458 385.5,118.5C 385.564,117.635 385.897,116.635 386.5,115.5C 391.839,110.819 393.839,104.819 392.5,97.5C 392.351,96.448 392.517,95.448 393,94.5C 393.667,98.5 394.333,98.5 395,94.5C 396.612,94.952 397.612,96.2853 398,98.5C 399.356,103.508 398.856,108.508 396.5,113.5C 396.624,114.107 396.957,114.44 397.5,114.5 Z"/></g>
<g><path style="opacity:0.702" fill="#6a686c" d="M 419.5,101.5 C 420.236,103.229 421.57,104.229 423.5,104.5C 424.752,106.001 425.752,107.668 426.5,109.5C 426.833,110.833 427.167,112.167 427.5,113.5C 422.045,111.375 419.378,107.375 419.5,101.5 Z"/></g>
<g><path style="opacity:1" fill="#b0b0ae" d="M 348.5,109.5 C 348.5,110.167 348.5,110.833 348.5,111.5C 347.833,111.5 347.5,111.833 347.5,112.5C 337.5,112.5 327.5,112.5 317.5,112.5C 307.5,112.5 297.5,112.5 287.5,112.5C 287.5,114.167 287.5,115.833 287.5,117.5C 286.539,115.735 286.205,113.735 286.5,111.5C 298.345,111.828 310.012,111.495 321.5,110.5C 330.533,110.716 339.533,110.383 348.5,109.5 Z"/></g>
<g><path style="opacity:1" fill="#3b393f" d="M 415.5,111.5 C 415.833,111.5 416.167,111.5 416.5,111.5C 419.267,112.638 419.934,114.472 418.5,117C 421.5,118.667 423.833,121 425.5,124C 425.167,124.333 424.833,124.667 424.5,125C 425.833,125.333 427.167,125.667 428.5,126C 427.044,126.423 426.544,127.256 427,128.5C 428.593,130.285 430.093,130.452 431.5,129C 428.827,127.729 428.827,127.063 431.5,127C 434.596,129.029 436.262,131.862 436.5,135.5C 434.821,135.285 433.821,135.952 433.5,137.5C 433.804,138.15 434.137,138.817 434.5,139.5C 433.273,143.283 432.606,146.949 432.5,150.5C 435.167,151.5 435.167,152.5 432.5,153.5C 430.111,151.493 427.444,151.16 424.5,152.5C 424.167,151.5 423.5,150.833 422.5,150.5C 423.778,149.251 424.778,147.751 425.5,146C 424.283,144.352 423.45,142.519 423,140.5C 422.333,139.167 421.667,139.167 421,140.5C 420.781,139.062 420.281,137.729 419.5,136.5C 418.476,137.853 417.143,138.52 415.5,138.5C 415.785,136.712 415.452,135.045 414.5,133.5C 412.686,137.222 409.686,138.889 405.5,138.5C 409.5,133.833 413.833,129.5 418.5,125.5C 419.043,125.44 419.376,125.107 419.5,124.5C 417.995,123.158 417.328,121.492 417.5,119.5C 415.692,119.509 414.025,119.009 412.5,118C 414.219,116.13 415.219,113.963 415.5,111.5 Z"/></g>
<g><path style="opacity:1" fill="#c7c7c5" d="M 317.5,112.5 C 314.695,113.319 311.695,113.819 308.5,114C 305.913,115.525 305.08,117.692 306,120.5C 306.278,119.584 306.778,118.918 307.5,118.5C 307.229,120.38 307.896,121.713 309.5,122.5C 309.5,123.167 309.5,123.833 309.5,124.5C 309.5,125.167 309.5,125.833 309.5,126.5C 307.806,127.527 306.473,128.861 305.5,130.5C 303.4,127.896 301.067,125.396 298.5,123C 294.839,121.407 291.172,120.241 287.5,119.5C 287.5,118.833 287.5,118.167 287.5,117.5C 287.5,115.833 287.5,114.167 287.5,112.5C 297.5,112.5 307.5,112.5 317.5,112.5 Z"/></g>
<g><path style="opacity:1" fill="#c9cacb" d="M 317.5,112.5 C 327.5,112.5 337.5,112.5 347.5,112.5C 344.359,113.321 341.025,113.821 337.5,114C 339.134,114.494 340.801,114.66 342.5,114.5C 342.672,116.492 342.005,118.158 340.5,119.5C 336.353,120.167 332.353,120.834 328.5,121.5C 324.537,120.56 320.537,120.393 316.5,121C 314.423,122.705 312.09,123.872 309.5,124.5C 309.5,123.833 309.5,123.167 309.5,122.5C 310.376,122.631 311.043,122.298 311.5,121.5C 310.41,120.391 310.41,119.391 311.5,118.5C 313.382,120.693 313.882,120.027 313,116.5C 310.189,114.82 308.356,115.487 307.5,118.5C 306.778,118.918 306.278,119.584 306,120.5C 305.08,117.692 305.913,115.525 308.5,114C 311.695,113.819 314.695,113.319 317.5,112.5 Z"/></g>
<g><path style="opacity:1" fill="#858587" d="M 282.5,114.5 C 282.33,115.822 282.663,116.989 283.5,118C 278.511,118.499 273.511,118.666 268.5,118.5C 267.167,118.5 266.5,117.833 266.5,116.5C 271.396,114.554 276.729,113.887 282.5,114.5 Z"/></g>
<g><path style="opacity:1" fill="#424046" d="M 418.5,125.5 C 413.833,129.5 409.5,133.833 405.5,138.5C 404.603,139.598 403.77,139.598 403,138.5C 402.316,137.216 402.483,136.049 403.5,135C 402.007,133.632 400.507,133.465 399,134.5C 398.925,132.065 398.092,131.398 396.5,132.5C 396.5,131.833 396.5,131.167 396.5,130.5C 398.545,128.016 401.212,127.016 404.5,127.5C 403.047,123.266 404.713,121.266 409.5,121.5C 409.491,119.692 409.991,118.025 411,116.5C 411.318,118.061 412.151,119.228 413.5,120C 410.345,120.981 410.012,122.315 412.5,124C 414.708,124.191 416.708,124.691 418.5,125.5 Z"/></g>
<g><path style="opacity:1" fill="#a09f9f" d="M 284.5,109.5 C 284.833,109.5 285.167,109.5 285.5,109.5C 297.322,110.495 309.322,110.828 321.5,110.5C 310.012,111.495 298.345,111.828 286.5,111.5C 286.205,113.735 286.539,115.735 287.5,117.5C 287.5,118.167 287.5,118.833 287.5,119.5C 286.711,119.783 286.044,120.283 285.5,121C 279.472,121.83 273.472,121.664 267.5,120.5C 267.863,119.817 268.196,119.15 268.5,118.5C 273.511,118.666 278.511,118.499 283.5,118C 282.663,116.989 282.33,115.822 282.5,114.5C 283.675,114.719 284.675,114.386 285.5,113.5C 279.202,112.504 272.868,112.17 266.5,112.5C 272.735,112.147 278.735,111.147 284.5,109.5 Z"/></g>
<g><path style="opacity:1" fill="#9d9b9b" d="M 309.5,122.5 C 307.896,121.713 307.229,120.38 307.5,118.5C 308.356,115.487 310.189,114.82 313,116.5C 313.882,120.027 313.382,120.693 311.5,118.5C 310.41,119.391 310.41,120.391 311.5,121.5C 311.043,122.298 310.376,122.631 309.5,122.5 Z"/></g>
<g><path style="opacity:1" fill="#a5a2a0" d="M 328.5,121.5 C 329.492,121.328 330.158,121.662 330.5,122.5C 329.991,123.341 330.657,123.841 332.5,124C 331.667,124.167 330.833,124.333 330,124.5C 325.952,122.874 321.785,122.374 317.5,123C 314.936,124.396 312.269,125.563 309.5,126.5C 309.5,125.833 309.5,125.167 309.5,124.5C 312.09,123.872 314.423,122.705 316.5,121C 320.537,120.393 324.537,120.56 328.5,121.5 Z"/></g>
<g><path style="opacity:1" fill="#b7b5b3" d="M 266.5,116.5 C 266.5,117.833 267.167,118.5 268.5,118.5C 268.196,119.15 267.863,119.817 267.5,120.5C 273.472,121.664 279.472,121.83 285.5,121C 286.044,120.283 286.711,119.783 287.5,119.5C 291.172,120.241 294.839,121.407 298.5,123C 301.067,125.396 303.4,127.896 305.5,130.5C 305.343,131.873 305.51,133.207 306,134.5C 307.426,132.234 309.259,130.567 311.5,129.5C 309.356,132.122 308.023,135.122 307.5,138.5C 306.698,139.952 306.198,141.618 306,143.5C 305.506,141.866 305.34,140.199 305.5,138.5C 303.876,138.36 302.71,139.027 302,140.5C 302.203,136.23 301.036,132.563 298.5,129.5C 297.942,128.21 296.942,127.377 295.5,127C 285.733,126.575 276.066,125.409 266.5,123.5C 264.97,121.774 263.97,119.774 263.5,117.5C 264.325,116.614 265.325,116.281 266.5,116.5 Z"/></g>
<g><path style="opacity:1" fill="#444246" d="M 386.5,115.5 C 385.897,116.635 385.564,117.635 385.5,118.5C 382.953,119.879 382.953,121.546 385.5,123.5C 384.954,124.772 384.621,126.106 384.5,127.5C 386.206,129.903 387.539,132.57 388.5,135.5C 390.183,133.486 392.183,131.82 394.5,130.5C 393.359,129.575 393.359,128.741 394.5,128C 395.332,127.312 395.998,127.479 396.5,128.5C 395.45,129.429 395.45,130.095 396.5,130.5C 396.5,131.167 396.5,131.833 396.5,132.5C 395.013,133.804 393.346,134.97 391.5,136C 392.328,136.915 393.328,137.581 394.5,138C 392.833,138.333 391.167,138.667 389.5,139C 390.214,140.343 389.88,141.676 388.5,143C 385.743,142.777 383.076,142.944 380.5,143.5C 379.817,141.824 378.483,141.157 376.5,141.5C 375.412,137.071 373.079,133.405 369.5,130.5C 368.818,131.243 368.151,131.909 367.5,132.5C 368.121,124.207 372.455,118.873 380.5,116.5C 382.565,116.483 384.565,116.15 386.5,115.5 Z"/></g>
<g><path style="opacity:1" fill="#363439" d="M 436.5,126.5 C 436.12,129.792 437.453,132.125 440.5,133.5C 440.999,136.217 442.165,138.551 444,140.5C 444.74,141.749 444.573,142.749 443.5,143.5C 441.545,144.323 439.545,144.49 437.5,144C 438.051,142.602 438.384,141.268 438.5,140C 436.751,139.215 435.084,138.382 433.5,137.5C 433.821,135.952 434.821,135.285 436.5,135.5C 436.262,131.862 434.596,129.029 431.5,127C 428.827,127.063 428.827,127.729 431.5,129C 430.093,130.452 428.593,130.285 427,128.5C 426.544,127.256 427.044,126.423 428.5,126C 427.167,125.667 425.833,125.333 424.5,125C 424.833,124.667 425.167,124.333 425.5,124C 423.833,121 421.5,118.667 418.5,117C 419.934,114.472 419.267,112.638 416.5,111.5C 417.095,108.887 417.929,108.887 419,111.5C 419.718,110.549 420.551,110.383 421.5,111C 426.022,116.814 431.022,121.981 436.5,126.5 Z"/></g>
<g><path style="opacity:0.384" fill="#c6c7c9" d="M 260.5,104.5 C 262.163,106.438 262.829,108.772 262.5,111.5C 263.959,111.433 265.292,111.766 266.5,112.5C 272.868,112.17 279.202,112.504 285.5,113.5C 284.675,114.386 283.675,114.719 282.5,114.5C 276.729,113.887 271.396,114.554 266.5,116.5C 265.325,116.281 264.325,116.614 263.5,117.5C 263.97,119.774 264.97,121.774 266.5,123.5C 276.066,125.409 285.733,126.575 295.5,127C 296.942,127.377 297.942,128.21 298.5,129.5C 297.833,129.5 297.167,129.5 296.5,129.5C 285.53,128.876 274.53,128.21 263.5,127.5C 262.561,119.838 261.561,112.172 260.5,104.5 Z"/></g>
<g><path style="opacity:1" fill="#c2bebb" d="M 339.5,125.5 C 340.833,125.5 342.167,125.5 343.5,125.5C 346.187,125.336 348.854,125.503 351.5,126C 351.957,126.414 352.291,126.914 352.5,127.5C 350.24,129.765 347.906,131.765 345.5,133.5C 345.5,134.167 345.5,134.833 345.5,135.5C 342.573,134.35 339.573,133.35 336.5,132.5C 335.893,132.624 335.56,132.957 335.5,133.5C 334.655,132.329 333.989,130.995 333.5,129.5C 334.404,128.791 334.737,127.791 334.5,126.5C 336.415,126.784 338.081,126.451 339.5,125.5 Z"/></g>
<g><path style="opacity:1" fill="#959290" d="M 355.5,122.5 C 357.14,123.32 358.807,124.153 360.5,125C 362.518,127.934 364.852,130.434 367.5,132.5C 367.818,137.032 367.485,141.366 366.5,145.5C 366.665,142.15 366.498,138.817 366,135.5C 365.667,136.167 365.333,136.833 365,137.5C 364.163,135.156 362.829,133.156 361,131.5C 360.617,132.056 360.117,132.389 359.5,132.5C 357.284,131.797 355.451,130.464 354,128.5C 351.944,131.548 349.111,133.214 345.5,133.5C 347.906,131.765 350.24,129.765 352.5,127.5C 352.291,126.914 351.957,126.414 351.5,126C 348.854,125.503 346.187,125.336 343.5,125.5C 345.631,124.686 347.964,124.186 350.5,124C 345.798,123.172 341.131,123.338 336.5,124.5C 337.325,125.386 338.325,125.719 339.5,125.5C 338.081,126.451 336.415,126.784 334.5,126.5C 334.737,127.791 334.404,128.791 333.5,129.5C 326.18,126.173 318.847,126.173 311.5,129.5C 309.259,130.567 307.426,132.234 306,134.5C 305.51,133.207 305.343,131.873 305.5,130.5C 306.473,128.861 307.806,127.527 309.5,126.5C 312.269,125.563 314.936,124.396 317.5,123C 321.785,122.374 325.952,122.874 330,124.5C 330.833,124.333 331.667,124.167 332.5,124C 330.657,123.841 329.991,123.341 330.5,122.5C 338.879,121.764 347.213,121.764 355.5,122.5 Z"/></g>
<g><path style="opacity:1" fill="#615b59" d="M 343.5,125.5 C 342.167,125.5 340.833,125.5 339.5,125.5C 338.325,125.719 337.325,125.386 336.5,124.5C 341.131,123.338 345.798,123.172 350.5,124C 347.964,124.186 345.631,124.686 343.5,125.5 Z"/></g>
<g><path style="opacity:1" fill="#39363c" d="M 433.5,137.5 C 435.084,138.382 436.751,139.215 438.5,140C 438.384,141.268 438.051,142.602 437.5,144C 439.545,144.49 441.545,144.323 443.5,143.5C 445.514,146.194 447.014,149.194 448,152.5C 449.154,153.743 450.488,154.743 452,155.5C 452.483,156.448 452.649,157.448 452.5,158.5C 451.5,158.5 450.5,158.5 449.5,158.5C 449.67,159.822 449.337,160.989 448.5,162C 449.325,163.688 450.325,163.855 451.5,162.5C 452.134,164.567 453.134,166.4 454.5,168C 454.167,168.333 453.833,168.667 453.5,169C 454.416,169.278 455.082,169.778 455.5,170.5C 452.112,170.126 450.278,168.126 450,164.5C 449.261,165.574 448.261,166.241 447,166.5C 445.832,165.491 444.665,164.491 443.5,163.5C 442.749,164.376 442.249,165.376 442,166.5C 441.365,165.034 440.531,163.7 439.5,162.5C 436.978,161.697 434.978,160.364 433.5,158.5C 434.398,157.842 435.398,157.176 436.5,156.5C 436,156.167 435.5,155.833 435,155.5C 431.412,155.421 427.912,155.421 424.5,155.5C 424.5,154.5 424.5,153.5 424.5,152.5C 427.444,151.16 430.111,151.493 432.5,153.5C 435.167,152.5 435.167,151.5 432.5,150.5C 432.606,146.949 433.273,143.283 434.5,139.5C 434.137,138.817 433.804,138.15 433.5,137.5 Z"/></g>
<g><path style="opacity:1" fill="#39373a" d="M 380.5,143.5 C 381.662,144.678 382.662,145.845 383.5,147C 387.847,148.151 391.681,147.317 395,144.5C 397.722,144.941 399.556,146.441 400.5,149C 402.885,149.556 405.218,149.39 407.5,148.5C 407.611,149.117 407.944,149.617 408.5,150C 405.48,151.107 404.147,152.941 404.5,155.5C 403.522,155.023 402.689,154.357 402,153.5C 401.612,154.428 400.945,155.095 400,155.5C 396.244,153.86 392.411,152.526 388.5,151.5C 383.826,151.667 379.159,152.001 374.5,152.5C 372.048,152.539 370.048,153.206 368.5,154.5C 367.833,154.167 367.167,153.833 366.5,153.5C 365.768,150.932 365.768,148.266 366.5,145.5C 367.485,141.366 367.818,137.032 367.5,132.5C 368.151,131.909 368.818,131.243 369.5,130.5C 373.079,133.405 375.412,137.071 376.5,141.5C 378.483,141.157 379.817,141.824 380.5,143.5 Z"/></g>
<g><path style="opacity:1" fill="#3d3b40" d="M 405.5,138.5 C 405.775,140.758 406.775,141.092 408.5,139.5C 410.517,140.174 412.183,141.341 413.5,143C 412.956,143.717 412.289,144.217 411.5,144.5C 411.631,143.624 411.298,142.957 410.5,142.5C 409.719,143.729 409.219,145.062 409,146.5C 408.077,145.241 407.243,143.908 406.5,142.5C 403.77,145.033 404.103,147.033 407.5,148.5C 405.218,149.39 402.885,149.556 400.5,149C 399.556,146.441 397.722,144.941 395,144.5C 391.681,147.317 387.847,148.151 383.5,147C 382.662,145.845 381.662,144.678 380.5,143.5C 383.076,142.944 385.743,142.777 388.5,143C 389.88,141.676 390.214,140.343 389.5,139C 391.167,138.667 392.833,138.333 394.5,138C 393.328,137.581 392.328,136.915 391.5,136C 393.346,134.97 395.013,133.804 396.5,132.5C 398.092,131.398 398.925,132.065 399,134.5C 400.507,133.465 402.007,133.632 403.5,135C 402.483,136.049 402.316,137.216 403,138.5C 403.77,139.598 404.603,139.598 405.5,138.5 Z"/></g>
<g><path style="opacity:1" fill="#39373c" d="M 422.5,150.5 C 420.302,149.986 418.302,148.986 416.5,147.5C 416.094,148.557 416.094,149.891 416.5,151.5C 412.629,150.355 410.963,148.021 411.5,144.5C 412.289,144.217 412.956,143.717 413.5,143C 412.183,141.341 410.517,140.174 408.5,139.5C 406.775,141.092 405.775,140.758 405.5,138.5C 409.686,138.889 412.686,137.222 414.5,133.5C 415.452,135.045 415.785,136.712 415.5,138.5C 417.143,138.52 418.476,137.853 419.5,136.5C 420.281,137.729 420.781,139.062 421,140.5C 421.667,139.167 422.333,139.167 423,140.5C 423.45,142.519 424.283,144.352 425.5,146C 424.778,147.751 423.778,149.251 422.5,150.5 Z"/></g>
<g><path style="opacity:0.719" fill="#9b9896" d="M 345.5,135.5 C 345.5,136.167 345.5,136.833 345.5,137.5C 343.574,136.758 341.741,135.758 340,134.5C 339.882,146.596 334.048,153.763 322.5,156C 323.381,155.292 324.047,154.458 324.5,153.5C 333.771,150.082 337.438,143.415 335.5,133.5C 335.56,132.957 335.893,132.624 336.5,132.5C 339.573,133.35 342.573,134.35 345.5,135.5 Z"/></g>
<g><path style="opacity:0.749" fill="#757276" d="M 426.5,109.5 C 446.998,131.826 460.665,157.826 467.5,187.5C 466.272,186.694 465.272,185.694 464.5,184.5C 464.5,184.167 464.5,183.833 464.5,183.5C 463.547,179.597 462.047,175.93 460,172.5C 458.587,168.261 457.587,163.928 457,159.5C 452.708,150.617 448.041,141.95 443,133.5C 441.281,130.712 439.115,128.379 436.5,126.5C 435.489,124.628 434.655,122.628 434,120.5C 430.92,118.923 428.753,116.59 427.5,113.5C 427.167,112.167 426.833,110.833 426.5,109.5 Z"/></g>
<g><path style="opacity:0.689" fill="#cdcecf" d="M 296.5,129.5 C 297.167,129.5 297.833,129.5 298.5,129.5C 301.036,132.563 302.203,136.23 302,140.5C 302.71,139.027 303.876,138.36 305.5,138.5C 305.34,140.199 305.506,141.866 306,143.5C 306.198,141.618 306.698,139.952 307.5,138.5C 307.5,140.5 307.5,142.5 307.5,144.5C 306.876,144.917 306.543,145.584 306.5,146.5C 307.687,149.169 308.52,151.835 309,154.5C 307.385,152.095 306.719,152.095 307,154.5C 313.954,163.56 323.12,167.56 334.5,166.5C 341.597,166.626 348.597,165.959 355.5,164.5C 342.797,170.205 329.797,170.705 316.5,166C 304.845,158.697 299.178,148.031 299.5,134C 297.9,132.877 296.9,131.377 296.5,129.5 Z"/></g>
<g><path style="opacity:0.875" fill="#d0cfce" d="M 345.5,137.5 C 344.262,148.132 338.595,155.299 328.5,159C 326.167,159.667 323.833,159.667 321.5,159C 319.987,155.862 320.987,154.028 324.5,153.5C 324.047,154.458 323.381,155.292 322.5,156C 334.048,153.763 339.882,146.596 340,134.5C 341.741,135.758 343.574,136.758 345.5,137.5 Z"/></g>
<g><path style="opacity:0.445" fill="#6b686a" d="M 388.5,151.5 C 389.833,152.5 391.167,153.5 392.5,154.5C 391.209,154.263 390.209,154.596 389.5,155.5C 382.531,154.979 375.531,154.646 368.5,154.5C 370.048,153.206 372.048,152.539 374.5,152.5C 379.159,152.001 383.826,151.667 388.5,151.5 Z"/></g>
<g><path style="opacity:0.867" fill="#adacac" d="M 366.5,145.5 C 365.768,148.266 365.768,150.932 366.5,153.5C 366.167,154.167 365.833,154.833 365.5,155.5C 364.102,157.109 362.435,157.942 360.5,158C 362.329,156.887 363.163,155.387 363,153.5C 359.021,158.574 353.854,161.741 347.5,163C 339.833,163.667 332.167,163.667 324.5,163C 323.944,162.617 323.611,162.117 323.5,161.5C 335.003,163.499 346.003,161.999 356.5,157C 364.259,149.589 365.259,141.422 359.5,132.5C 360.117,132.389 360.617,132.056 361,131.5C 362.829,133.156 364.163,135.156 365,137.5C 365.333,136.833 365.667,136.167 366,135.5C 366.498,138.817 366.665,142.15 366.5,145.5 Z"/></g>
<g><path style="opacity:1" fill="#3d3b40" d="M 411.5,144.5 C 410.963,148.021 412.629,150.355 416.5,151.5C 417.239,151.369 417.906,151.536 418.5,152C 417.538,155.216 416.372,158.382 415,161.5C 414,160.167 413,160.167 412,161.5C 412.077,160.262 411.911,159.262 411.5,158.5C 410.416,159.665 409.583,160.998 409,162.5C 407.984,161.366 407.317,161.699 407,163.5C 406.667,162.833 406.333,162.167 406,161.5C 403.657,161.9 401.49,163.233 399.5,165.5C 399.417,160.319 397.083,156.653 392.5,154.5C 391.167,153.5 389.833,152.5 388.5,151.5C 392.411,152.526 396.244,153.86 400,155.5C 400.945,155.095 401.612,154.428 402,153.5C 402.689,154.357 403.522,155.023 404.5,155.5C 404.147,152.941 405.48,151.107 408.5,150C 407.944,149.617 407.611,149.117 407.5,148.5C 404.103,147.033 403.77,145.033 406.5,142.5C 407.243,143.908 408.077,145.241 409,146.5C 409.219,145.062 409.719,143.729 410.5,142.5C 411.298,142.957 411.631,143.624 411.5,144.5 Z"/></g>
<g><path style="opacity:1" fill="#373539" d="M 422.5,150.5 C 423.5,150.833 424.167,151.5 424.5,152.5C 424.5,153.5 424.5,154.5 424.5,155.5C 427.912,155.421 431.412,155.421 435,155.5C 435.5,155.833 436,156.167 436.5,156.5C 435.398,157.176 434.398,157.842 433.5,158.5C 432.027,159.071 430.36,159.071 428.5,158.5C 427.244,158.904 426.077,159.571 425,160.5C 423.189,159.576 423.355,158.743 425.5,158C 424.207,157.51 422.873,157.343 421.5,157.5C 421.66,159.199 421.494,160.866 421,162.5C 420.329,163.252 419.496,163.586 418.5,163.5C 417.18,164.942 415.514,165.608 413.5,165.5C 413.851,167.869 414.018,170.203 414,172.5C 409.28,171.39 405.114,172.557 401.5,176C 399.934,176.765 398.601,176.598 397.5,175.5C 398.01,172.017 398.677,168.684 399.5,165.5C 401.49,163.233 403.657,161.9 406,161.5C 406.333,162.167 406.667,162.833 407,163.5C 407.317,161.699 407.984,161.366 409,162.5C 409.583,160.998 410.416,159.665 411.5,158.5C 411.911,159.262 412.077,160.262 412,161.5C 413,160.167 414,160.167 415,161.5C 416.372,158.382 417.538,155.216 418.5,152C 417.906,151.536 417.239,151.369 416.5,151.5C 416.094,149.891 416.094,148.557 416.5,147.5C 418.302,148.986 420.302,149.986 422.5,150.5 Z"/></g>
<g><path style="opacity:1" fill="#39373c" d="M 428.5,158.5 C 429.764,160.935 431.597,162.935 434,164.5C 434.308,163.692 434.808,163.025 435.5,162.5C 436.7,163.531 438.034,164.365 439.5,165C 438.833,165.333 438.167,165.667 437.5,166C 437.764,167.742 439.097,168.909 441.5,169.5C 439.277,170.255 436.61,171.255 433.5,172.5C 432.849,171.909 432.182,171.243 431.5,170.5C 429.44,172.892 427.273,172.892 425,170.5C 423.751,172.992 422.584,172.825 421.5,170C 422.263,169.056 423.263,168.556 424.5,168.5C 426.875,169.583 429.208,169.583 431.5,168.5C 430.137,167.107 429.304,165.441 429,163.5C 427.981,164.687 426.814,165.687 425.5,166.5C 422.762,166.113 420.428,165.113 418.5,163.5C 419.496,163.586 420.329,163.252 421,162.5C 421.494,160.866 421.66,159.199 421.5,157.5C 422.873,157.343 424.207,157.51 425.5,158C 423.355,158.743 423.189,159.576 425,160.5C 426.077,159.571 427.244,158.904 428.5,158.5 Z"/></g>
<g><path style="opacity:0.951" fill="#c2c2c3" d="M 307.5,144.5 C 310.1,152.766 315.434,158.433 323.5,161.5C 323.611,162.117 323.944,162.617 324.5,163C 332.167,163.667 339.833,163.667 347.5,163C 353.854,161.741 359.021,158.574 363,153.5C 363.163,155.387 362.329,156.887 360.5,158C 362.435,157.942 364.102,157.109 365.5,155.5C 363.459,159.872 360.125,162.872 355.5,164.5C 348.597,165.959 341.597,166.626 334.5,166.5C 323.12,167.56 313.954,163.56 307,154.5C 306.719,152.095 307.385,152.095 309,154.5C 308.52,151.835 307.687,149.169 306.5,146.5C 306.543,145.584 306.876,144.917 307.5,144.5 Z"/></g>
<g><path style="opacity:1" fill="#3f3d41" d="M 436.5,126.5 C 439.115,128.379 441.281,130.712 443,133.5C 448.041,141.95 452.708,150.617 457,159.5C 457.587,163.928 458.587,168.261 460,172.5C 462.047,175.93 463.547,179.597 464.5,183.5C 461.591,181.312 460.091,178.312 460,174.5C 458.482,173.837 457.315,172.837 456.5,171.5C 456.5,170.833 456.167,170.5 455.5,170.5C 455.082,169.778 454.416,169.278 453.5,169C 453.833,168.667 454.167,168.333 454.5,168C 453.134,166.4 452.134,164.567 451.5,162.5C 450.325,163.855 449.325,163.688 448.5,162C 449.337,160.989 449.67,159.822 449.5,158.5C 450.5,158.5 451.5,158.5 452.5,158.5C 452.649,157.448 452.483,156.448 452,155.5C 450.488,154.743 449.154,153.743 448,152.5C 447.014,149.194 445.514,146.194 443.5,143.5C 444.573,142.749 444.74,141.749 444,140.5C 442.165,138.551 440.999,136.217 440.5,133.5C 437.453,132.125 436.12,129.792 436.5,126.5 Z"/></g>
<g><path style="opacity:1" fill="#3d3a3f" d="M 418.5,163.5 C 420.428,165.113 422.762,166.113 425.5,166.5C 426.814,165.687 427.981,164.687 429,163.5C 429.304,165.441 430.137,167.107 431.5,168.5C 429.208,169.583 426.875,169.583 424.5,168.5C 423.263,168.556 422.263,169.056 421.5,170C 422.584,172.825 423.751,172.992 425,170.5C 427.273,172.892 429.44,172.892 431.5,170.5C 432.182,171.243 432.849,171.909 433.5,172.5C 433.5,173.167 433.5,173.833 433.5,174.5C 430.301,173.568 427.135,173.568 424,174.5C 422.347,174.18 421.347,173.18 421,171.5C 418.936,176.433 416.27,177.099 413,173.5C 410.144,174.256 407.311,175.089 404.5,176C 402.219,177.851 402.219,179.518 404.5,181C 405.784,181.684 406.951,181.517 408,180.5C 408.617,181.449 408.451,182.282 407.5,183C 410.447,183.738 413.113,184.904 415.5,186.5C 416.167,187.167 416.833,187.833 417.5,188.5C 415.746,193.619 413.913,193.619 412,188.5C 411.449,191.557 409.783,191.89 407,189.5C 406.751,192.392 405.584,194.725 403.5,196.5C 403.79,192.064 403.29,187.73 402,183.5C 400.468,181.438 398.468,180.104 396,179.5C 395.156,177.537 395.656,176.204 397.5,175.5C 398.601,176.598 399.934,176.765 401.5,176C 405.114,172.557 409.28,171.39 414,172.5C 414.018,170.203 413.851,167.869 413.5,165.5C 415.514,165.608 417.18,164.942 418.5,163.5 Z"/></g>
<g><path style="opacity:1" fill="#363439" d="M 441.5,169.5 C 442.309,171.292 442.809,173.292 443,175.5C 444.754,173.75 446.921,173.083 449.5,173.5C 449.99,178.507 449.157,179.174 447,175.5C 446.833,175.833 446.667,176.167 446.5,176.5C 447.641,177.425 447.641,178.259 446.5,179C 450.295,181.583 449.962,183.916 445.5,186C 447.382,186.198 449.048,186.698 450.5,187.5C 447.96,188.361 445.96,190.028 444.5,192.5C 443.261,190.993 443.595,189.826 445.5,189C 444.377,187.956 443.044,187.29 441.5,187C 444.221,185.349 444.554,183.682 442.5,182C 442.833,181.667 443.167,181.333 443.5,181C 442.223,180.873 441.057,181.373 440,182.5C 438.674,181.201 437.34,179.868 436,178.5C 435.544,177.256 436.044,176.423 437.5,176C 437.018,174.992 436.852,173.825 437,172.5C 435.887,173.305 434.721,173.972 433.5,174.5C 433.5,173.833 433.5,173.167 433.5,172.5C 436.61,171.255 439.277,170.255 441.5,169.5 Z"/></g>
<g><path style="opacity:1" fill="#37353b" d="M 456.5,171.5 C 457.315,172.837 458.482,173.837 460,174.5C 460.091,178.312 461.591,181.312 464.5,183.5C 464.5,183.833 464.5,184.167 464.5,184.5C 464.5,185.833 464.5,187.167 464.5,188.5C 463.778,188.082 463.278,187.416 463,186.5C 462.667,188.167 462.333,189.833 462,191.5C 460.271,191.974 459.105,192.974 458.5,194.5C 457.1,195.1 456.1,196.1 455.5,197.5C 454.859,196.518 454.193,195.518 453.5,194.5C 454.695,193.033 454.695,191.533 453.5,190C 453.905,189.055 454.572,188.388 455.5,188C 455.272,187.601 454.938,187.435 454.5,187.5C 454.276,185.213 453.609,183.047 452.5,181C 453.223,178.447 454.556,176.28 456.5,174.5C 454.023,173.12 454.023,172.12 456.5,171.5 Z"/></g>
<g><path style="opacity:1" fill="#3a373d" d="M 428.5,158.5 C 430.36,159.071 432.027,159.071 433.5,158.5C 434.978,160.364 436.978,161.697 439.5,162.5C 440.531,163.7 441.365,165.034 442,166.5C 442.249,165.376 442.749,164.376 443.5,163.5C 444.665,164.491 445.832,165.491 447,166.5C 448.261,166.241 449.261,165.574 450,164.5C 450.278,168.126 452.112,170.126 455.5,170.5C 456.167,170.5 456.5,170.833 456.5,171.5C 454.023,172.12 454.023,173.12 456.5,174.5C 454.556,176.28 453.223,178.447 452.5,181C 453.609,183.047 454.276,185.213 454.5,187.5C 453.036,188.405 451.702,188.405 450.5,187.5C 449.048,186.698 447.382,186.198 445.5,186C 449.962,183.916 450.295,181.583 446.5,179C 447.641,178.259 447.641,177.425 446.5,176.5C 446.667,176.167 446.833,175.833 447,175.5C 449.157,179.174 449.99,178.507 449.5,173.5C 446.921,173.083 444.754,173.75 443,175.5C 442.809,173.292 442.309,171.292 441.5,169.5C 439.097,168.909 437.764,167.742 437.5,166C 438.167,165.667 438.833,165.333 439.5,165C 438.034,164.365 436.7,163.531 435.5,162.5C 434.808,163.025 434.308,163.692 434,164.5C 431.597,162.935 429.764,160.935 428.5,158.5 Z"/></g>
<g><path style="opacity:1" fill="#37353a" d="M 433.5,174.5 C 431.884,176.416 432.218,177.916 434.5,179C 433.672,179.915 432.672,180.581 431.5,181C 432.381,181.708 433.047,182.542 433.5,183.5C 433.565,183.938 433.399,184.272 433,184.5C 432,183.5 431,182.5 430,181.5C 429.667,182.167 429.333,182.833 429,183.5C 424.954,183.404 420.954,183.404 417,183.5C 415.936,184.421 415.436,185.421 415.5,186.5C 413.113,184.904 410.447,183.738 407.5,183C 408.451,182.282 408.617,181.449 408,180.5C 406.951,181.517 405.784,181.684 404.5,181C 402.219,179.518 402.219,177.851 404.5,176C 407.311,175.089 410.144,174.256 413,173.5C 416.27,177.099 418.936,176.433 421,171.5C 421.347,173.18 422.347,174.18 424,174.5C 427.135,173.568 430.301,173.568 433.5,174.5 Z"/></g>
<g><path style="opacity:0.935" fill="#515053" d="M 389.5,155.5 C 390.209,154.596 391.209,154.263 392.5,154.5C 397.083,156.653 399.417,160.319 399.5,165.5C 398.677,168.684 398.01,172.017 397.5,175.5C 395.656,176.204 395.156,177.537 396,179.5C 398.468,180.104 400.468,181.438 402,183.5C 403.29,187.73 403.79,192.064 403.5,196.5C 403.029,198.579 402.363,200.579 401.5,202.5C 401.167,202.5 400.833,202.5 400.5,202.5C 401.219,200.236 401.552,197.903 401.5,195.5C 401.702,193.011 401.202,190.677 400,188.5C 397.525,185.353 395.025,182.186 392.5,179C 393.276,176.005 394.443,173.172 396,170.5C 397.339,163.999 395.172,158.999 389.5,155.5 Z"/></g>
<g><path style="opacity:1" fill="#3a383d" d="M 450.5,187.5 C 451.702,188.405 453.036,188.405 454.5,187.5C 454.938,187.435 455.272,187.601 455.5,188C 454.572,188.388 453.905,189.055 453.5,190C 454.695,191.533 454.695,193.033 453.5,194.5C 454.193,195.518 454.859,196.518 455.5,197.5C 454.828,198.267 453.995,198.934 453,199.5C 452.433,196.832 451.933,194.166 451.5,191.5C 450.448,191.351 449.448,191.517 448.5,192C 449.833,193 449.833,194 448.5,195C 447.207,195.49 445.873,195.657 444.5,195.5C 442.987,193.484 442.153,191.151 442,188.5C 441.333,191.167 440.667,191.167 440,188.5C 438.667,189.833 437.333,189.833 436,188.5C 434.506,192.304 433.672,191.971 433.5,187.5C 435.144,187.286 436.644,187.62 438,188.5C 438.5,188 439,187.5 439.5,187C 437.893,185.951 437.227,184.451 437.5,182.5C 436.041,182.433 434.708,182.766 433.5,183.5C 433.047,182.542 432.381,181.708 431.5,181C 432.672,180.581 433.672,179.915 434.5,179C 432.218,177.916 431.884,176.416 433.5,174.5C 434.721,173.972 435.887,173.305 437,172.5C 436.852,173.825 437.018,174.992 437.5,176C 436.044,176.423 435.544,177.256 436,178.5C 437.34,179.868 438.674,181.201 440,182.5C 441.057,181.373 442.223,180.873 443.5,181C 443.167,181.333 442.833,181.667 442.5,182C 444.554,183.682 444.221,185.349 441.5,187C 443.044,187.29 444.377,187.956 445.5,189C 443.595,189.826 443.261,190.993 444.5,192.5C 445.96,190.028 447.96,188.361 450.5,187.5 Z"/></g>
<g><path style="opacity:1" fill="#3c393f" d="M 433.5,183.5 C 434.708,182.766 436.041,182.433 437.5,182.5C 437.227,184.451 437.893,185.951 439.5,187C 439,187.5 438.5,188 438,188.5C 436.644,187.62 435.144,187.286 433.5,187.5C 433.672,191.971 434.506,192.304 436,188.5C 437.333,189.833 438.667,189.833 440,188.5C 440.667,191.167 441.333,191.167 442,188.5C 442.153,191.151 442.987,193.484 444.5,195.5C 443.85,195.804 443.183,196.137 442.5,196.5C 441.561,194.947 440.394,193.613 439,192.5C 436.548,194.021 436.048,196.021 437.5,198.5C 436.675,199.386 435.675,199.719 434.5,199.5C 434.222,201.346 434.889,202.68 436.5,203.5C 437.316,201.713 438.316,200.046 439.5,198.5C 440.333,199.5 441.167,200.5 442,201.5C 442.085,199.915 442.251,198.582 442.5,197.5C 443.833,200.167 445.167,200.167 446.5,197.5C 447.5,198 448.5,198.5 449.5,199C 449.167,199.333 448.833,199.667 448.5,200C 449.833,201 451.167,202 452.5,203C 451.134,204.6 450.134,206.433 449.5,208.5C 448.604,207.494 447.938,207.494 447.5,208.5C 447.957,209.298 448.624,209.631 449.5,209.5C 449.5,210.5 449.5,211.5 449.5,212.5C 448.778,212.918 448.278,213.584 448,214.5C 446.769,207.944 443.769,206.944 439,211.5C 439.863,208.807 438.697,207.14 435.5,206.5C 435.167,207 434.833,207.5 434.5,208C 436.282,209.678 436.615,211.511 435.5,213.5C 433.134,212.016 431.801,212.683 431.5,215.5C 429.621,215.607 429.288,215.107 430.5,214C 428.893,212.951 428.227,211.451 428.5,209.5C 427.497,206.152 425.33,203.819 422,202.5C 417.544,205.354 415.044,204.02 414.5,198.5C 416.5,198.833 418.5,199.167 420.5,199.5C 418.8,195.776 417.8,192.109 417.5,188.5C 416.833,187.833 416.167,187.167 415.5,186.5C 415.436,185.421 415.936,184.421 417,183.5C 420.954,183.404 424.954,183.404 429,183.5C 429.333,182.833 429.667,182.167 430,181.5C 431,182.5 432,183.5 433,184.5C 433.399,184.272 433.565,183.938 433.5,183.5 Z"/></g>
<g><path style="opacity:1" fill="#38363a" d="M 417.5,188.5 C 417.8,192.109 418.8,195.776 420.5,199.5C 418.5,199.167 416.5,198.833 414.5,198.5C 415.044,204.02 417.544,205.354 422,202.5C 425.33,203.819 427.497,206.152 428.5,209.5C 425.909,209.624 423.575,210.957 421.5,213.5C 423.818,216.299 423.485,218.966 420.5,221.5C 418.129,220.987 415.796,220.653 413.5,220.5C 411.511,216.211 412.511,214.878 416.5,216.5C 416.762,215.022 416.429,213.689 415.5,212.5C 411.429,211.139 408.095,208.805 405.5,205.5C 406.736,204.643 408.069,203.977 409.5,203.5C 410.833,202.833 410.833,202.167 409.5,201.5C 406.944,202.051 404.611,203.051 402.5,204.5C 401.702,204.043 401.369,203.376 401.5,202.5C 402.363,200.579 403.029,198.579 403.5,196.5C 405.584,194.725 406.751,192.392 407,189.5C 409.783,191.89 411.449,191.557 412,188.5C 413.913,193.619 415.746,193.619 417.5,188.5 Z"/></g>
<g><path style="opacity:1" fill="#36343a" d="M 455.5,197.5 C 456.1,196.1 457.1,195.1 458.5,194.5C 464.396,194.848 464.729,196.015 459.5,198C 460.833,198.333 462.167,198.667 463.5,199C 462.299,199.903 461.465,201.069 461,202.5C 459.517,200.054 458.351,200.388 457.5,203.5C 457.977,204.478 458.643,205.311 459.5,206C 456.902,205.578 454.236,205.578 451.5,206C 452.047,206.925 452.713,207.758 453.5,208.5C 454.768,207.572 456.101,207.405 457.5,208C 455.649,209.684 453.982,211.517 452.5,213.5C 451.943,211.668 450.943,210.335 449.5,209.5C 448.624,209.631 447.957,209.298 447.5,208.5C 447.938,207.494 448.604,207.494 449.5,208.5C 450.134,206.433 451.134,204.6 452.5,203C 451.167,202 449.833,201 448.5,200C 448.833,199.667 449.167,199.333 449.5,199C 448.5,198.5 447.5,198 446.5,197.5C 445.167,200.167 443.833,200.167 442.5,197.5C 442.251,198.582 442.085,199.915 442,201.5C 441.167,200.5 440.333,199.5 439.5,198.5C 438.316,200.046 437.316,201.713 436.5,203.5C 434.889,202.68 434.222,201.346 434.5,199.5C 435.675,199.719 436.675,199.386 437.5,198.5C 436.048,196.021 436.548,194.021 439,192.5C 440.394,193.613 441.561,194.947 442.5,196.5C 443.183,196.137 443.85,195.804 444.5,195.5C 445.873,195.657 447.207,195.49 448.5,195C 449.833,194 449.833,193 448.5,192C 449.448,191.517 450.448,191.351 451.5,191.5C 451.933,194.166 452.433,196.832 453,199.5C 453.995,198.934 454.828,198.267 455.5,197.5 Z"/></g>
<g><path style="opacity:0.555" fill="#5f5e62" d="M 401.5,195.5 C 401.552,197.903 401.219,200.236 400.5,202.5C 400.351,203.552 400.517,204.552 401,205.5C 407.368,209.37 410.535,215.037 410.5,222.5C 412.336,223.028 414.003,223.694 415.5,224.5C 413.833,224.5 412.167,224.5 410.5,224.5C 409.542,224.047 408.708,223.381 408,222.5C 407.587,219.768 406.92,217.101 406,214.5C 403.201,211.212 400.367,208.045 397.5,205C 398.472,201.571 399.805,198.404 401.5,195.5 Z"/></g>
<g><path style="opacity:1" fill="#312f34" d="M 464.5,188.5 C 466.795,198.25 469.462,208.084 472.5,218C 471.629,219.364 470.629,220.53 469.5,221.5C 463.481,224.037 458.314,222.703 454,217.5C 453,220.167 452,220.167 451,217.5C 448.79,218.749 446.624,218.582 444.5,217C 445.126,216.25 445.626,215.416 446,214.5C 446.725,216.158 447.892,216.658 449.5,216C 450.791,214.708 450.791,213.542 449.5,212.5C 449.5,211.5 449.5,210.5 449.5,209.5C 450.943,210.335 451.943,211.668 452.5,213.5C 453.982,211.517 455.649,209.684 457.5,208C 456.101,207.405 454.768,207.572 453.5,208.5C 452.713,207.758 452.047,206.925 451.5,206C 454.236,205.578 456.902,205.578 459.5,206C 458.643,205.311 457.977,204.478 457.5,203.5C 458.351,200.388 459.517,200.054 461,202.5C 461.465,201.069 462.299,199.903 463.5,199C 462.167,198.667 460.833,198.333 459.5,198C 464.729,196.015 464.396,194.848 458.5,194.5C 459.105,192.974 460.271,191.974 462,191.5C 462.333,189.833 462.667,188.167 463,186.5C 463.278,187.416 463.778,188.082 464.5,188.5 Z"/></g>
<g><path style="opacity:1" fill="#3d3b3f" d="M 428.5,209.5 C 428.227,211.451 428.893,212.951 430.5,214C 429.288,215.107 429.621,215.607 431.5,215.5C 434.336,220.894 437.836,221.561 442,217.5C 443.328,219.022 443.162,220.689 441.5,222.5C 436.546,225.006 431.213,226.173 425.5,226C 428.31,226.782 430.977,227.616 433.5,228.5C 432.167,228.5 430.833,228.5 429.5,228.5C 424.451,228.405 419.785,227.072 415.5,224.5C 414.003,223.694 412.336,223.028 410.5,222.5C 410.535,215.037 407.368,209.37 401,205.5C 400.517,204.552 400.351,203.552 400.5,202.5C 400.833,202.5 401.167,202.5 401.5,202.5C 401.369,203.376 401.702,204.043 402.5,204.5C 404.611,203.051 406.944,202.051 409.5,201.5C 410.833,202.167 410.833,202.833 409.5,203.5C 408.069,203.977 406.736,204.643 405.5,205.5C 408.095,208.805 411.429,211.139 415.5,212.5C 416.429,213.689 416.762,215.022 416.5,216.5C 412.511,214.878 411.511,216.211 413.5,220.5C 415.796,220.653 418.129,220.987 420.5,221.5C 423.485,218.966 423.818,216.299 421.5,213.5C 423.575,210.957 425.909,209.624 428.5,209.5 Z"/></g>
<g><path style="opacity:1" fill="#454347" d="M 464.5,184.5 C 465.272,185.694 466.272,186.694 467.5,187.5C 466.826,192.99 467.992,197.99 471,202.5C 472.284,207.496 473.451,212.496 474.5,217.5C 474.15,222.364 471.483,225.031 466.5,225.5C 467.853,224.474 468.853,223.141 469.5,221.5C 470.629,220.53 471.629,219.364 472.5,218C 469.462,208.084 466.795,198.25 464.5,188.5C 464.5,187.167 464.5,185.833 464.5,184.5 Z"/></g>
<g><path style="opacity:1" fill="#363338" d="M 449.5,212.5 C 450.791,213.542 450.791,214.708 449.5,216C 447.892,216.658 446.725,216.158 446,214.5C 445.626,215.416 445.126,216.25 444.5,217C 446.624,218.582 448.79,218.749 451,217.5C 452,220.167 453,220.167 454,217.5C 458.314,222.703 463.481,224.037 469.5,221.5C 468.853,223.141 467.853,224.474 466.5,225.5C 464.374,226.048 462.374,226.715 460.5,227.5C 451.515,228.166 442.515,228.499 433.5,228.5C 430.977,227.616 428.31,226.782 425.5,226C 431.213,226.173 436.546,225.006 441.5,222.5C 443.162,220.689 443.328,219.022 442,217.5C 437.836,221.561 434.336,220.894 431.5,215.5C 431.801,212.683 433.134,212.016 435.5,213.5C 436.615,211.511 436.282,209.678 434.5,208C 434.833,207.5 435.167,207 435.5,206.5C 438.697,207.14 439.863,208.807 439,211.5C 443.769,206.944 446.769,207.944 448,214.5C 448.278,213.584 448.778,212.918 449.5,212.5 Z"/></g>
<g><path style="opacity:0.558" fill="#858486" d="M 410.5,224.5 C 412.167,224.5 413.833,224.5 415.5,224.5C 419.785,227.072 424.451,228.405 429.5,228.5C 429.443,229.609 429.11,230.609 428.5,231.5C 421.736,230.772 415.736,228.439 410.5,224.5 Z"/></g>
<g><path style="opacity:0.557" fill="#807d7f" d="M 467.5,187.5 C 470.617,196.019 473.451,204.686 476,213.5C 476.667,216.5 476.667,219.5 476,222.5C 466.225,230.221 455.059,233.887 442.5,233.5C 448.331,231.385 454.331,229.385 460.5,227.5C 462.374,226.715 464.374,226.048 466.5,225.5C 471.483,225.031 474.15,222.364 474.5,217.5C 473.451,212.496 472.284,207.496 471,202.5C 467.992,197.99 466.826,192.99 467.5,187.5 Z"/></g>
<g><path style="opacity:0.932" fill="#595659" d="M 460.5,227.5 C 454.331,229.385 448.331,231.385 442.5,233.5C 437.566,233.771 432.9,233.104 428.5,231.5C 429.11,230.609 429.443,229.609 429.5,228.5C 430.833,228.5 432.167,228.5 433.5,228.5C 442.515,228.499 451.515,228.166 460.5,227.5 Z"/></g>
</svg>
