<?xml version="1.0" encoding="UTF-8"?>
<!DOCTYPE svg PUBLIC "-//W3C//DTD SVG 1.1//EN" "http://www.w3.org/Graphics/SVG/1.1/DTD/svg11.dtd">
<svg xmlns="http://www.w3.org/2000/svg" version="1.1" width="410px" height="256px" style="shape-rendering:geometricPrecision; text-rendering:geometricPrecision; image-rendering:optimizeQuality; fill-rule:evenodd; clip-rule:evenodd" xmlns:xlink="http://www.w3.org/1999/xlink">
<g><path style="opacity:0.106" fill="#eee0d8" d="M 16.5,16.5 C 18.6257,15.8968 20.9591,15.8968 23.5,16.5C 23.1788,18.0481 22.1788,18.7148 20.5,18.5C 19.3951,17.3995 18.0618,16.7329 16.5,16.5 Z"/></g>
<g><path style="opacity:0.439" fill="#e6cdcc" d="M 35.5,16.5 C 34.1067,17.2598 32.6067,17.9265 31,18.5C 29.6244,18.3158 28.7911,17.6491 28.5,16.5C 31.0409,15.8968 33.3743,15.8968 35.5,16.5 Z"/></g>
<g><path style="opacity:0.976" fill="#654f5a" d="M 28.5,16.5 C 28.7911,17.6491 29.6244,18.3158 31,18.5C 32.6067,17.9265 34.1067,17.2598 35.5,16.5C 35.8333,16.5 36.1667,16.5 36.5,16.5C 36.5,16.8333 36.5,17.1667 36.5,17.5C 33.6831,18.6229 30.6831,19.2896 27.5,19.5C 24.9746,19.4966 22.6413,19.1633 20.5,18.5C 22.1788,18.7148 23.1788,18.0481 23.5,16.5C 25.1667,15.1667 26.8333,15.1667 28.5,16.5 Z"/></g>
<g><path style="opacity:0.98" fill="#342c2c" d="M 16.5,16.5 C 18.0618,16.7329 19.3951,17.3995 20.5,18.5C 22.6413,19.1633 24.9746,19.4966 27.5,19.5C 30.6831,19.2896 33.6831,18.6229 36.5,17.5C 36.5,18.8333 36.5,20.1667 36.5,21.5C 28.8333,21.5 21.1667,21.5 13.5,21.5C 13.5,20.1667 13.5,18.8333 13.5,17.5C 14.209,16.596 15.209,16.2627 16.5,16.5 Z"/></g>
<g><path style="opacity:0.18" fill="#c9c9c9" d="M 261.5,20.5 C 260.833,20.5 260.167,20.5 259.5,20.5C 258.5,20.5 257.5,20.5 256.5,20.5C 255.833,16.5 255.167,16.5 254.5,20.5C 251.833,20.5 249.167,20.5 246.5,20.5C 249.43,18.8605 252.597,17.5271 256,16.5C 258.535,16.8677 260.368,18.201 261.5,20.5 Z"/></g>
<g><path style="opacity:0.204" fill="#e7e4e6" d="M 37.5,18.5 C 41.3535,19.7998 45.0202,21.4665 48.5,23.5C 44.9155,22.4172 41.2488,21.7506 37.5,21.5C 37.5,20.5 37.5,19.5 37.5,18.5 Z"/></g>
<g><path style="opacity:0.342" fill="#7a7a7a" d="M 259.5,20.5 C 260.167,20.5 260.833,20.5 261.5,20.5C 261.5,22.8333 261.5,25.1667 261.5,27.5C 260.833,27.5 260.167,27.5 259.5,27.5C 259.5,25.1667 259.5,22.8333 259.5,20.5 Z"/></g>
<g><path style="opacity:0.026" fill="#f6f6f6" d="M 246.5,20.5 C 246.5,21.5 246.5,22.5 246.5,23.5C 245.833,23.5 245.5,23.8333 245.5,24.5C 240.167,24.5 234.833,24.5 229.5,24.5C 226.833,24.5 224.167,24.5 221.5,24.5C 229.01,23.8334 236.677,23.1667 244.5,22.5C 244.855,21.4777 245.522,20.811 246.5,20.5 Z"/></g>
<g><path style="opacity:0.053" fill="#fafafa" d="M 48.5,23.5 C 50.5643,23.687 52.5643,24.187 54.5,25C 109.834,25.3472 165.167,25.1806 220.5,24.5C 198.5,25.1667 176.5,25.8333 154.5,26.5C 120.123,26.8197 85.79,26.4864 51.5,25.5C 50.2905,25.0679 49.2905,24.4013 48.5,23.5 Z"/></g>
<g><path style="opacity:0.953" fill="#c5c5c5" d="M 220.5,24.5 C 220.833,24.5 221.167,24.5 221.5,24.5C 224.167,24.5 226.833,24.5 229.5,24.5C 229.611,25.1174 229.944,25.6174 230.5,26C 236.825,26.4995 243.158,26.6662 249.5,26.5C 250.434,27.5676 250.768,28.901 250.5,30.5C 249.596,29.791 249.263,28.791 249.5,27.5C 243.491,27.3338 237.491,27.5005 231.5,28C 233.932,29.0875 233.598,29.5875 230.5,29.5C 230.769,31.4286 230.269,33.0953 229,34.5C 228.667,34.1667 228.333,33.8333 228,33.5C 225.595,34.2744 223.095,34.7744 220.5,35C 227.679,35.1715 234.679,35.6715 241.5,36.5C 219.993,36.1694 198.66,36.5027 177.5,37.5C 177.167,37.5 176.833,37.5 176.5,37.5C 168.252,36.5314 159.918,36.1981 151.5,36.5C 151.351,35.448 151.517,34.448 152,33.5C 154.463,32.9678 156.297,31.6345 157.5,29.5C 167.527,28.9723 177.527,28.139 187.5,27C 177.839,26.5002 168.172,26.3335 158.5,26.5C 157.167,26.5 155.833,26.5 154.5,26.5C 176.5,25.8333 198.5,25.1667 220.5,24.5 Z"/></g>
<g><path style="opacity:0.876" fill="#7f7f7f" d="M 229.5,24.5 C 234.833,24.5 240.167,24.5 245.5,24.5C 246.833,25.1667 248.167,25.8333 249.5,26.5C 243.158,26.6662 236.825,26.4995 230.5,26C 229.944,25.6174 229.611,25.1174 229.5,24.5 Z"/></g>
<g><path style="opacity:1" fill="#4a4a4a" d="M 259.5,20.5 C 259.5,22.8333 259.5,25.1667 259.5,27.5C 259.672,28.4916 259.338,29.1583 258.5,29.5C 255.6,29.4078 253.933,30.7411 253.5,33.5C 252.694,32.2719 251.694,31.2719 250.5,30.5C 251.552,30.6495 252.552,30.4828 253.5,30C 252.033,28.9025 251.199,27.4025 251,25.5C 249.89,23.9632 248.39,23.2965 246.5,23.5C 246.5,22.5 246.5,21.5 246.5,20.5C 249.167,20.5 251.833,20.5 254.5,20.5C 255.167,16.5 255.833,16.5 256.5,20.5C 257.5,20.5 258.5,20.5 259.5,20.5 Z"/></g>
<g><path style="opacity:0.846" fill="#9c9c9c" d="M 158.5,26.5 C 168.172,26.3335 177.839,26.5002 187.5,27C 177.527,28.139 167.527,28.9723 157.5,29.5C 158.11,28.609 158.443,27.609 158.5,26.5 Z"/></g>
<g><path style="opacity:1" fill="#0e0e0e" d="M 246.5,23.5 C 248.39,23.2965 249.89,23.9632 251,25.5C 251.199,27.4025 252.033,28.9025 253.5,30C 252.552,30.4828 251.552,30.6495 250.5,30.5C 250.768,28.901 250.434,27.5676 249.5,26.5C 248.167,25.8333 246.833,25.1667 245.5,24.5C 245.5,23.8333 245.833,23.5 246.5,23.5 Z"/></g>
<g><path style="opacity:0.984" fill="#9b9b9b" d="M 36.5,16.5 C 37.3382,16.8417 37.6716,17.5084 37.5,18.5C 37.5,19.5 37.5,20.5 37.5,21.5C 41.2488,21.7506 44.9155,22.4172 48.5,23.5C 49.2905,24.4013 50.2905,25.0679 51.5,25.5C 46.2545,27.2923 40.5879,28.1256 34.5,28C 37.6685,28.1085 40.3351,29.2752 42.5,31.5C 39.9244,32.8834 40.2577,33.7167 43.5,34C 57.0063,34.169 70.3396,34.669 83.5,35.5C 77.1667,35.5 70.8333,35.5 64.5,35.5C 46.8208,35.1671 29.1541,35.5005 11.5,36.5C 11.7093,37.086 12.0426,37.586 12.5,38C 58.1667,38.3333 103.833,38.6667 149.5,39C 117.835,39.5 86.1684,39.6666 54.5,39.5C 39.5,39.5 24.5,39.5 9.5,39.5C 9.5,40.5 9.5,41.5 9.5,42.5C 9.16667,42.5 8.83333,42.5 8.5,42.5C 9.07621,36.6635 9.74288,30.8302 10.5,25C 10.8386,22.1333 11.8386,19.6333 13.5,17.5C 13.5,18.8333 13.5,20.1667 13.5,21.5C 21.1667,21.5 28.8333,21.5 36.5,21.5C 36.5,20.1667 36.5,18.8333 36.5,17.5C 36.5,17.1667 36.5,16.8333 36.5,16.5 Z"/></g>
<g><path style="opacity:0.991" fill="#b7b7b7" d="M 51.5,25.5 C 85.79,26.4864 120.123,26.8197 154.5,26.5C 153.432,27.4345 152.099,27.7678 150.5,27.5C 150.768,30.1194 150.435,32.6194 149.5,35C 127.503,35.5 105.503,35.6666 83.5,35.5C 70.3396,34.669 57.0063,34.169 43.5,34C 40.2577,33.7167 39.9244,32.8834 42.5,31.5C 40.3351,29.2752 37.6685,28.1085 34.5,28C 40.5879,28.1256 46.2545,27.2923 51.5,25.5 Z"/></g>
<g><path style="opacity:0.958" fill="#848484" d="M 258.5,29.5 C 258.167,32.1667 257.833,34.8333 257.5,37.5C 255.29,37.106 253.957,35.7727 253.5,33.5C 253.933,30.7411 255.6,29.4078 258.5,29.5 Z"/></g>
<g><path style="opacity:1" fill="#7c7c7c" d="M 154.5,26.5 C 155.833,26.5 157.167,26.5 158.5,26.5C 158.443,27.609 158.11,28.609 157.5,29.5C 156.297,31.6345 154.463,32.9678 152,33.5C 151.517,34.448 151.351,35.448 151.5,36.5C 122.329,36.8314 93.3285,36.498 64.5,35.5C 70.8333,35.5 77.1667,35.5 83.5,35.5C 105.503,35.6666 127.503,35.5 149.5,35C 150.435,32.6194 150.768,30.1194 150.5,27.5C 152.099,27.7678 153.432,27.4345 154.5,26.5 Z"/></g>
<g><path style="opacity:1" fill="#636363" d="M 64.5,35.5 C 93.3285,36.498 122.329,36.8314 151.5,36.5C 159.097,38.4668 167.097,39.1335 175.5,38.5C 175.527,40.1993 176.194,41.5326 177.5,42.5C 168.983,42.1739 160.65,42.5073 152.5,43.5C 134.375,43.4417 116.375,43.4417 98.5,43.5C 96.901,43.2322 95.5676,43.5655 94.5,44.5C 91.9976,43.2215 89.4976,43.2215 87,44.5C 86.3086,42.1088 85.3086,42.1088 84,44.5C 83.6827,42.6992 83.016,42.3659 82,43.5C 80.4056,41.0182 78.5723,40.8515 76.5,43C 69.1114,43.11 61.7781,43.2767 54.5,43.5C 55.1157,42.2022 55.1157,41.2022 54.5,40.5C 54.5,40.1667 54.5,39.8333 54.5,39.5C 86.1684,39.6666 117.835,39.5 149.5,39C 103.833,38.6667 58.1667,38.3333 12.5,38C 12.0426,37.586 11.7093,37.086 11.5,36.5C 29.1541,35.5005 46.8208,35.1671 64.5,35.5 Z"/></g>
<g><path style="opacity:1" fill="#808080" d="M 151.5,36.5 C 159.918,36.1981 168.252,36.5314 176.5,37.5C 176.5,38.1667 176.167,38.5 175.5,38.5C 167.097,39.1335 159.097,38.4668 151.5,36.5 Z"/></g>
<g><path style="opacity:0.624" fill="#aeaeae" d="M 259.5,27.5 C 260.167,27.5 260.833,27.5 261.5,27.5C 260.992,29.8654 260.325,32.1987 259.5,34.5C 262.217,34.974 264.55,35.974 266.5,37.5C 263.45,38.2946 260.45,39.2946 257.5,40.5C 256.438,39.5754 256.438,38.5754 257.5,37.5C 257.833,34.8333 258.167,32.1667 258.5,29.5C 259.338,29.1583 259.672,28.4916 259.5,27.5 Z"/></g>
<g><path style="opacity:1" fill="#0a0a0a" d="M 176.5,37.5 C 176.833,37.5 177.167,37.5 177.5,37.5C 198.503,37.3334 219.503,37.5 240.5,38C 220.307,39.1563 199.974,39.9896 179.5,40.5C 179.863,41.1835 180.196,41.8501 180.5,42.5C 179.5,42.5 178.5,42.5 177.5,42.5C 176.194,41.5326 175.527,40.1993 175.5,38.5C 176.167,38.5 176.5,38.1667 176.5,37.5 Z"/></g>
<g><path style="opacity:1" fill="#3a3a3a" d="M 177.5,37.5 C 198.66,36.5027 219.993,36.1694 241.5,36.5C 243.226,38.8201 243.893,41.4867 243.5,44.5C 242.833,44.5 242.167,44.5 241.5,44.5C 241.5,43.5 241.5,42.5 241.5,41.5C 221.162,41.5992 200.829,41.9326 180.5,42.5C 180.196,41.8501 179.863,41.1835 179.5,40.5C 199.974,39.9896 220.307,39.1563 240.5,38C 219.503,37.5 198.503,37.3334 177.5,37.5 Z"/></g>
<g><path style="opacity:1" fill="#494949" d="M 54.5,39.5 C 54.5,39.8333 54.5,40.1667 54.5,40.5C 53.1184,41.8005 51.4517,42.6339 49.5,43C 35.9936,43.827 22.6603,43.6604 9.5,42.5C 9.5,41.5 9.5,40.5 9.5,39.5C 24.5,39.5 39.5,39.5 54.5,39.5 Z"/></g>
<g><path style="opacity:1" fill="#818181" d="M 54.5,40.5 C 55.1157,41.2022 55.1157,42.2022 54.5,43.5C 39.8672,44.4253 24.8672,44.7587 9.5,44.5C 9.76781,46.099 9.43448,47.4324 8.5,48.5C 8.5,47.1667 8.5,45.8333 8.5,44.5C 8.5,43.8333 8.5,43.1667 8.5,42.5C 8.83333,42.5 9.16667,42.5 9.5,42.5C 22.6603,43.6604 35.9936,43.827 49.5,43C 51.4517,42.6339 53.1184,41.8005 54.5,40.5 Z"/></g>
<g><path style="opacity:1" fill="#7a7a7a" d="M 177.5,42.5 C 178.5,42.5 179.5,42.5 180.5,42.5C 180.5,43.5 180.5,44.5 180.5,45.5C 196.5,45.5 212.5,45.5 228.5,45.5C 228.453,48.5682 227.953,51.5682 227,54.5C 219.232,53.7122 211.399,53.0455 203.5,52.5C 200.771,52.2948 198.438,53.1282 196.5,55C 190.843,55.4994 185.176,55.6661 179.5,55.5C 178.539,53.7354 178.205,51.7354 178.5,49.5C 177.167,49.5 175.833,49.5 174.5,49.5C 167.211,50.42 159.877,51.0867 152.5,51.5C 152.5,51.1667 152.5,50.8333 152.5,50.5C 160.769,48.5302 169.435,47.8636 178.5,48.5C 178.52,46.857 177.853,45.5237 176.5,44.5C 176.863,43.8165 177.196,43.1499 177.5,42.5 Z"/></g>
<g><path style="opacity:1" fill="#a7a7a7" d="M 94.5,44.5 C 95.6085,45.29 96.9419,45.79 98.5,46C 96.7444,46.2022 95.0777,46.7022 93.5,47.5C 93.8333,47.8333 94.1667,48.1667 94.5,48.5C 112.177,47.4808 130.177,47.4808 148.5,48.5C 149.429,47.3112 149.762,45.9778 149.5,44.5C 134.588,44.176 119.755,44.5094 105,45.5C 102.723,44.8828 100.556,44.2161 98.5,43.5C 116.375,43.4417 134.375,43.4417 152.5,43.5C 160.65,42.5073 168.983,42.1739 177.5,42.5C 177.196,43.1499 176.863,43.8165 176.5,44.5C 177.853,45.5237 178.52,46.857 178.5,48.5C 169.435,47.8636 160.769,48.5302 152.5,50.5C 151.833,51.5 151.167,52.5 150.5,53.5C 147.352,50.0237 143.352,48.6903 138.5,49.5C 122.82,50.1081 107.154,50.7748 91.5,51.5C 90.1667,51.5 88.8333,51.5 87.5,51.5C 87.719,50.325 87.3857,49.325 86.5,48.5C 85.4937,48.9377 85.4937,49.6043 86.5,50.5C 85.5,50.8333 84.5,51.1667 83.5,51.5C 69.2567,50.596 54.9234,50.4293 40.5,51C 39.1667,51.3333 37.8333,51.6667 36.5,52C 40.5577,52.3404 44.5577,53.0071 48.5,54C 47.2625,54.2321 46.2625,54.7321 45.5,55.5C 38.1667,55.5 30.8333,55.5 23.5,55.5C 28.9851,54.6728 34.6518,54.1728 40.5,54C 30.5056,53.5002 20.5056,53.3335 10.5,53.5C 10.1692,51.6776 9.50249,50.0109 8.5,48.5C 9.43448,47.4324 9.76781,46.099 9.5,44.5C 24.8672,44.7587 39.8672,44.4253 54.5,43.5C 61.7781,43.2767 69.1114,43.11 76.5,43C 78.5723,40.8515 80.4056,41.0182 82,43.5C 83.016,42.3659 83.6827,42.6992 84,44.5C 85.3086,42.1088 86.3086,42.1088 87,44.5C 89.4976,43.2215 91.9976,43.2215 94.5,44.5 Z"/></g>
<g><path style="opacity:1" fill="#bdbdbd" d="M 98.5,43.5 C 100.556,44.2161 102.723,44.8828 105,45.5C 119.755,44.5094 134.588,44.176 149.5,44.5C 149.762,45.9778 149.429,47.3112 148.5,48.5C 130.177,47.4808 112.177,47.4808 94.5,48.5C 94.1667,48.1667 93.8333,47.8333 93.5,47.5C 95.0777,46.7022 96.7444,46.2022 98.5,46C 96.9419,45.79 95.6085,45.29 94.5,44.5C 95.5676,43.5655 96.901,43.2322 98.5,43.5 Z"/></g>
<g><path style="opacity:1" fill="#c4c4c4" d="M 152.5,43.5 C 159.833,43.5 167.167,43.5 174.5,43.5C 174.5,44.8333 174.5,46.1667 174.5,47.5C 167.167,47.5 159.833,47.5 152.5,47.5C 152.5,46.1667 152.5,44.8333 152.5,43.5 Z"/></g>
<g><path style="opacity:1" fill="#9b9b9b" d="M 243.5,45.5 C 245.5,45.5 247.5,45.5 249.5,45.5C 250.283,49.1458 250.45,52.8125 250,56.5C 249.31,55.2617 248.81,55.2617 248.5,56.5C 247.833,56.5 247.5,56.1667 247.5,55.5C 248.278,54.8444 248.944,54.0111 249.5,53C 248.183,51.3857 246.517,50.2191 244.5,49.5C 245.665,48.4164 246.998,47.5831 248.5,47C 246.618,46.8019 244.952,46.3019 243.5,45.5 Z"/></g>
<g><path style="opacity:1" fill="#666666" d="M 174.5,49.5 C 174.5,52.5 174.5,55.5 174.5,58.5C 167.167,58.5 159.833,58.5 152.5,58.5C 152.5,56.1667 152.5,53.8333 152.5,51.5C 159.877,51.0867 167.211,50.42 174.5,49.5 Z"/></g>
<g><path style="opacity:1" fill="#747474" d="M 241.5,44.5 C 242.167,44.5 242.833,44.5 243.5,44.5C 243.5,44.8333 243.5,45.1667 243.5,45.5C 244.952,46.3019 246.618,46.8019 248.5,47C 246.998,47.5831 245.665,48.4164 244.5,49.5C 246.517,50.2191 248.183,51.3857 249.5,53C 248.944,54.0111 248.278,54.8444 247.5,55.5C 246.685,54.5707 245.852,53.5707 245,52.5C 244.76,54.8516 243.927,56.8516 242.5,58.5C 242.5,56.8333 242.5,55.1667 242.5,53.5C 242.736,50.3915 242.403,47.3915 241.5,44.5 Z"/></g>
<g><path style="opacity:1" fill="#8e8e8e" d="M 91.5,51.5 C 86.9194,53.6389 82.0861,55.3056 77,56.5C 66.5821,55.5134 56.0821,55.1801 45.5,55.5C 46.2625,54.7321 47.2625,54.2321 48.5,54C 44.5577,53.0071 40.5577,52.3404 36.5,52C 37.8333,51.6667 39.1667,51.3333 40.5,51C 54.9234,50.4293 69.2567,50.596 83.5,51.5C 84.5,51.1667 85.5,50.8333 86.5,50.5C 85.4937,49.6043 85.4937,48.9377 86.5,48.5C 87.3857,49.325 87.719,50.325 87.5,51.5C 88.8333,51.5 90.1667,51.5 91.5,51.5 Z"/></g>
<g><path style="opacity:1" fill="#dadad9" d="M 250.5,30.5 C 251.694,31.2719 252.694,32.2719 253.5,33.5C 253.957,35.7727 255.29,37.106 257.5,37.5C 256.438,38.5754 256.438,39.5754 257.5,40.5C 260.45,39.2946 263.45,38.2946 266.5,37.5C 268,39.1786 269.833,40.5119 272,41.5C 277.398,36.7763 283.565,35.1097 290.5,36.5C 291.631,38.0745 291.798,39.7412 291,41.5C 284.518,43.4143 279.185,47.0809 275,52.5C 274.251,53.635 274.417,54.635 275.5,55.5C 282.883,57.6908 289.549,61.1908 295.5,66C 302.181,66.9068 308.848,67.9068 315.5,69C 319.109,69.7013 322.442,70.8679 325.5,72.5C 324.5,72.5 323.5,72.5 322.5,72.5C 321.292,71.7659 319.959,71.4326 318.5,71.5C 314.019,70.3516 309.352,70.1849 304.5,71C 302.598,71.1992 301.098,72.0325 300,73.5C 299.51,72.2068 299.343,70.8734 299.5,69.5C 296.143,69.1058 293.81,70.4391 292.5,73.5C 291.52,76.0865 291.187,78.7531 291.5,81.5C 290.167,81.5 288.833,81.5 287.5,81.5C 287.167,70.8333 286.833,70.8333 286.5,81.5C 285.5,81.5 284.5,81.5 283.5,81.5C 283.813,78.7531 283.48,76.0865 282.5,73.5C 280.833,72.1667 279.167,72.1667 277.5,73.5C 276.295,72.4231 275.628,71.0898 275.5,69.5C 276.54,67.2806 276.04,65.2806 274,63.5C 272.644,62.6198 271.144,62.2865 269.5,62.5C 269.141,60.2341 269.808,58.4007 271.5,57C 269.527,56.5045 267.527,56.3379 265.5,56.5C 261.796,56.2764 258.129,56.1097 254.5,56C 255.337,57.0113 255.67,58.1779 255.5,59.5C 257.527,59.3379 259.527,59.5045 261.5,60C 262.711,61.1131 262.711,62.2798 261.5,63.5C 258.783,63.974 256.45,64.974 254.5,66.5C 250.721,65.1528 248.721,62.4861 248.5,58.5C 248.5,57.8333 248.5,57.1667 248.5,56.5C 248.81,55.2617 249.31,55.2617 250,56.5C 250.45,52.8125 250.283,49.1458 249.5,45.5C 247.5,45.5 245.5,45.5 243.5,45.5C 243.5,45.1667 243.5,44.8333 243.5,44.5C 243.893,41.4867 243.226,38.8201 241.5,36.5C 234.679,35.6715 227.679,35.1715 220.5,35C 223.095,34.7744 225.595,34.2744 228,33.5C 228.333,33.8333 228.667,34.1667 229,34.5C 230.269,33.0953 230.769,31.4286 230.5,29.5C 233.598,29.5875 233.932,29.0875 231.5,28C 237.491,27.5005 243.491,27.3338 249.5,27.5C 249.263,28.791 249.596,29.791 250.5,30.5 Z"/></g>
<g><path style="opacity:1" fill="#b5b5b5" d="M 241.5,44.5 C 242.403,47.3915 242.736,50.3915 242.5,53.5C 242.167,53.5 241.833,53.5 241.5,53.5C 232.219,55.3121 222.552,56.1455 212.5,56C 214.466,57.3466 214.799,58.8466 213.5,60.5C 213.565,60.0618 213.399,59.7284 213,59.5C 209.199,61.926 205.032,62.926 200.5,62.5C 202.889,61.9463 204.555,60.4463 205.5,58C 205.167,57.6667 204.833,57.3333 204.5,57C 196.173,56.5003 187.84,56.3336 179.5,56.5C 179.5,56.1667 179.5,55.8333 179.5,55.5C 185.176,55.6661 190.843,55.4994 196.5,55C 198.438,53.1282 200.771,52.2948 203.5,52.5C 211.399,53.0455 219.232,53.7122 227,54.5C 227.953,51.5682 228.453,48.5682 228.5,45.5C 212.5,45.5 196.5,45.5 180.5,45.5C 180.5,44.5 180.5,43.5 180.5,42.5C 200.829,41.9326 221.162,41.5992 241.5,41.5C 241.5,42.5 241.5,43.5 241.5,44.5 Z"/></g>
<g><path style="opacity:1" fill="#787878" d="M 241.5,53.5 C 239.304,53.59 237.137,53.9233 235,54.5C 230.497,53.0491 229.664,50.5491 232.5,47C 235.482,46.502 238.482,46.3354 241.5,46.5C 241.5,48.8333 241.5,51.1667 241.5,53.5 Z"/></g>
<g><path style="opacity:1" fill="#7a7a7a" d="M 150.5,53.5 C 150.5,54.1667 150.5,54.8333 150.5,55.5C 148.169,55.5023 146.169,54.669 144.5,53C 128.823,52.1671 113.156,52.3338 97.5,53.5C 94.1798,55.0236 90.6798,56.0236 87,56.5C 85.4212,55.2004 84.2545,55.5337 83.5,57.5C 82.8333,57.5 82.1667,57.5 81.5,57.5C 62.5,57.5 43.5,57.5 24.5,57.5C 19.456,57.8275 14.456,57.4941 9.5,56.5C 14.1196,55.5067 18.7863,55.1734 23.5,55.5C 30.8333,55.5 38.1667,55.5 45.5,55.5C 56.0821,55.1801 66.5821,55.5134 77,56.5C 82.0861,55.3056 86.9194,53.6389 91.5,51.5C 107.154,50.7748 122.82,50.1081 138.5,49.5C 143.352,48.6903 147.352,50.0237 150.5,53.5 Z"/></g>
<g><path style="opacity:1" fill="#636363" d="M 150.5,55.5 C 128.525,57.4894 106.192,58.156 83.5,57.5C 84.2545,55.5337 85.4212,55.2004 87,56.5C 90.6798,56.0236 94.1798,55.0236 97.5,53.5C 113.156,52.3338 128.823,52.1671 144.5,53C 146.169,54.669 148.169,55.5023 150.5,55.5 Z"/></g>
<g><path style="opacity:1" fill="#1c1c1c" d="M 247.5,55.5 C 247.5,56.1667 247.833,56.5 248.5,56.5C 248.5,57.1667 248.5,57.8333 248.5,58.5C 248.5,62.5 248.5,66.5 248.5,70.5C 247.657,72.4872 246.99,74.6539 246.5,77C 248.18,77.3523 249.18,78.8523 249.5,81.5C 247.833,81.5 246.167,81.5 244.5,81.5C 244.737,82.791 244.404,83.791 243.5,84.5C 243.5,81.8333 243.5,79.1667 243.5,76.5C 242.586,73.272 242.253,69.9387 242.5,66.5C 242.5,65.1667 242.5,63.8333 242.5,62.5C 242.5,61.1667 242.5,59.8333 242.5,58.5C 243.927,56.8516 244.76,54.8516 245,52.5C 245.852,53.5707 246.685,54.5707 247.5,55.5 Z"/></g>
<g><path style="opacity:1" fill="#898989" d="M 152.5,50.5 C 152.5,50.8333 152.5,51.1667 152.5,51.5C 152.5,53.8333 152.5,56.1667 152.5,58.5C 159.833,58.5 167.167,58.5 174.5,58.5C 174.5,58.8333 174.5,59.1667 174.5,59.5C 167.167,59.5 159.833,59.5 152.5,59.5C 152.5,61.5 152.5,63.5 152.5,65.5C 159.833,65.5 167.167,65.5 174.5,65.5C 174.5,65.8333 174.5,66.1667 174.5,66.5C 167.167,66.5 159.833,66.5 152.5,66.5C 152.5,67.8333 152.5,69.1667 152.5,70.5C 151.833,71.1667 151.167,71.8333 150.5,72.5C 150.5,71.1667 150.5,69.8333 150.5,68.5C 139.022,67.9721 127.689,68.6388 116.5,70.5C 114.26,69.7356 111.927,68.9023 109.5,68C 108.663,66.9887 108.33,65.8221 108.5,64.5C 111.625,63.5206 114.958,63.1872 118.5,63.5C 118.833,63.5 119.167,63.5 119.5,63.5C 119.5,63.8333 119.5,64.1667 119.5,64.5C 130.167,64.5 140.833,64.5 151.5,64.5C 151.737,63.209 151.404,62.209 150.5,61.5C 135.676,60.5039 120.676,60.1706 105.5,60.5C 119.994,59.6687 134.661,59.1687 149.5,59C 126.663,58.832 103.996,58.332 81.5,57.5C 82.1667,57.5 82.8333,57.5 83.5,57.5C 106.192,58.156 128.525,57.4894 150.5,55.5C 150.5,54.8333 150.5,54.1667 150.5,53.5C 151.167,52.5 151.833,51.5 152.5,50.5 Z"/></g>
<g><path style="opacity:1" fill="#d0d0d0" d="M 179.5,56.5 C 187.84,56.3336 196.173,56.5003 204.5,57C 204.833,57.3333 205.167,57.6667 205.5,58C 204.555,60.4463 202.889,61.9463 200.5,62.5C 193.557,63.4267 186.557,63.76 179.5,63.5C 179.5,61.1667 179.5,58.8333 179.5,56.5 Z"/></g>
<g><path style="opacity:1" fill="#b8b8b8" d="M 265.5,56.5 C 264.609,57.2613 263.942,58.2613 263.5,59.5C 264.754,61.3337 265.421,63.3337 265.5,65.5C 261.846,65.9422 258.179,66.2756 254.5,66.5C 256.45,64.974 258.783,63.974 261.5,63.5C 262.711,62.2798 262.711,61.1131 261.5,60C 259.527,59.5045 257.527,59.3379 255.5,59.5C 255.67,58.1779 255.337,57.0113 254.5,56C 258.129,56.1097 261.796,56.2764 265.5,56.5 Z"/></g>
<g><path style="opacity:1" fill="#303030" d="M 105.5,60.5 C 120.676,60.1706 135.676,60.5039 150.5,61.5C 139.779,60.8581 129.446,61.5247 119.5,63.5C 119.167,63.5 118.833,63.5 118.5,63.5C 114.343,62.5511 110.01,61.8844 105.5,61.5C 105.5,63.8333 105.5,66.1667 105.5,68.5C 105.167,68.5 104.833,68.5 104.5,68.5C 104.194,65.6146 104.527,62.9479 105.5,60.5 Z"/></g>
<g><path style="opacity:1" fill="#bfbfbf" d="M 174.5,59.5 C 174.5,61.5 174.5,63.5 174.5,65.5C 167.167,65.5 159.833,65.5 152.5,65.5C 152.5,63.5 152.5,61.5 152.5,59.5C 159.833,59.5 167.167,59.5 174.5,59.5 Z"/></g>
<g><path style="opacity:1" fill="#595959" d="M 9.5,60.5 C 40.5,60.5 71.5,60.5 102.5,60.5C 102.5,61.5 102.5,62.5 102.5,63.5C 71.4265,63.1747 40.4265,63.5081 9.5,64.5C 9.5,63.1667 9.5,61.8333 9.5,60.5 Z"/></g>
<g><path style="opacity:1" fill="#cfcfcf" d="M 241.5,53.5 C 241.833,53.5 242.167,53.5 242.5,53.5C 242.5,55.1667 242.5,56.8333 242.5,58.5C 242.5,59.8333 242.5,61.1667 242.5,62.5C 239.823,64.8743 236.657,64.8743 233,62.5C 230.49,63.6584 227.823,64.3251 225,64.5C 221.854,64.0159 218.854,64.0159 216,64.5C 214.583,63.9221 213.75,62.9221 213.5,61.5C 213.5,61.1667 213.5,60.8333 213.5,60.5C 214.799,58.8466 214.466,57.3466 212.5,56C 222.552,56.1455 232.219,55.3121 241.5,53.5 Z"/></g>
<g><path style="opacity:1" fill="#0b0b0b" d="M 118.5,63.5 C 114.958,63.1872 111.625,63.5206 108.5,64.5C 107.978,66.2191 106.978,67.5525 105.5,68.5C 105.5,66.1667 105.5,63.8333 105.5,61.5C 110.01,61.8844 114.343,62.5511 118.5,63.5 Z"/></g>
<g><path style="opacity:1" fill="#181818" d="M 150.5,61.5 C 151.404,62.209 151.737,63.209 151.5,64.5C 140.833,64.5 130.167,64.5 119.5,64.5C 119.5,64.1667 119.5,63.8333 119.5,63.5C 129.446,61.5247 139.779,60.8581 150.5,61.5 Z"/></g>
<g><path style="opacity:1" fill="#a9a9a9" d="M 24.5,57.5 C 43.5,57.5 62.5,57.5 81.5,57.5C 103.996,58.332 126.663,58.832 149.5,59C 134.661,59.1687 119.994,59.6687 105.5,60.5C 104.527,62.9479 104.194,65.6146 104.5,68.5C 103.391,68.4431 102.391,68.1098 101.5,67.5C 83.4969,67.3334 65.4969,67.5001 47.5,68C 49.437,68.1216 50.7703,68.955 51.5,70.5C 45.8333,70.5 40.1667,70.5 34.5,70.5C 27.011,69.671 19.3443,69.171 11.5,69C 9.96317,67.8904 9.2965,66.3904 9.5,64.5C 40.4265,63.5081 71.4265,63.1747 102.5,63.5C 102.5,62.5 102.5,61.5 102.5,60.5C 71.5,60.5 40.5,60.5 9.5,60.5C 14.2514,58.8587 19.2514,57.8587 24.5,57.5 Z"/></g>
<g><path style="opacity:1" fill="#6d6d6d" d="M 213.5,60.5 C 213.5,60.8333 213.5,61.1667 213.5,61.5C 211.887,62.6923 210.22,63.6923 208.5,64.5C 199.015,65.0576 189.682,65.7243 180.5,66.5C 178.952,66.8212 178.285,67.8212 178.5,69.5C 176.654,67.9699 175.654,65.9699 175.5,63.5C 176.833,63.5 178.167,63.5 179.5,63.5C 186.557,63.76 193.557,63.4267 200.5,62.5C 205.032,62.926 209.199,61.926 213,59.5C 213.399,59.7284 213.565,60.0618 213.5,60.5 Z"/></g>
<g><path style="opacity:1" fill="#969696" d="M 265.5,56.5 C 267.527,56.3379 269.527,56.5045 271.5,57C 269.808,58.4007 269.141,60.2341 269.5,62.5C 271.144,62.2865 272.644,62.6198 274,63.5C 276.04,65.2806 276.54,67.2806 275.5,69.5C 275.167,69.5 274.833,69.5 274.5,69.5C 274.5,68.5 274.5,67.5 274.5,66.5C 269.782,66.7911 265.282,67.7911 261,69.5C 258.659,69.1705 256.492,68.5038 254.5,67.5C 254.5,67.1667 254.5,66.8333 254.5,66.5C 258.179,66.2756 261.846,65.9422 265.5,65.5C 265.421,63.3337 264.754,61.3337 263.5,59.5C 263.942,58.2613 264.609,57.2613 265.5,56.5 Z"/></g>
<g><path style="opacity:1" fill="#cacaca" d="M 119.5,64.5 C 130.008,65.1666 140.674,65.8333 151.5,66.5C 140.136,67.1869 128.802,67.8536 117.5,68.5C 114.757,68.072 112.424,66.9053 110.5,65C 113.482,64.502 116.482,64.3354 119.5,64.5 Z"/></g>
<g><path style="opacity:1" fill="#b2b2b2" d="M 213.5,61.5 C 213.75,62.9221 214.583,63.9221 216,64.5C 218.854,64.0159 221.854,64.0159 225,64.5C 227.823,64.3251 230.49,63.6584 233,62.5C 236.657,64.8743 239.823,64.8743 242.5,62.5C 242.5,63.8333 242.5,65.1667 242.5,66.5C 240.5,66.5 238.5,66.5 236.5,66.5C 236.824,70.5546 236.491,74.5546 235.5,78.5C 234.824,77.3984 234.158,76.3984 233.5,75.5C 233.665,71.8183 233.499,68.1516 233,64.5C 224.735,65.8276 216.568,65.8276 208.5,64.5C 210.22,63.6923 211.887,62.6923 213.5,61.5 Z"/></g>
<g><path style="opacity:1" fill="#2c2c2c" d="M 174.5,49.5 C 175.833,49.5 177.167,49.5 178.5,49.5C 178.205,51.7354 178.539,53.7354 179.5,55.5C 179.5,55.8333 179.5,56.1667 179.5,56.5C 179.5,58.8333 179.5,61.1667 179.5,63.5C 178.167,63.5 176.833,63.5 175.5,63.5C 175.654,65.9699 176.654,67.9699 178.5,69.5C 179.301,71.0418 179.634,72.7085 179.5,74.5C 178.167,74.5 176.833,74.5 175.5,74.5C 175.167,74.5 174.833,74.5 174.5,74.5C 174.5,74.1667 174.5,73.8333 174.5,73.5C 174.5,71.1667 174.5,68.8333 174.5,66.5C 174.5,66.1667 174.5,65.8333 174.5,65.5C 174.5,63.5 174.5,61.5 174.5,59.5C 174.5,59.1667 174.5,58.8333 174.5,58.5C 174.5,55.5 174.5,52.5 174.5,49.5 Z"/></g>
<g><path style="opacity:1" fill="#8b8b8b" d="M 101.5,67.5 C 100.828,68.2674 99.9947,68.9341 99,69.5C 94.9152,68.8485 90.7485,68.5151 86.5,68.5C 74.9395,70.051 63.2729,70.7177 51.5,70.5C 50.7703,68.955 49.437,68.1216 47.5,68C 65.4969,67.5001 83.4969,67.3334 101.5,67.5 Z"/></g>
<g><path style="opacity:1" fill="#e8e8e8" d="M 8.5,44.5 C 8.5,45.8333 8.5,47.1667 8.5,48.5C 9.50249,50.0109 10.1692,51.6776 10.5,53.5C 20.5056,53.3335 30.5056,53.5002 40.5,54C 34.6518,54.1728 28.9851,54.6728 23.5,55.5C 18.7863,55.1734 14.1196,55.5067 9.5,56.5C 14.456,57.4941 19.456,57.8275 24.5,57.5C 19.2514,57.8587 14.2514,58.8587 9.5,60.5C 9.5,61.8333 9.5,63.1667 9.5,64.5C 9.2965,66.3904 9.96317,67.8904 11.5,69C 19.3443,69.171 27.011,69.671 34.5,70.5C 33.8333,70.5 33.1667,70.5 32.5,70.5C 24.7572,69.8701 17.4238,70.5367 10.5,72.5C 9.77842,72.0825 9.27842,71.4158 9,70.5C 8.58844,63.6599 8.08844,56.8266 7.5,50C 7.50558,47.9674 7.83891,46.134 8.5,44.5 Z"/></g>
<g><path style="opacity:1" fill="#515151" d="M 274.5,69.5 C 273.711,69.7828 273.044,70.2828 272.5,71C 266.419,71.2092 260.419,71.7092 254.5,72.5C 253.28,70.9504 253.28,69.2837 254.5,67.5C 256.492,68.5038 258.659,69.1705 261,69.5C 265.282,67.7911 269.782,66.7911 274.5,66.5C 274.5,67.5 274.5,68.5 274.5,69.5 Z"/></g>
<g><path style="opacity:1" fill="#585858" d="M 150.5,72.5 C 128.167,72.5 105.833,72.5 83.5,72.5C 83.0825,71.7784 82.4158,71.2784 81.5,71C 93.1619,70.5001 104.829,70.3335 116.5,70.5C 127.689,68.6388 139.022,67.9721 150.5,68.5C 150.5,69.8333 150.5,71.1667 150.5,72.5 Z"/></g>
<g><path style="opacity:1" fill="#797979" d="M 208.5,64.5 C 216.568,65.8276 224.735,65.8276 233,64.5C 233.499,68.1516 233.665,71.8183 233.5,75.5C 232.78,70.4157 230.113,69.2491 225.5,72C 226.833,72.6667 226.833,73.3333 225.5,74C 210.837,74.4999 196.17,74.6666 181.5,74.5C 181.806,71.6146 181.473,68.9479 180.5,66.5C 189.682,65.7243 199.015,65.0576 208.5,64.5 Z"/></g>
<g><path style="opacity:1" fill="#d6d6d6" d="M 274.5,69.5 C 274.833,69.5 275.167,69.5 275.5,69.5C 275.628,71.0898 276.295,72.4231 277.5,73.5C 279.167,72.1667 280.833,72.1667 282.5,73.5C 283.48,76.0865 283.813,78.7531 283.5,81.5C 284.5,81.5 285.5,81.5 286.5,81.5C 286.833,70.8333 287.167,70.8333 287.5,81.5C 288.833,81.5 290.167,81.5 291.5,81.5C 291.187,78.7531 291.52,76.0865 292.5,73.5C 293.81,70.4391 296.143,69.1058 299.5,69.5C 299.343,70.8734 299.51,72.2068 300,73.5C 301.098,72.0325 302.598,71.1992 304.5,71C 309.352,70.1849 314.019,70.3516 318.5,71.5C 314.154,71.3343 309.821,71.501 305.5,72C 303.376,73.1217 301.543,74.6217 300,76.5C 296.982,85.5849 293.815,94.5849 290.5,103.5C 289.404,105.103 288.07,106.603 286.5,108C 282.229,109.346 278.562,111.513 275.5,114.5C 272.907,115.754 270.573,117.42 268.5,119.5C 267.833,119.5 267.167,119.5 266.5,119.5C 263.894,115.874 260.894,112.374 257.5,109C 255.257,107.864 252.924,107.03 250.5,106.5C 243.833,106.5 237.167,106.5 230.5,106.5C 222.316,106.826 214.316,106.492 206.5,105.5C 209.262,102.852 208.929,100.519 205.5,98.5C 205.5,98.1667 205.5,97.8333 205.5,97.5C 207.833,97.5 210.167,97.5 212.5,97.5C 223.346,97.8278 234.013,97.4944 244.5,96.5C 245.477,93.7131 245.81,90.7131 245.5,87.5C 245.5,85.8333 245.5,84.1667 245.5,82.5C 247.099,82.7678 248.432,82.4345 249.5,81.5C 250.309,79.9724 250.976,78.3057 251.5,76.5C 252.488,75.205 253.488,73.8717 254.5,72.5C 260.419,71.7092 266.419,71.2092 272.5,71C 273.044,70.2828 273.711,69.7828 274.5,69.5 Z"/></g>
<g><path style="opacity:1" fill="#696969" d="M 108.5,64.5 C 108.33,65.8221 108.663,66.9887 109.5,68C 111.927,68.9023 114.26,69.7356 116.5,70.5C 104.829,70.3335 93.1619,70.5001 81.5,71C 82.4158,71.2784 83.0825,71.7784 83.5,72.5C 59.6608,72.8309 35.9941,72.4976 12.5,71.5C 19.3543,71.824 26.021,71.4907 32.5,70.5C 33.1667,70.5 33.8333,70.5 34.5,70.5C 40.1667,70.5 45.8333,70.5 51.5,70.5C 63.2729,70.7177 74.9395,70.051 86.5,68.5C 90.7485,68.5151 94.9152,68.8485 99,69.5C 99.9947,68.9341 100.828,68.2674 101.5,67.5C 102.391,68.1098 103.391,68.4431 104.5,68.5C 104.833,68.5 105.167,68.5 105.5,68.5C 106.978,67.5525 107.978,66.2191 108.5,64.5 Z"/></g>
<g><path style="opacity:1" fill="#6c6c6c" d="M 174.5,66.5 C 174.5,68.8333 174.5,71.1667 174.5,73.5C 167.167,73.5 159.833,73.5 152.5,73.5C 152.5,72.5 152.5,71.5 152.5,70.5C 152.5,69.1667 152.5,67.8333 152.5,66.5C 159.833,66.5 167.167,66.5 174.5,66.5 Z"/></g>
<g><path style="opacity:1" fill="#b3b3b3" d="M 248.5,58.5 C 248.721,62.4861 250.721,65.1528 254.5,66.5C 254.5,66.8333 254.5,67.1667 254.5,67.5C 253.28,69.2837 253.28,70.9504 254.5,72.5C 253.488,73.8717 252.488,75.205 251.5,76.5C 250.206,74.6716 249.206,72.6716 248.5,70.5C 248.5,66.5 248.5,62.5 248.5,58.5 Z"/></g>
<g><path style="opacity:0.7" fill="#cecece" d="M 32.5,70.5 C 26.021,71.4907 19.3543,71.824 12.5,71.5C 11.9569,71.56 11.6236,71.8933 11.5,72.5C 51.1625,73.3333 90.8291,73.8333 130.5,74C 129.5,74.3333 128.5,74.6667 127.5,75C 127.833,75.3333 128.167,75.6667 128.5,76C 133.155,76.4992 137.821,76.6658 142.5,76.5C 99.6686,77.6647 56.6686,77.8314 13.5,77C 11.8588,75.871 10.8588,74.371 10.5,72.5C 17.4238,70.5367 24.7572,69.8701 32.5,70.5 Z"/></g>
<g><path style="opacity:0.935" fill="#9f9f9f" d="M 152.5,70.5 C 152.5,71.5 152.5,72.5 152.5,73.5C 159.833,73.5 167.167,73.5 174.5,73.5C 174.5,73.8333 174.5,74.1667 174.5,74.5C 165.39,74.1469 156.39,74.8136 147.5,76.5C 145.833,76.5 144.167,76.5 142.5,76.5C 137.821,76.6658 133.155,76.4992 128.5,76C 128.167,75.6667 127.833,75.3333 127.5,75C 128.5,74.6667 129.5,74.3333 130.5,74C 90.8291,73.8333 51.1625,73.3333 11.5,72.5C 11.6236,71.8933 11.9569,71.56 12.5,71.5C 35.9941,72.4976 59.6608,72.8309 83.5,72.5C 105.833,72.5 128.167,72.5 150.5,72.5C 151.167,71.8333 151.833,71.1667 152.5,70.5 Z"/></g>
<g><path style="opacity:1" fill="#82594d" d="M 318.5,71.5 C 319.959,71.4326 321.292,71.7659 322.5,72.5C 322.893,74.2838 323.559,75.9505 324.5,77.5C 324.44,78.0431 324.107,78.3764 323.5,78.5C 318.918,73.7789 313.584,72.4456 307.5,74.5C 306.448,74.3505 305.448,74.5172 304.5,75C 302.667,77.1667 300.833,79.3333 299,81.5C 297.794,89.206 295.46,96.5393 292,103.5C 291.31,104.738 290.81,104.738 290.5,103.5C 293.815,94.5849 296.982,85.5849 300,76.5C 301.543,74.6217 303.376,73.1217 305.5,72C 309.821,71.501 314.154,71.3343 318.5,71.5 Z"/></g>
<g><path style="opacity:1" fill="#898989" d="M 248.5,70.5 C 249.206,72.6716 250.206,74.6716 251.5,76.5C 250.976,78.3057 250.309,79.9724 249.5,81.5C 249.18,78.8523 248.18,77.3523 246.5,77C 246.99,74.6539 247.657,72.4872 248.5,70.5 Z"/></g>
<g><path style="opacity:0.059" fill="#f5f1ef" d="M 325.5,72.5 C 329.121,76.0707 331.454,80.404 332.5,85.5C 329.609,81.5182 327.276,77.1848 325.5,72.5 Z"/></g>
<g><path style="opacity:1" fill="#a36f60" d="M 307.5,74.5 C 313.584,72.4456 318.918,73.7789 323.5,78.5C 324.107,78.3764 324.44,78.0431 324.5,77.5C 326.677,80.52 328.343,83.8533 329.5,87.5C 327.455,88.9228 326.455,90.9228 326.5,93.5C 325.833,94.1667 325.167,94.8333 324.5,95.5C 325.305,88.4622 322.138,84.4622 315,83.5C 307.045,84.6044 304.211,88.9377 306.5,96.5C 307.147,98.1405 308.147,99.4739 309.5,100.5C 308.265,100.721 307.265,101.388 306.5,102.5C 305.817,102.137 305.15,101.804 304.5,101.5C 302.853,96.3294 302.019,90.9961 302,85.5C 304.687,84.1594 306.353,82.4928 307,80.5C 307.674,81.5784 308.674,82.2451 310,82.5C 312.772,80.8376 315.606,80.171 318.5,80.5C 317.926,78.9411 317.26,77.4411 316.5,76C 313.568,75.0467 310.568,74.5467 307.5,74.5 Z"/></g>
<g><path style="opacity:0.82" fill="#d3b7af" d="M 322.5,72.5 C 323.5,72.5 324.5,72.5 325.5,72.5C 327.276,77.1848 329.609,81.5182 332.5,85.5C 332.833,86.8333 333.167,88.1667 333.5,89.5C 336.728,96.2834 340.728,102.617 345.5,108.5C 345.376,109.107 345.043,109.44 344.5,109.5C 343.167,108.167 341.833,106.833 340.5,105.5C 339.833,104.167 338.833,103.167 337.5,102.5C 335.953,96.8204 333.286,91.8204 329.5,87.5C 328.343,83.8533 326.677,80.52 324.5,77.5C 323.559,75.9505 322.893,74.2838 322.5,72.5 Z"/></g>
<g><path style="opacity:1" fill="#6b6b6b" d="M 242.5,66.5 C 242.253,69.9387 242.586,73.272 243.5,76.5C 242.527,78.9479 242.194,81.6146 242.5,84.5C 232.494,84.3335 222.494,84.5002 212.5,85C 209.302,86.6793 205.968,88.0126 202.5,89C 202.167,89.3333 201.833,89.6667 201.5,90C 203.134,90.4935 204.801,90.6602 206.5,90.5C 198.684,91.4924 190.684,91.8257 182.5,91.5C 182.389,90.8826 182.056,90.3826 181.5,90C 186.202,89.8283 190.868,89.3283 195.5,88.5C 192.232,87.513 188.898,87.1796 185.5,87.5C 185.5,86.5 185.5,85.5 185.5,84.5C 189.182,84.6653 192.848,84.4986 196.5,84C 193.833,83.6667 191.167,83.3333 188.5,83C 190.833,82.8333 193.167,82.6667 195.5,82.5C 205.3,83.4332 214.967,83.7665 224.5,83.5C 227.507,82.1111 230.507,80.7778 233.5,79.5C 233.5,78.1667 233.5,76.8333 233.5,75.5C 234.158,76.3984 234.824,77.3984 235.5,78.5C 236.491,74.5546 236.824,70.5546 236.5,66.5C 238.5,66.5 240.5,66.5 242.5,66.5 Z"/></g>
<g><path style="opacity:1" fill="#8d8d8d" d="M 243.5,76.5 C 243.5,79.1667 243.5,81.8333 243.5,84.5C 243.5,87.5 243.5,90.5 243.5,93.5C 242.527,91.0521 242.194,88.3854 242.5,85.5C 232.828,85.3335 223.161,85.5002 213.5,86C 221.335,87.3016 229.335,87.9683 237.5,88C 228.424,89.1111 219.424,89.9444 210.5,90.5C 209.167,90.5 207.833,90.5 206.5,90.5C 204.801,90.6602 203.134,90.4935 201.5,90C 201.833,89.6667 202.167,89.3333 202.5,89C 205.968,88.0126 209.302,86.6793 212.5,85C 222.494,84.5002 232.494,84.3335 242.5,84.5C 242.194,81.6146 242.527,78.9479 243.5,76.5 Z"/></g>
<g><path style="opacity:1" fill="#7f7f7f" d="M 249.5,81.5 C 248.432,82.4345 247.099,82.7678 245.5,82.5C 245.5,84.1667 245.5,85.8333 245.5,87.5C 244.833,89.5 244.167,91.5 243.5,93.5C 243.5,90.5 243.5,87.5 243.5,84.5C 244.404,83.791 244.737,82.791 244.5,81.5C 246.167,81.5 247.833,81.5 249.5,81.5 Z"/></g>
<g><path style="opacity:1" fill="#ede6dc" d="M 324.5,95.5 C 324.672,96.4916 324.338,97.1583 323.5,97.5C 319.932,97.2407 318.599,95.2407 319.5,91.5C 318.07,91.4208 316.736,91.7542 315.5,92.5C 314.24,90.6471 314.24,88.8138 315.5,87C 313.711,86.4795 312.044,86.8129 310.5,88C 310.833,88.3333 311.167,88.6667 311.5,89C 310.376,89.2492 309.376,89.7492 308.5,90.5C 308.938,91.5063 309.604,91.5063 310.5,90.5C 312.003,91.5901 312.336,92.7567 311.5,94C 312.448,94.4828 313.448,94.6495 314.5,94.5C 314.33,95.8221 314.663,96.9887 315.5,98C 314.892,98.8699 314.059,99.3699 313,99.5C 311.022,98.0944 308.855,97.0944 306.5,96.5C 304.211,88.9377 307.045,84.6044 315,83.5C 322.138,84.4622 325.305,88.4622 324.5,95.5 Z"/></g>
<g><path style="opacity:1" fill="#ae644c" d="M 307.5,74.5 C 310.568,74.5467 313.568,75.0467 316.5,76C 317.26,77.4411 317.926,78.9411 318.5,80.5C 315.606,80.171 312.772,80.8376 310,82.5C 308.674,82.2451 307.674,81.5784 307,80.5C 306.353,82.4928 304.687,84.1594 302,85.5C 302.019,90.9961 302.853,96.3294 304.5,101.5C 303.167,101.5 302.5,102.167 302.5,103.5C 299.717,105.535 297.05,107.535 294.5,109.5C 289.506,110.828 284.839,112.995 280.5,116C 276.79,118.918 274.79,122.752 274.5,127.5C 273.167,127.5 271.833,127.5 270.5,127.5C 270.5,125.167 270.5,122.833 270.5,120.5C 274.908,120.938 276.575,118.938 275.5,114.5C 278.562,111.513 282.229,109.346 286.5,108C 288.07,106.603 289.404,105.103 290.5,103.5C 290.81,104.738 291.31,104.738 292,103.5C 295.46,96.5393 297.794,89.206 299,81.5C 300.833,79.3333 302.667,77.1667 304.5,75C 305.448,74.5172 306.448,74.3505 307.5,74.5 Z"/></g>
<g><path style="opacity:1" fill="#e0d2cf" d="M 323.5,97.5 C 319.654,101.576 314.987,102.576 309.5,100.5C 308.147,99.4739 307.147,98.1405 306.5,96.5C 308.855,97.0944 311.022,98.0944 313,99.5C 314.059,99.3699 314.892,98.8699 315.5,98C 314.663,96.9887 314.33,95.8221 314.5,94.5C 313.448,94.6495 312.448,94.4828 311.5,94C 312.336,92.7567 312.003,91.5901 310.5,90.5C 309.604,91.5063 308.938,91.5063 308.5,90.5C 309.376,89.7492 310.376,89.2492 311.5,89C 311.167,88.6667 310.833,88.3333 310.5,88C 312.044,86.8129 313.711,86.4795 315.5,87C 314.24,88.8138 314.24,90.6471 315.5,92.5C 316.736,91.7542 318.07,91.4208 319.5,91.5C 318.599,95.2407 319.932,97.2407 323.5,97.5 Z"/></g>
<g><path style="opacity:1" fill="#5a5a5a" d="M 233.5,75.5 C 233.5,76.8333 233.5,78.1667 233.5,79.5C 230.507,80.7778 227.507,82.1111 224.5,83.5C 214.967,83.7665 205.3,83.4332 195.5,82.5C 193.167,82.6667 190.833,82.8333 188.5,83C 191.167,83.3333 193.833,83.6667 196.5,84C 192.848,84.4986 189.182,84.6653 185.5,84.5C 185.5,85.5 185.5,86.5 185.5,87.5C 188.898,87.1796 192.232,87.513 195.5,88.5C 190.868,89.3283 186.202,89.8283 181.5,90C 182.056,90.3826 182.389,90.8826 182.5,91.5C 181.957,91.56 181.624,91.8933 181.5,92.5C 201.489,93.4996 221.489,93.833 241.5,93.5C 241.5,92.5 241.5,91.5 241.5,90.5C 231.167,90.5 220.833,90.5 210.5,90.5C 219.424,89.9444 228.424,89.1111 237.5,88C 229.335,87.9683 221.335,87.3016 213.5,86C 223.161,85.5002 232.828,85.3335 242.5,85.5C 242.194,88.3854 242.527,91.0521 243.5,93.5C 244.167,91.5 244.833,89.5 245.5,87.5C 245.81,90.7131 245.477,93.7131 244.5,96.5C 233.122,96.5755 221.788,96.4088 210.5,96C 211.416,96.2784 212.082,96.7784 212.5,97.5C 210.167,97.5 207.833,97.5 205.5,97.5C 196.114,97.7799 186.78,97.4466 177.5,96.5C 171.833,96.5 166.167,96.5 160.5,96.5C 160.5,95.1667 160.5,93.8333 160.5,92.5C 165.927,92.7825 171.26,92.4491 176.5,91.5C 176.842,92.3382 177.508,92.6716 178.5,92.5C 178.56,93.0431 178.893,93.3764 179.5,93.5C 180.552,87.2038 181.219,80.8705 181.5,74.5C 196.17,74.6666 210.837,74.4999 225.5,74C 226.833,73.3333 226.833,72.6667 225.5,72C 230.113,69.2491 232.78,70.4157 233.5,75.5 Z"/></g>
<g><path style="opacity:1" fill="#0b0b0b" d="M 206.5,90.5 C 207.833,90.5 209.167,90.5 210.5,90.5C 220.833,90.5 231.167,90.5 241.5,90.5C 241.5,91.5 241.5,92.5 241.5,93.5C 221.489,93.833 201.489,93.4996 181.5,92.5C 181.624,91.8933 181.957,91.56 182.5,91.5C 190.684,91.8257 198.684,91.4924 206.5,90.5 Z"/></g>
<g><path style="opacity:1" fill="#8f8f8f" d="M 244.5,96.5 C 234.013,97.4944 223.346,97.8278 212.5,97.5C 212.082,96.7784 211.416,96.2784 210.5,96C 221.788,96.4088 233.122,96.5755 244.5,96.5 Z"/></g>
<g><path style="opacity:1" fill="#c7988d" d="M 329.5,87.5 C 333.286,91.8204 335.953,96.8204 337.5,102.5C 333.58,100.054 329.914,97.3872 326.5,94.5C 326.5,94.1667 326.5,93.8333 326.5,93.5C 326.455,90.9228 327.455,88.9228 329.5,87.5 Z"/></g>
<g><path style="opacity:1" fill="#c8c8c8" d="M 177.5,96.5 C 186.78,97.4466 196.114,97.7799 205.5,97.5C 205.5,97.8333 205.5,98.1667 205.5,98.5C 204.022,98.238 202.689,98.5713 201.5,99.5C 202.716,100.096 204.049,100.263 205.5,100C 203.959,101.371 202.625,102.871 201.5,104.5C 201.804,105.15 202.137,105.817 202.5,106.5C 200.64,107.325 198.974,108.325 197.5,109.5C 194.473,111.868 191.473,114.202 188.5,116.5C 184.153,113.487 180.487,109.82 177.5,105.5C 176.508,105.672 175.842,105.338 175.5,104.5C 175.5,103.833 175.833,103.5 176.5,103.5C 177.434,102.432 177.768,101.099 177.5,99.5C 172.5,99.5 167.5,99.5 162.5,99.5C 167.251,97.8587 172.251,96.8587 177.5,96.5 Z"/></g>
<g><path style="opacity:0.127" fill="#dfdfdf" d="M 154.5,85.5 C 156.481,88.1284 157.981,91.1284 159,94.5C 159.275,99.4307 160.109,104.264 161.5,109C 161.486,110.385 161.152,111.551 160.5,112.5C 158.405,103.635 156.405,94.6347 154.5,85.5 Z"/></g>
<g><path style="opacity:1" fill="#636363" d="M 176.5,103.5 C 175.833,103.5 175.5,103.833 175.5,104.5C 171.5,104.5 167.5,104.5 163.5,104.5C 163.5,103.167 163.5,101.833 163.5,100.5C 167.182,100.335 170.848,100.501 174.5,101C 175.756,101.417 176.423,102.25 176.5,103.5 Z"/></g>
<g><path style="opacity:1" fill="#6e6e6e" d="M 205.5,98.5 C 208.929,100.519 209.262,102.852 206.5,105.5C 207.292,104.033 207.292,102.7 206.5,101.5C 205.06,102.952 203.394,103.952 201.5,104.5C 202.625,102.871 203.959,101.371 205.5,100C 204.049,100.263 202.716,100.096 201.5,99.5C 202.689,98.5713 204.022,98.238 205.5,98.5 Z"/></g>
<g><path style="opacity:0.769" fill="#b6b6b6" d="M 180.5,66.5 C 181.473,68.9479 181.806,71.6146 181.5,74.5C 181.219,80.8705 180.552,87.2038 179.5,93.5C 178.893,93.3764 178.56,93.0431 178.5,92.5C 179.489,87.0247 179.822,81.358 179.5,75.5C 178.5,75.5 177.5,75.5 176.5,75.5C 176.5,80.8333 176.5,86.1667 176.5,91.5C 171.26,92.4491 165.927,92.7825 160.5,92.5C 160.5,93.8333 160.5,95.1667 160.5,96.5C 166.167,96.5 171.833,96.5 177.5,96.5C 172.251,96.8587 167.251,97.8587 162.5,99.5C 162.083,102.079 162.75,104.246 164.5,106C 168.753,106.2 172.92,106.7 177,107.5C 177.464,106.906 177.631,106.239 177.5,105.5C 180.487,109.82 184.153,113.487 188.5,116.5C 188.655,119.609 189.322,122.609 190.5,125.5C 192.415,122.344 194.081,119.011 195.5,115.5C 196.417,116.127 197.417,116.461 198.5,116.5C 197.136,118.191 195.803,119.858 194.5,121.5C 193.883,121.611 193.383,121.944 193,122.5C 192.667,124.5 192.333,126.5 192,128.5C 191.586,128.043 191.086,127.709 190.5,127.5C 189.676,130.785 189.176,134.118 189,137.5C 188.667,132.833 188.333,128.167 188,123.5C 187.051,121.907 185.885,120.574 184.5,119.5C 177.552,115.13 169.886,113.296 161.5,114C 160.944,113.617 160.611,113.117 160.5,112.5C 161.152,111.551 161.486,110.385 161.5,109C 160.109,104.264 159.275,99.4307 159,94.5C 157.981,91.1284 156.481,88.1284 154.5,85.5C 152.94,83.0465 151.94,80.3798 151.5,77.5C 149.901,77.7678 148.568,77.4345 147.5,76.5C 156.39,74.8136 165.39,74.1469 174.5,74.5C 174.5,76.8333 174.5,79.1667 174.5,81.5C 168.167,81.5 161.833,81.5 155.5,81.5C 155.263,82.791 155.596,83.791 156.5,84.5C 157.167,85.1667 157.833,85.8333 158.5,86.5C 163.651,87.3267 168.984,87.8267 174.5,88C 169.5,88.3333 164.5,88.6667 159.5,89C 159.833,89.3333 160.167,89.6667 160.5,90C 165.489,90.4993 170.489,90.6659 175.5,90.5C 175.5,89.1667 175.5,87.8333 175.5,86.5C 175.5,85.1667 175.5,83.8333 175.5,82.5C 175.5,79.8333 175.5,77.1667 175.5,74.5C 176.833,74.5 178.167,74.5 179.5,74.5C 179.634,72.7085 179.301,71.0418 178.5,69.5C 178.285,67.8212 178.952,66.8212 180.5,66.5 Z"/></g>
<g><path style="opacity:1" fill="#828282" d="M 158.5,86.5 C 164.167,86.5 169.833,86.5 175.5,86.5C 175.5,87.8333 175.5,89.1667 175.5,90.5C 170.489,90.6659 165.489,90.4993 160.5,90C 160.167,89.6667 159.833,89.3333 159.5,89C 164.5,88.6667 169.5,88.3333 174.5,88C 168.984,87.8267 163.651,87.3267 158.5,86.5 Z"/></g>
<g><path style="opacity:1" fill="#3a3a3a" d="M 175.5,82.5 C 175.5,83.8333 175.5,85.1667 175.5,86.5C 169.833,86.5 164.167,86.5 158.5,86.5C 157.833,85.8333 157.167,85.1667 156.5,84.5C 162.412,82.5437 168.745,81.8771 175.5,82.5 Z"/></g>
<g><path style="opacity:1" fill="#767676" d="M 174.5,74.5 C 174.833,74.5 175.167,74.5 175.5,74.5C 175.5,77.1667 175.5,79.8333 175.5,82.5C 168.745,81.8771 162.412,82.5437 156.5,84.5C 155.596,83.791 155.263,82.791 155.5,81.5C 161.833,81.5 168.167,81.5 174.5,81.5C 174.5,79.1667 174.5,76.8333 174.5,74.5 Z"/></g>
<g><path style="opacity:1" fill="#f9f9f9" d="M 178.5,92.5 C 177.508,92.6716 176.842,92.3382 176.5,91.5C 176.5,86.1667 176.5,80.8333 176.5,75.5C 177.5,75.5 178.5,75.5 179.5,75.5C 179.822,81.358 179.489,87.0247 178.5,92.5 Z"/></g>
<g><path style="opacity:0.078" fill="#f5eeeb" d="M 332.5,85.5 C 342.28,95.0708 350.613,105.737 357.5,117.5C 355.833,116.167 354.167,114.833 352.5,113.5C 346.648,105.136 340.315,97.1361 333.5,89.5C 333.167,88.1667 332.833,86.8333 332.5,85.5 Z"/></g>
<g><path style="opacity:1" fill="#9b9b9b" d="M 162.5,99.5 C 167.5,99.5 172.5,99.5 177.5,99.5C 177.768,101.099 177.434,102.432 176.5,103.5C 176.423,102.25 175.756,101.417 174.5,101C 170.848,100.501 167.182,100.335 163.5,100.5C 163.5,101.833 163.5,103.167 163.5,104.5C 167.5,104.5 171.5,104.5 175.5,104.5C 175.842,105.338 176.508,105.672 177.5,105.5C 177.631,106.239 177.464,106.906 177,107.5C 172.92,106.7 168.753,106.2 164.5,106C 162.75,104.246 162.083,102.079 162.5,99.5 Z"/></g>
<g><path style="opacity:1" fill="#734943" d="M 326.5,93.5 C 326.5,93.8333 326.5,94.1667 326.5,94.5C 327.329,97.4686 327.495,100.469 327,103.5C 326,100.833 325,100.833 324,103.5C 322.035,102.115 320.202,102.282 318.5,104C 321.471,104.794 324.471,105.461 327.5,106C 329.584,106.697 331.251,107.864 332.5,109.5C 323.535,110.607 314.535,111.274 305.5,111.5C 306.183,109.824 307.517,109.157 309.5,109.5C 309.822,107.278 309.155,105.444 307.5,104C 305.619,104.096 303.953,103.929 302.5,103.5C 302.5,102.167 303.167,101.5 304.5,101.5C 305.15,101.804 305.817,102.137 306.5,102.5C 307.265,101.388 308.265,100.721 309.5,100.5C 314.987,102.576 319.654,101.576 323.5,97.5C 324.338,97.1583 324.672,96.4916 324.5,95.5C 325.167,94.8333 325.833,94.1667 326.5,93.5 Z"/></g>
<g><path style="opacity:1" fill="#737373" d="M 230.5,106.5 C 237.167,106.5 243.833,106.5 250.5,106.5C 251.32,110.1 253.653,112.1 257.5,112.5C 257.843,114.483 257.176,115.817 255.5,116.5C 254.713,114.896 253.38,114.229 251.5,114.5C 251.5,113.5 251.5,112.5 251.5,111.5C 244.109,111.799 236.776,111.465 229.5,110.5C 228.614,111.325 228.281,112.325 228.5,113.5C 219.827,113.334 211.16,113.5 202.5,114C 200.68,114.2 199.347,115.034 198.5,116.5C 197.417,116.461 196.417,116.127 195.5,115.5C 194.081,119.011 192.415,122.344 190.5,125.5C 189.322,122.609 188.655,119.609 188.5,116.5C 191.473,114.202 194.473,111.868 197.5,109.5C 199.379,109.393 199.712,109.893 198.5,111C 208.164,111.075 217.831,110.741 227.5,110C 228.71,108.961 229.71,107.794 230.5,106.5 Z"/></g>
<g><path style="opacity:1" fill="#98726b" d="M 326.5,94.5 C 329.914,97.3872 333.58,100.054 337.5,102.5C 338.833,103.167 339.833,104.167 340.5,105.5C 339.903,105.735 339.57,106.235 339.5,107C 341.549,112.351 342.383,117.851 342,123.5C 339.619,124.435 337.119,124.768 334.5,124.5C 334.218,123.222 333.551,122.222 332.5,121.5C 334.076,120.857 335.41,119.857 336.5,118.5C 338.344,117.796 338.844,116.463 338,114.5C 337.333,115.833 336.667,115.833 336,114.5C 335.51,113.207 335.343,111.873 335.5,110.5C 334.209,110.737 333.209,110.404 332.5,109.5C 331.251,107.864 329.584,106.697 327.5,106C 324.471,105.461 321.471,104.794 318.5,104C 320.202,102.282 322.035,102.115 324,103.5C 325,100.833 326,100.833 327,103.5C 327.495,100.469 327.329,97.4686 326.5,94.5 Z"/></g>
<g><path style="opacity:1" fill="#989898" d="M 206.5,105.5 C 214.316,106.492 222.316,106.826 230.5,106.5C 229.71,107.794 228.71,108.961 227.5,110C 217.831,110.741 208.164,111.075 198.5,111C 199.712,109.893 199.379,109.393 197.5,109.5C 198.974,108.325 200.64,107.325 202.5,106.5C 202.137,105.817 201.804,105.15 201.5,104.5C 203.394,103.952 205.06,102.952 206.5,101.5C 207.292,102.7 207.292,104.033 206.5,105.5 Z"/></g>
<g><path style="opacity:1" fill="#333333" d="M 234.5,107.5 C 239.769,107.137 244.769,107.971 249.5,110C 243.833,110.667 238.167,110.667 232.5,110C 233.756,109.583 234.423,108.75 234.5,107.5 Z"/></g>
<g><path style="opacity:1" fill="#a28881" d="M 333.5,89.5 C 340.315,97.1361 346.648,105.136 352.5,113.5C 353.957,115.628 354.957,117.962 355.5,120.5C 354.464,118.278 352.797,117.112 350.5,117C 352.007,117.837 352.507,119.004 352,120.5C 348.995,117.151 346.495,113.484 344.5,109.5C 345.043,109.44 345.376,109.107 345.5,108.5C 340.728,102.617 336.728,96.2834 333.5,89.5 Z"/></g>
<g><path style="opacity:1" fill="#643634" d="M 302.5,103.5 C 303.953,103.929 305.619,104.096 307.5,104C 309.155,105.444 309.822,107.278 309.5,109.5C 307.517,109.157 306.183,109.824 305.5,111.5C 301.186,111.272 297.186,112.272 293.5,114.5C 292.5,114.167 291.5,113.833 290.5,113.5C 291.549,111.784 292.882,110.451 294.5,109.5C 297.05,107.535 299.717,105.535 302.5,103.5 Z"/></g>
<g><path style="opacity:1" fill="#5b2c25" d="M 336.5,118.5 C 335.41,119.857 334.076,120.857 332.5,121.5C 323.661,122.249 315.328,124.749 307.5,129C 304.118,130.87 303.784,133.036 306.5,135.5C 306.44,136.043 306.107,136.376 305.5,136.5C 303.615,135.391 301.615,134.557 299.5,134C 301.119,133.764 302.119,132.931 302.5,131.5C 302.511,129.983 303.177,128.816 304.5,128C 308.321,126.735 311.655,124.735 314.5,122C 321.55,119.079 328.883,117.912 336.5,118.5 Z"/></g>
<g><path style="opacity:0.398" fill="#b4b4b4" d="M 255.5,116.5 C 254.417,116.461 253.417,116.127 252.5,115.5C 250.471,116.844 248.471,118.177 246.5,119.5C 245.624,119.631 244.957,119.298 244.5,118.5C 246.5,117.167 248.167,115.5 249.5,113.5C 243.167,112.167 236.833,112.167 230.5,113.5C 233.885,116.943 236.218,120.943 237.5,125.5C 236.865,128.931 235.865,132.264 234.5,135.5C 236.46,127.506 234.46,120.673 228.5,115C 218.384,114.004 208.384,114.504 198.5,116.5C 199.347,115.034 200.68,114.2 202.5,114C 211.16,113.5 219.827,113.334 228.5,113.5C 228.281,112.325 228.614,111.325 229.5,110.5C 236.776,111.465 244.109,111.799 251.5,111.5C 251.5,112.5 251.5,113.5 251.5,114.5C 253.38,114.229 254.713,114.896 255.5,116.5 Z"/></g>
<g><path style="opacity:1" fill="#888786" d="M 250.5,106.5 C 252.924,107.03 255.257,107.864 257.5,109C 260.894,112.374 263.894,115.874 266.5,119.5C 265.957,120.742 265.623,122.075 265.5,123.5C 266.589,127.097 267.255,130.763 267.5,134.5C 266.71,133.391 266.21,132.058 266,130.5C 265.667,134.833 265.333,139.167 265,143.5C 264.722,144.416 264.222,145.082 263.5,145.5C 263.998,142.533 264.331,139.533 264.5,136.5C 264.657,133.186 263.991,130.186 262.5,127.5C 260.942,123.395 258.609,119.729 255.5,116.5C 257.176,115.817 257.843,114.483 257.5,112.5C 253.653,112.1 251.32,110.1 250.5,106.5 Z"/></g>
<g><path style="opacity:1" fill="#7f483f" d="M 294.5,109.5 C 292.882,110.451 291.549,111.784 290.5,113.5C 291.5,113.833 292.5,114.167 293.5,114.5C 297.186,112.272 301.186,111.272 305.5,111.5C 314.535,111.274 323.535,110.607 332.5,109.5C 333.209,110.404 334.209,110.737 335.5,110.5C 335.343,111.873 335.51,113.207 336,114.5C 336.667,115.833 337.333,115.833 338,114.5C 338.844,116.463 338.344,117.796 336.5,118.5C 328.883,117.912 321.55,119.079 314.5,122C 311.655,124.735 308.321,126.735 304.5,128C 303.177,128.816 302.511,129.983 302.5,131.5C 300.228,132.319 297.894,132.985 295.5,133.5C 292.345,133.01 289.345,132.344 286.5,131.5C 287.67,129.721 289.336,128.721 291.5,128.5C 291.369,129.376 291.702,130.043 292.5,130.5C 297.905,125.632 304.238,122.632 311.5,121.5C 313.08,118.371 315.414,117.537 318.5,119C 319.328,118.085 320.328,117.419 321.5,117C 318.5,116.333 315.5,116.333 312.5,117C 311.111,119.188 309.111,120.354 306.5,120.5C 306.489,118.983 305.823,117.816 304.5,117C 306.35,117.595 308.35,118.095 310.5,118.5C 310.5,117.5 310.5,116.5 310.5,115.5C 307.572,115.148 304.738,114.482 302,113.5C 300.179,115.287 298.012,116.62 295.5,117.5C 295.167,116.833 294.833,116.167 294.5,115.5C 293.646,116.948 292.646,118.281 291.5,119.5C 294.443,122.18 294.11,122.847 290.5,121.5C 288.851,122.648 287.351,123.981 286,125.5C 285.282,124.549 284.449,124.383 283.5,125C 282.624,126.586 281.624,128.086 280.5,129.5C 281.949,130.172 283.282,130.839 284.5,131.5C 279.478,131.782 274.478,131.949 269.5,132C 268.536,127.934 268.203,123.767 268.5,119.5C 270.573,117.42 272.907,115.754 275.5,114.5C 276.575,118.938 274.908,120.938 270.5,120.5C 270.5,122.833 270.5,125.167 270.5,127.5C 271.833,127.5 273.167,127.5 274.5,127.5C 274.79,122.752 276.79,118.918 280.5,116C 284.839,112.995 289.506,110.828 294.5,109.5 Z"/></g>
<g><path style="opacity:1" fill="#6f3226" d="M 291.5,128.5 C 292.283,126.924 293.45,125.591 295,124.5C 295.333,124.833 295.667,125.167 296,125.5C 299.123,123.174 302.623,121.507 306.5,120.5C 309.111,120.354 311.111,119.188 312.5,117C 315.5,116.333 318.5,116.333 321.5,117C 320.328,117.419 319.328,118.085 318.5,119C 315.414,117.537 313.08,118.371 311.5,121.5C 304.238,122.632 297.905,125.632 292.5,130.5C 291.702,130.043 291.369,129.376 291.5,128.5 Z"/></g>
<g><path style="opacity:1" fill="#935043" d="M 306.5,120.5 C 302.623,121.507 299.123,123.174 296,125.5C 295.667,125.167 295.333,124.833 295,124.5C 293.45,125.591 292.283,126.924 291.5,128.5C 289.336,128.721 287.67,129.721 286.5,131.5C 285.833,131.5 285.167,131.5 284.5,131.5C 283.282,130.839 281.949,130.172 280.5,129.5C 281.624,128.086 282.624,126.586 283.5,125C 284.449,124.383 285.282,124.549 286,125.5C 287.351,123.981 288.851,122.648 290.5,121.5C 294.11,122.847 294.443,122.18 291.5,119.5C 292.646,118.281 293.646,116.948 294.5,115.5C 294.833,116.167 295.167,116.833 295.5,117.5C 298.012,116.62 300.179,115.287 302,113.5C 304.738,114.482 307.572,115.148 310.5,115.5C 310.5,116.5 310.5,117.5 310.5,118.5C 308.35,118.095 306.35,117.595 304.5,117C 305.823,117.816 306.489,118.983 306.5,120.5 Z"/></g>
<g><path style="opacity:1" fill="#89665e" d="M 340.5,105.5 C 341.833,106.833 343.167,108.167 344.5,109.5C 346.495,113.484 348.995,117.151 352,120.5C 352.507,119.004 352.007,117.837 350.5,117C 352.797,117.112 354.464,118.278 355.5,120.5C 360.595,127.29 364.928,134.623 368.5,142.5C 368.19,143.738 367.69,143.738 367,142.5C 365.926,137.979 363.259,134.979 359,133.5C 358.601,133.728 358.435,134.062 358.5,134.5C 354.022,128.233 349.522,121.9 345,115.5C 344.667,119.5 344.333,123.5 344,127.5C 343.617,128.056 343.117,128.389 342.5,128.5C 341.833,128.833 341.167,129.167 340.5,129.5C 338.393,128.532 336.059,128.198 333.5,128.5C 335.292,127.691 337.292,127.191 339.5,127C 337.825,126.015 336.158,125.181 334.5,124.5C 337.119,124.768 339.619,124.435 342,123.5C 342.383,117.851 341.549,112.351 339.5,107C 339.57,106.235 339.903,105.735 340.5,105.5 Z"/></g>
<g><path style="opacity:1" fill="#915651" d="M 332.5,121.5 C 333.551,122.222 334.218,123.222 334.5,124.5C 329.28,125.133 324.113,126.133 319,127.5C 317.199,129.708 314.866,131.041 312,131.5C 311.51,132.793 311.343,134.127 311.5,135.5C 309.833,135.5 308.167,135.5 306.5,135.5C 303.784,133.036 304.118,130.87 307.5,129C 315.328,124.749 323.661,122.249 332.5,121.5 Z"/></g>
<g><path style="opacity:1" fill="#643a2f" d="M 358.5,134.5 C 363.611,142.388 367.945,150.722 371.5,159.5C 372.688,161.722 373.688,164.055 374.5,166.5C 373.635,167.583 372.635,167.749 371.5,167C 370.74,165.559 370.074,164.059 369.5,162.5C 368.092,161.757 366.759,160.923 365.5,160C 367.991,159.374 367.991,158.541 365.5,157.5C 366.167,156.5 366.833,155.5 367.5,154.5C 366.369,153.396 365.535,153.729 365,155.5C 359.807,152.48 356.307,148.147 354.5,142.5C 353.271,141.719 351.938,141.219 350.5,141C 351.167,140.667 351.833,140.333 352.5,140C 351.255,139.209 349.922,138.709 348.5,138.5C 347.402,137.603 347.402,136.77 348.5,136C 346.649,135.163 344.816,134.329 343,133.5C 342.506,131.866 342.34,130.199 342.5,128.5C 343.117,128.389 343.617,128.056 344,127.5C 344.333,123.5 344.667,119.5 345,115.5C 349.522,121.9 354.022,128.233 358.5,134.5 Z"/></g>
<g><path style="opacity:0.035" fill="#f8f1f1" d="M 357.5,117.5 C 359.451,118.716 360.951,120.382 362,122.5C 365.094,128.078 367.928,133.744 370.5,139.5C 366.678,133.865 362.845,128.199 359,122.5C 357.991,120.975 357.491,119.308 357.5,117.5 Z"/></g>
<g><path style="opacity:1" fill="#aa6254" d="M 333.5,128.5 C 336.059,128.198 338.393,128.532 340.5,129.5C 339.399,130.848 338.399,132.348 337.5,134C 335.236,134.236 333.069,134.736 331,135.5C 330.28,137.112 330.446,138.612 331.5,140C 329.536,141.451 328.203,143.284 327.5,145.5C 324.211,144.211 321.878,141.878 320.5,138.5C 318.832,136.521 318.166,134.188 318.5,131.5C 320.857,131.663 323.19,131.497 325.5,131C 324.833,130.333 324.167,129.667 323.5,129C 326.817,128.502 330.15,128.335 333.5,128.5 Z"/></g>
<g><path style="opacity:1" fill="#6c3f3b" d="M 334.5,124.5 C 336.158,125.181 337.825,126.015 339.5,127C 337.292,127.191 335.292,127.691 333.5,128.5C 330.15,128.335 326.817,128.502 323.5,129C 324.167,129.667 324.833,130.333 325.5,131C 323.19,131.497 320.857,131.663 318.5,131.5C 318.166,134.188 318.832,136.521 320.5,138.5C 318.114,137.627 316.114,136.127 314.5,134C 313.668,133.312 313.002,133.479 312.5,134.5C 316.174,138.177 319.507,142.177 322.5,146.5C 319.217,143.739 315.717,141.073 312,138.5C 309.563,137.931 307.396,137.931 305.5,138.5C 302.093,136.819 298.759,135.153 295.5,133.5C 297.894,132.985 300.228,132.319 302.5,131.5C 302.119,132.931 301.119,133.764 299.5,134C 301.615,134.557 303.615,135.391 305.5,136.5C 306.107,136.376 306.44,136.043 306.5,135.5C 308.167,135.5 309.833,135.5 311.5,135.5C 311.343,134.127 311.51,132.793 312,131.5C 314.866,131.041 317.199,129.708 319,127.5C 324.113,126.133 329.28,125.133 334.5,124.5 Z"/></g>
<g><path style="opacity:1" fill="#9f766e" d="M 368.5,142.5 C 371.932,149.7 375.598,156.7 379.5,163.5C 380.895,168.975 382.895,174.308 385.5,179.5C 385.5,180.5 385.5,181.5 385.5,182.5C 383.837,180.507 382.67,178.174 382,175.5C 381.617,176.056 381.117,176.389 380.5,176.5C 378.496,169.992 375.996,163.659 373,157.5C 372.722,158.416 372.222,159.082 371.5,159.5C 367.945,150.722 363.611,142.388 358.5,134.5C 358.435,134.062 358.601,133.728 359,133.5C 363.259,134.979 365.926,137.979 367,142.5C 367.69,143.738 368.19,143.738 368.5,142.5 Z"/></g>
<g><path style="opacity:0.69" fill="#6f5e5c" d="M 302.5,141.5 C 301.075,141.544 299.742,142.544 298.5,144.5C 300.22,145.92 302.054,147.253 304,148.5C 306.083,153.289 307.25,158.289 307.5,163.5C 308.5,163.5 309.5,163.5 310.5,163.5C 312.108,172.727 312.941,182.06 313,191.5C 314.164,199.83 316.164,208.163 319,216.5C 319.642,220.491 320.142,224.491 320.5,228.5C 317.26,222.653 315.093,216.32 314,209.5C 313.617,208.944 313.117,208.611 312.5,208.5C 311.196,204.64 310.529,200.64 310.5,196.5C 310.248,191.481 309.748,186.481 309,181.5C 308.722,180.584 308.222,179.918 307.5,179.5C 306.298,175.286 305.631,170.952 305.5,166.5C 305.706,163.505 305.04,160.838 303.5,158.5C 302.326,157.486 301.66,156.153 301.5,154.5C 301.573,152.973 300.906,151.973 299.5,151.5C 296.982,145.962 292.982,142.962 287.5,142.5C 287.167,142.5 286.833,142.5 286.5,142.5C 286.119,141.069 285.119,140.236 283.5,140C 279.179,139.501 274.846,139.334 270.5,139.5C 270.33,138.178 270.663,137.011 271.5,136C 279.119,134.571 286.785,134.238 294.5,135C 297.938,136.277 300.605,138.443 302.5,141.5 Z"/></g>
<g><path style="opacity:1" fill="#5b3c37" d="M 266.5,119.5 C 267.167,119.5 267.833,119.5 268.5,119.5C 268.203,123.767 268.536,127.934 269.5,132C 274.478,131.949 279.478,131.782 284.5,131.5C 285.167,131.5 285.833,131.5 286.5,131.5C 289.345,132.344 292.345,133.01 295.5,133.5C 298.759,135.153 302.093,136.819 305.5,138.5C 307.497,141.215 309.497,143.882 311.5,146.5C 311.704,148.685 312.37,150.685 313.5,152.5C 312.075,150.969 311.409,151.302 311.5,153.5C 310.05,148.378 307.05,144.378 302.5,141.5C 300.605,138.443 297.938,136.277 294.5,135C 286.785,134.238 279.119,134.571 271.5,136C 270.663,137.011 270.33,138.178 270.5,139.5C 269.5,139.5 268.5,139.5 267.5,139.5C 267.5,137.833 267.5,136.167 267.5,134.5C 267.255,130.763 266.589,127.097 265.5,123.5C 265.623,122.075 265.957,120.742 266.5,119.5 Z"/></g>
<g><path style="opacity:1" fill="#5c2d22" d="M 320.5,138.5 C 321.878,141.878 324.211,144.211 327.5,145.5C 327.778,147.695 327.778,149.861 327.5,152C 330.356,153.429 330.856,155.263 329,157.5C 328.794,153.869 327.627,153.535 325.5,156.5C 325.877,158.824 326.877,159.491 328.5,158.5C 331.719,160.269 334.719,162.269 337.5,164.5C 336.412,168.386 335.579,168.386 335,164.5C 334.333,167.167 333.667,167.167 333,164.5C 332.342,166.108 332.842,167.275 334.5,168C 333.584,168.278 332.918,168.778 332.5,169.5C 330.754,170.218 330.088,171.218 330.5,172.5C 328.878,170.561 327.044,170.228 325,171.5C 324.626,170.584 324.126,169.75 323.5,169C 326.064,167.264 325.731,166.098 322.5,165.5C 322.607,161.902 323.274,158.402 324.5,155C 324.389,153.278 323.889,153.112 323,154.5C 321.168,161.133 320.668,167.8 321.5,174.5C 319.386,173.64 318.22,171.973 318,169.5C 317.536,170.094 317.369,170.761 317.5,171.5C 316.833,168.833 316.167,166.167 315.5,163.5C 314.044,160.259 312.711,156.926 311.5,153.5C 311.409,151.302 312.075,150.969 313.5,152.5C 315.068,157.297 316.901,161.964 319,166.5C 320.043,163.243 320.543,159.91 320.5,156.5C 322.983,153.533 323.65,150.199 322.5,146.5C 319.507,142.177 316.174,138.177 312.5,134.5C 313.002,133.479 313.668,133.312 314.5,134C 316.114,136.127 318.114,137.627 320.5,138.5 Z"/></g>
<g><path style="opacity:0.149" fill="#bfbab9" d="M 299.5,151.5 C 296.042,147.699 292.042,144.699 287.5,142.5C 292.982,142.962 296.982,145.962 299.5,151.5 Z"/></g>
<g><path style="opacity:1" fill="#835756" d="M 322.5,146.5 C 323.65,150.199 322.983,153.533 320.5,156.5C 319.54,150.592 316.54,145.925 311.5,142.5C 310.708,143.7 310.708,145.033 311.5,146.5C 309.497,143.882 307.497,141.215 305.5,138.5C 307.396,137.931 309.563,137.931 312,138.5C 315.717,141.073 319.217,143.739 322.5,146.5 Z"/></g>
<g><path style="opacity:1" fill="#7d3f2b" d="M 342.5,128.5 C 342.34,130.199 342.506,131.866 343,133.5C 344.816,134.329 346.649,135.163 348.5,136C 347.402,136.77 347.402,137.603 348.5,138.5C 349.684,139.688 349.684,140.855 348.5,142C 351.699,143.359 353.365,145.859 353.5,149.5C 352.638,151.767 350.971,152.767 348.5,152.5C 348.308,148.898 346.974,145.898 344.5,143.5C 339.857,141.239 337.19,142.739 336.5,148C 336.899,149.981 337.899,151.481 339.5,152.5C 341.371,154.232 342.704,156.398 343.5,159C 342.833,161 341.5,162.333 339.5,163C 340.641,163.741 340.641,164.575 339.5,165.5C 341.507,166.908 343.507,168.408 345.5,170C 343.606,171.079 343.273,172.413 344.5,174C 342.519,174.605 342.185,175.605 343.5,177C 342.584,177.278 341.918,177.778 341.5,178.5C 340.883,178.389 340.383,178.056 340,177.5C 339.505,179.473 339.338,181.473 339.5,183.5C 341.965,183.767 344.299,184.434 346.5,185.5C 347.167,185.5 347.5,185.833 347.5,186.5C 346.25,186.577 345.417,187.244 345,188.5C 344.667,188.167 344.333,187.833 344,187.5C 344.077,188.738 343.911,189.738 343.5,190.5C 342.614,189.675 342.281,188.675 342.5,187.5C 341.167,187.5 339.833,187.5 338.5,187.5C 338.838,183.849 337.172,182.183 333.5,182.5C 331.998,178.182 332.331,174.015 334.5,170C 333.906,169.536 333.239,169.369 332.5,169.5C 332.918,168.778 333.584,168.278 334.5,168C 332.842,167.275 332.342,166.108 333,164.5C 333.667,167.167 334.333,167.167 335,164.5C 335.579,168.386 336.412,168.386 337.5,164.5C 334.719,162.269 331.719,160.269 328.5,158.5C 326.877,159.491 325.877,158.824 325.5,156.5C 327.627,153.535 328.794,153.869 329,157.5C 330.856,155.263 330.356,153.429 327.5,152C 327.778,149.861 327.778,147.695 327.5,145.5C 328.203,143.284 329.536,141.451 331.5,140C 330.446,138.612 330.28,137.112 331,135.5C 333.069,134.736 335.236,134.236 337.5,134C 338.399,132.348 339.399,130.848 340.5,129.5C 341.167,129.167 341.833,128.833 342.5,128.5 Z"/></g>
<g><path style="opacity:1" fill="#240f0a" d="M 344.5,143.5 C 344.631,144.239 344.464,144.906 344,145.5C 343.346,144.304 342.846,144.304 342.5,145.5C 344.302,149.168 343.302,151.502 339.5,152.5C 337.899,151.481 336.899,149.981 336.5,148C 337.19,142.739 339.857,141.239 344.5,143.5 Z"/></g>
<g><path style="opacity:0.7" fill="#c1a9a4" d="M 352.5,113.5 C 354.167,114.833 355.833,116.167 357.5,117.5C 357.491,119.308 357.991,120.975 359,122.5C 362.845,128.199 366.678,133.865 370.5,139.5C 372.104,140.287 372.771,141.62 372.5,143.5C 375.408,149.98 377.742,156.646 379.5,163.5C 375.598,156.7 371.932,149.7 368.5,142.5C 364.928,134.623 360.595,127.29 355.5,120.5C 354.957,117.962 353.957,115.628 352.5,113.5 Z"/></g>
<g><path style="opacity:1" fill="#997870" d="M 320.5,156.5 C 320.543,159.91 320.043,163.243 319,166.5C 316.901,161.964 315.068,157.297 313.5,152.5C 312.37,150.685 311.704,148.685 311.5,146.5C 310.708,145.033 310.708,143.7 311.5,142.5C 316.54,145.925 319.54,150.592 320.5,156.5 Z"/></g>
<g><path style="opacity:0.012" fill="#e9e9ea" d="M 270.5,141.5 C 268.817,151.183 263.151,156.849 253.5,158.5C 261.938,155.389 267.271,149.389 269.5,140.5C 270.107,140.624 270.44,140.957 270.5,141.5 Z"/></g>
<g><path style="opacity:0.004" fill="#e9e1e4" d="M 299.5,151.5 C 300.906,151.973 301.573,152.973 301.5,154.5C 300.094,154.027 299.427,153.027 299.5,151.5 Z"/></g>
<g><path style="opacity:0.834" fill="#a8a8a8" d="M 267.5,134.5 C 267.5,136.167 267.5,137.833 267.5,139.5C 268.5,139.5 269.5,139.5 270.5,139.5C 274.846,139.334 279.179,139.501 283.5,140C 285.119,140.236 286.119,141.069 286.5,142.5C 281.213,141.658 275.88,141.324 270.5,141.5C 270.44,140.957 270.107,140.624 269.5,140.5C 267.271,149.389 261.938,155.389 253.5,158.5C 253.167,158.5 252.833,158.5 252.5,158.5C 234.848,160.225 217.848,157.391 201.5,150C 209.495,151.266 217.495,152.933 225.5,155C 233.167,155.667 240.833,155.667 248.5,155C 254.539,153.323 259.539,150.156 263.5,145.5C 264.222,145.082 264.722,144.416 265,143.5C 265.333,139.167 265.667,134.833 266,130.5C 266.21,132.058 266.71,133.391 267.5,134.5 Z"/></g>
<g><path style="opacity:0.341" fill="#dcdddc" d="M 246.5,119.5 C 245.832,132.693 240.832,143.86 231.5,153C 240.073,154.742 248.406,153.742 256.5,150C 259.106,148.062 260.939,145.562 262,142.5C 262.499,137.511 262.666,132.511 262.5,127.5C 263.991,130.186 264.657,133.186 264.5,136.5C 264.331,139.533 263.998,142.533 263.5,145.5C 259.539,150.156 254.539,153.323 248.5,155C 240.833,155.667 233.167,155.667 225.5,155C 217.495,152.933 209.495,151.266 201.5,150C 217.848,157.391 234.848,160.225 252.5,158.5C 245.785,160.714 238.785,161.547 231.5,161C 219.134,159.394 207.134,156.394 195.5,152C 192.567,149.736 190.4,146.902 189,143.5C 187.47,135.459 185.97,127.459 184.5,119.5C 185.885,120.574 187.051,121.907 188,123.5C 188.333,128.167 188.667,132.833 189,137.5C 189.176,134.118 189.676,130.785 190.5,127.5C 191.086,127.709 191.586,128.043 192,128.5C 192.333,126.5 192.667,124.5 193,122.5C 193.383,121.944 193.883,121.611 194.5,121.5C 193.069,127.865 193.236,134.198 195,140.5C 196.122,142.624 197.622,144.457 199.5,146C 206.138,148.535 212.972,150.368 220,151.5C 221.643,150.685 223.143,149.685 224.5,148.5C 224.696,150.646 225.696,150.812 227.5,149C 235.501,142.865 238.834,135.032 237.5,125.5C 236.218,120.943 233.885,116.943 230.5,113.5C 236.833,112.167 243.167,112.167 249.5,113.5C 248.167,115.5 246.5,117.167 244.5,118.5C 244.957,119.298 245.624,119.631 246.5,119.5 Z"/></g>
<g><path style="opacity:0.082" fill="#e3e3e3" d="M 234.5,135.5 C 233.751,141.242 230.751,145.242 225.5,147.5C 229.301,144.042 232.301,140.042 234.5,135.5 Z"/></g>
<g><path style="opacity:0.722" fill="#8e8e8e" d="M 237.5,125.5 C 238.834,135.032 235.501,142.865 227.5,149C 225.696,150.812 224.696,150.646 224.5,148.5C 224.5,147.833 224.833,147.5 225.5,147.5C 230.751,145.242 233.751,141.242 234.5,135.5C 235.865,132.264 236.865,128.931 237.5,125.5 Z"/></g>
<g><path style="opacity:1" fill="#6c3c2f" d="M 348.5,138.5 C 349.922,138.709 351.255,139.209 352.5,140C 351.833,140.333 351.167,140.667 350.5,141C 351.938,141.219 353.271,141.719 354.5,142.5C 356.307,148.147 359.807,152.48 365,155.5C 365.535,153.729 366.369,153.396 367.5,154.5C 366.833,155.5 366.167,156.5 365.5,157.5C 367.991,158.541 367.991,159.374 365.5,160C 366.759,160.923 368.092,161.757 369.5,162.5C 370.074,164.059 370.74,165.559 371.5,167C 372.635,167.749 373.635,167.583 374.5,166.5C 373.688,164.055 372.688,161.722 371.5,159.5C 372.222,159.082 372.722,158.416 373,157.5C 375.996,163.659 378.496,169.992 380.5,176.5C 381.412,177.738 381.579,179.072 381,180.5C 380.444,178.405 379.944,178.238 379.5,180C 379.862,181.225 380.362,182.391 381,183.5C 381.333,182.833 381.667,182.167 382,181.5C 383.301,183.365 383.635,185.365 383,187.5C 382.667,186.5 382.333,185.5 382,184.5C 381.598,185.872 381.098,187.205 380.5,188.5C 382.81,191.427 384.143,194.76 384.5,198.5C 383.883,198.389 383.383,198.056 383,197.5C 382.218,200.188 380.718,201.188 378.5,200.5C 377.355,199.224 377.355,197.891 378.5,196.5C 373.767,194.037 373.1,191.204 376.5,188C 376,187.5 375.5,187 375,186.5C 374.577,187.956 373.744,188.456 372.5,188C 373.579,185.957 375.246,184.624 377.5,184C 376.747,182.513 375.914,182.346 375,183.5C 374.667,182.833 374.333,182.167 374,181.5C 373.189,185.901 372.023,186.234 370.5,182.5C 370.833,181.833 371.167,181.167 371.5,180.5C 370.167,179.5 368.833,178.5 367.5,177.5C 367.704,178.529 367.204,179.529 366,180.5C 363.035,176.963 359.701,176.63 356,179.5C 355.439,178.978 354.772,178.645 354,178.5C 352.518,180.112 350.685,181.112 348.5,181.5C 348.869,179.007 348.203,178.34 346.5,179.5C 344.883,178.962 343.216,178.629 341.5,178.5C 341.918,177.778 342.584,177.278 343.5,177C 342.185,175.605 342.519,174.605 344.5,174C 343.273,172.413 343.606,171.079 345.5,170C 343.507,168.408 341.507,166.908 339.5,165.5C 340.641,164.575 340.641,163.741 339.5,163C 341.5,162.333 342.833,161 343.5,159C 342.704,156.398 341.371,154.232 339.5,152.5C 343.302,151.502 344.302,149.168 342.5,145.5C 342.846,144.304 343.346,144.304 344,145.5C 344.464,144.906 344.631,144.239 344.5,143.5C 346.974,145.898 348.308,148.898 348.5,152.5C 350.971,152.767 352.638,151.767 353.5,149.5C 353.365,145.859 351.699,143.359 348.5,142C 349.684,140.855 349.684,139.688 348.5,138.5 Z"/></g>
<g><path style="opacity:0.047" fill="#e7e1e1" d="M 303.5,158.5 C 305.04,160.838 305.706,163.505 305.5,166.5C 304.232,164.095 303.565,161.428 303.5,158.5 Z"/></g>
<g><path style="opacity:1" fill="#884943" d="M 315.5,163.5 C 316.167,166.167 316.833,168.833 317.5,171.5C 318.331,177.479 318.997,183.479 319.5,189.5C 318.131,187.309 317.131,184.975 316.5,182.5C 315.956,180.42 315.122,178.42 314,176.5C 313.833,174.333 313.667,172.167 313.5,170C 313.533,167.39 314.2,165.223 315.5,163.5 Z"/></g>
<g><path style="opacity:1" fill="#814c40" d="M 322.5,165.5 C 322.5,168.167 322.5,170.833 322.5,173.5C 325.5,173.5 328.5,173.5 331.5,173.5C 331.808,175.924 331.474,178.257 330.5,180.5C 328.253,179.626 325.92,179.292 323.5,179.5C 323.5,180.5 323.5,181.5 323.5,182.5C 326.598,182.587 326.932,182.087 324.5,181C 331.13,181.545 331.13,182.379 324.5,183.5C 325.376,186.799 325.543,190.132 325,193.5C 323.185,187.277 322.019,180.944 321.5,174.5C 320.668,167.8 321.168,161.133 323,154.5C 323.889,153.112 324.389,153.278 324.5,155C 323.274,158.402 322.607,161.902 322.5,165.5 Z"/></g>
<g><path style="opacity:0.322" fill="#e7e2dd" d="M 372.5,143.5 C 380.672,156.812 386.839,171.145 391,186.5C 392.359,190.405 393.192,194.405 393.5,198.5C 391.616,191.852 388.95,185.519 385.5,179.5C 382.895,174.308 380.895,168.975 379.5,163.5C 377.742,156.646 375.408,149.98 372.5,143.5 Z"/></g>
<g><path style="opacity:1" fill="#a36355" d="M 341.5,178.5 C 343.216,178.629 344.883,178.962 346.5,179.5C 346.5,181.5 346.5,183.5 346.5,185.5C 344.299,184.434 341.965,183.767 339.5,183.5C 339.338,181.473 339.505,179.473 340,177.5C 340.383,178.056 340.883,178.389 341.5,178.5 Z"/></g>
<g><path style="opacity:1" fill="#64403a" d="M 384.5,198.5 C 386.58,204.531 387.58,210.531 387.5,216.5C 382.85,209.855 377.85,203.522 372.5,197.5C 368.451,193.125 363.784,189.459 358.5,186.5C 358.956,188.827 360.623,190.661 363.5,192C 362.692,192.308 362.025,192.808 361.5,193.5C 362.641,194.425 362.641,195.259 361.5,196C 366.007,197.849 367.174,201.016 365,205.5C 364.556,202.389 363.223,199.723 361,197.5C 360.228,198.849 359.061,199.682 357.5,200C 358.623,201.044 359.956,201.71 361.5,202C 360.667,203.5 359.5,204.667 358,205.5C 355.618,204.446 353.118,203.779 350.5,203.5C 350.679,205.606 351.679,207.272 353.5,208.5C 354.251,207.624 354.751,206.624 355,205.5C 356.031,208.539 357.865,211.039 360.5,213C 360.167,213.333 359.833,213.667 359.5,214C 361.527,213.502 363.527,213.669 365.5,214.5C 365.062,215.506 364.396,215.506 363.5,214.5C 362.253,216.006 362.253,217.506 363.5,219C 362.833,219.333 362.167,219.667 361.5,220C 363.895,220.681 366.228,221.515 368.5,222.5C 365.194,223.008 361.861,222.508 358.5,221C 358.167,220.667 357.833,220.333 357.5,220C 359.044,219.71 360.377,219.044 361.5,218C 360.975,217.308 360.308,216.808 359.5,216.5C 358.549,217.326 357.549,217.492 356.5,217C 356.834,214.999 356.834,213.165 356.5,211.5C 355.3,212.531 353.966,213.365 352.5,214C 353.624,214.249 354.624,214.749 355.5,215.5C 354.359,216.425 354.359,217.259 355.5,218C 353.702,217.994 352.035,217.661 350.5,217C 351.211,218.255 352.044,219.421 353,220.5C 353.718,219.549 354.551,219.383 355.5,220C 354.663,221.011 354.33,222.178 354.5,223.5C 352.585,223.216 350.919,223.549 349.5,224.5C 348.833,224.5 348.167,224.5 347.5,224.5C 345.621,224.607 345.288,224.107 346.5,223C 345.072,214.42 344.072,205.754 343.5,197C 344.153,193.68 346.153,191.68 349.5,191C 348.733,189.53 348.067,188.03 347.5,186.5C 347.5,185.833 347.167,185.5 346.5,185.5C 346.5,183.5 346.5,181.5 346.5,179.5C 348.203,178.34 348.869,179.007 348.5,181.5C 350.685,181.112 352.518,180.112 354,178.5C 354.772,178.645 355.439,178.978 356,179.5C 359.701,176.63 363.035,176.963 366,180.5C 367.204,179.529 367.704,178.529 367.5,177.5C 368.833,178.5 370.167,179.5 371.5,180.5C 371.167,181.167 370.833,181.833 370.5,182.5C 372.023,186.234 373.189,185.901 374,181.5C 374.333,182.167 374.667,182.833 375,183.5C 375.914,182.346 376.747,182.513 377.5,184C 375.246,184.624 373.579,185.957 372.5,188C 373.744,188.456 374.577,187.956 375,186.5C 375.5,187 376,187.5 376.5,188C 373.1,191.204 373.767,194.037 378.5,196.5C 377.355,197.891 377.355,199.224 378.5,200.5C 380.718,201.188 382.218,200.188 383,197.5C 383.383,198.056 383.883,198.389 384.5,198.5 Z"/></g>
<g><path style="opacity:0.075" fill="#d5d1d1" d="M 307.5,179.5 C 308.222,179.918 308.722,180.584 309,181.5C 309.748,186.481 310.248,191.481 310.5,196.5C 308.98,191.052 307.98,185.386 307.5,179.5 Z"/></g>
<g><path style="opacity:1" fill="#895c53" d="M 316.5,182.5 C 317.131,184.975 318.131,187.309 319.5,189.5C 319.368,192.57 319.701,195.57 320.5,198.5C 320.335,201.85 320.502,205.183 321,208.5C 322.607,216.06 324.773,223.394 327.5,230.5C 327.719,231.675 327.386,232.675 326.5,233.5C 325.812,229.791 324.312,226.458 322,223.5C 319.597,209.942 317.763,196.275 316.5,182.5 Z"/></g>
<g><path style="opacity:1" fill="#602b1c" d="M 322.5,165.5 C 325.731,166.098 326.064,167.264 323.5,169C 324.126,169.75 324.626,170.584 325,171.5C 327.044,170.228 328.878,170.561 330.5,172.5C 330.088,171.218 330.754,170.218 332.5,169.5C 333.239,169.369 333.906,169.536 334.5,170C 332.331,174.015 331.998,178.182 333.5,182.5C 332.751,183.531 332.085,184.698 331.5,186C 332.667,186.5 333.5,187.333 334,188.5C 337.159,187.255 336.993,186.088 333.5,185C 334.793,184.51 336.127,184.343 337.5,184.5C 337.227,186.451 337.893,187.951 339.5,189C 339.004,190.996 338.004,192.663 336.5,194C 337.891,195.02 339.391,195.853 341,196.5C 341.422,198.355 341.922,200.189 342.5,202C 341.527,202.349 340.694,203.182 340,204.5C 339.667,204.167 339.333,203.833 339,203.5C 338.508,204.549 338.674,205.549 339.5,206.5C 338.737,207.719 337.737,208.719 336.5,209.5C 337.982,210.159 339.649,211.326 341.5,213C 340.552,213.483 339.552,213.649 338.5,213.5C 338.351,214.552 338.517,215.552 339,216.5C 339.423,215.044 340.256,214.544 341.5,215C 340.833,216.333 339.833,217.333 338.5,218C 340.5,219.333 342.5,220.667 344.5,222C 342.77,223.852 341.604,223.686 341,221.5C 340.51,222.793 340.343,224.127 340.5,225.5C 343.059,225.802 345.393,225.468 347.5,224.5C 348.167,224.5 348.833,224.5 349.5,224.5C 358.167,224.5 366.833,224.5 375.5,224.5C 376.791,224.263 377.791,224.596 378.5,225.5C 378.167,225.5 377.833,225.5 377.5,225.5C 369.16,225.334 360.827,225.5 352.5,226C 352.167,226.333 351.833,226.667 351.5,227C 354.06,227.384 356.394,228.217 358.5,229.5C 357.194,230.467 356.527,231.801 356.5,233.5C 351.638,233.882 346.972,233.216 342.5,231.5C 340.926,230.016 339.593,228.349 338.5,226.5C 336.147,222.964 334.147,219.131 332.5,215C 332.667,214.5 332.833,214 333,213.5C 333.941,215.061 335.108,216.395 336.5,217.5C 336.833,217.333 337.167,217.167 337.5,217C 336,214.167 333.833,212 331,210.5C 330.333,206.5 329.667,206.5 329,210.5C 328.385,208.884 327.385,207.551 326,206.5C 325.306,200.029 323.973,193.696 322,187.5C 321.823,191.356 321.323,195.023 320.5,198.5C 319.701,195.57 319.368,192.57 319.5,189.5C 318.997,183.479 318.331,177.479 317.5,171.5C 317.369,170.761 317.536,170.094 318,169.5C 318.22,171.973 319.386,173.64 321.5,174.5C 322.019,180.944 323.185,187.277 325,193.5C 325.543,190.132 325.376,186.799 324.5,183.5C 331.13,182.379 331.13,181.545 324.5,181C 326.932,182.087 326.598,182.587 323.5,182.5C 323.5,181.5 323.5,180.5 323.5,179.5C 325.92,179.292 328.253,179.626 330.5,180.5C 331.474,178.257 331.808,175.924 331.5,173.5C 328.5,173.5 325.5,173.5 322.5,173.5C 322.5,170.833 322.5,168.167 322.5,165.5 Z"/></g>
<g><path style="opacity:1" fill="#78524c" d="M 372.5,197.5 C 371.957,197.56 371.624,197.893 371.5,198.5C 373.278,200.264 374.611,202.264 375.5,204.5C 373.402,203.086 372.402,203.752 372.5,206.5C 370.876,206.64 369.71,205.973 369,204.5C 368.927,207.158 369.26,209.824 370,212.5C 370.471,210.754 371.138,209.087 372,207.5C 372.903,208.701 374.069,209.535 375.5,210C 374.167,210.333 372.833,210.667 371.5,211C 372.833,211.667 372.833,212.333 371.5,213C 372.449,213.617 373.282,213.451 374,212.5C 375,214.167 376,215.833 377,217.5C 378.249,215.008 379.416,215.175 380.5,218C 378.5,218.667 376.5,219.333 374.5,220C 375.376,221.585 376.709,222.585 378.5,223C 377.263,223.232 376.263,223.732 375.5,224.5C 366.833,224.5 358.167,224.5 349.5,224.5C 350.919,223.549 352.585,223.216 354.5,223.5C 354.33,222.178 354.663,221.011 355.5,220C 354.551,219.383 353.718,219.549 353,220.5C 352.044,219.421 351.211,218.255 350.5,217C 352.035,217.661 353.702,217.994 355.5,218C 354.359,217.259 354.359,216.425 355.5,215.5C 354.624,214.749 353.624,214.249 352.5,214C 353.966,213.365 355.3,212.531 356.5,211.5C 356.834,213.165 356.834,214.999 356.5,217C 357.549,217.492 358.549,217.326 359.5,216.5C 360.308,216.808 360.975,217.308 361.5,218C 360.377,219.044 359.044,219.71 357.5,220C 357.833,220.333 358.167,220.667 358.5,221C 361.861,222.508 365.194,223.008 368.5,222.5C 366.228,221.515 363.895,220.681 361.5,220C 362.167,219.667 362.833,219.333 363.5,219C 362.253,217.506 362.253,216.006 363.5,214.5C 364.396,215.506 365.062,215.506 365.5,214.5C 363.527,213.669 361.527,213.502 359.5,214C 359.833,213.667 360.167,213.333 360.5,213C 357.865,211.039 356.031,208.539 355,205.5C 354.751,206.624 354.251,207.624 353.5,208.5C 351.679,207.272 350.679,205.606 350.5,203.5C 353.118,203.779 355.618,204.446 358,205.5C 359.5,204.667 360.667,203.5 361.5,202C 359.956,201.71 358.623,201.044 357.5,200C 359.061,199.682 360.228,198.849 361,197.5C 363.223,199.723 364.556,202.389 365,205.5C 367.174,201.016 366.007,197.849 361.5,196C 362.641,195.259 362.641,194.425 361.5,193.5C 362.025,192.808 362.692,192.308 363.5,192C 360.623,190.661 358.956,188.827 358.5,186.5C 363.784,189.459 368.451,193.125 372.5,197.5 Z"/></g>
<g><path style="opacity:1" fill="#c2a49a" d="M 372.5,197.5 C 377.85,203.522 382.85,209.855 387.5,216.5C 388.278,217.156 388.944,217.989 389.5,219C 389.43,219.765 389.097,220.265 388.5,220.5C 385.23,215.56 381.23,211.227 376.5,207.5C 375.873,206.583 375.539,205.583 375.5,204.5C 374.611,202.264 373.278,200.264 371.5,198.5C 371.624,197.893 371.957,197.56 372.5,197.5 Z"/></g>
<g><path style="opacity:1" fill="#76463c" d="M 338.5,226.5 C 337.5,226.5 336.5,226.5 335.5,226.5C 333.09,222.01 330.924,217.344 329,212.5C 329.725,220.276 331.891,227.61 335.5,234.5C 335.083,235.124 334.416,235.457 333.5,235.5C 331.944,234.453 330.277,233.786 328.5,233.5C 328.737,232.209 328.404,231.209 327.5,230.5C 324.773,223.394 322.607,216.06 321,208.5C 320.502,205.183 320.335,201.85 320.5,198.5C 321.323,195.023 321.823,191.356 322,187.5C 323.973,193.696 325.306,200.029 326,206.5C 327.385,207.551 328.385,208.884 329,210.5C 329.667,206.5 330.333,206.5 331,210.5C 333.833,212 336,214.167 337.5,217C 337.167,217.167 336.833,217.333 336.5,217.5C 335.108,216.395 333.941,215.061 333,213.5C 332.833,214 332.667,214.5 332.5,215C 334.147,219.131 336.147,222.964 338.5,226.5 Z"/></g>
<g><path style="opacity:1" fill="#6d3a2e" d="M 333.5,182.5 C 337.172,182.183 338.838,183.849 338.5,187.5C 339.833,187.5 341.167,187.5 342.5,187.5C 342.281,188.675 342.614,189.675 343.5,190.5C 343.911,189.738 344.077,188.738 344,187.5C 344.333,187.833 344.667,188.167 345,188.5C 345.417,187.244 346.25,186.577 347.5,186.5C 348.067,188.03 348.733,189.53 349.5,191C 346.153,191.68 344.153,193.68 343.5,197C 344.072,205.754 345.072,214.42 346.5,223C 345.288,224.107 345.621,224.607 347.5,224.5C 345.393,225.468 343.059,225.802 340.5,225.5C 340.343,224.127 340.51,222.793 341,221.5C 341.604,223.686 342.77,223.852 344.5,222C 342.5,220.667 340.5,219.333 338.5,218C 339.833,217.333 340.833,216.333 341.5,215C 340.256,214.544 339.423,215.044 339,216.5C 338.517,215.552 338.351,214.552 338.5,213.5C 339.552,213.649 340.552,213.483 341.5,213C 339.649,211.326 337.982,210.159 336.5,209.5C 337.737,208.719 338.737,207.719 339.5,206.5C 338.674,205.549 338.508,204.549 339,203.5C 339.333,203.833 339.667,204.167 340,204.5C 340.694,203.182 341.527,202.349 342.5,202C 341.922,200.189 341.422,198.355 341,196.5C 339.391,195.853 337.891,195.02 336.5,194C 338.004,192.663 339.004,190.996 339.5,189C 337.893,187.951 337.227,186.451 337.5,184.5C 336.127,184.343 334.793,184.51 333.5,185C 336.993,186.088 337.159,187.255 334,188.5C 333.5,187.333 332.667,186.5 331.5,186C 332.085,184.698 332.751,183.531 333.5,182.5 Z"/></g>
<g><path style="opacity:1" fill="#8c675e" d="M 385.5,182.5 C 390.288,194.002 392.955,206.002 393.5,218.5C 392.677,221.977 392.177,225.644 392,229.5C 391.333,228.833 390.667,228.167 390,227.5C 388.951,229.107 387.451,229.773 385.5,229.5C 385.25,228.078 384.417,227.078 383,226.5C 381.293,227.138 379.46,227.138 377.5,226.5C 377.5,226.167 377.5,225.833 377.5,225.5C 377.833,225.5 378.167,225.5 378.5,225.5C 380.857,225.663 383.19,225.497 385.5,225C 383.616,224.784 381.949,224.117 380.5,223C 383.675,223.053 386.342,222.22 388.5,220.5C 389.097,220.265 389.43,219.765 389.5,219C 388.944,217.989 388.278,217.156 387.5,216.5C 387.58,210.531 386.58,204.531 384.5,198.5C 384.143,194.76 382.81,191.427 380.5,188.5C 381.098,187.205 381.598,185.872 382,184.5C 382.333,185.5 382.667,186.5 383,187.5C 383.635,185.365 383.301,183.365 382,181.5C 381.667,182.167 381.333,182.833 381,183.5C 380.362,182.391 379.862,181.225 379.5,180C 379.944,178.238 380.444,178.405 381,180.5C 381.579,179.072 381.412,177.738 380.5,176.5C 381.117,176.389 381.617,176.056 382,175.5C 382.67,178.174 383.837,180.507 385.5,182.5 Z"/></g>
<g><path style="opacity:0.22" fill="#e8dcdb" d="M 393.5,198.5 C 397.911,210.534 399.578,222.868 398.5,235.5C 397.633,223.039 395.966,210.706 393.5,198.5 Z"/></g>
<g><path style="opacity:1" fill="#5b3930" d="M 375.5,204.5 C 375.539,205.583 375.873,206.583 376.5,207.5C 381.23,211.227 385.23,215.56 388.5,220.5C 386.342,222.22 383.675,223.053 380.5,223C 381.949,224.117 383.616,224.784 385.5,225C 383.19,225.497 380.857,225.663 378.5,225.5C 377.791,224.596 376.791,224.263 375.5,224.5C 376.263,223.732 377.263,223.232 378.5,223C 376.709,222.585 375.376,221.585 374.5,220C 376.5,219.333 378.5,218.667 380.5,218C 379.416,215.175 378.249,215.008 377,217.5C 376,215.833 375,214.167 374,212.5C 373.282,213.451 372.449,213.617 371.5,213C 372.833,212.333 372.833,211.667 371.5,211C 372.833,210.667 374.167,210.333 375.5,210C 374.069,209.535 372.903,208.701 372,207.5C 371.138,209.087 370.471,210.754 370,212.5C 369.26,209.824 368.927,207.158 369,204.5C 369.71,205.973 370.876,206.64 372.5,206.5C 372.402,203.752 373.402,203.086 375.5,204.5 Z"/></g>
<g><path style="opacity:0.476" fill="#998c8b" d="M 312.5,208.5 C 313.117,208.611 313.617,208.944 314,209.5C 315.093,216.32 317.26,222.653 320.5,228.5C 321.117,228.611 321.617,228.944 322,229.5C 322.497,231.81 322.663,234.143 322.5,236.5C 320.526,234.572 319.026,232.239 318,229.5C 315.381,222.69 313.548,215.69 312.5,208.5 Z"/></g>
<g><path style="opacity:0.965" fill="#ab9790" d="M 385.5,179.5 C 388.95,185.519 391.616,191.852 393.5,198.5C 395.966,210.706 397.633,223.039 398.5,235.5C 397.791,236.404 396.791,236.737 395.5,236.5C 386.428,236.403 377.428,237.069 368.5,238.5C 369.263,237.732 370.263,237.232 371.5,237C 367.312,236.824 363.312,236.324 359.5,235.5C 372.167,235.5 384.833,235.5 397.5,235.5C 396.943,230.948 395.943,226.615 394.5,222.5C 394.768,220.901 394.434,219.568 393.5,218.5C 392.955,206.002 390.288,194.002 385.5,182.5C 385.5,181.5 385.5,180.5 385.5,179.5 Z"/></g>
<g><path style="opacity:1" fill="#b2928b" d="M 335.5,226.5 C 337.278,228.829 338.278,231.496 338.5,234.5C 337.5,234.5 336.5,234.5 335.5,234.5C 331.891,227.61 329.725,220.276 329,212.5C 330.924,217.344 333.09,222.01 335.5,226.5 Z"/></g>
<g><path style="opacity:1" fill="#77473b" d="M 393.5,218.5 C 394.434,219.568 394.768,220.901 394.5,222.5C 395.226,226.679 395.226,230.679 394.5,234.5C 394.649,233.448 394.483,232.448 394,231.5C 391.211,231.412 388.378,231.746 385.5,232.5C 385.5,231.5 385.5,230.5 385.5,229.5C 387.451,229.773 388.951,229.107 390,227.5C 390.667,228.167 391.333,228.833 392,229.5C 392.177,225.644 392.677,221.977 393.5,218.5 Z"/></g>
<g><path style="opacity:0.985" fill="#73534e" d="M 302.5,141.5 C 307.05,144.378 310.05,148.378 311.5,153.5C 312.711,156.926 314.044,160.259 315.5,163.5C 314.2,165.223 313.533,167.39 313.5,170C 313.667,172.167 313.833,174.333 314,176.5C 315.122,178.42 315.956,180.42 316.5,182.5C 317.763,196.275 319.597,209.942 322,223.5C 324.312,226.458 325.812,229.791 326.5,233.5C 327.386,232.675 327.719,231.675 327.5,230.5C 328.404,231.209 328.737,232.209 328.5,233.5C 330.277,233.786 331.944,234.453 333.5,235.5C 334.416,235.457 335.083,235.124 335.5,234.5C 336.5,234.5 337.5,234.5 338.5,234.5C 338.278,231.496 337.278,228.829 335.5,226.5C 336.5,226.5 337.5,226.5 338.5,226.5C 339.593,228.349 340.926,230.016 342.5,231.5C 342.423,232.75 341.756,233.583 340.5,234C 354.829,234.5 369.163,234.667 383.5,234.5C 387.167,234.5 390.833,234.5 394.5,234.5C 395.226,230.679 395.226,226.679 394.5,222.5C 395.943,226.615 396.943,230.948 397.5,235.5C 384.833,235.5 372.167,235.5 359.5,235.5C 349.459,235.504 339.459,236.171 329.5,237.5C 327.117,237.363 324.783,237.029 322.5,236.5C 322.663,234.143 322.497,231.81 322,229.5C 321.617,228.944 321.117,228.611 320.5,228.5C 320.142,224.491 319.642,220.491 319,216.5C 316.164,208.163 314.164,199.83 313,191.5C 312.941,182.06 312.108,172.727 310.5,163.5C 309.5,163.5 308.5,163.5 307.5,163.5C 307.25,158.289 306.083,153.289 304,148.5C 302.054,147.253 300.22,145.92 298.5,144.5C 299.742,142.544 301.075,141.544 302.5,141.5 Z"/></g>
<g><path style="opacity:1" fill="#662f26" d="M 377.5,226.5 C 379.46,227.138 381.293,227.138 383,226.5C 384.417,227.078 385.25,228.078 385.5,229.5C 385.5,230.5 385.5,231.5 385.5,232.5C 388.378,231.746 391.211,231.412 394,231.5C 394.483,232.448 394.649,233.448 394.5,234.5C 390.833,234.5 387.167,234.5 383.5,234.5C 382.166,230.006 379.833,229.506 376.5,233C 371.136,233.829 365.802,233.663 360.5,232.5C 364.857,231.592 369.19,230.592 373.5,229.5C 375.184,228.85 376.517,227.85 377.5,226.5 Z"/></g>
<g><path style="opacity:1" fill="#421610" d="M 377.5,226.5 C 376.517,227.85 375.184,228.85 373.5,229.5C 369.19,230.592 364.857,231.592 360.5,232.5C 365.802,233.663 371.136,233.829 376.5,233C 379.833,229.506 382.166,230.006 383.5,234.5C 369.163,234.667 354.829,234.5 340.5,234C 341.756,233.583 342.423,232.75 342.5,231.5C 346.972,233.216 351.638,233.882 356.5,233.5C 356.527,231.801 357.194,230.467 358.5,229.5C 364.643,228.78 370.977,227.78 377.5,226.5 Z"/></g>
<g><path style="opacity:1" fill="#7c4b40" d="M 377.5,225.5 C 377.5,225.833 377.5,226.167 377.5,226.5C 370.977,227.78 364.643,228.78 358.5,229.5C 356.394,228.217 354.06,227.384 351.5,227C 351.833,226.667 352.167,226.333 352.5,226C 360.827,225.5 369.16,225.334 377.5,225.5 Z"/></g>
<g><path style="opacity:0.302" fill="#857975" d="M 359.5,235.5 C 363.312,236.324 367.312,236.824 371.5,237C 370.263,237.232 369.263,237.732 368.5,238.5C 354.323,238.171 340.323,238.504 326.5,239.5C 324.77,238.974 323.436,237.974 322.5,236.5C 324.783,237.029 327.117,237.363 329.5,237.5C 339.459,236.171 349.459,235.504 359.5,235.5 Z"/></g>
<g><path style="opacity:0.102" fill="#d0ccc7" d="M 395.5,236.5 C 394.391,237.29 393.058,237.79 391.5,238C 369.822,239.656 348.155,240.156 326.5,239.5C 340.323,238.504 354.323,238.171 368.5,238.5C 377.428,237.069 386.428,236.403 395.5,236.5 Z"/></g>
</svg>
