<?xml version="1.0" encoding="UTF-8"?>
<!DOCTYPE svg PUBLIC "-//W3C//DTD SVG 1.1//EN" "http://www.w3.org/Graphics/SVG/1.1/DTD/svg11.dtd">
<svg xmlns="http://www.w3.org/2000/svg" version="1.1" width="410px" height="83px" style="shape-rendering:geometricPrecision; text-rendering:geometricPrecision; image-rendering:optimizeQuality; fill-rule:evenodd; clip-rule:evenodd" xmlns:xlink="http://www.w3.org/1999/xlink">
<g><path style="opacity:0.847" fill="#aeaeb1" d="M 165.5,-0.5 C 166.167,-0.5 166.833,-0.5 167.5,-0.5C 167.5,0.5 167.5,1.5 167.5,2.5C 174.049,3.06404 180.549,3.7307 187,4.5C 193.892,3.95007 200.725,3.61674 207.5,3.5C 209.333,3.58544 210.666,4.2521 211.5,5.5C 194.1,5.92103 176.767,5.25437 159.5,3.5C 161.265,2.53862 163.265,2.20528 165.5,2.5C 165.5,1.5 165.5,0.5 165.5,-0.5 Z"/></g>
<g><path style="opacity:1" fill="#424245" d="M 159.5,3.5 C 176.767,5.25437 194.1,5.92103 211.5,5.5C 211.5,5.83333 211.5,6.16667 211.5,6.5C 203.361,7.8314 194.861,8.49807 186,8.5C 177.5,8.33333 169,8.16667 160.5,8C 159.944,7.61742 159.611,7.11742 159.5,6.5C 159.5,5.5 159.5,4.5 159.5,3.5 Z"/></g>
<g><path style="opacity:1" fill="#252628" d="M 206.5,11.5 C 206.158,12.3382 205.492,12.6716 204.5,12.5C 195.664,12.0314 186.997,12.5314 178.5,14C 187.16,14.4998 195.827,14.6664 204.5,14.5C 205.675,14.281 206.675,14.6143 207.5,15.5C 198.184,16.3321 188.851,16.8321 179.5,17C 188.343,17.1704 197.01,17.6704 205.5,18.5C 197.245,19.6344 188.912,19.801 180.5,19C 179.584,18.6258 178.75,18.1258 178,17.5C 177.505,15.5273 177.338,13.5273 177.5,11.5C 178.289,11.2172 178.956,10.7172 179.5,10C 187.833,9.33333 196.167,9.33333 204.5,10C 205.416,10.2784 206.082,10.7784 206.5,11.5 Z"/></g>
<g><path style="opacity:1" fill="#a5a8af" d="M 159.5,6.5 C 159.611,7.11742 159.944,7.61742 160.5,8C 169,8.16667 177.5,8.33333 186,8.5C 194.861,8.49807 203.361,7.8314 211.5,6.5C 228.432,8.05436 245.432,8.88769 262.5,9C 294.832,9.49998 327.165,9.66665 359.5,9.5C 359.5,10.5 359.5,11.5 359.5,12.5C 310.833,12.5 262.167,12.5 213.5,12.5C 211.05,12.702 208.717,12.3686 206.5,11.5C 206.082,10.7784 205.416,10.2784 204.5,10C 196.167,9.33333 187.833,9.33333 179.5,10C 178.956,10.7172 178.289,11.2172 177.5,11.5C 168.161,11.3335 158.827,11.5002 149.5,12C 147.414,12.3153 145.414,12.8153 143.5,13.5C 140.934,13.3444 138.434,13.6777 136,14.5C 134.7,13.2927 133.2,12.6261 131.5,12.5C 140.144,7.83628 149.477,5.83628 159.5,6.5 Z"/></g>
<g><path style="opacity:1" fill="#6f6f75" d="M 409.5,10.5 C 409.5,12.5 409.5,14.5 409.5,16.5C 409.167,16.5 408.833,16.5 408.5,16.5C 407.343,11.8094 404.843,10.8094 401,13.5C 398.403,11.8012 395.57,10.8012 392.5,10.5C 392.5,11.5 392.5,12.5 392.5,13.5C 332.833,13.5 273.167,13.5 213.5,13.5C 213.5,13.1667 213.5,12.8333 213.5,12.5C 262.167,12.5 310.833,12.5 359.5,12.5C 359.5,11.5 359.5,10.5 359.5,9.5C 362.127,8.90843 364.794,8.5751 367.5,8.5C 367.082,9.22158 366.416,9.72158 365.5,10C 372.167,10.6667 378.833,10.6667 385.5,10C 384.39,7.74743 382.557,6.58077 380,6.5C 376.39,8.04171 372.556,8.70838 368.5,8.5C 370.292,7.69088 372.292,7.19088 374.5,7C 376.037,5.89037 376.703,4.39037 376.5,2.5C 379.127,3.09157 381.794,3.4249 384.5,3.5C 384.178,5.72241 384.845,7.55575 386.5,9C 394.245,9.19938 401.912,9.69938 409.5,10.5 Z"/></g>
<g><path style="opacity:1" fill="#423e42" d="M 367.5,8.5 C 367.833,8.5 368.167,8.5 368.5,8.5C 372.556,8.70838 376.39,8.04171 380,6.5C 382.557,6.58077 384.39,7.74743 385.5,10C 378.833,10.6667 372.167,10.6667 365.5,10C 366.416,9.72158 367.082,9.22158 367.5,8.5 Z"/></g>
<g><path style="opacity:1" fill="#898d96" d="M 204.5,12.5 C 204.5,13.1667 204.5,13.8333 204.5,14.5C 195.827,14.6664 187.16,14.4998 178.5,14C 186.997,12.5314 195.664,12.0314 204.5,12.5 Z"/></g>
<g><path style="opacity:1" fill="#4a494c" d="M 138.5,30.5 C 137.005,30.9887 135.671,31.6554 134.5,32.5C 124.99,33.1718 117.157,37.1718 111,44.5C 108.471,48.9008 105.971,53.2342 103.5,57.5C 98.2704,56.611 93.2704,55.2777 88.5,53.5C 92.8766,53.4225 97.2099,52.9225 101.5,52C 98.8323,51.433 96.1656,50.933 93.5,50.5C 93.2965,48.6096 93.9632,47.1096 95.5,46C 97.676,45.8371 99.5093,45.0037 101,43.5C 103.559,45.3357 104.225,47.6691 103,50.5C 109.821,35.462 121.321,28.1287 137.5,28.5C 136.833,24.8333 136.167,21.1667 135.5,17.5C 133.833,17.5 132.167,17.5 130.5,17.5C 134.681,16.3396 139.015,15.3396 143.5,14.5C 149.061,14.0795 154.561,13.4129 160,12.5C 164.222,12.5591 168.389,13.0591 172.5,14C 173.899,15.0616 174.899,16.395 175.5,18C 173.052,19.6855 171.718,21.6855 171.5,24C 173.941,24.036 175.941,24.8693 177.5,26.5C 177.167,26.8333 176.833,27.1667 176.5,27.5C 175.131,25.876 173.464,25.376 171.5,26C 171.833,26.3333 172.167,26.6667 172.5,27C 167.5,27.1667 162.5,27.3333 157.5,27.5C 152.085,27.4715 146.918,26.8048 142,25.5C 141.29,26.9733 140.124,27.6399 138.5,27.5C 138.5,28.5 138.5,29.5 138.5,30.5 Z"/></g>
<g><path style="opacity:1" fill="#353335" d="M 408.5,16.5 C 408.5,17.1667 408.833,17.5 409.5,17.5C 409.5,17.8333 409.5,18.1667 409.5,18.5C 396.575,19.3146 383.575,19.8146 370.5,20C 377.401,20.128 384.068,20.9614 390.5,22.5C 371.058,21.8833 351.391,21.8833 331.5,22.5C 340.5,21.8333 349.5,21.1667 358.5,20.5C 350.891,19.4943 341.891,19.161 331.5,19.5C 329.61,19.2965 328.11,19.9632 327,21.5C 326.667,20.8333 326.333,20.1667 326,19.5C 324.989,20.3366 323.822,20.67 322.5,20.5C 322.804,19.8501 323.137,19.1835 323.5,18.5C 300.843,17.5003 278.176,17.167 255.5,17.5C 276.996,16.668 298.663,16.168 320.5,16C 297.761,15.1782 275.094,15.3449 252.5,16.5C 239.301,16.1603 226.301,15.1603 213.5,13.5C 273.167,13.5 332.833,13.5 392.5,13.5C 392.5,12.5 392.5,11.5 392.5,10.5C 395.57,10.8012 398.403,11.8012 401,13.5C 404.843,10.8094 407.343,11.8094 408.5,16.5 Z"/></g>
<g><path style="opacity:1" fill="#4b4b4c" d="M 206.5,11.5 C 208.717,12.3686 211.05,12.702 213.5,12.5C 213.5,12.8333 213.5,13.1667 213.5,13.5C 226.301,15.1603 239.301,16.1603 252.5,16.5C 239.677,17.4955 226.677,17.8288 213.5,17.5C 213.5,19.5 213.5,21.5 213.5,23.5C 226.458,25.4814 239.791,26.1481 253.5,25.5C 254.067,28.9114 252.734,30.9114 249.5,31.5C 237.5,31.5 225.5,31.5 213.5,31.5C 213.5,30.5 213.5,29.5 213.5,28.5C 208.464,28.9384 203.631,28.2717 199,26.5C 198.312,25.6683 198.479,25.0016 199.5,24.5C 201.902,22.5265 204.569,21.0265 207.5,20C 206.584,19.7216 205.918,19.2216 205.5,18.5C 197.01,17.6704 188.343,17.1704 179.5,17C 188.851,16.8321 198.184,16.3321 207.5,15.5C 206.675,14.6143 205.675,14.281 204.5,14.5C 204.5,13.8333 204.5,13.1667 204.5,12.5C 205.492,12.6716 206.158,12.3382 206.5,11.5 Z"/></g>
<g><path style="opacity:1" fill="#555557" d="M 177.5,11.5 C 177.338,13.5273 177.505,15.5273 178,17.5C 178.75,18.1258 179.584,18.6258 180.5,19C 188.912,19.801 197.245,19.6344 205.5,18.5C 205.918,19.2216 206.584,19.7216 207.5,20C 204.569,21.0265 201.902,22.5265 199.5,24.5C 198.479,25.0016 198.312,25.6683 199,26.5C 203.631,28.2717 208.464,28.9384 213.5,28.5C 213.5,29.5 213.5,30.5 213.5,31.5C 201.546,31.8504 189.213,31.8504 176.5,31.5C 164.011,30.5046 151.344,30.1713 138.5,30.5C 138.5,29.5 138.5,28.5 138.5,27.5C 140.124,27.6399 141.29,26.9733 142,25.5C 146.918,26.8048 152.085,27.4715 157.5,27.5C 162.5,27.3333 167.5,27.1667 172.5,27C 172.167,26.6667 171.833,26.3333 171.5,26C 173.464,25.376 175.131,25.876 176.5,27.5C 176.833,27.1667 177.167,26.8333 177.5,26.5C 175.941,24.8693 173.941,24.036 171.5,24C 171.718,21.6855 173.052,19.6855 175.5,18C 174.899,16.395 173.899,15.0616 172.5,14C 168.389,13.0591 164.222,12.5591 160,12.5C 154.561,13.4129 149.061,14.0795 143.5,14.5C 143.5,14.1667 143.5,13.8333 143.5,13.5C 145.414,12.8153 147.414,12.3153 149.5,12C 158.827,11.5002 168.161,11.3335 177.5,11.5 Z"/></g>
<g><path style="opacity:1" fill="#78787c" d="M 131.5,12.5 C 133.2,12.6261 134.7,13.2927 136,14.5C 138.434,13.6777 140.934,13.3444 143.5,13.5C 143.5,13.8333 143.5,14.1667 143.5,14.5C 139.015,15.3396 134.681,16.3396 130.5,17.5C 128.044,19.4119 125.378,21.2452 122.5,23C 116.513,23.9982 110.513,24.8315 104.5,25.5C 100.138,27.4052 95.8044,27.7386 91.5,26.5C 91.5,25.1667 91.5,23.8333 91.5,22.5C 87.8691,22.1604 84.5358,22.9937 81.5,25C 58.1594,26.3338 34.8261,27.8338 11.5,29.5C 8.11614,29.4145 4.78281,29.0811 1.5,28.5C 1.61071,27.8826 1.94404,27.3826 2.5,27C 30.3363,24.9741 58.3363,22.8074 86.5,20.5C 92.2072,20.3465 97.7072,21.3465 103,23.5C 112.577,19.9585 122.077,16.2918 131.5,12.5 Z"/></g>
<g><path style="opacity:1" fill="#18181a" d="M 255.5,17.5 C 254.833,19.5 254.167,21.5 253.5,23.5C 240.167,23.5 226.833,23.5 213.5,23.5C 213.5,21.5 213.5,19.5 213.5,17.5C 226.677,17.8288 239.677,17.4955 252.5,16.5C 275.094,15.3449 297.761,15.1782 320.5,16C 298.663,16.168 276.996,16.668 255.5,17.5 Z"/></g>
<g><path style="opacity:1" fill="#6b6d72" d="M 213.5,23.5 C 226.833,23.5 240.167,23.5 253.5,23.5C 253.5,24.1667 253.5,24.8333 253.5,25.5C 239.791,26.1481 226.458,25.4814 213.5,23.5 Z"/></g>
<g><path style="opacity:1" fill="#66656a" d="M 390.5,22.5 C 393.196,28.6389 391.196,31.6389 384.5,31.5C 386.042,30.8365 387.709,30.1698 389.5,29.5C 390.246,28.2638 390.579,26.9305 390.5,25.5C 371.164,25.6666 351.83,25.5 332.5,25C 331.377,23.9563 330.044,23.2896 328.5,23C 329.448,22.5172 330.448,22.3505 331.5,22.5C 351.391,21.8833 371.058,21.8833 390.5,22.5 Z"/></g>
<g><path style="opacity:1" fill="#3d3b3d" d="M 255.5,17.5 C 278.176,17.167 300.843,17.5003 323.5,18.5C 323.137,19.1835 322.804,19.8501 322.5,20.5C 300.525,22.4894 278.192,23.156 255.5,22.5C 255.5,23.5 255.5,24.5 255.5,25.5C 275.985,24.7609 295.485,24.4276 314,24.5C 314.667,27.5 314.667,30.5 314,33.5C 313.617,34.056 313.117,34.3893 312.5,34.5C 293.164,34.6666 273.83,34.5 254.5,34C 253.167,33.3333 253.167,32.6667 254.5,32C 253.906,31.5357 253.239,31.369 252.5,31.5C 251.5,31.5 250.5,31.5 249.5,31.5C 252.734,30.9114 254.067,28.9114 253.5,25.5C 253.5,24.8333 253.5,24.1667 253.5,23.5C 254.167,21.5 254.833,19.5 255.5,17.5 Z"/></g>
<g><path style="opacity:1" fill="#4d4a4b" d="M 331.5,19.5 C 340.318,20.4933 349.318,20.8266 358.5,20.5C 349.5,21.1667 340.5,21.8333 331.5,22.5C 330.448,22.3505 329.448,22.5172 328.5,23C 330.044,23.2896 331.377,23.9563 332.5,25C 351.83,25.5 371.164,25.6666 390.5,25.5C 390.579,26.9305 390.246,28.2638 389.5,29.5C 387.709,30.1698 386.042,30.8365 384.5,31.5C 379.786,31.1734 375.12,31.5067 370.5,32.5C 368.585,34.0712 367.585,36.0712 367.5,38.5C 366.167,38.5 364.833,38.5 363.5,38.5C 362.801,36.0052 361.801,33.6719 360.5,31.5C 350.828,31.3335 341.161,31.5002 331.5,32C 327.866,32.1556 324.533,33.1556 321.5,35C 318.518,35.498 315.518,35.6646 312.5,35.5C 312.5,35.1667 312.5,34.8333 312.5,34.5C 313.117,34.3893 313.617,34.056 314,33.5C 314.667,30.5 314.667,27.5 314,24.5C 295.485,24.4276 275.985,24.7609 255.5,25.5C 255.5,24.5 255.5,23.5 255.5,22.5C 278.192,23.156 300.525,22.4894 322.5,20.5C 323.822,20.67 324.989,20.3366 326,19.5C 326.333,20.1667 326.667,20.8333 327,21.5C 328.11,19.9632 329.61,19.2965 331.5,19.5 Z"/></g>
<g><path style="opacity:1" fill="#59585b" d="M 104.5,25.5 C 105.952,26.3019 107.618,26.8019 109.5,27C 103.504,29.9266 97.5037,31.2599 91.5,31C 93.5951,30.4444 93.7618,29.9444 92,29.5C 90.0188,29.8985 88.5188,30.8985 87.5,32.5C 86.8333,32.5 86.1667,32.5 85.5,32.5C 82.0897,32.6162 80.7564,30.9496 81.5,27.5C 54.7959,29.515 28.1293,30.515 1.5,30.5C 1.5,29.8333 1.5,29.1667 1.5,28.5C 4.78281,29.0811 8.11614,29.4145 11.5,29.5C 34.8261,27.8338 58.1594,26.3338 81.5,25C 84.5358,22.9937 87.8691,22.1604 91.5,22.5C 91.5,23.8333 91.5,25.1667 91.5,26.5C 95.8044,27.7386 100.138,27.4052 104.5,25.5 Z"/></g>
<g><path style="opacity:1" fill="#3f3d3f" d="M 130.5,17.5 C 132.167,17.5 133.833,17.5 135.5,17.5C 136.167,21.1667 136.833,24.8333 137.5,28.5C 121.321,28.1287 109.821,35.462 103,50.5C 104.225,47.6691 103.559,45.3357 101,43.5C 99.5093,45.0037 97.676,45.8371 95.5,46C 93.9632,47.1096 93.2965,48.6096 93.5,50.5C 96.1656,50.933 98.8323,51.433 101.5,52C 97.2099,52.9225 92.8766,53.4225 88.5,53.5C 87.5084,53.6716 86.8417,53.3382 86.5,52.5C 88.7159,52.7254 90.3826,51.8921 91.5,50C 89.9272,46.2221 88.4272,42.3887 87,38.5C 84.8517,39.3045 83.0184,39.3045 81.5,38.5C 82.0354,36.7295 82.8687,36.3961 84,37.5C 84.6695,35.4098 85.8361,33.7432 87.5,32.5C 88.5188,30.8985 90.0188,29.8985 92,29.5C 93.7618,29.9444 93.5951,30.4444 91.5,31C 97.5037,31.2599 103.504,29.9266 109.5,27C 107.618,26.8019 105.952,26.3019 104.5,25.5C 110.513,24.8315 116.513,23.9982 122.5,23C 125.378,21.2452 128.044,19.4119 130.5,17.5 Z"/></g>
<g><path style="opacity:1" fill="#323233" d="M 138.5,30.5 C 151.344,30.1713 164.011,30.5046 176.5,31.5C 171.017,35.081 165.35,37.7477 159.5,39.5C 158.209,39.7373 157.209,39.404 156.5,38.5C 157.968,36.3891 157.635,34.5557 155.5,33C 152.5,32.3333 149.5,32.3333 146.5,33C 145.944,33.3826 145.611,33.8826 145.5,34.5C 143.901,34.2322 142.568,34.5655 141.5,35.5C 141.5,35.8333 141.5,36.1667 141.5,36.5C 140.978,38.2191 139.978,39.5525 138.5,40.5C 137.542,40.0472 136.708,39.3805 136,38.5C 135.685,36.4144 135.185,34.4144 134.5,32.5C 135.671,31.6554 137.005,30.9887 138.5,30.5 Z"/></g>
<g><path style="opacity:1" fill="#423f42" d="M 85.5,32.5 C 83.2573,33.0838 81.2573,34.2505 79.5,36C 78.2068,36.49 76.8734,36.6567 75.5,36.5C 75.719,37.675 75.3857,38.675 74.5,39.5C 75.1028,34.646 73.1028,33.4793 68.5,36C 67.2986,36.9025 66.4652,38.0692 66,39.5C 62.7432,35.617 59.0765,34.9504 55,37.5C 52.7289,34.4479 50.2289,34.1145 47.5,36.5C 46.5224,36.0233 45.6891,35.3567 45,34.5C 44.7811,35.938 44.2811,37.2713 43.5,38.5C 40.8655,36.4541 37.8655,35.2874 34.5,35C 26.4607,35.0705 18.4607,34.9038 10.5,34.5C 6.46318,34.6006 3.46318,36.2673 1.5,39.5C 0.166667,36.5 0.166667,33.5 1.5,30.5C 28.1293,30.515 54.7959,29.515 81.5,27.5C 80.7564,30.9496 82.0897,32.6162 85.5,32.5 Z"/></g>
<g><path style="opacity:0.131" fill="#7d7c7a" d="M 252.5,31.5 C 253.239,31.369 253.906,31.5357 254.5,32C 253.167,32.6667 253.167,33.3333 254.5,34C 273.83,34.5 293.164,34.6666 312.5,34.5C 312.5,34.8333 312.5,35.1667 312.5,35.5C 292.831,35.6666 273.164,35.5 253.5,35C 252.663,33.9887 252.33,32.8221 252.5,31.5 Z"/></g>
<g><path style="opacity:1" fill="#343333" d="M 10.5,35.5 C 15.1433,37.5009 19.81,38.5009 24.5,38.5C 25.727,39.5904 26.5604,40.9238 27,42.5C 27.5785,38.6137 28.4119,38.6137 29.5,42.5C 28.9747,43.1924 28.3081,43.6924 27.5,44C 29.108,44.658 30.2747,44.158 31,42.5C 32.5494,45.0026 34.2161,45.0026 36,42.5C 37.7141,43.9255 39.0475,43.5922 40,41.5C 40.6667,46.8333 41.3333,46.8333 42,41.5C 44.7344,42.3617 44.9011,43.195 42.5,44C 42.8346,45.5026 42.8346,46.836 42.5,48C 41.3474,49.883 39.6807,50.7163 37.5,50.5C 37.2627,51.791 37.596,52.791 38.5,53.5C 38.3932,55.3786 38.8932,55.7119 40,54.5C 43.346,57.1828 43.1794,58.5161 39.5,58.5C 40.376,59.2508 41.376,59.7508 42.5,60C 39.4054,62.4644 35.9054,63.9644 32,64.5C 31.6667,64.1667 31.3333,63.8333 31,63.5C 28.3049,65.0236 25.9715,67.0236 24,69.5C 19.1953,68.7975 16.6953,71.4642 16.5,77.5C 13.0967,79.24 9.43005,80.0733 5.5,80C 4.74756,79.3292 4.41423,78.4959 4.5,77.5C 6.11709,76.4107 6.95042,74.744 7,72.5C 9.45903,75.1003 11.959,75.1003 14.5,72.5C 15.0248,69.2217 15.1915,65.8884 15,62.5C 15.4244,66.19 16.2577,66.3567 17.5,63C 15.1751,61.1781 14.8418,59.0115 16.5,56.5C 16.1012,54.8034 15.6012,53.1368 15,51.5C 14.3333,52.1667 13.6667,52.8333 13,53.5C 12.6393,50.4748 12.1393,47.4748 11.5,44.5C 11.7576,42.3703 12.091,40.2036 12.5,38C 11.244,37.5831 10.5774,36.7498 10.5,35.5 Z"/></g>
<g><path style="opacity:1" fill="#3b3839" d="M 85.5,32.5 C 86.1667,32.5 86.8333,32.5 87.5,32.5C 85.8361,33.7432 84.6695,35.4098 84,37.5C 82.8687,36.3961 82.0354,36.7295 81.5,38.5C 83.0184,39.3045 84.8517,39.3045 87,38.5C 88.4272,42.3887 89.9272,46.2221 91.5,50C 90.3826,51.8921 88.7159,52.7254 86.5,52.5C 86.1667,52.5 85.8333,52.5 85.5,52.5C 84.962,50.8828 84.6287,49.2161 84.5,47.5C 80.1667,47.5 75.8333,47.5 71.5,47.5C 71.5,48.8333 71.5,50.1667 71.5,51.5C 69.4727,51.3379 67.4727,51.5045 65.5,52C 63.9707,53.8618 62.1374,55.3618 60,56.5C 59.5,56.1667 59,55.8333 58.5,55.5C 58.9702,53.2262 59.9702,51.2262 61.5,49.5C 60.0977,48.1575 60.4311,47.3242 62.5,47C 60.45,46.4745 58.6166,45.6411 57,44.5C 52.0169,50.4142 45.8502,53.4142 38.5,53.5C 37.596,52.791 37.2627,51.791 37.5,50.5C 39.6807,50.7163 41.3474,49.883 42.5,48C 42.8346,46.836 42.8346,45.5026 42.5,44C 44.9011,43.195 44.7344,42.3617 42,41.5C 41.3333,46.8333 40.6667,46.8333 40,41.5C 39.0475,43.5922 37.7141,43.9255 36,42.5C 34.2161,45.0026 32.5494,45.0026 31,42.5C 30.2747,44.158 29.108,44.658 27.5,44C 28.3081,43.6924 28.9747,43.1924 29.5,42.5C 28.4119,38.6137 27.5785,38.6137 27,42.5C 26.5604,40.9238 25.727,39.5904 24.5,38.5C 19.81,38.5009 15.1433,37.5009 10.5,35.5C 10.5,35.1667 10.5,34.8333 10.5,34.5C 18.4607,34.9038 26.4607,35.0705 34.5,35C 37.8655,35.2874 40.8655,36.4541 43.5,38.5C 44.2811,37.2713 44.7811,35.938 45,34.5C 45.6891,35.3567 46.5224,36.0233 47.5,36.5C 50.2289,34.1145 52.7289,34.4479 55,37.5C 59.0765,34.9504 62.7432,35.617 66,39.5C 66.4652,38.0692 67.2986,36.9025 68.5,36C 73.1028,33.4793 75.1028,34.646 74.5,39.5C 75.3857,38.675 75.719,37.675 75.5,36.5C 76.8734,36.6567 78.2068,36.49 79.5,36C 81.2573,34.2505 83.2573,33.0838 85.5,32.5 Z"/></g>
<g><path style="opacity:0.759" fill="#5e5e5e" d="M 141.5,35.5 C 142.568,34.5655 143.901,34.2322 145.5,34.5C 143.799,38.0943 144.966,40.0943 149,40.5C 151.665,40.332 154.165,39.6653 156.5,38.5C 157.209,39.404 158.209,39.7373 159.5,39.5C 159.389,40.1174 159.056,40.6174 158.5,41C 151.584,44.4481 144.917,44.2815 138.5,40.5C 139.978,39.5525 140.978,38.2191 141.5,36.5C 142.423,39.8056 142.423,39.4723 141.5,35.5 Z"/></g>
<g><path style="opacity:1" fill="#413e3e" d="M 85.5,52.5 C 84.5416,52.0472 83.7083,51.3805 83,50.5C 60.6419,60.1319 38.4752,69.1319 16.5,77.5C 16.6953,71.4642 19.1953,68.7975 24,69.5C 25.9715,67.0236 28.3049,65.0236 31,63.5C 31.3333,63.8333 31.6667,64.1667 32,64.5C 35.9054,63.9644 39.4054,62.4644 42.5,60C 41.376,59.7508 40.376,59.2508 39.5,58.5C 43.1794,58.5161 43.346,57.1828 40,54.5C 38.8932,55.7119 38.3932,55.3786 38.5,53.5C 45.8502,53.4142 52.0169,50.4142 57,44.5C 58.6166,45.6411 60.45,46.4745 62.5,47C 60.4311,47.3242 60.0977,48.1575 61.5,49.5C 59.9702,51.2262 58.9702,53.2262 58.5,55.5C 59,55.8333 59.5,56.1667 60,56.5C 62.1374,55.3618 63.9707,53.8618 65.5,52C 67.4727,51.5045 69.4727,51.3379 71.5,51.5C 71.5,50.1667 71.5,48.8333 71.5,47.5C 75.8333,47.5 80.1667,47.5 84.5,47.5C 84.6287,49.2161 84.962,50.8828 85.5,52.5 Z"/></g>
<g><path style="opacity:1" fill="#252425" d="M 10.5,34.5 C 10.5,34.8333 10.5,35.1667 10.5,35.5C 10.5774,36.7498 11.244,37.5831 12.5,38C 12.091,40.2036 11.7576,42.3703 11.5,44.5C 12.1393,47.4748 12.6393,50.4748 13,53.5C 13.6667,52.8333 14.3333,52.1667 15,51.5C 15.6012,53.1368 16.1012,54.8034 16.5,56.5C 14.8418,59.0115 15.1751,61.1781 17.5,63C 16.2577,66.3567 15.4244,66.19 15,62.5C 15.1915,65.8884 15.0248,69.2217 14.5,72.5C 11.959,75.1003 9.45903,75.1003 7,72.5C 6.95042,74.744 6.11709,76.4107 4.5,77.5C 4.05132,64.7829 3.05132,52.1163 1.5,39.5C 3.46318,36.2673 6.46318,34.6006 10.5,34.5 Z"/></g>
</svg>
