<?xml version="1.0" encoding="UTF-8"?>
<!DOCTYPE svg PUBLIC "-//W3C//DTD SVG 1.1//EN" "http://www.w3.org/Graphics/SVG/1.1/DTD/svg11.dtd">
<svg xmlns="http://www.w3.org/2000/svg" version="1.1" width="410px" height="199px" style="shape-rendering:geometricPrecision; text-rendering:geometricPrecision; image-rendering:optimizeQuality; fill-rule:evenodd; clip-rule:evenodd" xmlns:xlink="http://www.w3.org/1999/xlink">
<g><path style="opacity:0.208" fill="#f9aead" d="M 14.5,1.5 C 17.1522,1.40953 19.4855,2.07619 21.5,3.5C 18.8478,3.59047 16.5145,2.92381 14.5,1.5 Z"/></g>
<g><path style="opacity:1" fill="#c8423a" d="M 14.5,1.5 C 16.5145,2.92381 18.8478,3.59047 21.5,3.5C 21.8333,3.5 22.1667,3.5 22.5,3.5C 22.0296,4.69348 21.0296,5.36015 19.5,5.5C 16.6259,5.06333 13.9592,4.06333 11.5,2.5C 12.325,1.61432 13.325,1.28099 14.5,1.5 Z"/></g>
<g><path style="opacity:1" fill="#363130" d="M 286.5,10.5 C 286.5,10.8333 286.5,11.1667 286.5,11.5C 282.051,13.2285 278.384,12.2285 275.5,8.5C 275.167,8.5 274.833,8.5 274.5,8.5C 269.015,7.67284 263.348,7.17284 257.5,7C 262.5,6.66667 267.5,6.33333 272.5,6C 273.756,5.58309 274.423,4.74975 274.5,3.5C 274.833,3.5 275.167,3.5 275.5,3.5C 277.833,3.5 280.167,3.5 282.5,3.5C 282.833,-0.5 283.167,-0.5 283.5,3.5C 284.5,3.5 285.5,3.5 286.5,3.5C 286.5,5.83333 286.5,8.16667 286.5,10.5 Z"/></g>
<g><path style="opacity:1" fill="#5e5552" d="M 14.5,1.5 C 13.325,1.28099 12.325,1.61432 11.5,2.5C 13.9592,4.06333 16.6259,5.06333 19.5,5.5C 21.0296,5.36015 22.0296,4.69348 22.5,3.5C 25.0673,3.72148 27.4006,4.38815 29.5,5.5C 21.2312,7.46978 12.5645,8.13644 3.5,7.5C 3.5,6.83333 3.5,6.16667 3.5,5.5C 3.2965,3.60963 3.96317,2.10963 5.5,1C 8.69646,0.195489 11.6965,0.362156 14.5,1.5 Z"/></g>
<g><path style="opacity:0.529" fill="#9a9896" d="M 281.5,-0.5 C 282.833,-0.5 284.167,-0.5 285.5,-0.5C 286.642,2.06465 287.642,4.73131 288.5,7.5C 288.315,8.58365 287.982,9.58365 287.5,10.5C 287.167,10.5 286.833,10.5 286.5,10.5C 286.5,8.16667 286.5,5.83333 286.5,3.5C 285.5,3.5 284.5,3.5 283.5,3.5C 283.167,-0.5 282.833,-0.5 282.5,3.5C 280.167,3.5 277.833,3.5 275.5,3.5C 276.952,2.69808 278.618,2.19808 280.5,2C 281.252,1.32924 281.586,0.495904 281.5,-0.5 Z"/></g>
<g><path style="opacity:0.98" fill="#67615e" d="M 274.5,3.5 C 274.423,4.74975 273.756,5.58309 272.5,6C 267.5,6.33333 262.5,6.66667 257.5,7C 263.348,7.17284 269.015,7.67284 274.5,8.5C 262.322,8.82841 250.322,8.49508 238.5,7.5C 249.452,6.16019 260.452,5.32686 271.5,5C 272.527,4.48672 273.527,3.98672 274.5,3.5 Z"/></g>
<g><path style="opacity:0.313" fill="#eae4de" d="M 30.5,5.5 C 99.8136,8.19934 169.147,8.86601 238.5,7.5C 250.322,8.49508 262.322,8.82841 274.5,8.5C 274.833,8.5 275.167,8.5 275.5,8.5C 265.422,8.88418 255.422,9.88418 245.5,11.5C 243.777,10.1999 241.61,9.53323 239,9.5C 231.826,10.8288 224.66,12.3288 217.5,14C 210.5,14.3333 203.5,14.6667 196.5,15C 194.003,15.4117 192.003,16.5784 190.5,18.5C 196.654,19.1668 202.654,19.8334 208.5,20.5C 200.169,20.8844 191.836,21.2177 183.5,21.5C 183.343,20.1266 183.51,18.7932 184,17.5C 186.583,16.1258 189.083,14.6258 191.5,13C 200.833,12.6667 210.167,12.3333 219.5,12C 222.167,11.3333 224.833,10.6667 227.5,10C 215.5,9.33333 203.5,9.33333 191.5,10C 189.167,11.8333 186.833,13.6667 184.5,15.5C 183.614,14.675 183.281,13.675 183.5,12.5C 185.09,12.3718 186.423,11.7051 187.5,10.5C 187,10.1667 186.5,9.83333 186,9.5C 159.999,9.5263 133.833,9.5263 107.5,9.5C 82.8212,9.61676 58.1545,9.11676 33.5,8C 31.8807,7.76445 30.8807,6.93112 30.5,5.5 Z"/></g>
<g><path style="opacity:1" fill="#d8cdc5" d="M 29.5,5.5 C 29.8333,5.5 30.1667,5.5 30.5,5.5C 30.8807,6.93112 31.8807,7.76445 33.5,8C 58.1545,9.11676 82.8212,9.61676 107.5,9.5C 107.5,9.83333 107.5,10.1667 107.5,10.5C 97.6522,10.1729 87.9856,10.5062 78.5,11.5C 53.2588,11.1721 28.0921,11.5054 3,12.5C 2.61553,10.8034 2.78219,9.13676 3.5,7.5C 12.5645,8.13644 21.2312,7.46978 29.5,5.5 Z"/></g>
<g><path style="opacity:1" fill="#c8bdb2" d="M 275.5,8.5 C 278.384,12.2285 282.051,13.2285 286.5,11.5C 286.547,14.5682 287.047,17.5682 288,20.5C 288.417,21.756 289.25,22.4226 290.5,22.5C 290.662,24.5273 290.495,26.5273 290,28.5C 288.113,23.4216 285.28,19.0883 281.5,15.5C 279.922,14.7022 278.256,14.2022 276.5,14C 274.079,10.4285 271.412,10.7619 268.5,15C 269.623,16.0437 270.956,16.7104 272.5,17C 271.733,20.8998 270.733,24.7331 269.5,28.5C 271.167,28.5 272.833,28.5 274.5,28.5C 274.5,33.5 274.5,38.5 274.5,43.5C 278.908,43.938 280.575,41.938 279.5,37.5C 279.435,37.0618 279.601,36.7284 280,36.5C 282.228,38.1134 284.728,38.78 287.5,38.5C 287.5,39.5 287.5,40.5 287.5,41.5C 285.167,41.5 282.833,41.5 280.5,41.5C 280.5,42.5 280.5,43.5 280.5,44.5C 281.791,44.2627 282.791,44.596 283.5,45.5C 282.5,45.5 281.5,45.5 280.5,45.5C 280.135,50.229 278.635,54.5624 276,58.5C 275.333,59.8333 274.667,59.8333 274,58.5C 273.51,57.2068 273.343,55.8734 273.5,54.5C 273.666,48.8236 273.499,43.1569 273,37.5C 272.303,35.4156 271.136,33.7489 269.5,32.5C 267.468,33.0478 266.468,34.3812 266.5,36.5C 262.575,38.6047 258.575,38.9381 254.5,37.5C 254.5,36.5 254.5,35.5 254.5,34.5C 241.163,34.6666 227.829,34.4999 214.5,34C 228.869,34.1529 242.869,33.3195 256.5,31.5C 256.933,34.2589 258.6,35.5922 261.5,35.5C 261.5,34.1667 261.5,32.8333 261.5,31.5C 263.5,31.5 265.5,31.5 267.5,31.5C 268.272,27.5483 268.605,23.5483 268.5,19.5C 269.833,18.8333 269.833,18.1667 268.5,17.5C 267.01,15.7202 265.01,15.0535 262.5,15.5C 263.398,14.8423 264.398,14.1757 265.5,13.5C 258.679,12.8333 252.012,12.1666 245.5,11.5C 255.422,9.88418 265.422,8.88418 275.5,8.5 Z"/></g>
<g><path style="opacity:1" fill="#e3ded9" d="M 3.5,5.5 C 3.5,6.16667 3.5,6.83333 3.5,7.5C 2.78219,9.13676 2.61553,10.8034 3,12.5C 28.0921,11.5054 53.2588,11.1721 78.5,11.5C 87.0168,11.1739 95.3501,11.5073 103.5,12.5C 95.1667,12.5 86.8333,12.5 78.5,12.5C 78.5,13.8333 78.5,15.1667 78.5,16.5C 84.0111,16.0547 89.5111,15.388 95,14.5C 98.7343,14.8199 102.401,15.4866 106,16.5C 107.681,16.3917 108.848,15.7251 109.5,14.5C 111.412,15.7992 113.412,16.7992 115.5,17.5C 84.8334,18.0817 54.1667,18.2483 23.5,18C 24.4158,17.7216 25.0825,17.2216 25.5,16.5C 27.5706,15.1914 30.0706,14.5248 33,14.5C 37.8622,15.126 42.6955,15.7926 47.5,16.5C 47.5,15.5 47.5,14.5 47.5,13.5C 37.1667,12.1667 26.8333,12.1667 16.5,13.5C 16.5,14.5 16.5,15.5 16.5,16.5C 17.9516,17.3019 19.6183,17.8019 21.5,18C 14.9867,18.1721 8.65336,18.6721 2.5,19.5C 1.39105,19.5569 0.391047,19.8902 -0.5,20.5C -0.5,19.8333 -0.5,19.1667 -0.5,18.5C 0.330785,14.0134 1.66412,9.68008 3.5,5.5 Z"/></g>
<g><path style="opacity:1" fill="#e1d9d1" d="M 78.5,11.5 C 87.9856,10.5062 97.6522,10.1729 107.5,10.5C 131.836,10.3334 156.169,10.5 180.5,11C 166.837,11.4999 153.171,11.6666 139.5,11.5C 139.232,13.099 139.566,14.4324 140.5,15.5C 143.385,15.8064 146.052,15.4731 148.5,14.5C 153.214,14.1734 157.88,14.5067 162.5,15.5C 160.577,16.3078 158.577,16.8078 156.5,17C 142.837,17.4999 129.171,17.6666 115.5,17.5C 113.412,16.7992 111.412,15.7992 109.5,14.5C 108.082,12.6921 106.082,12.0254 103.5,12.5C 95.3501,11.5073 87.0168,11.1739 78.5,11.5 Z"/></g>
<g><path style="opacity:1" fill="#c4b7ac" d="M 245.5,11.5 C 252.012,12.1666 258.679,12.8333 265.5,13.5C 264.398,14.1757 263.398,14.8423 262.5,15.5C 245.174,16.1332 227.841,16.6332 210.5,17C 209.748,17.6708 209.414,18.5041 209.5,19.5C 209.5,22.8333 209.5,26.1667 209.5,29.5C 200.833,29.5 192.167,29.5 183.5,29.5C 183.5,29.1667 183.5,28.8333 183.5,28.5C 192.152,28.1994 200.485,27.1994 208.5,25.5C 208.5,23.8333 208.5,22.1667 208.5,20.5C 202.654,19.8334 196.654,19.1668 190.5,18.5C 192.003,16.5784 194.003,15.4117 196.5,15C 203.5,14.6667 210.5,14.3333 217.5,14C 224.66,12.3288 231.826,10.8288 239,9.5C 241.61,9.53323 243.777,10.1999 245.5,11.5 Z"/></g>
<g><path style="opacity:1" fill="#bcad9f" d="M 290.5,22.5 C 290.215,20.712 290.548,19.0453 291.5,17.5C 294.01,19.5111 296.343,21.6778 298.5,24C 299.448,24.4828 300.448,24.6495 301.5,24.5C 301.5,25.8333 301.5,27.1667 301.5,28.5C 301.366,30.2915 301.699,31.9582 302.5,33.5C 301.226,34.1894 301.226,35.0228 302.5,36C 307.939,37.7567 313.272,39.59 318.5,41.5C 318.833,41.5 319.167,41.5 319.5,41.5C 320.203,43.7157 321.536,45.549 323.5,47C 319.135,47.971 315.135,47.1377 311.5,44.5C 310.833,44.8333 310.167,45.1667 309.5,45.5C 302.425,42.4732 296.758,37.8065 292.5,31.5C 291.304,31.8457 291.304,32.3457 292.5,33C 289.5,33.3333 286.5,33.6667 283.5,34C 286.882,34.1764 290.215,34.6764 293.5,35.5C 290.985,36.1997 290.318,37.5331 291.5,39.5C 293.045,40.4519 294.712,40.7852 296.5,40.5C 296.5,41.5 296.5,42.5 296.5,43.5C 295.5,43.5 294.5,43.5 293.5,43.5C 293.719,44.675 293.386,45.675 292.5,46.5C 291.833,45.1667 291.167,43.8333 290.5,42.5C 289.914,42.7093 289.414,43.0426 289,43.5C 288.722,42.5842 288.222,41.9175 287.5,41.5C 287.5,40.5 287.5,39.5 287.5,38.5C 284.728,38.78 282.228,38.1134 280,36.5C 279.601,36.7284 279.435,37.0618 279.5,37.5C 278.087,34.3388 276.42,31.3388 274.5,28.5C 272.833,28.5 271.167,28.5 269.5,28.5C 270.733,24.7331 271.733,20.8998 272.5,17C 270.956,16.7104 269.623,16.0437 268.5,15C 271.412,10.7619 274.079,10.4285 276.5,14C 278.256,14.2022 279.922,14.7022 281.5,15.5C 285.28,19.0883 288.113,23.4216 290,28.5C 290.495,26.5273 290.662,24.5273 290.5,22.5 Z"/></g>
<g><path style="opacity:1" fill="#4a4139" d="M 16.5,13.5 C 18.7159,13.2746 20.3826,14.1079 21.5,16C 19.8659,16.4935 18.1992,16.6602 16.5,16.5C 16.5,15.5 16.5,14.5 16.5,13.5 Z"/></g>
<g><path style="opacity:1" fill="#cfc5bb" d="M 107.5,10.5 C 107.5,10.1667 107.5,9.83333 107.5,9.5C 133.833,9.5263 159.999,9.5263 186,9.5C 186.5,9.83333 187,10.1667 187.5,10.5C 186.423,11.7051 185.09,12.3718 183.5,12.5C 182.028,14.706 181.695,17.0393 182.5,19.5C 122.431,20.3818 62.431,20.3818 2.5,19.5C 8.65336,18.6721 14.9867,18.1721 21.5,18C 19.6183,17.8019 17.9516,17.3019 16.5,16.5C 18.1992,16.6602 19.8659,16.4935 21.5,16C 20.3826,14.1079 18.7159,13.2746 16.5,13.5C 26.8333,12.1667 37.1667,12.1667 47.5,13.5C 39.5,13.5 31.5,13.5 23.5,13.5C 23.2852,15.1788 23.9519,16.1788 25.5,16.5C 25.0825,17.2216 24.4158,17.7216 23.5,18C 54.1667,18.2483 84.8334,18.0817 115.5,17.5C 129.171,17.6666 142.837,17.4999 156.5,17C 158.577,16.8078 160.577,16.3078 162.5,15.5C 157.88,14.5067 153.214,14.1734 148.5,14.5C 150.81,13.8362 153.31,13.5029 156,13.5C 160.862,14.126 165.695,14.7926 170.5,15.5C 170.5,14.5 170.5,13.5 170.5,12.5C 160.5,12.5 150.5,12.5 140.5,12.5C 140.5,13.5 140.5,14.5 140.5,15.5C 139.566,14.4324 139.232,13.099 139.5,11.5C 153.171,11.6666 166.837,11.4999 180.5,11C 156.169,10.5 131.836,10.3334 107.5,10.5 Z"/></g>
<g><path style="opacity:1" fill="#746b65" d="M 103.5,12.5 C 106.082,12.0254 108.082,12.6921 109.5,14.5C 108.848,15.7251 107.681,16.3917 106,16.5C 102.401,15.4866 98.7343,14.8199 95,14.5C 89.5111,15.388 84.0111,16.0547 78.5,16.5C 78.5,15.1667 78.5,13.8333 78.5,12.5C 86.8333,12.5 95.1667,12.5 103.5,12.5 Z"/></g>
<g><path style="opacity:1" fill="#483e39" d="M 47.5,13.5 C 47.5,14.5 47.5,15.5 47.5,16.5C 42.6955,15.7926 37.8622,15.126 33,14.5C 30.0706,14.5248 27.5706,15.1914 25.5,16.5C 23.9519,16.1788 23.2852,15.1788 23.5,13.5C 31.5,13.5 39.5,13.5 47.5,13.5 Z"/></g>
<g><path style="opacity:1" fill="#544a42" d="M 148.5,14.5 C 146.052,15.4731 143.385,15.8064 140.5,15.5C 140.5,14.5 140.5,13.5 140.5,12.5C 150.5,12.5 160.5,12.5 170.5,12.5C 170.5,13.5 170.5,14.5 170.5,15.5C 165.695,14.7926 160.862,14.126 156,13.5C 153.31,13.5029 150.81,13.8362 148.5,14.5 Z"/></g>
<g><path style="opacity:1" fill="#817671" d="M 262.5,15.5 C 265.01,15.0535 267.01,15.7202 268.5,17.5C 267.508,17.3284 266.842,17.6618 266.5,18.5C 243.613,17.3321 231.613,17.6655 230.5,19.5C 225.349,20.3267 220.016,20.8267 214.5,21C 218.5,21.1667 222.5,21.3333 226.5,21.5C 232.098,21.7238 237.431,21.0571 242.5,19.5C 245.059,19.1984 247.393,19.5318 249.5,20.5C 242.39,21.9764 235.057,22.6431 227.5,22.5C 221.21,22.6314 215.21,21.6314 209.5,19.5C 209.414,18.5041 209.748,17.6708 210.5,17C 227.841,16.6332 245.174,16.1332 262.5,15.5 Z"/></g>
<g><path style="opacity:1" fill="#211a18" d="M 266.5,18.5 C 261.265,20.45 255.598,21.1167 249.5,20.5C 247.393,19.5318 245.059,19.1984 242.5,19.5C 238.5,19.5 234.5,19.5 230.5,19.5C 231.613,17.6655 243.613,17.3321 266.5,18.5 Z"/></g>
<g><path style="opacity:1" fill="#d8cec5" d="M 2.5,19.5 C 62.431,20.3818 122.431,20.3818 182.5,19.5C 182.5,20.5 182.5,21.5 182.5,22.5C 173.822,22.5841 165.155,22.9175 156.5,23.5C 132.167,23.5 107.833,23.5 83.5,23.5C 55.7131,24.1136 28.0464,23.4469 0.5,21.5C 0.186768,25.4126 0.853435,29.0793 2.5,32.5C 2.5,32.8333 2.5,33.1667 2.5,33.5C 1.41383,33.62 0.74716,34.2867 0.5,35.5C 1.54852,37.597 2.54852,39.597 3.5,41.5C 47.665,40.4132 91.665,40.4132 135.5,41.5C 91.1694,42.1235 46.836,42.4568 2.5,42.5C 2.26269,43.791 2.59603,44.791 3.5,45.5C 3.32842,46.4916 3.66175,47.1583 4.5,47.5C 3.89022,48.391 3.55688,49.391 3.5,50.5C 3.16667,50.5 2.83333,50.5 2.5,50.5C 2.19767,47.6275 1.53101,44.9608 0.5,42.5C 0.5,41.8333 0.166667,41.5 -0.5,41.5C -0.5,34.5 -0.5,27.5 -0.5,20.5C 0.391047,19.8902 1.39105,19.5569 2.5,19.5 Z"/></g>
<g><path style="opacity:0.925" fill="#e4e2dd" d="M 286.5,10.5 C 286.833,10.5 287.167,10.5 287.5,10.5C 287.511,12.0174 288.177,13.1841 289.5,14C 292.432,16.6145 295.599,18.7811 299,20.5C 302.689,18.7339 306.189,16.5672 309.5,14C 314.823,13.5006 320.156,13.334 325.5,13.5C 325.714,15.1439 325.38,16.6439 324.5,18C 320.416,18.231 316.416,18.8976 312.5,20C 308.765,22.8533 305.098,25.6867 301.5,28.5C 301.5,27.1667 301.5,25.8333 301.5,24.5C 300.448,24.6495 299.448,24.4828 298.5,24C 296.343,21.6778 294.01,19.5111 291.5,17.5C 290.548,19.0453 290.215,20.712 290.5,22.5C 289.25,22.4226 288.417,21.756 288,20.5C 287.047,17.5682 286.547,14.5682 286.5,11.5C 286.5,11.1667 286.5,10.8333 286.5,10.5 Z"/></g>
<g><path style="opacity:1" fill="#c9bfb6" d="M 83.5,23.5 C 107.833,23.5 132.167,23.5 156.5,23.5C 142.833,24.1667 129.167,24.8333 115.5,25.5C 114.522,25.811 113.855,26.4777 113.5,27.5C 124.146,28.4987 134.813,28.832 145.5,28.5C 126.642,29.8715 107.642,30.5381 88.5,30.5C 87.9653,28.5544 86.632,27.5544 84.5,27.5C 85.8264,25.8049 85.4931,24.4716 83.5,23.5 Z"/></g>
<g><path style="opacity:1" fill="#dfd9d3" d="M 268.5,19.5 C 268.605,23.5483 268.272,27.5483 267.5,31.5C 265.5,31.5 263.5,31.5 261.5,31.5C 261.5,32.8333 261.5,34.1667 261.5,35.5C 258.6,35.5922 256.933,34.2589 256.5,31.5C 242.496,31.3334 228.496,31.5001 214.5,32C 213.891,33.9483 213.224,35.7816 212.5,37.5C 212.586,33.1434 212.92,28.81 213.5,24.5C 231.594,24.5245 249.594,23.5245 267.5,21.5C 267.246,19.5992 267.58,18.9326 268.5,19.5 Z"/></g>
<g><path style="opacity:1" fill="#c5bbb2" d="M 83.5,23.5 C 85.4931,24.4716 85.8264,25.8049 84.5,27.5C 83.6587,28.0093 83.1587,27.3427 83,25.5C 82.0853,26.3279 81.4186,27.3279 81,28.5C 79.6667,25.8333 78.3333,25.8333 77,28.5C 75.3158,26.5406 73.3158,26.5406 71,28.5C 48.3969,26.5166 25.5635,25.8499 2.5,26.5C 2.5,27.5 2.5,28.5 2.5,29.5C 16.365,29.2666 30.0316,29.9332 43.5,31.5C 29.7844,31.2022 16.1177,31.5355 2.5,32.5C 0.853435,29.0793 0.186768,25.4126 0.5,21.5C 28.0464,23.4469 55.7131,24.1136 83.5,23.5 Z"/></g>
<g><path style="opacity:1" fill="#cfc5b8" d="M 208.5,20.5 C 208.5,22.1667 208.5,23.8333 208.5,25.5C 177.5,25.5 146.5,25.5 115.5,25.5C 129.167,24.8333 142.833,24.1667 156.5,23.5C 165.155,22.9175 173.822,22.5841 182.5,22.5C 182.5,21.5 182.5,20.5 182.5,19.5C 181.695,17.0393 182.028,14.706 183.5,12.5C 183.281,13.675 183.614,14.675 184.5,15.5C 186.833,13.6667 189.167,11.8333 191.5,10C 203.5,9.33333 215.5,9.33333 227.5,10C 224.833,10.6667 222.167,11.3333 219.5,12C 210.167,12.3333 200.833,12.6667 191.5,13C 189.083,14.6258 186.583,16.1258 184,17.5C 183.51,18.7932 183.343,20.1266 183.5,21.5C 191.836,21.2177 200.169,20.8844 208.5,20.5 Z"/></g>
<g><path style="opacity:1" fill="#e8e3dc" d="M 115.5,25.5 C 146.5,25.5 177.5,25.5 208.5,25.5C 200.485,27.1994 192.152,28.1994 183.5,28.5C 183.167,28.5 182.833,28.5 182.5,28.5C 170.167,28.5 157.833,28.5 145.5,28.5C 134.813,28.832 124.146,28.4987 113.5,27.5C 113.855,26.4777 114.522,25.811 115.5,25.5 Z"/></g>
<g><path style="opacity:1" fill="#e7e3dc" d="M 84.5,27.5 C 86.632,27.5544 87.9653,28.5544 88.5,30.5C 86.874,30.0617 85.2073,29.7284 83.5,29.5C 70.2058,30.895 56.8725,31.5616 43.5,31.5C 30.0316,29.9332 16.365,29.2666 2.5,29.5C 2.5,28.5 2.5,27.5 2.5,26.5C 25.5635,25.8499 48.3969,26.5166 71,28.5C 73.3158,26.5406 75.3158,26.5406 77,28.5C 78.3333,25.8333 79.6667,25.8333 81,28.5C 81.4186,27.3279 82.0853,26.3279 83,25.5C 83.1587,27.3427 83.6587,28.0093 84.5,27.5 Z"/></g>
<g><path style="opacity:1" fill="#837d7c" d="M 183.5,29.5 C 192.167,29.5 200.833,29.5 209.5,29.5C 209.5,30.5 209.5,31.5 209.5,32.5C 200.833,32.5 192.167,32.5 183.5,32.5C 183.5,31.5 183.5,30.5 183.5,29.5 Z"/></g>
<g><path style="opacity:1" fill="#928c87" d="M 145.5,28.5 C 157.833,28.5 170.167,28.5 182.5,28.5C 182.5,29.8333 182.5,31.1667 182.5,32.5C 122.501,33.0346 62.5014,33.3679 2.5,33.5C 2.5,33.1667 2.5,32.8333 2.5,32.5C 16.1177,31.5355 29.7844,31.2022 43.5,31.5C 56.8725,31.5616 70.2058,30.895 83.5,29.5C 85.2073,29.7284 86.874,30.0617 88.5,30.5C 107.642,30.5381 126.642,29.8715 145.5,28.5 Z"/></g>
<g><path style="opacity:1" fill="#423933" d="M 268.5,17.5 C 269.833,18.1667 269.833,18.8333 268.5,19.5C 267.58,18.9326 267.246,19.5992 267.5,21.5C 249.594,23.5245 231.594,24.5245 213.5,24.5C 212.92,28.81 212.586,33.1434 212.5,37.5C 212.715,39.1788 212.048,40.1788 210.5,40.5C 210.167,40.5 209.833,40.5 209.5,40.5C 209.5,37.8333 209.5,35.1667 209.5,32.5C 209.5,31.5 209.5,30.5 209.5,29.5C 209.5,26.1667 209.5,22.8333 209.5,19.5C 215.21,21.6314 221.21,22.6314 227.5,22.5C 235.057,22.6431 242.39,21.9764 249.5,20.5C 255.598,21.1167 261.265,20.45 266.5,18.5C 266.842,17.6618 267.508,17.3284 268.5,17.5 Z"/></g>
<g><path style="opacity:1" fill="#b6aea4" d="M 230.5,19.5 C 234.5,19.5 238.5,19.5 242.5,19.5C 237.431,21.0571 232.098,21.7238 226.5,21.5C 222.5,21.3333 218.5,21.1667 214.5,21C 220.016,20.8267 225.349,20.3267 230.5,19.5 Z"/></g>
<g><path style="opacity:1" fill="#c0b7b1" d="M 182.5,28.5 C 182.833,28.5 183.167,28.5 183.5,28.5C 183.5,28.8333 183.5,29.1667 183.5,29.5C 183.5,30.5 183.5,31.5 183.5,32.5C 192.167,32.5 200.833,32.5 209.5,32.5C 209.5,35.1667 209.5,37.8333 209.5,40.5C 209.5,42.5 209.5,44.5 209.5,46.5C 176.167,47.1667 176.167,47.8333 209.5,48.5C 209.5,50.1667 209.5,51.8333 209.5,53.5C 202.5,53.5 195.5,53.5 188.5,53.5C 194.319,52.6724 200.319,52.1724 206.5,52C 205.833,51.3333 205.167,50.6667 204.5,50C 188.505,49.9811 172.505,50.1478 156.5,50.5C 165.009,49.8334 173.676,49.1667 182.5,48.5C 173.19,47.5017 163.857,47.1684 154.5,47.5C 154.5,46.8333 154.5,46.1667 154.5,45.5C 164.167,45.5 173.833,45.5 183.5,45.5C 183.5,44.1667 183.5,42.8333 183.5,41.5C 182.167,41.5 180.833,41.5 179.5,41.5C 172.011,40.671 164.344,40.171 156.5,40C 157.167,39.3333 157.833,38.6667 158.5,38C 166.188,37.8315 173.855,37.3315 181.5,36.5C 181.062,35.4937 180.396,35.4937 179.5,36.5C 178.692,36.1924 178.025,35.6924 177.5,35C 169.485,34.6993 161.485,34.1993 153.5,33.5C 128.513,34.2956 103.513,34.7956 78.5,35C 84.1351,36.3255 89.8018,37.4922 95.5,38.5C 105.138,37.384 114.805,37.2173 124.5,38C 116.656,38.171 108.989,38.671 101.5,39.5C 70.5542,39.2462 39.5542,38.5796 8.5,37.5C 5.92335,37.7474 4.25668,39.0807 3.5,41.5C 2.54852,39.597 1.54852,37.597 0.5,35.5C 0.74716,34.2867 1.41383,33.62 2.5,33.5C 62.5014,33.3679 122.501,33.0346 182.5,32.5C 182.5,31.1667 182.5,29.8333 182.5,28.5 Z"/></g>
<g><path style="opacity:1" fill="#c5bcb4" d="M 179.5,41.5 C 171.5,41.5 163.5,41.5 155.5,41.5C 155.167,41.5 154.833,41.5 154.5,41.5C 137.031,39.7919 119.364,39.1252 101.5,39.5C 108.989,38.671 116.656,38.171 124.5,38C 114.805,37.2173 105.138,37.384 95.5,38.5C 89.8018,37.4922 84.1351,36.3255 78.5,35C 103.513,34.7956 128.513,34.2956 153.5,33.5C 161.485,34.1993 169.485,34.6993 177.5,35C 178.025,35.6924 178.692,36.1924 179.5,36.5C 180.396,35.4937 181.062,35.4937 181.5,36.5C 173.855,37.3315 166.188,37.8315 158.5,38C 157.833,38.6667 157.167,39.3333 156.5,40C 164.344,40.171 172.011,40.671 179.5,41.5 Z"/></g>
<g><path style="opacity:1" fill="#171210" d="M 269.5,32.5 C 271.136,33.7489 272.303,35.4156 273,37.5C 273.499,43.1569 273.666,48.8236 273.5,54.5C 272.691,56.0276 272.024,57.6943 271.5,59.5C 270.441,56.4841 269.441,53.3174 268.5,50C 268.603,48.4385 268.937,46.9385 269.5,45.5C 269.145,44.4777 268.478,43.811 267.5,43.5C 267.961,39.7878 268.627,36.1211 269.5,32.5 Z"/></g>
<g><path style="opacity:1" fill="#d0c7be" d="M 256.5,31.5 C 242.869,33.3195 228.869,34.1529 214.5,34C 227.829,34.4999 241.163,34.6666 254.5,34.5C 254.5,35.5 254.5,36.5 254.5,37.5C 250.154,37.3343 245.821,37.501 241.5,38C 243.727,38.704 244.06,39.8706 242.5,41.5C 232.442,40.86 222.775,41.5267 213.5,43.5C 212.122,45.9702 212.455,48.3035 214.5,50.5C 214.5,51.1667 214.5,51.8333 214.5,52.5C 215.036,55.6981 214.369,58.3647 212.5,60.5C 210.921,53.8555 210.254,47.1888 210.5,40.5C 212.048,40.1788 212.715,39.1788 212.5,37.5C 213.224,35.7816 213.891,33.9483 214.5,32C 228.496,31.5001 242.496,31.3334 256.5,31.5 Z"/></g>
<g><path style="opacity:0.165" fill="#ddd8d2" d="M 302.5,33.5 C 302.611,34.1174 302.944,34.6174 303.5,35C 309.346,35.548 314.346,37.7146 318.5,41.5C 313.272,39.59 307.939,37.7567 302.5,36C 301.226,35.0228 301.226,34.1894 302.5,33.5 Z"/></g>
<g><path style="opacity:1" fill="#b8aea6" d="M 101.5,39.5 C 119.364,39.1252 137.031,39.7919 154.5,41.5C 148.167,41.5 141.833,41.5 135.5,41.5C 91.665,40.4132 47.665,40.4132 3.5,41.5C 4.25668,39.0807 5.92335,37.7474 8.5,37.5C 39.5542,38.5796 70.5542,39.2462 101.5,39.5 Z"/></g>
<g><path style="opacity:1" fill="#150f0d" d="M 135.5,41.5 C 141.833,41.5 148.167,41.5 154.5,41.5C 154.833,41.5 155.167,41.5 155.5,41.5C 164.342,42.1666 173.342,42.8333 182.5,43.5C 172.773,44.8053 163.107,44.8053 153.5,43.5C 148.093,44.2401 142.76,44.2401 137.5,43.5C 137.773,45.451 137.107,46.951 135.5,48C 137.025,49.0086 138.692,49.5086 140.5,49.5C 139.081,50.4511 137.415,50.7845 135.5,50.5C 134.833,50.5 134.5,50.1667 134.5,49.5C 134.737,48.209 134.404,47.209 133.5,46.5C 133.5,45.8333 133.5,45.1667 133.5,44.5C 134.167,43.5 134.833,42.5 135.5,41.5 Z"/></g>
<g><path style="opacity:1" fill="#403934" d="M 155.5,41.5 C 163.5,41.5 171.5,41.5 179.5,41.5C 180.833,41.5 182.167,41.5 183.5,41.5C 183.5,42.8333 183.5,44.1667 183.5,45.5C 173.833,45.5 164.167,45.5 154.5,45.5C 153.662,45.1583 153.328,44.4916 153.5,43.5C 163.107,44.8053 172.773,44.8053 182.5,43.5C 173.342,42.8333 164.342,42.1666 155.5,41.5 Z"/></g>
<g><path style="opacity:1" fill="#948984" d="M 242.5,41.5 C 232.977,44.4747 223.31,45.1413 213.5,43.5C 222.775,41.5267 232.442,40.86 242.5,41.5 Z"/></g>
<g><path style="opacity:1" fill="#776d61" d="M 274.5,28.5 C 276.42,31.3388 278.087,34.3388 279.5,37.5C 280.575,41.938 278.908,43.938 274.5,43.5C 274.5,38.5 274.5,33.5 274.5,28.5 Z"/></g>
<g><path style="opacity:1" fill="#cec3b6" d="M 135.5,41.5 C 134.833,42.5 134.167,43.5 133.5,44.5C 89.9968,44.168 46.6635,44.5013 3.5,45.5C 2.59603,44.791 2.26269,43.791 2.5,42.5C 46.836,42.4568 91.1694,42.1235 135.5,41.5 Z"/></g>
<g><path style="opacity:1" fill="#e8e2da" d="M 133.5,44.5 C 133.5,45.1667 133.5,45.8333 133.5,46.5C 106.312,46.3231 79.1454,46.9898 52,48.5C 36.1723,47.855 20.339,47.5217 4.5,47.5C 3.66175,47.1583 3.32842,46.4916 3.5,45.5C 46.6635,44.5013 89.9968,44.168 133.5,44.5 Z"/></g>
<g><path style="opacity:1" fill="#d9d2ca" d="M 266.5,36.5 C 266.5,38.5 266.5,40.5 266.5,42.5C 264.833,42.5 263.167,42.5 261.5,42.5C 262.442,47.8054 262.609,53.1387 262,58.5C 260.958,53.5293 260.124,48.5293 259.5,43.5C 259.167,43.1667 258.833,42.8333 258.5,42.5C 256.343,43.0505 254.343,43.7171 252.5,44.5C 248.557,47.8351 243.89,49.6684 238.5,50C 230.507,50.4997 222.507,50.6664 214.5,50.5C 212.455,48.3035 212.122,45.9702 213.5,43.5C 223.31,45.1413 232.977,44.4747 242.5,41.5C 244.06,39.8706 243.727,38.704 241.5,38C 245.821,37.501 250.154,37.3343 254.5,37.5C 258.575,38.9381 262.575,38.6047 266.5,36.5 Z"/></g>
<g><path style="opacity:1" fill="#9f9993" d="M 133.5,46.5 C 134.404,47.209 134.737,48.209 134.5,49.5C 123.167,49.5 111.833,49.5 100.5,49.5C 68.1625,49.5105 35.8292,49.8438 3.5,50.5C 3.55688,49.391 3.89022,48.391 4.5,47.5C 20.339,47.5217 36.1723,47.855 52,48.5C 79.1454,46.9898 106.312,46.3231 133.5,46.5 Z"/></g>
<g><path style="opacity:1" fill="#8a7d73" d="M 153.5,43.5 C 153.328,44.4916 153.662,45.1583 154.5,45.5C 154.5,46.1667 154.5,46.8333 154.5,47.5C 153.662,47.8417 153.328,48.5084 153.5,49.5C 149.064,49.0577 144.731,49.0577 140.5,49.5C 138.692,49.5086 137.025,49.0086 135.5,48C 137.107,46.951 137.773,45.451 137.5,43.5C 142.76,44.2401 148.093,44.2401 153.5,43.5 Z"/></g>
<g><path style="opacity:1" fill="#b5a291" d="M 333.5,52.5 C 321.363,54.4211 311.53,60.4211 304,70.5C 302.391,73.4068 300.558,76.0734 298.5,78.5C 300.429,73.0706 302.596,67.7373 305,62.5C 306.99,63.3988 308.157,62.5655 308.5,60C 307.691,56.5241 305.524,54.3575 302,53.5C 301.517,54.448 301.351,55.448 301.5,56.5C 298.496,56.722 295.829,57.722 293.5,59.5C 292.691,58.5313 291.691,57.6979 290.5,57C 293.14,54.3604 295.806,51.6937 298.5,49C 298.272,48.6012 297.938,48.4346 297.5,48.5C 298.228,45.9205 298.728,43.2538 299,40.5C 308.92,48.9738 320.42,52.9738 333.5,52.5 Z"/></g>
<g><path style="opacity:1" fill="#130e0b" d="M 154.5,47.5 C 163.857,47.1684 173.19,47.5017 182.5,48.5C 173.676,49.1667 165.009,49.8334 156.5,50.5C 156.167,50.5 155.833,50.5 155.5,50.5C 154.508,50.6716 153.842,50.3382 153.5,49.5C 153.328,48.5084 153.662,47.8417 154.5,47.5 Z"/></g>
<g><path style="opacity:1" fill="#777474" d="M 252.5,44.5 C 254.167,44.5 255.833,44.5 257.5,44.5C 257.167,47.1667 256.833,49.8333 256.5,52.5C 242.5,52.5 228.5,52.5 214.5,52.5C 214.5,51.8333 214.5,51.1667 214.5,50.5C 222.507,50.6664 230.507,50.4997 238.5,50C 243.89,49.6684 248.557,47.8351 252.5,44.5 Z"/></g>
<g><path style="opacity:1" fill="#c6beb9" d="M 100.5,49.5 C 102.969,50.3171 105.635,50.8171 108.5,51C 101.292,51.4762 94.2924,51.3095 87.5,50.5C 80.1868,51.2271 72.8535,51.7271 65.5,52C 69.0252,52.1787 72.3586,52.6787 75.5,53.5C 51.1836,54.429 26.8503,54.7624 2.5,54.5C 2.5,53.1667 2.5,51.8333 2.5,50.5C 2.83333,50.5 3.16667,50.5 3.5,50.5C 35.8292,49.8438 68.1625,49.5105 100.5,49.5 Z"/></g>
<g><path style="opacity:1" fill="#c7c0bb" d="M 100.5,49.5 C 111.833,49.5 123.167,49.5 134.5,49.5C 134.5,50.1667 134.833,50.5 135.5,50.5C 142.167,51.8333 148.833,51.8333 155.5,50.5C 155.833,50.5 156.167,50.5 156.5,50.5C 172.505,50.1478 188.505,49.9811 204.5,50C 205.167,50.6667 205.833,51.3333 206.5,52C 200.319,52.1724 194.319,52.6724 188.5,53.5C 186.517,53.1568 185.183,53.8235 184.5,55.5C 184.167,55.5 183.833,55.5 183.5,55.5C 147.849,53.5064 111.849,52.8398 75.5,53.5C 72.3586,52.6787 69.0252,52.1787 65.5,52C 72.8535,51.7271 80.1868,51.2271 87.5,50.5C 94.2924,51.3095 101.292,51.4762 108.5,51C 105.635,50.8171 102.969,50.3171 100.5,49.5 Z"/></g>
<g><path style="opacity:1" fill="#443d39" d="M 153.5,49.5 C 153.842,50.3382 154.508,50.6716 155.5,50.5C 148.833,51.8333 142.167,51.8333 135.5,50.5C 137.415,50.7845 139.081,50.4511 140.5,49.5C 144.731,49.0577 149.064,49.0577 153.5,49.5 Z"/></g>
<g><path style="opacity:0.976" fill="#dad4cf" d="M 319.5,41.5 C 321.63,43.1271 323.63,44.9604 325.5,47C 332.246,47.1213 338.913,47.788 345.5,49C 350.015,53.5468 352.849,59.0468 354,65.5C 357.022,71.3285 360.189,76.9951 363.5,82.5C 358.94,77.7272 354.607,72.7272 350.5,67.5C 348.571,62.6285 345.905,58.2951 342.5,54.5C 342.389,53.8826 342.056,53.3826 341.5,53C 338.854,52.5026 336.187,52.3359 333.5,52.5C 320.42,52.9738 308.92,48.9738 299,40.5C 298.728,43.2538 298.228,45.9205 297.5,48.5C 294.933,48.8545 292.433,49.5212 290,50.5C 287.843,49.615 287.01,47.9484 287.5,45.5C 286.167,45.5 284.833,45.5 283.5,45.5C 282.791,44.596 281.791,44.2627 280.5,44.5C 280.5,43.5 280.5,42.5 280.5,41.5C 282.833,41.5 285.167,41.5 287.5,41.5C 288.222,41.9175 288.722,42.5842 289,43.5C 289.414,43.0426 289.914,42.7093 290.5,42.5C 291.167,43.8333 291.833,45.1667 292.5,46.5C 293.386,45.675 293.719,44.675 293.5,43.5C 294.5,43.5 295.5,43.5 296.5,43.5C 296.5,42.5 296.5,41.5 296.5,40.5C 294.712,40.7852 293.045,40.4519 291.5,39.5C 290.318,37.5331 290.985,36.1997 293.5,35.5C 290.215,34.6764 286.882,34.1764 283.5,34C 286.5,33.6667 289.5,33.3333 292.5,33C 291.304,32.3457 291.304,31.8457 292.5,31.5C 296.758,37.8065 302.425,42.4732 309.5,45.5C 310.167,45.1667 310.833,44.8333 311.5,44.5C 315.135,47.1377 319.135,47.971 323.5,47C 321.536,45.549 320.203,43.7157 319.5,41.5 Z"/></g>
<g><path style="opacity:0.956" fill="#e1dddb" d="M 0.5,42.5 C 1.53101,44.9608 2.19767,47.6275 2.5,50.5C 2.5,51.8333 2.5,53.1667 2.5,54.5C 26.8503,54.7624 51.1836,54.429 75.5,53.5C 111.849,52.8398 147.849,53.5064 183.5,55.5C 166.83,55.3334 150.163,55.5001 133.5,56C 129.644,56.1773 125.977,56.6773 122.5,57.5C 82.4986,57.6667 42.4986,57.5 2.5,57C 1.23165,52.287 0.564987,47.4537 0.5,42.5 Z"/></g>
<g><path style="opacity:1" fill="#b9aa9c" d="M 184.5,55.5 C 192.833,55.5 201.167,55.5 209.5,55.5C 209.5,58.8333 209.5,62.1667 209.5,65.5C 202.159,65.6663 194.826,65.4997 187.5,65C 186.402,61.8735 185.402,58.7068 184.5,55.5 Z"/></g>
<g><path style="opacity:1" fill="#c2bdb8" d="M 269.5,32.5 C 268.627,36.1211 267.961,39.7878 267.5,43.5C 267.5,50.8333 267.5,58.1667 267.5,65.5C 266.167,65.5 264.833,65.5 263.5,65.5C 263.5,64.5 263.5,63.5 263.5,62.5C 261.208,62.7564 259.041,62.4231 257,61.5C 255.812,62.5634 255.312,63.8967 255.5,65.5C 252.5,65.5 249.5,65.5 246.5,65.5C 235.516,64.7507 224.516,64.4174 213.5,64.5C 212.766,63.2921 212.433,61.9587 212.5,60.5C 214.369,58.3647 215.036,55.6981 214.5,52.5C 228.5,52.5 242.5,52.5 256.5,52.5C 256.833,49.8333 257.167,47.1667 257.5,44.5C 255.833,44.5 254.167,44.5 252.5,44.5C 254.343,43.7171 256.343,43.0505 258.5,42.5C 258.833,42.8333 259.167,43.1667 259.5,43.5C 260.124,48.5293 260.958,53.5293 262,58.5C 262.609,53.1387 262.442,47.8054 261.5,42.5C 263.167,42.5 264.833,42.5 266.5,42.5C 266.5,40.5 266.5,38.5 266.5,36.5C 266.468,34.3812 267.468,33.0478 269.5,32.5 Z"/></g>
<g><path style="opacity:1" fill="#a9988d" d="M 283.5,45.5 C 284.833,45.5 286.167,45.5 287.5,45.5C 287.01,47.9484 287.843,49.615 290,50.5C 292.433,49.5212 294.933,48.8545 297.5,48.5C 297.938,48.4346 298.272,48.6012 298.5,49C 295.806,51.6937 293.14,54.3604 290.5,57C 291.691,57.6979 292.691,58.5313 293.5,59.5C 294.234,60.7079 294.567,62.0413 294.5,63.5C 298.915,64.0215 300.582,66.3549 299.5,70.5C 298.808,69.9747 298.308,69.3081 298,68.5C 296.903,70.0526 295.57,71.386 294,72.5C 294.128,70.555 293.962,68.7216 293.5,67C 295.017,65.2215 295.851,65.7215 296,68.5C 298.082,66.3208 297.582,64.9874 294.5,64.5C 292.212,65.6933 290.045,67.0266 288,68.5C 287.383,67.5509 287.549,66.7175 288.5,66C 287.5,65.5 286.5,65 285.5,64.5C 283.097,66.2701 281.43,68.6034 280.5,71.5C 278.257,72.4742 275.924,72.8076 273.5,72.5C 273.335,75.5184 273.502,78.5184 274,81.5C 276.499,82.8221 277.999,84.8221 278.5,87.5C 281.237,88.031 283.904,88.8644 286.5,90C 287.759,92.7272 289.759,94.5606 292.5,95.5C 290.736,100.644 290.069,105.977 290.5,111.5C 290.5,111.833 290.5,112.167 290.5,112.5C 290.5,112.833 290.5,113.167 290.5,113.5C 289.75,109.194 288.583,104.86 287,100.5C 286.617,99.944 286.117,99.6107 285.5,99.5C 283.045,96.7663 280.045,94.7663 276.5,93.5C 275.378,94.6302 274.044,95.2969 272.5,95.5C 266.777,94.3112 261.11,92.9778 255.5,91.5C 255.96,90.4586 257.293,89.6253 259.5,89C 267.999,87.7497 275.999,89.0831 283.5,93C 285.709,94.8734 287.542,97.04 289,99.5C 289.667,98.1667 289.667,96.8333 289,95.5C 285.423,92.6267 281.589,90.1267 277.5,88C 264.24,87.5278 251.24,87.0278 238.5,86.5C 244.454,85.6988 250.454,84.8655 256.5,84C 255.692,83.6924 255.025,83.1924 254.5,82.5C 257.107,81.6816 259.774,81.1816 262.5,81C 263.056,80.6174 263.389,80.1174 263.5,79.5C 265.527,79.6621 267.527,79.4955 269.5,79C 270.126,78.2496 270.626,77.4162 271,76.5C 271.815,71.6478 271.648,66.9811 270.5,62.5C 270.557,61.391 270.89,60.391 271.5,59.5C 272.024,57.6943 272.691,56.0276 273.5,54.5C 273.343,55.8734 273.51,57.2068 274,58.5C 274.667,59.8333 275.333,59.8333 276,58.5C 278.635,54.5624 280.135,50.229 280.5,45.5C 281.5,45.5 282.5,45.5 283.5,45.5 Z"/></g>
<g><path style="opacity:1" fill="#7f756f" d="M 209.5,40.5 C 209.833,40.5 210.167,40.5 210.5,40.5C 210.254,47.1888 210.921,53.8555 212.5,60.5C 212.433,61.9587 212.766,63.2921 213.5,64.5C 213.062,64.4346 212.728,64.6012 212.5,65C 213.416,65.2784 214.082,65.7784 214.5,66.5C 213.596,67.209 213.263,68.209 213.5,69.5C 213.21,71.022 213.21,72.522 213.5,74C 222.827,74.4998 232.161,74.6665 241.5,74.5C 241.611,75.1174 241.944,75.6174 242.5,76C 232.453,76.7835 222.453,76.6168 212.5,75.5C 211.602,74.8423 210.602,74.1757 209.5,73.5C 210.641,72.5745 210.641,71.7412 209.5,71C 181.508,70.1673 181.508,69.6673 209.5,69.5C 209.5,68.1667 209.5,66.8333 209.5,65.5C 209.5,62.1667 209.5,58.8333 209.5,55.5C 201.167,55.5 192.833,55.5 184.5,55.5C 185.183,53.8235 186.517,53.1568 188.5,53.5C 195.5,53.5 202.5,53.5 209.5,53.5C 209.5,51.8333 209.5,50.1667 209.5,48.5C 176.167,47.8333 176.167,47.1667 209.5,46.5C 209.5,44.5 209.5,42.5 209.5,40.5 Z"/></g>
<g><path style="opacity:1" fill="#908884" d="M 267.5,65.5 C 265.085,66.8142 262.252,67.4809 259,67.5C 254.558,67.6741 250.391,67.0074 246.5,65.5C 249.5,65.5 252.5,65.5 255.5,65.5C 255.312,63.8967 255.812,62.5634 257,61.5C 259.041,62.4231 261.208,62.7564 263.5,62.5C 263.5,63.5 263.5,64.5 263.5,65.5C 264.833,65.5 266.167,65.5 267.5,65.5 Z"/></g>
<g><path style="opacity:1" fill="#675f59" d="M 267.5,43.5 C 268.478,43.811 269.145,44.4777 269.5,45.5C 268.937,46.9385 268.603,48.4385 268.5,50C 269.441,53.3174 270.441,56.4841 271.5,59.5C 270.89,60.391 270.557,61.391 270.5,62.5C 270.5,66.8333 270.5,71.1667 270.5,75.5C 266.701,76.0474 262.868,76.3808 259,76.5C 254.867,76.7143 251.034,76.0476 247.5,74.5C 254.863,74.8306 262.197,74.4973 269.5,73.5C 269.154,72.3044 268.654,72.3044 268,73.5C 267.51,72.2068 267.343,70.8734 267.5,69.5C 262.167,69.5 256.833,69.5 251.5,69.5C 251.082,68.7784 250.416,68.2784 249.5,68C 237.659,67.8307 225.993,67.3307 214.5,66.5C 214.082,65.7784 213.416,65.2784 212.5,65C 212.728,64.6012 213.062,64.4346 213.5,64.5C 224.516,64.4174 235.516,64.7507 246.5,65.5C 250.391,67.0074 254.558,67.6741 259,67.5C 262.252,67.4809 265.085,66.8142 267.5,65.5C 267.5,58.1667 267.5,50.8333 267.5,43.5 Z"/></g>
<g><path style="opacity:1" fill="#63463c" d="M 333.5,52.5 C 336.187,52.3359 338.854,52.5026 341.5,53C 342.056,53.3826 342.389,53.8826 342.5,54.5C 340.952,54.8212 340.285,55.8212 340.5,57.5C 341.552,57.3505 342.552,57.5172 343.5,58C 341.781,59.0569 339.947,59.8903 338,60.5C 337.632,59.09 336.799,58.09 335.5,57.5C 332.038,64.3316 329.205,63.9983 327,56.5C 326.665,59.7623 327.498,62.7623 329.5,65.5C 327.978,66.562 326.312,67.2287 324.5,67.5C 321.331,67.8386 319.164,69.5052 318,72.5C 317.28,70.7448 316.113,69.9115 314.5,70C 310.951,73.0429 308.951,76.8762 308.5,81.5C 306.857,81.5198 305.524,80.8532 304.5,79.5C 303.334,81.3649 303.667,83.0316 305.5,84.5C 305.081,85.6721 304.415,86.6721 303.5,87.5C 303.749,85.6086 303.082,83.7752 301.5,82C 301.585,80.8926 301.919,79.8926 302.5,79C 301.668,78.3123 301.002,78.479 300.5,79.5C 299.667,81.1667 298.833,82.8333 298,84.5C 296.972,93.2554 295.472,101.922 293.5,110.5C 292.583,111.127 291.583,111.461 290.5,111.5C 290.069,105.977 290.736,100.644 292.5,95.5C 294.106,89.6822 296.106,84.0155 298.5,78.5C 300.558,76.0734 302.391,73.4068 304,70.5C 311.53,60.4211 321.363,54.4211 333.5,52.5 Z"/></g>
<g><path style="opacity:1" fill="#beb7b3" d="M 214.5,66.5 C 225.993,67.3307 237.659,67.8307 249.5,68C 250.416,68.2784 251.082,68.7784 251.5,69.5C 239.281,71.4157 226.947,71.9157 214.5,71C 213.944,70.6174 213.611,70.1174 213.5,69.5C 213.263,68.209 213.596,67.209 214.5,66.5 Z"/></g>
<g><path style="opacity:1" fill="#4a342c" d="M 342.5,54.5 C 345.905,58.2951 348.571,62.6285 350.5,67.5C 349.272,68.3065 348.272,69.3065 347.5,70.5C 347.441,68.2776 346.275,67.2776 344,67.5C 342.674,67.7549 341.674,68.4216 341,69.5C 334.176,67.8306 330.343,70.4973 329.5,77.5C 324.53,80.4749 320.196,84.1415 316.5,88.5C 315.167,89.1667 313.833,89.8333 312.5,90.5C 311.274,88.8127 311.608,87.3127 313.5,86C 312.373,84.9433 311.873,83.7766 312,82.5C 315.151,77.8827 318.984,73.8827 323.5,70.5C 324.386,69.675 324.719,68.675 324.5,67.5C 326.312,67.2287 327.978,66.562 329.5,65.5C 327.498,62.7623 326.665,59.7623 327,56.5C 329.205,63.9983 332.038,64.3316 335.5,57.5C 336.799,58.09 337.632,59.09 338,60.5C 339.947,59.8903 341.781,59.0569 343.5,58C 342.552,57.5172 341.552,57.3505 340.5,57.5C 340.285,55.8212 340.952,54.8212 342.5,54.5 Z"/></g>
<g><path style="opacity:1" fill="#1e1917" d="M 213.5,69.5 C 213.611,70.1174 213.944,70.6174 214.5,71C 226.947,71.9157 239.281,71.4157 251.5,69.5C 256.833,69.5 262.167,69.5 267.5,69.5C 267.343,70.8734 267.51,72.2068 268,73.5C 268.654,72.3044 269.154,72.3044 269.5,73.5C 262.197,74.4973 254.863,74.8306 247.5,74.5C 245.5,74.5 243.5,74.5 241.5,74.5C 232.161,74.6665 222.827,74.4998 213.5,74C 213.21,72.522 213.21,71.022 213.5,69.5 Z"/></g>
<g><path style="opacity:1" fill="#b9a593" d="M 298.5,78.5 C 296.106,84.0155 294.106,89.6822 292.5,95.5C 289.759,94.5606 287.759,92.7272 286.5,90C 283.904,88.8644 281.237,88.031 278.5,87.5C 277.999,84.8221 276.499,82.8221 274,81.5C 273.502,78.5184 273.335,75.5184 273.5,72.5C 275.924,72.8076 278.257,72.4742 280.5,71.5C 281.43,68.6034 283.097,66.2701 285.5,64.5C 286.5,65 287.5,65.5 288.5,66C 287.549,66.7175 287.383,67.5509 288,68.5C 290.045,67.0266 292.212,65.6933 294.5,64.5C 297.582,64.9874 298.082,66.3208 296,68.5C 295.851,65.7215 295.017,65.2215 293.5,67C 293.962,68.7216 294.128,70.555 294,72.5C 295.57,71.386 296.903,70.0526 298,68.5C 298.308,69.3081 298.808,69.9747 299.5,70.5C 300.582,66.3549 298.915,64.0215 294.5,63.5C 294.567,62.0413 294.234,60.7079 293.5,59.5C 295.829,57.722 298.496,56.722 301.5,56.5C 301.351,55.448 301.517,54.448 302,53.5C 305.524,54.3575 307.691,56.5241 308.5,60C 308.157,62.5655 306.99,63.3988 305,62.5C 302.596,67.7373 300.429,73.0706 298.5,78.5 Z"/></g>
<g><path style="opacity:1" fill="#80513f" d="M 347.5,70.5 C 348.954,76.1754 349.954,81.8421 350.5,87.5C 350.433,88.9587 350.766,90.2921 351.5,91.5C 351.154,93.7049 350.487,93.8716 349.5,92C 348.242,88.4685 346.909,84.9685 345.5,81.5C 346.167,80.8333 346.833,80.1667 347.5,79.5C 347.062,78.4937 346.396,78.4937 345.5,79.5C 344.667,77.5 343.833,75.5 343,73.5C 340.726,72.1888 338.56,72.1888 336.5,73.5C 334.365,75.0709 332.032,76.4043 329.5,77.5C 330.343,70.4973 334.176,67.8306 341,69.5C 341.674,68.4216 342.674,67.7549 344,67.5C 346.275,67.2776 347.441,68.2776 347.5,70.5 Z"/></g>
<g><path style="opacity:1" fill="#bfb3aa" d="M 270.5,62.5 C 271.648,66.9811 271.815,71.6478 271,76.5C 270.626,77.4162 270.126,78.2496 269.5,79C 267.527,79.4955 265.527,79.6621 263.5,79.5C 247.486,79.3425 231.486,79.6758 215.5,80.5C 215.5,83.5 215.5,86.5 215.5,89.5C 214.733,88.828 214.066,87.9947 213.5,87C 207.175,86.5005 200.842,86.3338 194.5,86.5C 192.692,85.0821 192.025,83.0821 192.5,80.5C 198.631,79.9078 204.464,80.5745 210,82.5C 210.998,79.9722 211.831,79.9722 212.5,82.5C 212.182,83.6473 211.516,84.4806 210.5,85C 211.448,85.4828 212.448,85.6495 213.5,85.5C 213.324,81.8799 212.99,78.5466 212.5,75.5C 222.453,76.6168 232.453,76.7835 242.5,76C 241.944,75.6174 241.611,75.1174 241.5,74.5C 243.5,74.5 245.5,74.5 247.5,74.5C 251.034,76.0476 254.867,76.7143 259,76.5C 262.868,76.3808 266.701,76.0474 270.5,75.5C 270.5,71.1667 270.5,66.8333 270.5,62.5 Z"/></g>
<g><path style="opacity:1" fill="#bdada2" d="M 263.5,79.5 C 263.389,80.1174 263.056,80.6174 262.5,81C 259.774,81.1816 257.107,81.6816 254.5,82.5C 255.025,83.1924 255.692,83.6924 256.5,84C 250.454,84.8655 244.454,85.6988 238.5,86.5C 238.649,85.448 238.483,84.448 238,83.5C 237.999,86.7868 236.499,88.9535 233.5,90C 230.906,92.0865 228.906,94.5865 227.5,97.5C 224.342,93.6936 220.342,91.0269 215.5,89.5C 215.5,86.5 215.5,83.5 215.5,80.5C 231.486,79.6758 247.486,79.3425 263.5,79.5 Z"/></g>
<g><path style="opacity:0.975" fill="#e1dad3" d="M 183.5,55.5 C 183.833,55.5 184.167,55.5 184.5,55.5C 185.402,58.7068 186.402,61.8735 187.5,65C 194.826,65.4997 202.159,65.6663 209.5,65.5C 209.5,66.8333 209.5,68.1667 209.5,69.5C 181.508,69.6673 181.508,70.1673 209.5,71C 210.641,71.7412 210.641,72.5745 209.5,73.5C 210.602,74.1757 211.602,74.8423 212.5,75.5C 212.99,78.5466 213.324,81.8799 213.5,85.5C 212.448,85.6495 211.448,85.4828 210.5,85C 211.516,84.4806 212.182,83.6473 212.5,82.5C 211.831,79.9722 210.998,79.9722 210,82.5C 204.464,80.5745 198.631,79.9078 192.5,80.5C 192.025,83.0821 192.692,85.0821 194.5,86.5C 193.837,88.8036 193.17,91.1369 192.5,93.5C 194.396,94.4656 196.396,94.7989 198.5,94.5C 196.372,95.6291 194.039,95.7958 191.5,95C 188.587,82.1788 185.587,69.3455 182.5,56.5C 162.3,56.5066 142.3,56.8399 122.5,57.5C 125.977,56.6773 129.644,56.1773 133.5,56C 150.163,55.5001 166.83,55.3334 183.5,55.5 Z"/></g>
<g><path style="opacity:1" fill="#aa6a47" d="M 336.5,73.5 C 340.908,73.062 342.575,75.062 341.5,79.5C 338.287,79.19 335.287,79.5233 332.5,80.5C 330.858,81.803 329.191,83.1363 327.5,84.5C 326.883,84.6107 326.383,84.944 326,85.5C 325.667,87.8333 325.333,90.1667 325,92.5C 324.888,89.5529 323.388,88.2196 320.5,88.5C 322.052,91.7962 321.719,94.7962 319.5,97.5C 317.327,94.9826 316.327,91.9826 316.5,88.5C 320.196,84.1415 324.53,80.4749 329.5,77.5C 332.032,76.4043 334.365,75.0709 336.5,73.5 Z"/></g>
<g><path style="opacity:0.353" fill="#e6dcd3" d="M 363.5,82.5 C 366.605,85.2749 368.938,88.6082 370.5,92.5C 367.395,89.7251 365.062,86.3918 363.5,82.5 Z"/></g>
<g><path style="opacity:1" fill="#dbd7d4" d="M 194.5,86.5 C 200.842,86.3338 207.175,86.5005 213.5,87C 214.066,87.9947 214.733,88.828 215.5,89.5C 220.342,91.0269 224.342,93.6936 227.5,97.5C 224.677,110.713 228.011,121.88 237.5,131C 239.025,132.009 240.692,132.509 242.5,132.5C 252.744,136.279 263.078,136.446 273.5,133C 277.885,131.137 282.218,129.303 286.5,127.5C 282.323,132.429 276.99,135.596 270.5,137C 259.23,138.408 248.23,137.408 237.5,134C 232.279,131.112 228.445,126.945 226,121.5C 224.521,114.18 223.188,106.847 222,99.5C 219.621,97.1159 216.787,95.6159 213.5,95C 208.511,94.5007 203.511,94.3341 198.5,94.5C 196.396,94.7989 194.396,94.4656 192.5,93.5C 193.17,91.1369 193.837,88.8036 194.5,86.5 Z"/></g>
<g><path style="opacity:1" fill="#4b3a36" d="M 324.5,67.5 C 324.719,68.675 324.386,69.675 323.5,70.5C 318.984,73.8827 315.151,77.8827 312,82.5C 311.873,83.7766 312.373,84.9433 313.5,86C 311.608,87.3127 311.274,88.8127 312.5,90.5C 312.824,93.6802 311.49,94.8469 308.5,94C 309.34,92.3335 308.84,92.1669 307,93.5C 306.399,96.6366 305.399,99.6366 304,102.5C 304.438,99.8014 304.272,97.1347 303.5,94.5C 301.663,99.3464 300.33,104.346 299.5,109.5C 303.958,109.937 308.291,108.937 312.5,106.5C 314.071,107.309 315.738,107.643 317.5,107.5C 322.599,109.686 327.932,111.186 333.5,112C 335.066,112.608 336.4,113.442 337.5,114.5C 335.958,115.301 334.292,115.634 332.5,115.5C 332.373,120.687 334.206,121.687 338,118.5C 338.278,119.416 338.778,120.082 339.5,120.5C 339.587,123.598 339.087,123.932 338,121.5C 337.173,122.662 336.34,123.829 335.5,125C 338.102,133.606 339.102,142.273 338.5,151C 342.449,151.807 342.449,152.307 338.5,152.5C 338.248,162.591 337.248,172.591 335.5,182.5C 334.686,184.631 334.186,186.964 334,189.5C 333.833,187.5 333.667,185.5 333.5,183.5C 334.558,169.178 334.725,154.845 334,140.5C 333.61,137.896 332.776,135.562 331.5,133.5C 331.106,125.104 327.106,119.104 319.5,115.5C 316.627,114.225 313.627,113.392 310.5,113C 303.842,112.5 297.175,112.334 290.5,112.5C 290.5,112.167 290.5,111.833 290.5,111.5C 291.583,111.461 292.583,111.127 293.5,110.5C 295.472,101.922 296.972,93.2554 298,84.5C 298.833,82.8333 299.667,81.1667 300.5,79.5C 301.002,78.479 301.668,78.3123 302.5,79C 301.919,79.8926 301.585,80.8926 301.5,82C 303.082,83.7752 303.749,85.6086 303.5,87.5C 304.415,86.6721 305.081,85.6721 305.5,84.5C 303.667,83.0316 303.334,81.3649 304.5,79.5C 305.524,80.8532 306.857,81.5198 308.5,81.5C 308.951,76.8762 310.951,73.0429 314.5,70C 316.113,69.9115 317.28,70.7448 318,72.5C 319.164,69.5052 321.331,67.8386 324.5,67.5 Z"/></g>
<g><path style="opacity:1" fill="#e0d0bb" d="M 332.5,80.5 C 341.948,80.7546 345.614,85.4213 343.5,94.5C 341.809,95.8637 340.142,97.197 338.5,98.5C 328.829,98.4995 325.162,93.8329 327.5,84.5C 329.191,83.1363 330.858,81.803 332.5,80.5 Z"/></g>
<g><path style="opacity:1" fill="#6d5047" d="M 316.5,88.5 C 316.327,91.9826 317.327,94.9826 319.5,97.5C 318.986,99.3664 318.32,101.2 317.5,103C 317.743,103.902 318.077,104.735 318.5,105.5C 317.662,105.842 317.328,106.508 317.5,107.5C 315.738,107.643 314.071,107.309 312.5,106.5C 308.291,108.937 303.958,109.937 299.5,109.5C 300.33,104.346 301.663,99.3464 303.5,94.5C 304.272,97.1347 304.438,99.8014 304,102.5C 305.399,99.6366 306.399,96.6366 307,93.5C 308.84,92.1669 309.34,92.3335 308.5,94C 311.49,94.8469 312.824,93.6802 312.5,90.5C 313.833,89.8333 315.167,89.1667 316.5,88.5 Z"/></g>
<g><path style="opacity:1" fill="#5e4339" d="M 350.5,67.5 C 354.607,72.7272 358.94,77.7272 363.5,82.5C 365.062,86.3918 367.395,89.7251 370.5,92.5C 375.883,101.67 380.883,111.004 385.5,120.5C 385.318,122.591 385.652,124.591 386.5,126.5C 385.833,126.833 385.167,127.167 384.5,127.5C 387.908,136.207 390.908,145.041 393.5,154C 393.164,155.03 392.497,155.53 391.5,155.5C 385.885,137.839 378.052,121.172 368,105.5C 367.5,104 367,102.5 366.5,101C 366.892,99.9895 367.559,99.4895 368.5,99.5C 366.833,98.8333 365.167,98.1667 363.5,97.5C 362.804,94.6432 361.471,92.1432 359.5,90C 360.742,89.6886 361.742,90.1886 362.5,91.5C 362.833,91.1667 363.167,90.8333 363.5,90.5C 361.188,87.5427 359.688,84.2093 359,80.5C 358.189,79.0403 357.355,78.707 356.5,79.5C 357.25,81.9302 357.583,84.2635 357.5,86.5C 357.333,86.8333 357.167,87.1667 357,87.5C 356.085,86.6721 355.419,85.6721 355,84.5C 354.5,85.5 354,86.5 353.5,87.5C 354.428,88.7678 354.595,90.1011 354,91.5C 353,89.5 352,87.5 351,85.5C 350.536,86.0944 350.369,86.7611 350.5,87.5C 349.954,81.8421 348.954,76.1754 347.5,70.5C 348.272,69.3065 349.272,68.3065 350.5,67.5 Z"/></g>
<g><path style="opacity:0.169" fill="#dad0cd" d="M 370.5,92.5 C 383.18,109.198 392.18,127.865 397.5,148.5C 393.322,139.317 389.322,129.984 385.5,120.5C 380.883,111.004 375.883,101.67 370.5,92.5 Z"/></g>
<g><path style="opacity:1" fill="#513428" d="M 327.5,84.5 C 325.162,93.8329 328.829,98.4995 338.5,98.5C 338.506,99.4174 337.506,99.9174 335.5,100C 337.016,101.897 337.683,104.064 337.5,106.5C 334.188,106.943 330.855,107.276 327.5,107.5C 324.186,107.657 321.186,106.991 318.5,105.5C 318.077,104.735 317.743,103.902 317.5,103C 318.32,101.2 318.986,99.3664 319.5,97.5C 321.719,94.7962 322.052,91.7962 320.5,88.5C 323.388,88.2196 324.888,89.5529 325,92.5C 325.333,90.1667 325.667,87.8333 326,85.5C 326.383,84.944 326.883,84.6107 327.5,84.5 Z"/></g>
<g><path style="opacity:1" fill="#9b6749" d="M 325.5,97.5 C 334.598,100.254 334.765,103.254 326,106.5C 321.607,106.034 319.94,103.701 321,99.5C 322.622,98.9011 324.122,98.2344 325.5,97.5 Z"/></g>
<g><path style="opacity:0.933" fill="#c5beb9" d="M 238.5,86.5 C 251.24,87.0278 264.24,87.5278 277.5,88C 281.589,90.1267 285.423,92.6267 289,95.5C 289.667,96.8333 289.667,98.1667 289,99.5C 287.542,97.04 285.709,94.8734 283.5,93C 275.999,89.0831 267.999,87.7497 259.5,89C 257.293,89.6253 255.96,90.4586 255.5,91.5C 260.672,99.1766 261.839,107.51 259,116.5C 257.186,119.978 254.686,122.812 251.5,125C 252.563,126.188 253.897,126.688 255.5,126.5C 252.712,128.976 249.378,129.976 245.5,129.5C 245.351,128.448 245.517,127.448 246,126.5C 260.14,117.786 262.64,106.619 253.5,93C 239.211,88.8148 231.211,94.1481 229.5,109C 229.995,114.148 231.495,118.982 234,123.5C 237.671,127.077 241.838,129.744 246.5,131.5C 244.901,131.232 243.568,131.566 242.5,132.5C 240.692,132.509 239.025,132.009 237.5,131C 228.011,121.88 224.677,110.713 227.5,97.5C 228.906,94.5865 230.906,92.0865 233.5,90C 236.499,88.9535 237.999,86.7868 238,83.5C 238.483,84.448 238.649,85.448 238.5,86.5 Z"/></g>
<g><path style="opacity:1" fill="#8b5136" d="M 343.5,94.5 C 345.077,96.5837 346.91,98.5837 349,100.5C 349.658,103.285 350.491,105.951 351.5,108.5C 348.144,107.862 346.144,109.196 345.5,112.5C 342.994,113.75 340.327,114.416 337.5,114.5C 336.4,113.442 335.066,112.608 333.5,112C 327.932,111.186 322.599,109.686 317.5,107.5C 317.328,106.508 317.662,105.842 318.5,105.5C 321.186,106.991 324.186,107.657 327.5,107.5C 330.855,107.276 334.188,106.943 337.5,106.5C 337.683,104.064 337.016,101.897 335.5,100C 337.506,99.9174 338.506,99.4174 338.5,98.5C 340.142,97.197 341.809,95.8637 343.5,94.5 Z"/></g>
<g><path style="opacity:1" fill="#513022" d="M 336.5,73.5 C 338.56,72.1888 340.726,72.1888 343,73.5C 343.833,75.5 344.667,77.5 345.5,79.5C 346.396,78.4937 347.062,78.4937 347.5,79.5C 346.833,80.1667 346.167,80.8333 345.5,81.5C 346.909,84.9685 348.242,88.4685 349.5,92C 350.487,93.8716 351.154,93.7049 351.5,91.5C 353.536,94.2259 355.203,97.2259 356.5,100.5C 354.789,102.24 353.956,104.24 354,106.5C 355.395,105.185 356.395,105.519 357,107.5C 357.333,106.833 357.667,106.167 358,105.5C 358.667,106.833 359.333,106.833 360,105.5C 360.442,107.679 361.442,108.345 363,107.5C 363.456,108.744 362.956,109.577 361.5,110C 363.863,112.959 366.029,116.126 368,119.5C 368.333,119.167 368.667,118.833 369,118.5C 369.47,119.577 369.303,120.577 368.5,121.5C 366.488,117.989 363.654,115.322 360,113.5C 358.913,115.932 358.413,115.598 358.5,112.5C 357.07,112.579 355.736,112.246 354.5,111.5C 354.167,112 353.833,112.5 353.5,113C 355.017,114.541 356.184,116.375 357,118.5C 357.914,117.346 358.747,117.513 359.5,119C 358.833,119.333 358.167,119.667 357.5,120C 359.211,121.133 359.711,122.633 359,124.5C 358.667,123.833 358.333,123.167 358,122.5C 356.637,124.684 355.137,126.684 353.5,128.5C 352.81,127.12 352.476,125.786 352.5,124.5C 351.515,126.772 350.681,129.105 350,131.5C 349.951,128.584 348.784,127.584 346.5,128.5C 345.348,125.894 345.182,123.227 346,120.5C 347.087,122.932 347.587,122.598 347.5,119.5C 344.767,119.804 343.101,118.637 342.5,116C 343.544,114.826 344.544,113.659 345.5,112.5C 346.144,109.196 348.144,107.862 351.5,108.5C 350.491,105.951 349.658,103.285 349,100.5C 346.91,98.5837 345.077,96.5837 343.5,94.5C 345.614,85.4213 341.948,80.7546 332.5,80.5C 335.287,79.5233 338.287,79.19 341.5,79.5C 342.575,75.062 340.908,73.062 336.5,73.5 Z"/></g>
<g><path style="opacity:1" fill="#c6b1a4" d="M 255.5,91.5 C 261.11,92.9778 266.777,94.3112 272.5,95.5C 271.685,96.8366 270.518,97.8366 269,98.5C 269.182,106.441 267.182,113.774 263,120.5C 260.894,123.118 258.394,125.118 255.5,126.5C 253.897,126.688 252.563,126.188 251.5,125C 254.686,122.812 257.186,119.978 259,116.5C 261.839,107.51 260.672,99.1766 255.5,91.5 Z"/></g>
<g><path style="opacity:1" fill="#563424" d="M 368.5,121.5 C 371.47,121.746 372.803,123.412 372.5,126.5C 374.483,126.157 375.817,126.824 376.5,128.5C 375.571,130.548 374.237,132.048 372.5,133C 374.906,135.582 374.906,138.248 372.5,141C 373.505,142.507 374.838,143.673 376.5,144.5C 375.833,144.833 375.167,145.167 374.5,145.5C 375.183,148.461 376.016,148.795 377,146.5C 378.973,149.617 380.807,152.784 382.5,156C 381.833,156.333 381.167,156.667 380.5,157C 381.952,158.958 382.285,160.958 381.5,163C 382.609,164.876 383.609,166.709 384.5,168.5C 384.435,170.706 384.768,173.039 385.5,175.5C 384.5,176.333 383.5,177.167 382.5,178C 384.886,177.649 387.219,177.815 389.5,178.5C 387.577,179.308 385.577,179.808 383.5,180C 384.448,180.483 385.448,180.649 386.5,180.5C 387.092,183.127 387.425,185.794 387.5,188.5C 381.169,188.89 378.836,185.89 380.5,179.5C 381.043,179.44 381.376,179.107 381.5,178.5C 379.313,174.652 378.646,170.652 379.5,166.5C 377.625,163.76 376.958,160.927 377.5,158C 374.603,156.285 373.269,153.785 373.5,150.5C 372.933,148.97 372.267,147.47 371.5,146C 369.687,146.046 368.021,145.88 366.5,145.5C 365.167,142.833 363.833,140.167 362.5,137.5C 364.764,137.407 367.431,136.907 370.5,136C 367.063,132.007 363.23,131.173 359,133.5C 357.93,133.472 357.097,133.139 356.5,132.5C 355.504,132.414 354.671,132.748 354,133.5C 354.771,131.82 354.605,130.153 353.5,128.5C 355.137,126.684 356.637,124.684 358,122.5C 358.333,123.167 358.667,123.833 359,124.5C 359.711,122.633 359.211,121.133 357.5,120C 358.167,119.667 358.833,119.333 359.5,119C 358.747,117.513 357.914,117.346 357,118.5C 356.184,116.375 355.017,114.541 353.5,113C 353.833,112.5 354.167,112 354.5,111.5C 355.736,112.246 357.07,112.579 358.5,112.5C 358.413,115.598 358.913,115.932 360,113.5C 363.654,115.322 366.488,117.989 368.5,121.5 Z"/></g>
<g><path style="opacity:0.988" fill="#c0b7b2" d="M 285.5,99.5 C 286.117,99.6107 286.617,99.944 287,100.5C 288.583,104.86 289.75,109.194 290.5,113.5C 290.833,118.833 291.167,118.833 291.5,113.5C 297.358,113.178 303.025,113.511 308.5,114.5C 303.167,114.5 297.833,114.5 292.5,114.5C 292.358,119.778 290.358,124.112 286.5,127.5C 282.218,129.303 277.885,131.137 273.5,133C 263.078,136.446 252.744,136.279 242.5,132.5C 243.568,131.566 244.901,131.232 246.5,131.5C 257.089,132.841 267.423,131.674 277.5,128C 286.626,120.33 289.293,110.83 285.5,99.5 Z"/></g>
<g><path style="opacity:1" fill="#1f1612" d="M 356.5,132.5 C 354.494,127.872 355.827,125.872 360.5,126.5C 362.574,130.839 361.241,132.839 356.5,132.5 Z"/></g>
<g><path style="opacity:1" fill="#37231c" d="M 391.5,155.5 C 391.5,156.833 391.5,158.167 391.5,159.5C 390.685,158.571 389.852,157.571 389,156.5C 388.728,151.623 387.061,147.29 384,143.5C 383.667,144.167 383.333,144.833 383,145.5C 382.405,144.101 382.572,142.768 383.5,141.5C 381.934,138.604 380.101,135.937 378,133.5C 377.648,131.753 377.148,130.086 376.5,128.5C 375.817,126.824 374.483,126.157 372.5,126.5C 372.803,123.412 371.47,121.746 368.5,121.5C 369.303,120.577 369.47,119.577 369,118.5C 368.667,118.833 368.333,119.167 368,119.5C 366.029,116.126 363.863,112.959 361.5,110C 362.956,109.577 363.456,108.744 363,107.5C 361.442,108.345 360.442,107.679 360,105.5C 359.333,106.833 358.667,106.833 358,105.5C 357.667,106.167 357.333,106.833 357,107.5C 356.395,105.519 355.395,105.185 354,106.5C 353.956,104.24 354.789,102.24 356.5,100.5C 355.203,97.2259 353.536,94.2259 351.5,91.5C 350.766,90.2921 350.433,88.9587 350.5,87.5C 350.369,86.7611 350.536,86.0944 351,85.5C 352,87.5 353,89.5 354,91.5C 354.595,90.1011 354.428,88.7678 353.5,87.5C 354,86.5 354.5,85.5 355,84.5C 355.419,85.6721 356.085,86.6721 357,87.5C 357.167,87.1667 357.333,86.8333 357.5,86.5C 357.583,84.2635 357.25,81.9302 356.5,79.5C 357.355,78.707 358.189,79.0403 359,80.5C 359.688,84.2093 361.188,87.5427 363.5,90.5C 363.167,90.8333 362.833,91.1667 362.5,91.5C 361.742,90.1886 360.742,89.6886 359.5,90C 361.471,92.1432 362.804,94.6432 363.5,97.5C 365.167,98.1667 366.833,98.8333 368.5,99.5C 367.559,99.4895 366.892,99.9895 366.5,101C 367,102.5 367.5,104 368,105.5C 378.052,121.172 385.885,137.839 391.5,155.5 Z"/></g>
<g><path style="opacity:1" fill="#4b2c1e" d="M 345.5,112.5 C 344.544,113.659 343.544,114.826 342.5,116C 343.101,118.637 344.767,119.804 347.5,119.5C 347.587,122.598 347.087,122.932 346,120.5C 345.182,123.227 345.348,125.894 346.5,128.5C 348.784,127.584 349.951,128.584 350,131.5C 350.681,129.105 351.515,126.772 352.5,124.5C 352.476,125.786 352.81,127.12 353.5,128.5C 354.605,130.153 354.771,131.82 354,133.5C 354.671,132.748 355.504,132.414 356.5,132.5C 357.097,133.139 357.93,133.472 359,133.5C 363.23,131.173 367.063,132.007 370.5,136C 367.431,136.907 364.764,137.407 362.5,137.5C 363.833,140.167 365.167,142.833 366.5,145.5C 368.021,145.88 369.687,146.046 371.5,146C 372.267,147.47 372.933,148.97 373.5,150.5C 371.278,150.178 369.444,150.845 368,152.5C 367.224,148.011 365.057,147.344 361.5,150.5C 362.923,153.701 363.923,157.034 364.5,160.5C 364.03,161.463 363.363,161.463 362.5,160.5C 362.365,157.226 361.365,154.226 359.5,151.5C 358.914,151.709 358.414,152.043 358,152.5C 357.333,151.167 356.667,149.833 356,148.5C 355.333,150.5 354.667,152.5 354,154.5C 353.333,151.833 352.667,151.833 352,154.5C 351.333,151.833 350.667,151.833 350,154.5C 349.667,153.833 349.333,153.167 349,152.5C 347.18,155.404 347.346,158.237 349.5,161C 348.833,161.333 348.167,161.667 347.5,162C 348.357,162.689 349.023,163.522 349.5,164.5C 349.154,165.696 348.654,165.696 348,164.5C 347.383,165.449 347.549,166.282 348.5,167C 347.309,167.698 346.309,168.531 345.5,169.5C 344.905,166.887 344.071,166.887 343,169.5C 341.434,162.773 341.934,156.106 344.5,149.5C 344.379,148.106 344.046,146.772 343.5,145.5C 344.025,144.808 344.692,144.308 345.5,144C 344.663,142.989 344.33,141.822 344.5,140.5C 340.446,140.79 339.946,140.123 343,138.5C 343.333,138.833 343.667,139.167 344,139.5C 343.562,137.095 343.729,134.595 344.5,132C 343.951,127.576 342.285,123.743 339.5,120.5C 338.778,120.082 338.278,119.416 338,118.5C 334.206,121.687 332.373,120.687 332.5,115.5C 334.292,115.634 335.958,115.301 337.5,114.5C 340.327,114.416 342.994,113.75 345.5,112.5 Z"/></g>
<g><path style="opacity:0.165" fill="#c2b4b2" d="M 329.5,135.5 C 330.302,136.952 330.802,138.618 331,140.5C 330.976,159.543 331.143,178.543 331.5,197.5C 329.01,196.892 327.676,195.225 327.5,192.5C 330.404,173.578 331.07,154.578 329.5,135.5 Z"/></g>
<g><path style="opacity:1" fill="#4a2c1f" d="M 376.5,128.5 C 377.148,130.086 377.648,131.753 378,133.5C 380.101,135.937 381.934,138.604 383.5,141.5C 382.572,142.768 382.405,144.101 383,145.5C 383.333,144.833 383.667,144.167 384,143.5C 387.061,147.29 388.728,151.623 389,156.5C 389.852,157.571 390.685,158.571 391.5,159.5C 392.705,160.672 392.705,162.005 391.5,163.5C 393.341,163.968 394.341,165.634 394.5,168.5C 393.207,169.842 392.374,171.509 392,173.5C 391.333,172.167 390.667,172.167 390,173.5C 389.333,170.833 388.667,168.167 388,165.5C 387.28,167.056 386.113,168.056 384.5,168.5C 383.609,166.709 382.609,164.876 381.5,163C 382.285,160.958 381.952,158.958 380.5,157C 381.167,156.667 381.833,156.333 382.5,156C 380.807,152.784 378.973,149.617 377,146.5C 376.016,148.795 375.183,148.461 374.5,145.5C 375.167,145.167 375.833,144.833 376.5,144.5C 374.838,143.673 373.505,142.507 372.5,141C 374.906,138.248 374.906,135.582 372.5,133C 374.237,132.048 375.571,130.548 376.5,128.5 Z"/></g>
<g><path style="opacity:0.01" fill="#e9dedd" d="M 397.5,148.5 C 401.149,158.133 403.816,168.133 405.5,178.5C 401.7,168.844 399.033,158.844 397.5,148.5 Z"/></g>
<g><path style="opacity:0.949" fill="#927b72" d="M 290.5,112.5 C 297.175,112.334 303.842,112.5 310.5,113C 313.627,113.392 316.627,114.225 319.5,115.5C 327.106,119.104 331.106,125.104 331.5,133.5C 332.882,141.429 333.549,149.429 333.5,157.5C 332.288,169.812 331.788,182.145 332,194.5C 333.77,196.418 335.937,196.918 338.5,196C 336.808,194.599 336.141,192.766 336.5,190.5C 338.735,190.795 340.735,190.461 342.5,189.5C 342.833,189.5 343.167,189.5 343.5,189.5C 344.5,189.5 345.5,189.5 346.5,189.5C 346.107,192.513 346.774,195.18 348.5,197.5C 347.5,197.5 346.5,197.5 345.5,197.5C 340.833,197.5 336.167,197.5 331.5,197.5C 331.143,178.543 330.976,159.543 331,140.5C 330.802,138.618 330.302,136.952 329.5,135.5C 326.222,124.888 319.222,117.888 308.5,114.5C 303.025,113.511 297.358,113.178 291.5,113.5C 291.167,118.833 290.833,118.833 290.5,113.5C 290.5,113.167 290.5,112.833 290.5,112.5 Z"/></g>
<g><path style="opacity:1" fill="#412d25" d="M 373.5,150.5 C 373.269,153.785 374.603,156.285 377.5,158C 376.958,160.927 377.625,163.76 379.5,166.5C 378.646,170.652 379.313,174.652 381.5,178.5C 381.376,179.107 381.043,179.44 380.5,179.5C 379.91,178.234 379.41,176.901 379,175.5C 378.529,177.246 377.862,178.913 377,180.5C 376.626,179.584 376.126,178.75 375.5,178C 377.271,177.465 377.604,176.631 376.5,175.5C 370.712,177.743 369.379,176.409 372.5,171.5C 371.277,170.386 369.944,170.219 368.5,171C 369.553,172.749 369.22,174.249 367.5,175.5C 367.373,170.487 365.706,166.154 362.5,162.5C 362.5,161.833 362.5,161.167 362.5,160.5C 363.363,161.463 364.03,161.463 364.5,160.5C 363.923,157.034 362.923,153.701 361.5,150.5C 365.057,147.344 367.224,148.011 368,152.5C 369.444,150.845 371.278,150.178 373.5,150.5 Z"/></g>
<g><path style="opacity:1" fill="#63524c" d="M 331.5,133.5 C 332.776,135.562 333.61,137.896 334,140.5C 334.725,154.845 334.558,169.178 333.5,183.5C 333.667,185.5 333.833,187.5 334,189.5C 334.186,186.964 334.686,184.631 335.5,182.5C 335.5,184.833 335.5,187.167 335.5,189.5C 337.833,189.5 340.167,189.5 342.5,189.5C 340.735,190.461 338.735,190.795 336.5,190.5C 336.141,192.766 336.808,194.599 338.5,196C 335.937,196.918 333.77,196.418 332,194.5C 331.788,182.145 332.288,169.812 333.5,157.5C 333.549,149.429 332.882,141.429 331.5,133.5 Z"/></g>
<g><path style="opacity:1" fill="#35211a" d="M 339.5,120.5 C 342.285,123.743 343.951,127.576 344.5,132C 343.729,134.595 343.562,137.095 344,139.5C 343.667,139.167 343.333,138.833 343,138.5C 339.946,140.123 340.446,140.79 344.5,140.5C 344.33,141.822 344.663,142.989 345.5,144C 344.692,144.308 344.025,144.808 343.5,145.5C 344.046,146.772 344.379,148.106 344.5,149.5C 341.934,156.106 341.434,162.773 343,169.5C 344.071,166.887 344.905,166.887 345.5,169.5C 345.5,170.5 345.5,171.5 345.5,172.5C 344.093,175.039 342.927,174.706 342,171.5C 339.187,175.001 339.187,178.334 342,181.5C 342.333,180.833 342.667,180.167 343,179.5C 343.5,180.667 344.333,181.5 345.5,182C 344.552,182.483 343.552,182.649 342.5,182.5C 342.993,184.806 343.326,187.139 343.5,189.5C 343.167,189.5 342.833,189.5 342.5,189.5C 340.167,189.5 337.833,189.5 335.5,189.5C 335.5,187.167 335.5,184.833 335.5,182.5C 337.248,172.591 338.248,162.591 338.5,152.5C 342.449,152.307 342.449,151.807 338.5,151C 339.102,142.273 338.102,133.606 335.5,125C 336.34,123.829 337.173,122.662 338,121.5C 339.087,123.932 339.587,123.598 339.5,120.5 Z"/></g>
<g><path style="opacity:1" fill="#663a25" d="M 362.5,160.5 C 362.5,161.167 362.5,161.833 362.5,162.5C 361.533,163.806 360.199,164.473 358.5,164.5C 358.083,167.343 357.083,170.01 355.5,172.5C 354.833,171.5 354.167,170.5 353.5,169.5C 351.216,170.416 350.049,169.416 350,166.5C 350.018,171.235 349.852,175.902 349.5,180.5C 348.127,180.657 346.793,180.49 345.5,180C 346.167,179.667 346.833,179.333 347.5,179C 346.331,176.993 345.665,174.827 345.5,172.5C 345.5,171.5 345.5,170.5 345.5,169.5C 346.309,168.531 347.309,167.698 348.5,167C 347.549,166.282 347.383,165.449 348,164.5C 348.654,165.696 349.154,165.696 349.5,164.5C 349.023,163.522 348.357,162.689 347.5,162C 348.167,161.667 348.833,161.333 349.5,161C 347.346,158.237 347.18,155.404 349,152.5C 349.333,153.167 349.667,153.833 350,154.5C 350.667,151.833 351.333,151.833 352,154.5C 352.667,151.833 353.333,151.833 354,154.5C 354.667,152.5 355.333,150.5 356,148.5C 356.667,149.833 357.333,151.167 358,152.5C 358.414,152.043 358.914,151.709 359.5,151.5C 361.365,154.226 362.365,157.226 362.5,160.5 Z"/></g>
<g><path style="opacity:1" fill="#5d3929" d="M 362.5,162.5 C 365.706,166.154 367.373,170.487 367.5,175.5C 367.708,177.92 367.374,180.253 366.5,182.5C 367.297,184.132 368.297,185.632 369.5,187C 369.355,187.772 369.022,188.439 368.5,189C 369.793,189.49 371.127,189.657 372.5,189.5C 372.868,192.533 372.202,195.2 370.5,197.5C 369.167,197.5 367.833,197.5 366.5,197.5C 367.47,191.972 365.303,187.972 360,185.5C 359.426,182.437 358.092,179.771 356,177.5C 355.667,178.167 355.333,178.833 355,179.5C 354.558,177.321 353.558,176.655 352,177.5C 351.008,182.018 349.174,186.018 346.5,189.5C 345.5,189.5 344.5,189.5 343.5,189.5C 343.326,187.139 342.993,184.806 342.5,182.5C 343.552,182.649 344.552,182.483 345.5,182C 344.333,181.5 343.5,180.667 343,179.5C 342.667,180.167 342.333,180.833 342,181.5C 339.187,178.334 339.187,175.001 342,171.5C 342.927,174.706 344.093,175.039 345.5,172.5C 345.665,174.827 346.331,176.993 347.5,179C 346.833,179.333 346.167,179.667 345.5,180C 346.793,180.49 348.127,180.657 349.5,180.5C 349.852,175.902 350.018,171.235 350,166.5C 350.049,169.416 351.216,170.416 353.5,169.5C 354.167,170.5 354.833,171.5 355.5,172.5C 357.083,170.01 358.083,167.343 358.5,164.5C 360.199,164.473 361.533,163.806 362.5,162.5 Z"/></g>
<g><path style="opacity:1" fill="#453028" d="M 394.5,168.5 C 395.261,173.437 396.595,178.103 398.5,182.5C 398.833,185.167 399.167,187.833 399.5,190.5C 397.5,190.5 395.5,190.5 393.5,190.5C 393.484,193.881 391.984,196.214 389,197.5C 387.624,197.316 386.791,196.649 386.5,195.5C 388.085,194.998 388.585,193.998 388,192.5C 386.736,190.393 384.903,189.393 382.5,189.5C 382.599,192.237 382.265,194.904 381.5,197.5C 377.833,197.5 374.167,197.5 370.5,197.5C 372.202,195.2 372.868,192.533 372.5,189.5C 371.127,189.657 369.793,189.49 368.5,189C 369.022,188.439 369.355,187.772 369.5,187C 368.297,185.632 367.297,184.132 366.5,182.5C 367.374,180.253 367.708,177.92 367.5,175.5C 369.22,174.249 369.553,172.749 368.5,171C 369.944,170.219 371.277,170.386 372.5,171.5C 369.379,176.409 370.712,177.743 376.5,175.5C 377.604,176.631 377.271,177.465 375.5,178C 376.126,178.75 376.626,179.584 377,180.5C 377.862,178.913 378.529,177.246 379,175.5C 379.41,176.901 379.91,178.234 380.5,179.5C 378.836,185.89 381.169,188.89 387.5,188.5C 387.425,185.794 387.092,183.127 386.5,180.5C 385.448,180.649 384.448,180.483 383.5,180C 385.577,179.808 387.577,179.308 389.5,178.5C 387.219,177.815 384.886,177.649 382.5,178C 383.5,177.167 384.5,176.333 385.5,175.5C 384.768,173.039 384.435,170.706 384.5,168.5C 386.113,168.056 387.28,167.056 388,165.5C 388.667,168.167 389.333,170.833 390,173.5C 390.667,172.167 391.333,172.167 392,173.5C 392.374,171.509 393.207,169.842 394.5,168.5 Z"/></g>
<g><path style="opacity:1" fill="#6f5951" d="M 385.5,120.5 C 389.322,129.984 393.322,139.317 397.5,148.5C 399.033,158.844 401.7,168.844 405.5,178.5C 407.006,182.875 408.339,187.209 409.5,191.5C 409.5,193.833 409.5,196.167 409.5,198.5C 407.167,198.5 404.833,198.5 402.5,198.5C 403.108,195.938 402.942,193.271 402,190.5C 401.08,187.027 399.913,184.36 398.5,182.5C 396.595,178.103 395.261,173.437 394.5,168.5C 394.341,165.634 393.341,163.968 391.5,163.5C 392.705,162.005 392.705,160.672 391.5,159.5C 391.5,158.167 391.5,156.833 391.5,155.5C 392.497,155.53 393.164,155.03 393.5,154C 390.908,145.041 387.908,136.207 384.5,127.5C 385.167,127.167 385.833,126.833 386.5,126.5C 385.652,124.591 385.318,122.591 385.5,120.5 Z"/></g>
<g><path style="opacity:1" fill="#402c24" d="M 366.5,197.5 C 360.5,197.5 354.5,197.5 348.5,197.5C 346.774,195.18 346.107,192.513 346.5,189.5C 349.174,186.018 351.008,182.018 352,177.5C 353.558,176.655 354.558,177.321 355,179.5C 355.333,178.833 355.667,178.167 356,177.5C 358.092,179.771 359.426,182.437 360,185.5C 365.303,187.972 367.47,191.972 366.5,197.5 Z"/></g>
<g><path style="opacity:1" fill="#a77156" d="M 386.5,195.5 C 385.221,196.968 383.554,197.635 381.5,197.5C 382.265,194.904 382.599,192.237 382.5,189.5C 384.903,189.393 386.736,190.393 388,192.5C 388.585,193.998 388.085,194.998 386.5,195.5 Z"/></g>
<g><path style="opacity:1" fill="#ac9891" d="M 402.5,198.5 C 383.5,198.5 364.5,198.5 345.5,198.5C 345.5,198.167 345.5,197.833 345.5,197.5C 346.5,197.5 347.5,197.5 348.5,197.5C 354.5,197.5 360.5,197.5 366.5,197.5C 367.833,197.5 369.167,197.5 370.5,197.5C 374.167,197.5 377.833,197.5 381.5,197.5C 383.554,197.635 385.221,196.968 386.5,195.5C 386.791,196.649 387.624,197.316 389,197.5C 391.984,196.214 393.484,193.881 393.5,190.5C 395.5,190.5 397.5,190.5 399.5,190.5C 399.167,187.833 398.833,185.167 398.5,182.5C 399.913,184.36 401.08,187.027 402,190.5C 402.942,193.271 403.108,195.938 402.5,198.5 Z"/></g>
</svg>
